<?xml version="1.0" encoding="utf-8"?>
<!-- Generator: Adobe Illustrator 24.0.1, SVG Export Plug-In . SVG Version: 6.00 Build 0)  -->
<svg version="1.1" id="Слой_1" xmlns="http://www.w3.org/2000/svg" xmlns:xlink="http://www.w3.org/1999/xlink" x="0px" y="0px"
	 viewBox="0 0 172 172" style="enable-background:new 0 0 172 172;" xml:space="preserve">
<style type="text/css">
	.st0{fill:none;}
	.st1{fill:#FABF82;}
	.st2{fill:#EE3E54;}
	.st3{fill:#FDDBBC;}
	.st4{fill:#512C2B;}
	.st5{fill:#472B29;}
	.st6{fill:#895D3D;}
	.st7{fill:#88CDD7;}
	.st8{fill:#BE7841;}
	.st9{fill:#00A5A5;}
</style>
<g>
	<path class="st0" d="M0,172V0h172v172H0z"/>
	<g>
		<g>
			<path class="st1" d="M167.8,114.4c-0.9-5-2.8-7.8-7.8-9.4c-0.3,0-0.6-0.3-0.9-0.3c-0.3,0-0.9-0.3-1.2-0.6
				c-2.8-1.2-19.9-7.5-19.9-7.5c-1.2-0.3-2.2-1.2-2.8-2.5c-0.9-1.9-0.6-6.5-0.6-6.5s-7.2,2.5-11.5,3.1c-4.4,0.3-13.7-5.3-13.7-5.3
				s-0.3,6.9-0.6,8.4c-0.3,1.2-1.6,2.2-2.8,2.5l-16.2,5.9c-1.9,0.6-3.4,1.2-5,2.2c-4.1,2.5-6.2,6.2-7.2,9.7c0,0-0.9,7.5-0.9,7.8
				c0,0.9-0.3,2.2-0.3,3.4c17.8,12.2,32.1,15.3,56.4,14.3c11.2-0.6,27.7-5.9,36.5-10.3C168.7,120,167.8,114.4,167.8,114.4
				L167.8,114.4z"/>
			<path class="st2" d="M160.3,105.4c-0.3,0-0.6-0.3-0.9-0.3s-0.9-0.3-1.2-0.6c-1.9-0.6-9-3.4-14-5.3h-0.3c-5.6,2.8-14,7.5-21.5,7.5
				c-7.5,0-15-4.1-21.5-7.5l-0.6,0.3l-10.3,3.7c-1.9,0.6-3.4,1.2-5,2.2c-4.1,2.5-6.2,6.2-7.2,9.7c0,0-0.9,7.5-0.9,7.8
				c0,0.9-0.3,12.5-0.3,13.7c17.8,12.2,32.1,15.3,56.4,14.3c11.2-0.6,27.7-5.9,36.5-10.3c-0.3-9.7-1.2-25.6-1.2-25.6
				C166.8,109.7,164.9,106.6,160.3,105.4z"/>
			<path class="st3" d="M150.3,53.6c-0.3,0-0.6,0-0.9,0c-2.2,0-2.8,0.6-2.8-0.6c0.3-2.5-0.3-12.2-0.3-12.8c0-10.3-10.6-18.4-24-19
				l0,0h-0.3h-0.3l0,0c-13.4,0.3-24,8.7-24,19c0,0.6-0.3,10.3-0.3,12.8c0,1.2-0.6,0.6-2.8,0.6c-0.3,0-0.6,0-0.9,0
				c-2.5,0.3-4.4,1.6-4.7,3.7c0.3,0.3,1.2,8.4,3.1,11.8c0.9,1.9,2.5,2.2,4.1,3.4c0.9,0.6,0.9,1.2,1.2,2.5c0.9,3.7,3.4,6.9,6.2,9.4
				c1.2,1.2,10.3,10.9,18.1,10.3c7.8-0.3,16.5-9,18.1-10.3c2.8-2.5,5.3-5.6,6.2-9.4c0.3-0.9,0.3-1.9,1.2-2.5
				c1.6-1.2,3.1-1.6,4.1-3.4c1.9-3.4,2.8-11.5,3.1-11.8C154.7,55.5,152.8,54,150.3,53.6L150.3,53.6z"/>
			<path class="st4" d="M122.6,69.9c1.6,0,3.1-0.6,4.1-1.9v-0.3l0,0h-0.3c-0.9,0.9-2.2,1.6-3.7,1.6s-2.8-0.6-3.7-1.6c0,0,0,0-0.3,0
				c0,0,0,0-0.3,0V68C119.4,69.2,121,69.9,122.6,69.9z M117.6,49l0.9-1.9c-4.1-0.9-9-0.9-13.1,0.3l1.2,1.9
				C110.1,48,114.1,48,117.6,49z M138.5,49l0.9-1.9c-4.1-0.9-9-0.9-13.1,0.3l1.2,1.9C131,48,135,48,138.5,49z M111.3,51.5
				c-0.9,0-1.9,0.6-2.5,1.6h0.3c0.9,0,1.6,0.6,1.6,1.6s-0.6,1.6-1.6,1.6c-0.3,0-0.6,0-0.6-0.3c0.3,1.6,1.6,2.5,2.8,2.5
				c1.6,0,2.8-1.6,2.8-3.7C114.1,53,112.9,51.5,111.3,51.5z M133.5,51.5c-0.9,0-1.6,0.6-2.2,1.2c0.3,0,0.3,0,0.6,0
				c0.9,0,1.6,0.6,1.6,1.6s-0.6,1.6-1.6,1.6c-0.6,0-0.9-0.3-1.2-0.6c0,1.9,1.2,3.4,2.8,3.4c1.6,0,2.8-1.6,2.8-3.7
				C136.3,53,135,51.5,133.5,51.5z M134.4,74.2v-0.3l0,0h-0.3c-2.5,2.2-6.9,3.1-11.8,3.1c-5,0-9-1.2-11.8-3.1c0,0,0,0-0.3,0h-0.3
				v0.3c2.8,2.5,7.5,3.7,12.2,3.7C127.2,78,131.6,76.7,134.4,74.2z M125.7,86.4l0.3-0.3c0,0,0-0.3-0.3-0.3h-5.9l-0.3,0.3
				c0,0,0,0.3,0.3,0.3H125.7z"/>
			<path class="st5" d="M124.7,152.4c-20.6,0-33.7-4.1-49.6-14.6c-0.6-0.3-0.6-0.9-0.6-1.6c0-0.3,0-0.9,0-2.2c0-5,0.3-15.3,1.2-19.6
				c1.6-5.6,3.7-7.8,7.8-10.3c1.6-0.9,3.4-1.9,5.6-2.2l16.2-5.9c1.2-0.3,1.9-0.9,1.9-1.6c0-0.3,0.3-1.2,0.3-4.4
				c-2.2-1.6-4.1-3.1-4.7-3.7c-3.7-3.4-5.6-6.9-6.5-10.3c-0.3-0.9-0.3-1.2-0.6-1.6c-0.3-0.3-0.9-0.6-1.2-0.9
				c-1.2-0.6-2.5-1.2-3.1-3.1C89.5,66.7,88,59.9,88,57.7v-0.3c0.6-2.8,3.1-4.7,6.2-5c0.3,0,0.6,0,0.9,0s0.9,0,1.2,0
				c0-2.8,0-8.4,0.3-10.9v-1.2c0-10.9,10.9-20.3,25.2-20.6h0.3h0.3l0,0h0.3c14,0.6,25.2,9.7,25.2,20.6v1.2c0,2.5,0.3,8.1,0.3,10.9
				c0.3,0,0.6,0,1.2,0c0.3,0,0.6,0,0.9,0c3.1,0.3,5.6,2.2,6.2,5v0.3c0,2.5-1.6,9-3.4,12.8c-0.9,1.6-2.2,2.5-3.1,3.1
				c-0.3,0.3-0.9,0.6-1.2,0.9c-0.3,0.3-0.6,0.6-0.6,1.6c-0.9,3.4-2.8,6.9-6.5,10.3c-0.6,0.6-2.5,2.2-5,4.1c0,2.5,0.3,3.4,0.3,3.7
				c0.3,0.9,0.9,1.6,1.9,1.6c0.9,0.3,17.1,6.2,19.9,7.5c0.6,0.3,0.9,0.3,1.2,0.6c0.3,0,0.3,0.3,0.6,0.3c5,1.6,7.5,4.7,8.7,10.3
				c0,0,0,0,0,0.3c0,0,0.9,15.9,1.2,25.6c0,0.6-0.3,1.2-0.9,1.6c-9.4,4.7-26.2,10-37.1,10.6C130,152.4,127.5,152.4,124.7,152.4
				L124.7,152.4z M78,135.6c16.8,11.2,30.9,14.6,54.9,13.7c10.3-0.3,25.6-5.3,34.9-9.7c-0.3-9.4-1.2-23.1-1.2-24.3
				c-0.9-4.7-2.8-6.9-6.5-7.8c-0.3,0-0.6-0.3-0.9-0.3c-0.3-0.3-0.9-0.3-1.2-0.6c-2.8-1.2-19.6-7.5-19.9-7.5
				c-1.6-0.3-2.8-1.6-3.7-3.1c-0.6-1.2-0.9-3.1-0.6-5.9c0-0.6,0.3-0.9,0.6-1.2c2.8-1.9,4.7-3.7,5.3-4.1c3.1-3.1,5-5.9,5.6-8.7
				c0.3-1.2,0.6-2.2,1.9-3.4c0.6-0.3,1.2-0.6,1.6-0.9c0.9-0.6,1.6-0.9,1.9-1.9c1.6-3.1,2.8-9,3.1-10.9c-0.3-1.2-1.9-2.2-3.4-2.2
				c-0.3,0-0.6,0-0.6,0c-0.6,0-1.2,0-1.6,0c-0.6,0-1.2,0.3-2.2-0.3c-0.6-0.6-0.6-1.6-0.6-1.9c0-1.9,0-9,0-11.5c0-0.6,0-1.2,0-1.2
				c0-9.4-10-17.1-22.4-17.8c0,0,0,0-0.3,0l0,0c0,0,0,0-0.3,0c-12.5,0.3-22.4,8.1-22.4,17.8c0,0,0,0.6,0,1.2c0,2.5-0.3,9.7,0,11.5
				c0,0.3,0,1.2-0.6,1.9c-0.6,0.6-1.6,0.6-2.2,0.3c-0.3,0-0.9,0-1.6,0c-0.3,0-0.6,0-0.9,0c-1.6,0-3.1,0.9-3.4,2.2
				c0,2.2,1.2,8.1,3.1,10.9c0.3,0.9,0.9,1.2,1.9,1.9c0.6,0.3,1.2,0.6,1.6,0.9c1.2,0.9,1.6,2.2,1.9,3.1c0.6,2.8,2.5,5.6,5.6,8.7
				c0.3,0.3,2.2,1.9,5,3.7c0.3,0.3,0.6,0.9,0.6,1.2c-0.3,4.4-0.3,5.3-0.3,5.6c-0.3,1.9-2.2,3.4-4.1,3.7l-16.2,5.9
				c-1.9,0.6-3.4,1.2-4.7,1.9c-3.7,2.2-5.3,4.1-6.5,8.7c-0.9,3.7-1.2,14.3-1.2,18.7C78,134.7,78,135.3,78,135.6L78,135.6z"/>
			<path class="st6" d="M150.6,64.9l-1.9-0.3l0.3-3.7l-1.9,0.9l-0.6-1.9l3.4-1.6c0.3,0,0.6,0,0.9,0c0.3,0.3,0.3,0.6,0.3,0.9
				L150.6,64.9z M94.8,64.2l-0.6-5.3c0-0.3,0-0.6,0.3-0.9c0.3-0.3,0.6-0.3,0.9,0l3.4,1.6l-0.6,1.9l-2.2-0.9l0.3,3.7H94.8z"/>
			<path class="st5" d="M97.9,74.5L97.9,74.5c-0.3,0-0.6-0.3-0.6-0.6l0.3-19.6c0-0.3,0.3-0.6,0.6-0.6c0.3,0,0.6,0.3,0.6,0.6
				l-0.3,19.6C98.6,74.2,98.2,74.5,97.9,74.5z M146.9,74.5c-0.3,0-0.6-0.3-0.6-0.6l-0.3-19.6c0-0.3,0.3-0.6,0.6-0.6l0,0
				c0.3,0,0.6,0.3,0.6,0.6l0.3,19.6C147.5,74.2,147.2,74.5,146.9,74.5z"/>
			<g>
				<path class="st5" d="M122.6,95.4c-5,0-13.1-5.9-13.4-6.2c-0.3-0.3-0.3-0.6-0.3-0.9c0.3-0.3,0.6-0.3,0.9-0.3
					c2.5,1.9,9.4,6.2,13.1,5.9c4.4-0.6,11.2-5.3,11.2-5.3c0.3-0.3,0.9-0.3,0.9,0.3c0.3,0.3,0.3,0.9-0.3,0.9
					C134.4,90.1,127.2,95.1,122.6,95.4C122.9,95.4,122.9,95.4,122.6,95.4z"/>
			</g>
			<g>
				<path class="st4" d="M94.2,30.3c0.9-2.2,3.7-2.5,3.7-2.5s-2.5-3.1-1.6-4.4c0.9-1.6,9.4-11.2,30.5-9
					c21.2,2.2,23.7,15.9,23.7,15.9l-4.4,24.9c0,0-8.4-24.6-42.4-19.9c0,0,1.6,3.1-5.6,15.6C98.2,50.8,94.2,30.3,94.2,30.3z"/>
			</g>
		</g>
		<g>
			<path class="st1" d="M94.2,116.3c-0.9-5-2.8-7.8-7.5-9c-0.3,0-0.6-0.3-0.9-0.3s-0.9-0.3-1.2-0.6c-2.8-1.2-19.6-7.5-19.6-7.5
				c-1.2-0.3-2.2-1.2-2.8-2.5c-0.9-1.9-0.6-6.5-0.6-6.5s-6.9,2.5-11.2,3.1c-4.4,0.3-13.4-5-13.4-5s-0.3,6.9-0.6,8.4
				c-0.3,1.2-1.6,2.2-2.8,2.5l-16.2,5.9c-1.9,0.3-3.4,1.2-5,2.2c-4.1,2.5-6.2,6.2-7.2,9.4c0,0-0.9,7.5-0.9,7.8
				c0,0.9-0.3,2.2-0.3,3.4c17.5,11.8,31.5,15.3,55.8,14c10.9-0.6,27.4-5.9,35.8-10.3C95.1,121.9,94.2,116.3,94.2,116.3z"/>
			<path class="st7" d="M86.7,107.6c-0.3-0.3-0.6-0.3-0.9-0.3s-0.9-0.3-1.2-0.6c-1.9-0.6-8.7-3.4-14-5.3h-0.3
				c-5.6,2.8-13.7,7.2-21.2,7.2s-15-4.1-21.2-7.2l-0.6,0.3l-9.7,3.4c-1.9,0.3-3.4,1.2-5,2.2c-4.1,2.5-6.2,6.2-7.2,9.4
				c0,0-0.9,7.5-0.9,7.8c0,0.9-0.3,12.2-0.3,13.4c17.5,11.8,31.5,15.3,55.8,14c10.6-0.3,27.1-5.9,35.5-10.3
				c-0.3-9.4-1.2-24.9-1.2-24.9C93.3,111.6,91.4,108.8,86.7,107.6z"/>
			<path class="st8" d="M25,62.1c-0.3-0.9-8.7-19.6-2.5-32.1c2.8-5.3,7.5-8.7,14.3-10.3c4.1-2.8,8.7-4.1,13.4-4.1
				c4.1,0,7.8,0.9,11.2,3.1c1.9,0.9,3.4,1.9,4.7,2.8c4.1,2.5,5.3,3.1,7.5,3.1c0.3,0,0.6,0,0.9,0c0.6,0,0.9,0,1.2,0
				c2.5,0,3.1,1.6,3.1,2.5c0.3,2.5-0.6,4.7-1.2,6.5c-0.6,1.6-1.2,2.8-0.9,4.1c4.1,13.7-2.2,24.9-2.5,25.6l-2.8,5v-5.6
				c0,0,0-10-2.2-16.8c-3.1,1.6-6.9,2.5-11.2,2.5c-7.2,0-15.3-2.5-23.4-7.5c-6.9,5.6-6.9,21.8-6.9,21.8v7.2L25,62.1z"/>
			<path class="st5" d="M49.9,16.9c3.4,0,6.9,0.9,10.6,2.8c8.1,4.4,9.4,5.9,13.1,5.9c0.3,0,0.6,0,0.9,0s0.9,0,1.2,0
				c0.9,0,1.6,0.3,1.6,0.9c0.6,4.1-3.1,7.5-2.2,10.6c4.1,13.4-2.5,24.3-2.5,24.3s0-12.2-3.1-19c-3.1,2.2-7.2,3.1-11.8,3.1
				c-6.9,0-15-2.5-23.4-8.1c-8.4,5.6-8.1,23.7-8.1,23.7S10.3,26.5,37.5,20.6C40.9,18.4,45.3,16.9,49.9,16.9 M49.9,13.7
				c-5,0-9.7,1.6-14,4.4c-7.2,1.6-12.2,5.3-15,11.2c-6.9,13.4,1.9,32.7,2.2,33.7l5.9,13.1V61.4c0-4.1,0.9-15,5.3-19.9
				c7.8,4.7,15.9,7.2,23.1,7.2c3.7,0,7.2-0.6,10.3-1.9c1.6,6.2,1.6,14.6,1.6,14.6V73l5.9-10c0.3-0.6,7.2-12.2,2.8-26.8
				c-0.3-0.6,0.3-1.9,0.9-2.8c0.9-1.9,1.9-4.4,1.2-7.2c-0.3-1.9-1.6-3.7-4.7-3.7c-0.3,0-0.6,0-1.2,0h-0.3c-0.3,0-0.6,0-0.6,0
				c-1.9,0-2.8-0.6-6.9-2.8c-1.2-0.6-2.8-1.6-4.7-2.8C58.3,14.7,54.3,13.7,49.9,13.7z"/>
			<path class="st9" d="M19.4,147.5c-0.6,0-0.9-0.3-0.9-0.9v-9c0-0.6,0.3-0.9,0.9-0.9c0.6,0,0.9,0.3,0.9,0.9v9
				C20.3,147.1,19.7,147.5,19.4,147.5z M78.6,149c-0.6,0-0.9-0.3-0.9-0.9v-10.6c0-0.6,0.3-0.9,0.9-0.9c0.6,0,0.9,0.3,0.9,0.9v10.6
				C79.5,148.7,79.2,149,78.6,149z"/>
			<path class="st3" d="M76.7,56.4c-0.3,0-0.6,0-0.9,0c-2.2,0-1.9,0.6-1.9-0.6c0.3-2.5-0.9-12.2-0.9-12.5c0-10-10.6-18.4-23.7-18.7
				l0,0H49h-0.3l0,0C35.6,25,25,33.4,25,43.4c0,0.6-0.3,10.3-0.3,12.5c0,1.2-0.6,0.6-2.8,0.6c-0.3,0-0.6,0-0.9,0
				c-2.5,0.3-4.4,1.6-4.7,3.4c0.3,0.3,1.2,8.4,3.1,11.5c0.9,1.9,2.5,2.2,4.1,3.1c0.9,0.6,0.9,1.2,1.2,2.5c0.9,3.7,3.4,6.5,5.9,9.4
				c1.2,1.2,10.3,10.6,17.8,10.3c7.5-0.3,16.5-9,17.8-10.3c2.8-2.5,5.3-5.6,5.9-9.4c0.3-0.9,0.3-1.6,1.2-2.5
				c1.6-1.2,3.1-1.6,4.1-3.1c1.9-3.1,2.8-11.5,3.1-11.5C81.1,58.3,79.2,56.8,76.7,56.4L76.7,56.4z"/>
			<path class="st4" d="M49.3,72.7c1.6,0,3.1-0.6,4.1-1.9v-0.3l0,0h-0.3c-0.9,0.9-2.2,1.6-3.4,1.6c-1.2,0-2.8-0.6-3.4-1.6
				c0,0,0,0-0.3,0c0,0,0,0-0.3,0v0.3C46.5,71.7,47.8,72.7,49.3,72.7z M44.6,51.8l0.9-1.9c-4.1-0.9-9-0.9-12.8,0.3l1.2,1.9
				C37.2,51.1,41.2,50.8,44.6,51.8z M65.2,51.8l0.9-1.9c-4.1-0.9-8.7-0.9-12.8,0.3l1.2,1.9C57.7,51.1,61.8,50.8,65.2,51.8z
				 M38.7,54.3c-0.9,0-1.9,0.6-2.5,1.6h0.3c0.9,0,1.6,0.6,1.6,1.6s-0.6,1.6-1.6,1.6c-0.3,0-0.6,0-0.6-0.3c0.3,1.6,1.6,2.5,2.8,2.5
				c1.6,0,2.8-1.6,2.8-3.7S40.3,54.3,38.7,54.3z M60.2,54.3c-0.9,0-1.6,0.6-2.2,1.2c0.3,0,0.3,0,0.6,0c0.9,0,1.6,0.6,1.6,1.6
				s-0.6,1.6-1.6,1.6c-0.6,0-0.9-0.3-1.2-0.6c0,1.9,1.2,3.4,2.8,3.4c1.6,0,2.8-1.6,2.8-3.7C63,55.8,61.8,54.3,60.2,54.3z M61.5,76.7
				v-0.3l0,0h-0.3c-2.5,2.2-6.9,3.1-11.5,3.1s-9-1.2-11.5-3.1c0,0,0,0-0.3,0h-0.3v0.3c2.8,2.5,7.5,3.7,11.8,3.7
				C54,80.4,58.3,79.2,61.5,76.7z M52.7,88.6l0.3-0.3c0,0,0-0.3-0.3-0.3h-5.9l-0.3,0.3c0,0,0,0.3,0.3,0.3H52.7z"/>
			<path class="st5" d="M51.8,154c-20.3,0-33-4.1-48.6-14.6c-0.6-0.3-0.6-0.9-0.6-1.6c0-0.3,0-0.9,0-2.2c0-5,0.3-15.3,1.2-19.3
				c1.6-5.6,3.7-7.8,7.8-10.3c1.6-0.9,3.4-1.6,5.3-2.2l15.9-5.9c0.9-0.3,1.9-0.9,1.9-1.2c0-0.6,0.3-2.2,0.3-4.4
				c-2.2-1.6-4.1-3.1-4.7-3.4c-3.4-3.4-5.6-6.5-6.5-10c-0.3-0.9-0.3-1.2-0.6-1.6c-0.3-0.3-0.9-0.6-1.2-0.9c-0.9-0.6-2.2-1.2-3.1-2.8
				c-1.9-3.7-3.4-10.3-3.4-12.5v-0.3c0.6-2.5,3.1-4.7,6.2-4.7c0.3,0,0.6,0,0.9,0c0.3,0,0.6,0,1.2,0c0-2.8,0-8.1,0.3-10.6v-1.2
				C24.1,33.4,35,24.3,49,23.7h0.3h0.3l0,0h0.3c14,0.6,24.9,9.7,24.9,20.6c0,0,0,0.9,0.3,1.6c0.3,3.7,0.9,8.1,0.9,10l0,0
				c0.6,0,0.9,0,1.2,0c3.1,0.3,5.6,2.2,6.2,4.7v0.3c0,2.5-1.6,9-3.4,12.5c-0.9,1.6-2.2,2.5-3.1,2.8c-0.3,0.3-0.9,0.6-1.2,0.9
				c-0.3,0.3-0.3,0.6-0.6,1.6c-0.9,3.4-2.8,6.5-6.5,10.3c-0.6,0.6-2.5,2.2-5,4.1c0,2.5,0.3,3.4,0.3,3.7c0.3,0.9,0.9,1.2,1.9,1.6
				c0.9,0.3,16.8,6.2,19.6,7.5c0.6,0.3,0.9,0.3,1.2,0.6c0.3,0,0.3,0.3,0.6,0.3c5,1.6,7.5,4.7,8.7,10.3c0,0,0,0,0,0.3
				c0,0,0.9,15.6,1.2,25.2c0,0.6-0.3,1.2-0.9,1.6c-9,4.7-25.6,10-36.5,10.3C56.8,153.7,54.3,154,51.8,154z M5.4,137.2
				c16.5,10.9,30.2,14.3,53.9,13.4c10-0.3,25.2-5.3,34.3-9.7c-0.3-9-1.2-22.8-1.2-24c-0.9-4.4-2.5-6.5-6.5-7.8
				c-0.3,0-0.6-0.3-0.9-0.3c-0.3-0.3-0.9-0.3-1.2-0.6c-2.5-0.9-19-7.2-19-7.2c-1.6-0.3-2.8-1.6-3.7-3.1c-0.3-0.3-0.9-1.9-0.6-5.9
				c0-0.6,0.3-0.9,0.6-1.2c2.5-1.9,4.7-3.7,5.3-4.1c3.1-3.1,5-5.9,5.6-8.7c0.3-1.2,0.6-2.2,1.9-3.1c0.6-0.3,1.2-0.6,1.6-0.9
				c0.9-0.6,1.6-0.9,1.9-1.6c1.6-3.1,2.8-8.7,2.8-10.9c-0.3-1.2-1.6-2.2-3.1-2.2c-0.3,0-0.3,0-0.6,0h-0.3c-1.2,0-2.2,0-2.8-0.9
				c-0.6-0.6-0.6-1.2-0.3-1.9c0-1.9-0.3-7.5-0.6-10c0-1.2-0.3-1.9-0.3-1.9c0-9.4-9.7-16.8-22.1-17.5c0,0,0,0-0.3,0l0,0
				c0,0,0,0-0.3,0c-12.5,0.3-22.1,8.1-22.1,17.5c0,0,0,0.6,0,1.2c0,2.5-0.3,9.4,0,11.2c0,0.3,0,1.2-0.6,1.9
				c-0.6,0.6-1.6,0.6-2.2,0.3c-0.3,0-0.9,0-1.6,0c-0.3,0-0.6,0-0.6,0c-1.6,0-2.8,0.9-3.4,2.2c0,2.2,1.2,8.1,2.8,10.9
				c0.3,0.9,0.9,1.2,1.9,1.6c0.6,0.3,1.2,0.6,1.6,0.9c1.2,0.9,1.6,2.2,1.9,3.1c0.6,2.8,2.5,5.6,5.6,8.7c0.3,0.3,2.2,1.9,5,3.7
				c0.3,0.3,0.6,0.9,0.6,1.2c0,2.8-0.3,4.7-0.3,5.6c-0.3,1.9-2.2,3.4-4.1,3.7l-15.9,5.9c-1.9,0.6-3.4,1.2-4.7,1.9
				c-3.7,2.2-5.3,3.7-6.5,8.4c-0.9,3.7-1.2,14-1.2,18.4C5.4,136.2,5.4,136.9,5.4,137.2L5.4,137.2z"/>
			<path class="st6" d="M77.4,67.7l-1.9-0.3l0.3-3.4l-1.9,0.9L73.3,63l3.4-1.6c0.3,0,0.6,0,0.9,0c0.3,0.3,0.3,0.6,0.3,0.9L77.4,67.7
				z M22.2,66.7l-0.6-5.3c0-0.3,0-0.6,0.3-0.9c0.3-0.3,0.6-0.3,0.9,0l3.4,1.6l-0.6,1.9L23.8,63l0.3,3.4L22.2,66.7z"/>
			<path class="st5" d="M25.3,77L25.3,77c-0.3,0-0.6-0.3-0.6-0.6L25,56.8c0-0.3,0.3-0.6,0.6-0.6l0,0c0.3,0,0.6,0.3,0.6,0.6
				l-0.3,19.6C25.9,76.7,25.6,77,25.3,77z M73.6,77c-0.3,0-0.6-0.3-0.6-0.6l-0.3-19.6c0-0.3,0.3-0.6,0.6-0.6l0,0
				c0.3,0,0.6,0.3,0.6,0.6l0.3,19.6C74.2,76.7,73.9,77,73.6,77z M49.6,97.6c-5,0-13.1-5.9-13.4-6.2c-0.3-0.3-0.3-0.6-0.3-0.9
				c0.3-0.3,0.6-0.3,0.9-0.3c2.5,1.9,9.4,6.2,12.8,5.9c4.4-0.6,11.2-5.3,11.2-5.3c0.3-0.3,0.9-0.3,0.9,0.3c0.3,0.3,0.3,0.9-0.3,0.9
				C61.2,92.3,54.3,97,49.6,97.6C49.9,97.6,49.6,97.6,49.6,97.6z"/>
			<path class="st8" d="M77.4,26.8c-0.3-1.2-1.6-0.9-2.8-0.9c-4.4,0.3-5.3-1.2-13.7-5.9c-8.7-4.7-17.5-2.8-23.4,1.2
				c-26.8,5.9-11.2,40.5-11.2,40.5s0-18.1,8.1-23.7c14,9,27.1,10,35.2,4.7c3.1,6.9,3.1,19,3.1,19s6.5-10.9,2.5-24.3
				C74.2,34,78,30.9,77.4,26.8z"/>
			<g>
				<path class="st5" d="M74.2,61.4h-1.6c0,0,0-11.2-2.8-17.8c-9,5.3-22.4,3.4-35.5-5c-7.5,5.6-7.5,22.8-7.5,22.8h-1.6
					c0-0.6,0-18.7,8.7-24.3c0.3-0.3,0.6-0.3,0.9,0c13.1,8.4,26.8,10.3,35.2,4.7c0.3,0,0.3,0,0.6,0c0.3,0,0.3,0.3,0.6,0.3
					C74.2,49,74.2,61.1,74.2,61.4z"/>
			</g>
		</g>
	</g>
</g>
</svg>
