<?xml version="1.0" encoding="utf-8"?>
<!-- Generator: Adobe Illustrator 24.0.1, SVG Export Plug-In . SVG Version: 6.00 Build 0)  -->
<svg version="1.1" id="Слой_1" xmlns="http://www.w3.org/2000/svg" xmlns:xlink="http://www.w3.org/1999/xlink" x="0px" y="0px"
	 viewBox="0 0 172 172" style="enable-background:new 0 0 172 172;" xml:space="preserve">
<style type="text/css">
	.st0{fill:none;}
	.st1{fill:url(#SVGID_1_);}
	.st2{fill:url(#SVGID_2_);}
	.st3{fill:url(#SVGID_3_);}
	.st4{fill:url(#SVGID_4_);}
	.st5{fill:url(#SVGID_5_);}
	.st6{fill:url(#SVGID_6_);}
	.st7{fill:url(#SVGID_7_);}
</style>
<g>
	<path class="st0" d="M0,172V0h172v172H0z"/>
	<g>
		
			<linearGradient id="SVGID_1_" gradientUnits="userSpaceOnUse" x1="86.742" y1="4.1153" x2="86.742" y2="74.0634" gradientTransform="matrix(1 0 0 -1 0 171.8898)">
			<stop  offset="0" style="stop-color:#3162AF"/>
			<stop  offset="0.299" style="stop-color:#3573C1"/>
			<stop  offset="0.706" style="stop-color:#3984D3"/>
			<stop  offset="1" style="stop-color:#3B8AD9"/>
		</linearGradient>
		<path class="st1" d="M169.4,56.3c0.5,1.5,0.6,3,0.3,4.5L119,67.6H54.5L3.7,60.9c-0.2-1.5-0.1-3.1,0.3-4.5c-1,3.1-0.4,6.7,1.9,9.4
			l70.1,81.9c5.6,6.5,15.7,6.5,21.3,0l70.1-81.9C169.8,63,170.4,59.5,169.4,56.3L169.4,56.3z"/>
		
			<linearGradient id="SVGID_2_" gradientUnits="userSpaceOnUse" x1="86.7426" y1="19.4101" x2="86.7426" y2="105.4458" gradientTransform="matrix(1 0 0 -1 0 171.8898)">
			<stop  offset="0" style="stop-color:#3162AF"/>
			<stop  offset="0.299" style="stop-color:#3573C1"/>
			<stop  offset="0.706" style="stop-color:#3984D3"/>
			<stop  offset="1" style="stop-color:#3B8AD9"/>
		</linearGradient>
		<path class="st2" d="M167.5,65.7l-70.1,81.9c-5.6,6.5-15.7,6.5-21.3,0L5.9,65.7c-3.5-4-3.1-10.1,0.8-13.7l37.8-34.7
			c2.8-2.6,6.5-4,10.3-4h63.8c3.8,0,7.5,1.4,10.3,4L166.7,52C170.6,55.6,171,61.7,167.5,65.7L167.5,65.7z"/>
		
			<linearGradient id="SVGID_3_" gradientUnits="userSpaceOnUse" x1="86.7434" y1="158.5714" x2="86.7434" y2="104.256" gradientTransform="matrix(1 0 0 -1 0 171.8898)">
			<stop  offset="0" style="stop-color:#64D6F2"/>
			<stop  offset="0" style="stop-color:#64D6F2"/>
			<stop  offset="0.36" style="stop-color:#5DD3F1"/>
			<stop  offset="0.867" style="stop-color:#4BCCEE"/>
			<stop  offset="1" style="stop-color:#45C9ED"/>
		</linearGradient>
		<path class="st3" d="M128.9,17.3c-2.8-2.6-6.5-4-10.3-4H54.8c-3.8,0-7.5,1.4-10.3,4L6.8,52c-2.5,2.3-3.6,5.7-3,8.9l50.8,6.8H119
			l50.8-6.8c0.5-3.2-0.5-6.5-3-8.9L128.9,17.3z"/>
		
			<linearGradient id="SVGID_4_" gradientUnits="userSpaceOnUse" x1="86.7434" y1="19.3881" x2="86.7434" y2="133.4743" gradientTransform="matrix(1 0 0 -1 0 171.8898)">
			<stop  offset="0" style="stop-color:#2D91DE"/>
			<stop  offset="1" style="stop-color:#2FA7F0"/>
		</linearGradient>
		<path class="st4" d="M119,67.6l-32.2,84.9L54.5,67.6H119z"/>
		
			<linearGradient id="SVGID_5_" gradientUnits="userSpaceOnUse" x1="86.7434" y1="86.4643" x2="86.7434" y2="140.7797" gradientTransform="matrix(1 0 0 -1 0 171.8898)">
			<stop  offset="0" style="stop-color:#2D91DE"/>
			<stop  offset="0.557" style="stop-color:#2EA1EB"/>
			<stop  offset="1" style="stop-color:#2FA7F0"/>
		</linearGradient>
		<path class="st5" d="M118.7,13.3H54.8c-2.4,0-4.8,0.6-6.9,1.7l6.6,52.6H119l6.6-52.6C123.4,14,121.1,13.3,118.7,13.3L118.7,13.3z"
			/>
		
			<linearGradient id="SVGID_6_" gradientUnits="userSpaceOnUse" x1="86.7434" y1="104.256" x2="86.7434" y2="158.5714" gradientTransform="matrix(1 0 0 -1 0 171.8898)">
			<stop  offset="0" style="stop-color:#479CDE"/>
			<stop  offset="0.515" style="stop-color:#48A9E8"/>
			<stop  offset="1" style="stop-color:#49AFED"/>
		</linearGradient>
		<path class="st6" d="M118.7,13.3H54.8c-2.4,0-4.8,0.6-6.9,1.7l6.6,52.6H119l6.6-52.6C123.4,14,121.1,13.3,118.7,13.3L118.7,13.3z"
			/>
		
			<linearGradient id="SVGID_7_" gradientUnits="userSpaceOnUse" x1="86.7434" y1="158.5714" x2="86.7434" y2="104.256" gradientTransform="matrix(1 0 0 -1 0 171.8898)">
			<stop  offset="0" style="stop-color:#64D6F2"/>
			<stop  offset="0" style="stop-color:#64D6F2"/>
			<stop  offset="0.36" style="stop-color:#5DD3F1"/>
			<stop  offset="0.867" style="stop-color:#4BCCEE"/>
			<stop  offset="1" style="stop-color:#45C9ED"/>
		</linearGradient>
		<path class="st7" d="M119,67.6H54.5l32.2-54.3L119,67.6z"/>
	</g>
</g>
</svg>
