<?xml version="1.0" encoding="utf-8"?>
<!-- Generator: Adobe Illustrator 24.0.1, SVG Export Plug-In . SVG Version: 6.00 Build 0)  -->
<svg version="1.1" id="Слой_1" xmlns="http://www.w3.org/2000/svg" xmlns:xlink="http://www.w3.org/1999/xlink" x="0px" y="0px"
	 viewBox="0 0 226 226" style="enable-background:new 0 0 226 226;" xml:space="preserve">
<style type="text/css">
	.st0{fill:none;}
	.st1{fill:#A3A3CD;}
	.st2{fill:#472B29;}
	.st3{fill:#7777AB;}
	.st4{fill:#E0757D;}
	.st5{fill:#84A7D7;}
</style>
<g>
	<path class="st0" d="M-104.5,329.3v-432.9h432.9v432.9H-104.5z"/>
	<g>
		<path class="st1" d="M214.5,126.5c1.3-10.2,1.1-20.3-0.6-30.1c-11.7,0.6-20.6-4.1-25.6-13.6c-0.4-0.8-0.8-1.5-1.1-2.3
			c-4.7-10.7-2.5-20.7,6.5-29.9c-6.3-8-13.6-15-21.8-20.7c-8.6,9.4-18.5,12-29.5,7.8c-7-2.6-11.9-7.1-14.6-13.2
			c-1.6-3.7-2.4-8-2.3-12.4c-10.1-1.2-20.2-0.9-30.2,0.9c0.4,12.1-4.4,20.7-14.4,25.6c2.7,8.1,0.1,16.6-1.6,24.7
			c-3.6,18.1-0.9,37,2.4,55c4.2,22.7,10.4,49.7,2.2,72.1c6.4,2.6,11,6.9,13.6,12.8c1.6,3.5,2.4,7.7,2.4,11.9
			c10,1.3,20.2,1.1,30.1-0.6c-0.2-12.3,4.9-20.9,15.2-25.7c10.9-5,21.1-3.1,30.4,5.8c5.7-3.7,17.6-16.2,20.8-21.6
			c-3.5-3.2-6-6.7-7.6-10.2c-2.6-6-2.6-12.5,0-19.4C193,132.3,201.6,126.6,214.5,126.5z M122.3,134.9c-11.8,5.2-25.6-0.2-30.7-12
			c-5.2-11.8,0.2-25.6,12-30.7c11.8-5.2,25.6,0.2,30.7,12C139.5,115.9,134.1,129.7,122.3,134.9z"/>
		<path class="st2" d="M124.1,138.9c14-6.1,20.4-22.5,14.2-36.6c-6.1-14-22.5-20.4-36.6-14.2c-14,6.1-20.4,22.5-14.2,36.6
			C93.7,138.7,110.1,145.1,124.1,138.9z M105.4,96.2c9.6-4.2,20.7,0.1,24.9,9.7c4.2,9.6-0.1,20.7-9.7,24.9
			c-9.6,4.2-20.7-0.1-24.9-9.7C91.5,111.6,95.8,100.4,105.4,96.2z"/>
		<path class="st2" d="M218,94.4c0-0.2-0.1-0.5-0.2-0.7h0c-0.5-1.2-1.7-1.9-3-1.7c-10.6,0.8-18.2-2.9-22.6-11.2
			c-0.3-0.7-0.7-1.3-1-2c-4.1-9.3-2-17.7,6.4-25.8c0.9-0.9,1.2-2.3,0.7-3.4c-0.1-0.2-0.2-0.4-0.4-0.6c-7-9.2-15.3-17-24.6-23.3
			c-1.3-0.9-3-0.7-4,0.5c-7.5,8.7-15.9,11.1-25.5,7.5c-5.9-2.2-9.9-5.8-12.1-10.9c-1.5-3.3-2.1-7.2-2.1-11.8c0-0.5-0.1-0.9-0.3-1.3
			C129,8.7,128.1,8,127,7.8c-11.3-1.5-22.7-1.2-33.8,1c-1.5,0.2-2.6,1.6-2.5,3.2c0.7,11-3.2,18.4-11.9,22.6c0.7,0.9,1.2,1.9,1.7,2.9
			c0.7,1.8,1.1,3.6,1.3,5.5c0.1,0,0.1-0.1,0.2-0.1c7.8-3.6,16.7-11.1,17.6-26.2c7.1-1,14.3-1.2,21.5-0.6c0.4,3.7,1.2,7.1,2.6,10.2
			c3.2,7.3,9,12.5,17.1,15.6c8.3,3.2,20.1,4.4,31.6-6.1c5.7,4.3,10.9,9.2,15.6,14.8c-10,12.1-8.2,23.8-4.7,31.8
			c0.4,0.8,0.8,1.7,1.3,2.6c5.2,9.8,14.1,15.3,25.7,15.9c1,7.1,1.1,14.3,0.5,21.5c-15.7,1.5-22.7,11.2-25.9,19.5
			c-3.1,8-3,15.6,0.1,22.7c1.4,3.1,3.3,6.1,5.9,8.9c-3.5,4.5-10.2,11.5-14.9,15.4c-12.4-9.9-24.3-7.9-32.5-4.1
			c-7.6,3.6-16.5,10.9-17.6,25.9c-7.1,0.9-14.4,1.1-21.5,0.4c-0.4-3.6-1.3-6.8-2.6-9.7c-3.1-7.1-8.6-12.2-16.3-15.3
			c-0.8,2.8-1.8,5.6-3.1,8.3c5.4,2.2,9.1,5.6,11.3,10.5c1.4,3.2,2.1,7,2.2,11.4c0,0.4,0.1,0.8,0.3,1.1c0.4,0.9,1.3,1.7,2.4,1.8
			c11.3,1.6,22.6,1.4,33.7-0.7c1.5-0.3,2.6-1.6,2.5-3.1c-0.5-11.1,3.6-18.6,12.6-22.8c9.4-4.4,18-2.5,26.2,5.7
			c0.9,1,2.5,1.1,3.6,0.5c6.4-3.6,21.2-19.1,24-25.1c0.4-0.8,0.3-1.7,0-2.5c-0.2-0.4-0.4-0.8-0.8-1.1c-3.4-3-5.8-6.1-7.3-9.4
			c-2.2-4.9-2.1-10.2,0.1-16c3.7-9.7,11.2-14.2,22.8-14.1c1.6,0,2.9-1.1,3.1-2.6C220.3,116.9,220.1,105.5,218,94.4z"/>
		<path class="st3" d="M167.7,89.5C154.4,59.4,119.1,45.6,89,58.9c-3.5,1.6-6.9,3.4-9.9,5.6c-2,10.7-1.8,21.7-0.6,32.6
			c3.8-8,10.4-14.8,19.1-18.6c19.4-8.5,42.1,0.3,50.6,19.7c8.5,19.4-0.3,42.1-19.7,50.6c-15,6.6-31.9,2.7-42.8-8.3
			c1.4,9,2.4,18.2,2.2,27.2c15,7,32.9,7.7,49.2,0.6C167.1,155,180.9,119.7,167.7,89.5z"/>
		<path class="st2" d="M89.6,60.3c29.4-12.9,63.7,0.5,76.6,29.9c1.5,3.4,2.7,7,3.5,10.6c0.2,0.9,1,1.4,1.9,1.2
			c0.9-0.2,1.4-1,1.2-1.9c-0.9-3.8-2.1-7.6-3.7-11.2c-13.6-31-49.8-45.1-80.8-31.5c-0.8,0.4-1.2,1.3-0.8,2.1
			C87.9,60.3,88.8,60.7,89.6,60.3z"/>
		<path class="st2" d="M170.8,107.4c0.2,2.1,0.3,4.3,0.3,6.5c0,0.2,0.1,0.5,0.1,0.6c0.2,0.5,0.8,0.9,1.4,0.9c0.9,0,1.6-0.7,1.6-1.6
			c0-2.3-0.1-4.6-0.3-6.8c-0.1-0.9-0.9-1.5-1.7-1.4C171.3,105.8,170.7,106.5,170.8,107.4z"/>
		<path class="st2" d="M108.8,171.5c-5.2-0.4-10.4-1.5-15.4-3.3c-0.8-0.3-1.7,0.1-2,1c-0.1,0.4-0.1,0.8,0,1.2
			c0.2,0.4,0.5,0.7,0.9,0.9c5.2,1.9,10.7,3,16.2,3.4c0.9,0.1,1.6-0.6,1.7-1.5C110.3,172.4,109.7,171.6,108.8,171.5z"/>
		<path class="st2" d="M172.5,118.8c-0.9-0.1-1.7,0.5-1.7,1.4c-2.4,20.5-15.6,38.3-34.4,46.6c-5.3,2.3-10.9,3.9-16.7,4.5
			c-0.9,0.1-1.5,0.9-1.4,1.8c0,0.2,0.1,0.3,0.1,0.5c0.3,0.6,0.9,1,1.6,0.9c6-0.7,12-2.3,17.6-4.8c19.8-8.7,33.7-27.5,36.2-49.1
			C174,119.7,173.4,118.9,172.5,118.8z"/>
		<path class="st2" d="M149.6,95.6c-8.9-20.2-32.5-29.4-52.7-20.5c-8.3,3.6-14.7,9.8-18.8,17.2c0.2,2,0.4,4,0.6,5.9
			c3.4-8.7,10.2-16.1,19.4-20.2c18.6-8.2,40.4,0.3,48.5,18.9c8.2,18.6-0.3,40.4-18.9,48.5c-15.1,6.6-32.3,2.3-42.6-9.6
			c0.3,1.8,0.6,3.5,0.8,5.3c11.3,10.3,28.1,13.7,43,7.1C149.2,139.4,158.4,115.7,149.6,95.6z"/>
		<g>
			<path class="st2" d="M145.7,96.9c0-0.1-0.1-0.2-0.1-0.3c-0.2-0.9,0.4-1.7,1.2-1.9l21.2-4.1c0.9-0.2,1.7,0.4,1.9,1.2
				c0.2,0.9-0.4,1.7-1.2,1.9l-21.2,4.1C146.7,97.9,146,97.5,145.7,96.9z"/>
		</g>
		<g>
			<path class="st2" d="M131.2,78.3c-0.3-0.7-0.1-1.6,0.6-2l18.5-11.2c0.7-0.5,1.7-0.2,2.2,0.5c0.4,0.8,0.2,1.7-0.5,2.2L133.4,79
				c-0.7,0.5-1.7,0.2-2.2-0.5C131.2,78.5,131.2,78.4,131.2,78.3z"/>
		</g>
		<g>
			<path class="st2" d="M139.8,87.7C139.8,87.7,139.8,87.7,139.8,87.7c-0.3-0.8,0-1.7,0.8-2.1l19.9-8.6c0.8-0.3,1.7,0.1,2.1,0.8
				c0.3,0.8,0,1.7-0.8,2.1l-19.9,8.6C141.1,88.9,140.2,88.5,139.8,87.7z"/>
		</g>
		<g>
			<path class="st2" d="M145.2,132.9c-0.3-0.7,0-1.6,0.7-2c0.8-0.4,1.7-0.2,2.2,0.6l10.7,18.8c0.4,0.8,0.2,1.7-0.6,2.2
				c-0.8,0.4-1.7,0.2-2.2-0.6L145.3,133C145.3,133,145.2,132.9,145.2,132.9z"/>
		</g>
		<g>
			<path class="st2" d="M81.2,94.9c0.6-0.6,0.7-1.6,0.1-2.2l-3.6-4c0.1,1.7,0.2,3.4,0.4,5.1l0.9,1C79.6,95.5,80.6,95.5,81.2,94.9z"
				/>
		</g>
		<g>
			<path class="st4" d="M9.1,116.3c0-8.3,3.6-15.8,9.4-21c-3-4.5-4.8-9.9-4.8-15.8c0-13.8,9.9-25.2,23-27.6
				c0-15.2,12.2-27.6,27.4-28c0.3,0,0.5,0,0.8,0c1.7,0,3.3,0.2,4.9,0.5C72.2,15.7,80.1,9.3,89.5,9c0.2,0,0.4,0,0.6,0
				c9.2,0,16.9,5.8,19.9,13.9c1.6,2.7,2.5,5.8,2.5,9.2v163.3c0,7.5-4.1,13.9-10.1,17.4c-3.5,2.5-7.7,4-12.3,4
				c-7.3,0-13.7-3.7-17.5-9.3c-0.5,0-0.9,0.1-1.4,0.1c-19,0-34.4-15.4-34.4-34.4c0-2.4,0.3-4.8,0.8-7.1c-0.8,0.1-1.6,0.2-2.5,0.2
				c-9.2,0-16.6-7.5-16.6-16.6c0-3.7,1.3-7.1,3.3-9.9C14.1,134.7,9.1,126.1,9.1,116.3z"/>
			<path class="st2" d="M90.1,219.8c-7.4,0-14.4-3.4-19-9.2c-20.6,0-37.4-16.8-37.4-37.5c0-1.3,0.1-2.6,0.2-3.9
				c-10.3-0.6-18.6-9.2-18.6-19.6c0-3.2,0.8-6.3,2.3-9.1c-7.2-5.9-11.5-14.7-11.5-24.2c0-8,3.1-15.7,8.6-21.5c-2.6-4.7-4-9.9-4-15.3
				c0-14.2,9.6-26.4,23.1-30.1C35,33.7,47.8,21.3,64,20.9l0.8,0c0.9,0,1.9,0.1,2.9,0.1c3.6-8.9,12-14.8,21.7-15.1L90,6
				c10,0,19.1,6.3,22.6,15.7c1.9,3.3,2.8,6.8,2.8,10.4v163.3c0,8.2-4.4,15.9-11.6,20C99.9,218.2,95.1,219.8,90.1,219.8L90.1,219.8z
				 M74.1,204.4l0.9,1.4c3.4,5,9,7.9,15,7.9c3.8,0,7.4-1.2,10.5-3.4c5.6-3.3,8.8-8.8,8.8-15V32.1c0-2.6-0.7-5.2-2.1-7.7l-0.2-0.5
				c-2.6-7.1-9.5-12-17-12l-0.5,0c-7.9,0.2-14.7,5.5-16.9,13.2l-0.8,2.6l-2.7-0.5c-1.6-0.3-3-0.4-4.4-0.4l-0.7,0
				c-13.6,0.4-24.4,11.4-24.4,25l0,2.5L37.2,55c-11.9,2.2-20.5,12.6-20.5,24.6c0,5,1.5,9.9,4.3,14.1l1.5,2.2l-2,1.8
				c-5.3,4.8-8.4,11.6-8.4,18.7c0,8.4,4.2,16.2,11.2,20.9L26,139l-1.9,2.6c-1.8,2.4-2.7,5.2-2.7,8.1c0,7.5,6.1,13.6,13.6,13.6
				c0.6,0,1.3-0.1,1.9-0.2l4.3-0.6l-0.7,4.2c-0.5,2.2-0.7,4.4-0.7,6.5c0,17.3,14.1,31.4,31.4,31.4c0.2,0,0.4,0,0.6,0L74.1,204.4z"/>
			<path class="st2" d="M36.7,179.1c-1.6,0-2.9-1.2-3-2.8c-0.1-1.2-2.2-28.9,22.2-42.8c1.5-0.8,3.3-0.3,4.1,1.1
				c0.8,1.5,0.3,3.3-1.1,4.1c-21,12-19.2,36.8-19.1,37c0.1,1.7-1.1,3.1-2.8,3.3C36.8,179.1,36.8,179.1,36.7,179.1z M9.9,112.1
				c-0.3,0-0.6,0-0.9-0.1c-1.6-0.5-2.5-2.2-2-3.8c0.3-0.9,6.6-20.9,27.7-23.7c1.7-0.3,3.2,0.9,3.4,2.6c0.2,1.7-0.9,3.2-2.6,3.4
				c-17.2,2.4-22.7,19.4-22.7,19.5C12.4,111.2,11.2,112.1,9.9,112.1z M18.4,152.1C18.4,152.1,18.4,152.1,18.4,152.1
				c-1.7,0-3-1.4-3-3c0-0.5,0.2-11.7,10.5-16.4c1.5-0.7,3.3,0,4,1.5c0.7,1.5,0,3.3-1.5,4c-6.8,3.1-7,10.6-7,10.9
				C21.4,150.8,20.1,152.1,18.4,152.1L18.4,152.1z M82.6,33.6c-0.6,0-1.3-0.2-1.8-0.6c-13.8-10.5-29.7-2.3-29.9-2.3
				c-1.5,0.8-3.3,0.2-4.1-1.3c-0.8-1.5-0.2-3.3,1.3-4.1c0.8-0.4,19.5-10.1,36.4,2.8c1.3,1,1.6,2.9,0.6,4.2
				C84.4,33.2,83.5,33.6,82.6,33.6z"/>
			<path class="st2" d="M68.9,152.9c-0.4,0-0.9-0.1-1.2-0.4c-0.2-0.1-19.1-13.8-7.6-38.9c0.5-1.1,1.8-1.6,2.9-1.1
				c1.1,0.5,1.6,1.8,1.1,2.9c-10,21.8,6,33.4,6.1,33.5c1,0.7,1.2,2,0.5,3C70.2,152.6,69.6,152.9,68.9,152.9L68.9,152.9z M71,191.1
				c-0.9,0-1.8,0-2.8-0.1c-1.2-0.1-2.1-1.2-1.9-2.4c0.1-1.2,1.2-2,2.4-1.9c7.6,0.7,14-2.2,17.4-7.9c3.1-5.2,3.2-11.6,0.3-16
				c-0.7-1-0.4-2.3,0.6-3c1-0.6,2.3-0.4,3,0.6c3.8,5.8,3.8,14.1-0.2,20.7C85.9,187.5,79.2,191.1,71,191.1z"/>
			<path class="st5" d="M87.3,87.4c-2.3,2.6-4.9,4.7-7.6,6.4"/>
			<path class="st2" d="M79.7,96c-0.7,0-1.4-0.4-1.8-1c-0.6-1-0.3-2.3,0.7-3c2.6-1.6,5-3.7,7.1-6c0.8-0.9,2.2-1,3.1-0.2
				c0.9,0.8,1,2.2,0.2,3.1c-2.4,2.7-5.1,5-8.1,6.8C80.5,95.9,80.1,96,79.7,96z"/>
			<g>
				<path class="st2" d="M93.1,79.9c-0.2,0-0.5,0-0.7-0.1c-1.1-0.4-1.7-1.6-1.3-2.8c2.4-6.5,4-14.7-1.5-26c-0.5-1.1-0.1-2.4,1-2.9
					c1.1-0.5,2.4-0.1,2.9,1c6.2,12.8,4.3,22,1.7,29.4C94.8,79.4,94,79.9,93.1,79.9z"/>
			</g>
			<g>
				<path class="st2" d="M111.7,158.4c-1,0-2-0.8-2.1-1.8c-1.7-11.4-6.9-20.8-14.4-26.3c-1-0.7-1.2-2.1-0.5-3c0.7-1,2.1-1.2,3-0.5
					c8.5,6.2,14.2,16.5,16.2,29.1c0.2,1.2-0.6,2.3-1.8,2.5C111.9,158.4,111.8,158.4,111.7,158.4z"/>
			</g>
			<g>
				<path class="st5" d="M78.6,122.2c3,0.2,5.9,0.9,8.6,1.8"/>
				<path class="st2" d="M87.3,126.2c-0.2,0-0.5,0-0.7-0.1c-2.5-0.9-5.3-1.5-8.1-1.7c-1.2-0.1-2.1-1.1-2-2.3c0.1-1.2,1.3-2.1,2.3-2
					c3.2,0.2,6.3,0.9,9.2,1.9c1.1,0.4,1.7,1.6,1.3,2.8C89,125.7,88.1,126.2,87.3,126.2z"/>
			</g>
			<g>
				<path class="st2" d="M60.9,79.6c-0.8,0-1.6-0.5-1.9-1.2c-5.8-11.9-1.8-25.1,10.7-35.2c0.9-0.8,2.3-0.6,3,0.3
					c0.8,0.9,0.6,2.3-0.3,3c-11,8.9-14.5,19.8-9.5,30c0.5,1.1,0.1,2.4-1,2.9C61.6,79.6,61.2,79.6,60.9,79.6z"/>
			</g>
			<g>
				<path class="st5" d="M34.1,115.1c-2.4,0.8-5,1.3-7.8,1.6"/>
				<path class="st2" d="M26.2,118.9c-1.1,0-2-0.8-2.2-2c-0.1-1.2,0.8-2.3,2-2.4c2.6-0.2,5.1-0.7,7.4-1.5c1.1-0.4,2.4,0.2,2.7,1.4
					c0.4,1.1-0.2,2.4-1.4,2.7c-2.6,0.8-5.4,1.4-8.3,1.7C26.4,118.9,26.3,118.9,26.2,118.9z"/>
			</g>
			<g>
				<path class="st5" d="M50.1,97.4c-0.8,5.9-3.8,10.6-8.5,13.7"/>
				<path class="st2" d="M41.6,113.3c-0.7,0-1.4-0.3-1.8-0.9c-0.7-1-0.4-2.3,0.6-3c4.3-2.9,6.8-7.1,7.5-12.2
					c0.2-1.2,1.3-2.1,2.4-1.9c1.2,0.2,2,1.2,1.9,2.4c-0.9,6.3-4.1,11.6-9.4,15.2C42.5,113.2,42.1,113.3,41.6,113.3z"/>
			</g>
		</g>
	</g>
</g>
</svg>
