<?xml version="1.0" encoding="utf-8"?>
<!-- Generator: Adobe Illustrator 24.0.1, SVG Export Plug-In . SVG Version: 6.00 Build 0)  -->
<svg version="1.1" id="Слой_1" xmlns="http://www.w3.org/2000/svg" xmlns:xlink="http://www.w3.org/1999/xlink" x="0px" y="0px"
	 viewBox="0 0 172 172" style="enable-background:new 0 0 172 172;" xml:space="preserve">
<style type="text/css">
	.st0{fill:none;}
	.st1{fill:#F7F7FB;}
	.st2{fill:#C7D7E2;}
	.st3{fill:#656C73;}
	.st4{fill:#454B54;}
	.st5{fill:#F7941E;}
</style>
<g>
	<path class="st0" d="M0,172V0h172v172H0z"/>
	<g>
		<path class="st1" d="M165.3,86.6L165.3,86.6c-37.7,56.5-120.8,56.5-158.5,0l0,0l0,0C44.5,30.1,127.5,30.1,165.3,86.6z"/>
		<path class="st2" d="M113,53.3c7.7,7.3,12.6,17.5,12.6,29c0,21.9-17.8,39.7-39.7,39.7c-21.9,0-39.7-17.8-39.7-39.7
			c0-11.7,5.2-22.2,13.2-29.5C78.1,46.5,95.9,46.2,113,53.3"/>
		<path class="st3" d="M86,95.6c-7.9,0-14.3-6.4-14.3-14.3S78.1,67.1,86,67.1c7.9,0,14.3,6.4,14.3,14.3S93.9,95.6,86,95.6"/>
		<path class="st4" d="M86,133.3c-33.4,0-64.3-16.6-82.8-44.2c-0.9-1.5-0.9-3.3,0-4.9C21.7,56.4,52.6,39.8,86,39.8
			s64.3,16.6,82.8,44.4c0.9,1.5,0.9,3.3,0,4.9C150.3,116.7,119.4,133.3,86,133.3L86,133.3z M12,86.6c17,23.9,44.5,38.1,74,38.1
			s57-14.1,74-38.1c-17-23.9-44.5-38.1-74-38.1S29,62.8,12,86.6L12,86.6z"/>
	</g>
</g>
<g>
	<path class="st5" d="M44.5,8H0.8C0.4,8,0,7.6,0,7.2V0.8C0,0.4,0.4,0,0.8,0h43.7c0.5,0,0.8,0.4,0.8,0.8v6.4C45.4,7.6,45,8,44.5,8z"
		/>
	<path class="st5" d="M0,44.5V0.8C0,0.4,0.4,0,0.8,0h6.4C7.6,0,8,0.4,8,0.8v43.7c0,0.5-0.4,0.8-0.8,0.8H0.8C0.4,45.4,0,45,0,44.5z"
		/>
</g>
<g>
	<path class="st5" d="M8,127.6v43.7c0,0.5-0.4,0.8-0.8,0.8H0.8c-0.5,0-0.8-0.4-0.8-0.8l0-43.7c0-0.5,0.4-0.8,0.8-0.8h6.4
		C7.6,126.8,8,127.1,8,127.6z"/>
	<path class="st5" d="M44.5,172.1H0.8c-0.5,0-0.8-0.4-0.8-0.8l0-6.4c0-0.5,0.4-0.8,0.8-0.8h43.7c0.5,0,0.8,0.4,0.8,0.8v6.4
		C45.4,171.7,45,172.1,44.5,172.1z"/>
</g>
<g>
	<path class="st5" d="M127.5,164.1h43.7c0.5,0,0.8,0.4,0.8,0.8v6.4c0,0.5-0.4,0.8-0.8,0.8h-43.7c-0.5,0-0.8-0.4-0.8-0.8v-6.4
		C126.6,164.5,127,164.1,127.5,164.1z"/>
	<path class="st5" d="M172,127.6v43.7c0,0.5-0.4,0.8-0.8,0.8h-6.4c-0.5,0-0.8-0.4-0.8-0.8v-43.7c0-0.5,0.4-0.8,0.8-0.8h6.4
		C171.6,126.8,172,127.1,172,127.6z"/>
</g>
<g>
	<path class="st5" d="M164,44.5V0.8c0-0.5,0.4-0.8,0.8-0.8l6.4,0c0.5,0,0.8,0.4,0.8,0.8v43.7c0,0.5-0.4,0.8-0.8,0.8h-6.4
		C164.4,45.4,164,45,164,44.5z"/>
	<path class="st5" d="M127.5,0l43.7,0c0.5,0,0.8,0.4,0.8,0.8v6.4c0,0.5-0.4,0.8-0.8,0.8h-43.7c-0.5,0-0.8-0.4-0.8-0.8V0.8
		C126.6,0.4,127,0,127.5,0z"/>
</g>
<path class="st5" d="M82.7,21.9v-21C82.7,0.4,83,0,83.5,0h5c0.5,0,0.8,0.4,0.8,0.8v21c0,0.5-0.4,0.8-0.8,0.8h-5
	C83,22.7,82.7,22.3,82.7,21.9z"/>
<path class="st5" d="M83.2,171.3v-21c0-0.5,0.4-0.8,0.8-0.8h5c0.5,0,0.8,0.4,0.8,0.8v21c0,0.5-0.4,0.8-0.8,0.8h-5
	C83.5,172.1,83.2,171.7,83.2,171.3z"/>
</svg>
