<svg width="19" height="15" viewBox="0 0 19 15" fill="none" xmlns="http://www.w3.org/2000/svg">
<path opacity="0.3" d="M18.066 2.29364C17.391 2.57928 16.6751 2.7668 15.9421 2.84999C16.7045 2.41212 17.291 1.72014 17.567 0.894408C16.8411 1.30609 16.0469 1.59614 15.2188 1.75201C14.5198 1.03862 13.5424 0.634539 12.5198 0.636236C10.4784 0.636236 8.82158 2.21824 8.82158 4.16976C8.82158 4.44705 8.85424 4.71731 8.91818 4.97538C5.84436 4.82777 3.12012 3.42151 1.29584 1.28315C0.977306 1.80444 0.795614 2.41212 0.795614 3.05991C0.795614 4.28538 1.44821 5.3672 2.44027 6.00103C1.85291 5.98383 1.27843 5.83224 0.765025 5.55898V5.60405C0.765025 7.31574 2.03986 8.7441 3.73075 9.06942C3.18617 9.21035 2.61519 9.23102 2.06102 9.12987C2.53181 10.534 3.89795 11.5555 5.51547 11.5852C4.25007 12.5315 2.65577 13.0975 0.922798 13.0975C0.628122 13.0972 0.333709 13.0807 0.0410156 13.0481C1.6774 14.0504 3.62162 14.6362 5.70981 14.6362C12.5118 14.6362 16.2307 9.25033 16.2307 4.57971C16.2307 4.42694 16.2307 4.27417 16.2192 4.1225C16.9429 3.6221 17.5678 3.00287 18.0649 2.29364H18.066Z" fill="white"/>
</svg>
