<?xml version="1.0" standalone="no"?>
<!DOCTYPE svg PUBLIC "-//W3C//DTD SVG 1.1//EN" "http://www.w3.org/Graphics/SVG/1.1/DTD/svg11.dtd" >
<svg xmlns="http://www.w3.org/2000/svg" xmlns:xlink="http://www.w3.org/1999/xlink" version="1.1">
<metadata>
Created by FontForge 20170731 at Wed Jan 17 01:11:30 2018
 By Aleksey,,,
Modern and elegant sans serif font family.
</metadata>
<defs>
<font id="Mont-HeavyDEMO" horiz-adv-x="572" >
  <font-face 
    font-family="Mont Heavy DEMO"
    font-weight="900"
    font-stretch="normal"
    units-per-em="1000"
    panose-1="0 0 10 0 0 0 0 0 0 0"
    ascent="800"
    descent="-200"
    x-height="540"
    cap-height="700"
    bbox="-808 -321 3082 943"
    underline-thickness="50"
    underline-position="-150"
    unicode-range="U+000D-25CA"
  />
<missing-glyph horiz-adv-x="465" 
d="M381 -195h-295v930h295v-930zM156 673v-31h61v-34h-62v-31h155v31h-62v34h62v31h-154zM155 553v-97h155v32h-62v65h-93zM217 488h-31v33h31v-33zM155 431v-31h62v-34h-62v-31h93v65h62v31h-155zM279 375v-61h-124v-32h155v93h-31zM217 262v-52h31v21h31v-44h-93v75h-31
v-105h155v105h-93zM155 101v-105h155v105h-155zM279 26h-93v44h93v-44zM155 -26v-30h65l-65 -44v-31h155v31h-95l65 44h30v30h-155z" />
    <glyph glyph-name=".notdef" horiz-adv-x="465" 
d="M381 -195h-295v930h295v-930zM156 673v-31h61v-34h-62v-31h155v31h-62v34h62v31h-154zM155 553v-97h155v32h-62v65h-93zM217 488h-31v33h31v-33zM155 431v-31h62v-34h-62v-31h93v65h62v31h-155zM279 375v-61h-124v-32h155v93h-31zM217 262v-52h31v21h31v-44h-93v75h-31
v-105h155v105h-93zM155 101v-105h155v105h-155zM279 26h-93v44h93v-44zM155 -26v-30h65l-65 -44v-31h155v31h-95l65 44h30v30h-155z" />
    <glyph glyph-name=".null" horiz-adv-x="0" 
 />
    <glyph glyph-name=".null" horiz-adv-x="0" 
 />
    <glyph glyph-name="nonmarkingreturn" unicode="&#xd;" horiz-adv-x="250" 
 />
    <glyph glyph-name="space" unicode=" " horiz-adv-x="217" 
 />
    <glyph glyph-name="exclam" unicode="!" horiz-adv-x="315" 
d="M71 720h174v-487h-174v487zM67 173h181v-173h-181v173z" />
    <glyph glyph-name="quotedbl" unicode="&#x22;" horiz-adv-x="489" 
d="M53 702h158v-270h-158v270zM279 702h157v-270h-157v270z" />
    <glyph glyph-name="numbersign" unicode="#" 
d="M286 532q-39 0 -62.5 25.5t-23.5 67.5t23.5 68t62.5 26t63 -26t24 -68t-24 -67.5t-63 -25.5zM286 661q-17 0 -26.5 -10t-9.5 -26t9.5 -25.5t26.5 -9.5t27 9.5t10 25.5t-10 26t-27 10zM204 500l164 24v-54l-83 -10l83 -38v-19l-82 -38l82 -9v-55l-164 24v54l79 33l-79 34
v54zM324 288h44v-113h-164v112h44v-58h18v52h40v-52h18v59zM286 157q36 0 59 -24t23 -63v-70h-164v70q0 39 23 63t59 24zM286 101q-15 0 -24 -9t-9 -26v-11h66v11q0 17 -9 26t-24 9z" />
    <glyph glyph-name="dollar" unicode="$" horiz-adv-x="609" 
d="M575 206q0 -91 -52.5 -144t-140.5 -69v-70h-149v69q-92 17 -145 75t-53 149h192q0 -34 23.5 -51t54.5 -17q29 0 52.5 14.5t23.5 40.5q0 15 -9 26t-25 18.5t-37 13t-45 11.5q-36 9 -75.5 21.5t-71.5 34.5t-53 58t-21 93q0 82 48 133t134 67v65h150v-66q85 -17 131 -70.5
t46 -138.5h-186q0 29 -20 43.5t-49 14.5q-26 0 -46 -10t-20 -32q0 -15 9 -25t24.5 -17.5t36.5 -13t45 -11.5q37 -10 77.5 -22.5t74 -35.5t55 -59.5t21.5 -94.5z" />
    <glyph glyph-name="percent" unicode="%" 
d="M286 532q-39 0 -62.5 25.5t-23.5 67.5t23.5 68t62.5 26t63 -26t24 -68t-24 -67.5t-63 -25.5zM286 661q-17 0 -26.5 -10t-9.5 -26t9.5 -25.5t26.5 -9.5t27 9.5t10 25.5t-10 26t-27 10zM204 500l164 24v-54l-83 -10l83 -38v-19l-82 -38l82 -9v-55l-164 24v54l79 33l-79 34
v54zM324 288h44v-113h-164v112h44v-58h18v52h40v-52h18v59zM286 157q36 0 59 -24t23 -63v-70h-164v70q0 39 23 63t59 24zM286 101q-15 0 -24 -9t-9 -26v-11h66v11q0 17 -9 26t-24 9z" />
    <glyph glyph-name="ampersand" unicode="&#x26;" horiz-adv-x="663" 
d="M486 0q-9 10 -17.5 19t-16.5 18q-84 -52 -192 -52q-51 0 -93 15t-72 42t-46.5 65t-16.5 84q0 36 10 65t26.5 53t38.5 43.5t47 35.5q-21 29 -33.5 52t-20 42t-10 35t-2.5 31q0 43 16.5 75.5t45 55t67.5 34t83 11.5t82 -11.5t66.5 -34t45 -55.5t16.5 -75q0 -36 -12.5 -64.5
t-33 -52t-47 -42.5t-54.5 -36q19 -23 40 -47.5t45 -51.5q8 19 13.5 39t7.5 42h152q-2 -58 -20 -109.5t-47 -93.5q26 -30 55 -63t60 -69h-183zM300 594q-23 0 -38 -13.5t-15 -37.5q0 -31 34 -81q31 18 51 37.5t20 43.5q0 23 -15 37t-37 14zM275 132q39 0 75 18
q-32 35 -58.5 66.5t-49.5 57.5q-19 -17 -30.5 -35.5t-11.5 -41.5q0 -29 20.5 -47t54.5 -18z" />
    <glyph glyph-name="quotesingle" unicode="'" horiz-adv-x="264" 
d="M53 702h158v-270h-158v270z" />
    <glyph glyph-name="parenleft" unicode="(" horiz-adv-x="372" 
d="M181 -164q-68 99 -106.5 220.5t-38.5 259.5q0 139 38.5 260.5t106.5 221.5h198q-27 -35 -56 -85.5t-53 -112.5t-39 -134t-15 -150t15 -149.5t38 -133.5t51.5 -112t56.5 -85h-196z" />
    <glyph glyph-name="parenright" unicode=")" horiz-adv-x="372" 
d="M-5 -164q28 35 56.5 85t52 112t38 133.5t14.5 149.5t-15 150t-39 134t-53 112.5t-56 85.5h198q68 -100 106.5 -221.5t38.5 -260.5q0 -138 -38.5 -259.5t-106.5 -220.5h-196z" />
    <glyph glyph-name="asterisk" unicode="*" horiz-adv-x="431" 
d="M320 515l58 -67l-96 -81l-67 80l-65 -80l-97 81l57 67l-81 29l41 118l83 -30v90h125v-90l83 30l41 -118z" />
    <glyph glyph-name="plus" unicode="+" horiz-adv-x="547" 
d="M516 249h-159v-170h-167v170h-159v157h159v166h167v-166h159v-157z" />
    <glyph glyph-name="comma" unicode="," horiz-adv-x="285" 
d="M59 -83q41 4 60.5 27.5t19.5 55.5h-87v173h181v-158q0 -82 -48 -132.5t-126 -57.5v92z" />
    <glyph glyph-name="hyphen" unicode="-" horiz-adv-x="475" 
d="M54 361h367v-169h-367v169z" />
    <glyph glyph-name="period" unicode="." horiz-adv-x="284" 
d="M52 173h180v-173h-180v173z" />
    <glyph glyph-name="slash" unicode="/" 
d="M286 532q-39 0 -62.5 25.5t-23.5 67.5t23.5 68t62.5 26t63 -26t24 -68t-24 -67.5t-63 -25.5zM286 661q-17 0 -26.5 -10t-9.5 -26t9.5 -25.5t26.5 -9.5t27 9.5t10 25.5t-10 26t-27 10zM204 500l164 24v-54l-83 -10l83 -38v-19l-82 -38l82 -9v-55l-164 24v54l79 33l-79 34
v54zM324 288h44v-113h-164v112h44v-58h18v52h40v-52h18v59zM286 157q36 0 59 -24t23 -63v-70h-164v70q0 39 23 63t59 24zM286 101q-15 0 -24 -9t-9 -26v-11h66v11q0 17 -9 26t-24 9z" />
    <glyph glyph-name="zero" unicode="0" horiz-adv-x="660" 
d="M330 -18q-66 0 -120 24.5t-92 70.5t-58.5 110.5t-20.5 144.5t20.5 144.5t58.5 110t92 70t120 24.5t120 -24.5t92 -70t58.5 -110t20.5 -144.5t-20.5 -144.5t-58.5 -110.5t-92 -70.5t-120 -24.5zM330 141q53 0 81 49t28 141q0 93 -28.5 142.5t-80.5 49.5q-53 0 -81 -49.5
t-28 -141.5q0 -93 28 -142t81 -49z" />
    <glyph glyph-name="one" unicode="1" horiz-adv-x="377" 
d="M307 665v-665h-179v514h-98v151h277z" />
    <glyph glyph-name="two" unicode="2" horiz-adv-x="565" 
d="M522 158v-158h-495v40q100 119 160 192t92 117.5t42 69t10 45.5q0 27 -15.5 43.5t-41.5 16.5q-29 0 -45 -17.5t-16 -47.5v-13h-175v13q0 50 16 91.5t46 70.5t73.5 45t97.5 16q53 0 97 -15.5t75.5 -43.5t49 -67t17.5 -86q0 -31 -7 -60.5t-26 -65t-53 -80t-87 -106.5h185z
" />
    <glyph glyph-name="three" unicode="3" horiz-adv-x="567" 
d="M373 421q72 -18 114.5 -72t42.5 -132q0 -51 -18.5 -93.5t-52 -73.5t-79.5 -48t-101 -17q-54 0 -98 16.5t-76.5 47t-50.5 73t-20 94.5h170q2 -35 22.5 -56.5t52.5 -21.5q35 0 56.5 22.5t21.5 59.5q0 36 -23 57t-62 21h-107v37l109 178h-224v152h457v-31z" />
    <glyph glyph-name="four" unicode="4" horiz-adv-x="586" 
d="M562 119h-61v-119h-170v119h-320v33l213 513h177l-165 -397h107l39 147h119v-147h61v-149z" />
    <glyph glyph-name="five" unicode="5" horiz-adv-x="564" 
d="M279 438q56 0 102 -16.5t79 -46t51.5 -70t18.5 -89.5q0 -51 -18.5 -93t-51.5 -73t-78.5 -48t-99.5 -17t-99.5 17t-78.5 47.5t-51 72.5t-18 93h170q0 -34 21.5 -55.5t55.5 -21.5q33 0 54 22t21 56q0 36 -22.5 58t-59.5 22h-207l-17 22l37 347h395v-152h-257l-9 -75h62z
" />
    <glyph glyph-name="six" unicode="6" horiz-adv-x="583" 
d="M338 449q50 0 91.5 -16t71 -45t46 -69t16.5 -88q0 -55 -19 -100t-54 -77.5t-83 -50.5t-107 -18t-107.5 18t-83.5 50t-54.5 77.5t-19.5 99.5q0 51 17 105t59 124l122 206h192q-32 -55 -65.5 -109.5t-65.5 -110.5q11 2 21.5 3t22.5 1zM299 137q42 0 67.5 26t25.5 68
t-25.5 68t-67.5 26q-41 0 -67 -26t-26 -68t26 -68t67 -26z" />
    <glyph glyph-name="seven" unicode="7" horiz-adv-x="550" 
d="M535 665v-26l-252 -639h-188l204 509h-275v156h511z" />
    <glyph glyph-name="eight" unicode="8" horiz-adv-x="602" 
d="M476 352q88 -57 88 -155q0 -47 -19 -86t-53.5 -67t-83 -43.5t-107.5 -15.5t-107.5 15.5t-83 43t-53.5 66.5t-19 86q0 99 88 156q-70 58 -70 137q0 43 18 78.5t50 61t77.5 39.5t100.5 14t100 -14t77 -39.5t49.5 -61t17.5 -78.5q0 -81 -70 -137zM302 550q-35 0 -56 -19
t-21 -48t21 -47.5t56 -18.5q34 0 54.5 18.5t20.5 47.5t-20.5 48t-54.5 19zM302 123q40 0 64 22t24 57t-24 57t-64 22q-41 0 -65.5 -22t-24.5 -57t24.5 -57t65.5 -22z" />
    <glyph glyph-name="nine" unicode="9" horiz-adv-x="583" 
d="M284 682q59 0 107.5 -18t83.5 -50t54 -77.5t19 -99.5q0 -52 -17 -105.5t-59 -123.5l-122 -208h-193q33 55 66.5 110.5t66.5 110.5q-21 -3 -44 -3q-50 0 -91.5 16t-71.5 44.5t-46.5 69t-16.5 88.5q0 55 19.5 100t54 77.5t83.5 50.5t107 18zM284 340q43 0 70.5 26.5
t27.5 69.5q0 42 -27.5 68t-70.5 26t-70 -26t-27 -68q0 -43 27 -69.5t70 -26.5z" />
    <glyph glyph-name="colon" unicode=":" horiz-adv-x="289" 
d="M54 534h181v-173h-181v173zM54 173h181v-173h-181v173z" />
    <glyph glyph-name="semicolon" unicode=";" horiz-adv-x="291" 
d="M56 534h180v-173h-180v173zM62 -83q41 4 60 27.5t19 55.5h-87v173h182v-158q0 -82 -48 -132.5t-126 -57.5v92z" />
    <glyph glyph-name="less" unicode="&#x3c;" horiz-adv-x="522" 
d="M235 532q-39 0 -62.5 25.5t-23.5 67.5t23.5 68t62.5 26t63 -26t24 -68t-24 -67.5t-63 -25.5zM235 661q-17 0 -26.5 -10t-9.5 -26t9.5 -25.5t26.5 -9.5t27 9.5t10 25.5t-10 26t-27 10zM154 524l163 -24v-54l-78 -34l78 -33v-54l-163 -24v55l82 9l-82 38v19l82 38l-82 10
v54zM273 287h44v-112h-163v113h44v-59h17v52h41v-52h17v58zM235 157q37 0 59.5 -24t22.5 -63v-70h-163v70q0 39 22.5 63t58.5 24zM235 101q-32 0 -32 -35v-11h65v11q0 35 -33 35z" />
    <glyph glyph-name="equal" unicode="=" horiz-adv-x="584" 
d="M57 512h469v-152h-469v152zM57 290h469v-151h-469v151z" />
    <glyph glyph-name="greater" unicode="&#x3e;" 
d="M286 532q-39 0 -62.5 25.5t-23.5 67.5t23.5 68t62.5 26t63 -26t24 -68t-24 -67.5t-63 -25.5zM286 661q-17 0 -26.5 -10t-9.5 -26t9.5 -25.5t26.5 -9.5t27 9.5t10 25.5t-10 26t-27 10zM204 500l164 24v-54l-83 -10l83 -38v-19l-82 -38l82 -9v-55l-164 24v54l79 33l-79 34
v54zM324 288h44v-113h-164v112h44v-58h18v52h40v-52h18v59zM286 157q36 0 59 -24t23 -63v-70h-164v70q0 39 23 63t59 24zM286 101q-15 0 -24 -9t-9 -26v-11h66v11q0 17 -9 26t-24 9z" />
    <glyph glyph-name="question" unicode="?" horiz-adv-x="559" 
d="M179 242q0 43 9.5 73t24.5 51t33 36t36 28q25 18 43 36t18 49q0 32 -20.5 50.5t-49.5 18.5t-51.5 -19t-22.5 -54h-174q0 56 20 99t53.5 72t79 43.5t96.5 14.5q53 0 98.5 -15.5t79 -45t52.5 -71t19 -92.5q0 -35 -9 -61t-23.5 -46t-32 -35.5t-35.5 -29.5q-28 -22 -49 -44
t-21 -58v-19h-174v19zM175 173h180v-173h-180v173z" />
    <glyph glyph-name="at" unicode="@" horiz-adv-x="1015" 
d="M509 684q96 0 182 -29t150.5 -84.5t102 -135.5t37.5 -181q0 -59 -17 -104t-46 -75.5t-66.5 -46t-79.5 -15.5q-47 0 -83 16.5t-57 48.5q-29 -31 -67.5 -48t-83.5 -17q-49 0 -90.5 17t-71.5 47t-46.5 72t-16.5 92t16.5 91.5t46.5 71.5t71.5 47t90.5 17q43 0 79.5 -15
t64.5 -42l16 26h78v-227q0 -30 16 -46.5t40 -16.5q28 0 49 26t21 81q0 65 -24.5 120t-68 95t-104.5 62t-135 22q-75 0 -138 -23.5t-108.5 -64.5t-71.5 -98t-26 -125q0 -66 23.5 -121.5t65 -95t99.5 -62t127 -22.5q41 0 79 7t76 23v-129q-91 -33 -175 -33q-93 0 -172.5 32.5
t-137 90t-90.5 137t-33 173.5q0 105 38.5 187t104.5 138.5t152.5 86.5t182.5 30zM496 153q38 0 63.5 25t25.5 64q0 38 -25.5 63t-63.5 25t-63 -25t-25 -63q0 -39 25 -64t63 -25z" />
    <glyph glyph-name="A" unicode="A" horiz-adv-x="744" 
d="M493 114h-248l-39 -114h-206l275 700h188l281 -700h-212zM369 482l-77 -217h154z" />
    <glyph glyph-name="B" unicode="B" horiz-adv-x="651" 
d="M510 370q50 -24 78.5 -68.5t28.5 -102.5q0 -42 -17 -78.5t-47.5 -63.5t-72 -42t-90.5 -15h-322v700h316q47 0 86 -13.5t68 -37.5t45 -56.5t16 -71.5q0 -48 -24 -87.5t-65 -63.5zM416 489q0 27 -17.5 44t-48.5 17h-97v-122h97q31 0 48.5 17t17.5 44zM358 158q31 0 50 18
t19 46t-19 46t-50 18h-105v-128h105z" />
    <glyph glyph-name="C" unicode="C" horiz-adv-x="784" 
d="M403 -18q-80 0 -148 28t-118 77t-78 116.5t-28 145.5q0 79 28 146.5t78 117t118 77.5t148 28q69 0 129 -21.5t106.5 -61t77.5 -94.5t41 -122h-195q-18 54 -60.5 86.5t-97.5 32.5q-37 0 -68.5 -14t-54.5 -39.5t-36 -60t-13 -75.5q0 -40 13 -74.5t36 -59t54.5 -38.5
t68.5 -14q58 0 101 35t57 93h197q-10 -69 -40.5 -126t-77 -97.5t-107.5 -63t-131 -22.5z" />
    <glyph glyph-name="D" unicode="D" horiz-adv-x="745" 
d="M351 700q80 0 146 -26t114 -72t74.5 -110t26.5 -141t-26.5 -141.5t-74.5 -111t-114.5 -72.5t-145.5 -26h-283v700h283zM342 177q39 0 71 12.5t54.5 35.5t35 55t12.5 71q0 78 -47.5 125t-125.5 47h-81v-346h81z" />
    <glyph glyph-name="E" unicode="E" horiz-adv-x="567" 
d="M524 167v-167h-456v700h448v-167h-256v-103h230v-158h-230v-105h264z" />
    <glyph glyph-name="F" unicode="F" horiz-adv-x="548" 
d="M262 526v-112h225v-169h-225v-245h-194v700h445v-174h-251z" />
    <glyph glyph-name="G" unicode="G" horiz-adv-x="803" 
d="M773 374q0 -86 -26.5 -158t-75 -124t-116.5 -81t-150 -29q-81 0 -149 27.5t-118 76t-78 116t-28 147.5t27.5 147.5t77 117t117.5 77t149 27.5q69 0 130 -20.5t109 -57.5t80.5 -88t43.5 -112h-202q-19 45 -62 71t-97 26q-39 0 -71.5 -13.5t-56 -38.5t-36 -59.5
t-12.5 -76.5q0 -41 12.5 -75.5t35.5 -59t55.5 -38t72.5 -13.5q55 0 98 24.5t60 65.5h-174v121h384z" />
    <glyph glyph-name="H" unicode="H" horiz-adv-x="734" 
d="M667 700v-700h-195v269h-210v-269h-194v700h194v-253h210v253h195z" />
    <glyph glyph-name="I" unicode="I" horiz-adv-x="331" 
d="M68 700h195v-700h-195v700z" />
    <glyph glyph-name="J" unicode="J" horiz-adv-x="622" 
d="M289 -18q-60 0 -110.5 19t-86.5 53t-56 81.5t-20 104.5v28h194v-18q0 -41 22 -64.5t57 -23.5t56.5 23.5t21.5 64.5v450h194v-460q0 -57 -19.5 -104.5t-55.5 -81.5t-86 -53t-111 -19z" />
    <glyph glyph-name="K" unicode="K" horiz-adv-x="677" 
d="M461 0l-200 309v-309h-193v700h193v-295l185 295h223l-224 -339l245 -361h-229z" />
    <glyph glyph-name="L" unicode="L" horiz-adv-x="531" 
d="M512 177v-177h-444v700h195v-523h249z" />
    <glyph glyph-name="M" unicode="M" horiz-adv-x="982" 
d="M760 0l-55 403l-185 -404h-57l-186 404l-54 -403h-195l106 700h192l165 -381l166 381h193l104 -700h-194z" />
    <glyph glyph-name="N" unicode="N" horiz-adv-x="760" 
d="M692 700v-700h-159l-278 380v-380h-187v700h168l269 -367v367h187z" />
    <glyph glyph-name="O" unicode="O" horiz-adv-x="832" 
d="M417 -18q-84 0 -155 27.5t-122.5 76.5t-80 116.5t-28.5 147.5t28.5 147.5t80 116.5t122.5 76.5t155 27.5t154.5 -27.5t121.5 -76t79.5 -116t28.5 -148.5t-28.5 -148.5t-79.5 -116t-121.5 -76t-154.5 -27.5zM417 162q40 0 73.5 14t58 39t38 59.5t13.5 75.5t-13.5 75.5
t-38 59.5t-58 39t-73.5 14t-74 -14t-58.5 -39t-38.5 -59.5t-14 -75.5t14 -75.5t38.5 -59.5t58.5 -39t74 -14z" />
    <glyph glyph-name="P" unicode="P" horiz-adv-x="645" 
d="M366 700q56 0 103 -19t82 -52.5t54.5 -80t19.5 -101.5t-19.5 -101.5t-54.5 -80.5t-82 -53t-103 -19h-105v-193h-193v700h298zM343 362q38 0 61 23.5t23 61.5q0 37 -23 61t-61 24h-82v-170h82z" />
    <glyph glyph-name="Q" unicode="Q" horiz-adv-x="833" 
d="M628 -95l-79 97q-63 -20 -132 -20q-84 0 -155 27.5t-122.5 76.5t-80 116.5t-28.5 147.5t28.5 147.5t80 116.5t122.5 76.5t155 27.5t154.5 -27.5t121.5 -76t79.5 -116t28.5 -148.5q0 -83 -29.5 -151.5t-83.5 -117.5l145 -176h-205zM232 350q0 -41 14 -75.5t38.5 -59.5
t58.5 -39t74 -14t73.5 14t58 39t38 59.5t13.5 75.5t-13.5 75.5t-38 59.5t-58 39t-73.5 14t-74 -14t-58.5 -39t-38.5 -59.5t-14 -75.5z" />
    <glyph glyph-name="R" unicode="R" horiz-adv-x="676" 
d="M330 214h-69v-214h-193v700h303q57 0 104.5 -18t82 -51t54 -78.5t19.5 -100.5q0 -65 -29.5 -115.5t-81.5 -81.5l139 -255h-215zM261 377h88q41 0 63 21.5t22 54.5t-22 54.5t-63 21.5h-88v-152z" />
    <glyph glyph-name="S" unicode="S" horiz-adv-x="629" 
d="M316 -17q-64 0 -116.5 16.5t-89 47.5t-56.5 76.5t-20 102.5h199q0 -38 24.5 -56t57.5 -18q31 0 55 15t24 44q0 17 -9.5 28t-26 19t-38.5 14t-47 12q-38 9 -78.5 21.5t-74.5 36t-55.5 61t-21.5 97.5q0 104 70.5 160.5t195.5 56.5q127 0 195.5 -61t68.5 -168h-193
q0 33 -21.5 49t-51.5 16q-26 0 -47 -11.5t-21 -36.5q0 -15 9.5 -25t25.5 -17.5t37.5 -14t46.5 -12.5q39 -10 81 -23.5t77 -37.5t57.5 -62t22.5 -98q0 -57 -21 -100.5t-58.5 -73t-88.5 -44t-112 -14.5z" />
    <glyph glyph-name="T" unicode="T" horiz-adv-x="611" 
d="M593 526h-191v-526h-193v526h-190v174h574v-174z" />
    <glyph glyph-name="U" unicode="U" horiz-adv-x="732" 
d="M366 -18q-67 0 -123.5 21t-97 59t-63 91.5t-22.5 117.5v429h197v-426q0 -51 30 -81.5t79 -30.5q48 0 78 30.5t30 81.5v426h197v-429q0 -64 -22.5 -117.5t-63 -91.5t-96.5 -59t-123 -21z" />
    <glyph glyph-name="V" unicode="V" horiz-adv-x="724" 
d="M721 700l-268 -700h-179l-274 700h220l143 -435l139 435h219z" />
    <glyph glyph-name="W" unicode="W" horiz-adv-x="1050" 
d="M1044 700l-216 -700h-169l-135 338l-131 -338h-170l-219 700h207l113 -403l167 400h67l170 -401l111 404h205z" />
    <glyph glyph-name="X" unicode="X" horiz-adv-x="664" 
d="M448 0l-115 215l-116 -215h-219l210 364l-198 336h217l105 -198l106 198h215l-197 -339l211 -361h-219z" />
    <glyph glyph-name="Y" unicode="Y" horiz-adv-x="699" 
d="M447 274v-274h-196v274l-243 426h214l128 -253l128 253h214z" />
    <glyph glyph-name="Z" unicode="Z" horiz-adv-x="603" 
d="M577 180v-180h-554v40l259 480h-242v180h525v-44l-258 -476h270z" />
    <glyph glyph-name="bracketleft" unicode="[" horiz-adv-x="363" 
d="M70 807h259v-142h-97v-685h99v-143h-261v970z" />
    <glyph glyph-name="backslash" unicode="\" horiz-adv-x="539" 
d="M253 532q-39 0 -62.5 25.5t-23.5 67.5t23.5 68t62.5 26t63 -26t24 -68t-24 -67.5t-63 -25.5zM253 661q-17 0 -26.5 -10t-9.5 -26t9.5 -25.5t26.5 -9.5t27 9.5t10 25.5t-10 26t-27 10zM171 524l164 -24v-54l-79 -34l79 -33v-54l-164 -24v55l83 9l-83 38v19l83 38l-83 10
v54zM291 287h44v-112h-164v113h44v-59h18v52h40v-52h18v58zM253 157q37 0 59.5 -24t22.5 -63v-70h-164v70q0 39 23 63t59 24zM253 101q-15 0 -24 -9t-9 -26v-11h66v11q0 17 -9 26t-24 9z" />
    <glyph glyph-name="bracketright" unicode="]" horiz-adv-x="363" 
d="M33 -163v143h99v685h-97v142h259v-970h-261z" />
    <glyph glyph-name="asciicircum" unicode="^" 
d="M286 532q-39 0 -62.5 25.5t-23.5 67.5t23.5 68t62.5 26t63 -26t24 -68t-24 -67.5t-63 -25.5zM286 661q-17 0 -26.5 -10t-9.5 -26t9.5 -25.5t26.5 -9.5t27 9.5t10 25.5t-10 26t-27 10zM204 500l164 24v-54l-83 -10l83 -38v-19l-82 -38l82 -9v-55l-164 24v54l79 33l-79 34
v54zM324 288h44v-113h-164v112h44v-58h18v52h40v-52h18v59zM286 157q36 0 59 -24t23 -63v-70h-164v70q0 39 23 63t59 24zM286 101q-15 0 -24 -9t-9 -26v-11h66v11q0 17 -9 26t-24 9z" />
    <glyph glyph-name="underscore" unicode="_" 
d="M286 532q-39 0 -62.5 25.5t-23.5 67.5t23.5 68t62.5 26t63 -26t24 -68t-24 -67.5t-63 -25.5zM286 661q-17 0 -26.5 -10t-9.5 -26t9.5 -25.5t26.5 -9.5t27 9.5t10 25.5t-10 26t-27 10zM204 500l164 24v-54l-83 -10l83 -38v-19l-82 -38l82 -9v-55l-164 24v54l79 33l-79 34
v54zM324 288h44v-113h-164v112h44v-58h18v52h40v-52h18v59zM286 157q36 0 59 -24t23 -63v-70h-164v70q0 39 23 63t59 24zM286 101q-15 0 -24 -9t-9 -26v-11h66v11q0 17 -9 26t-24 9z" />
    <glyph glyph-name="grave" unicode="`" horiz-adv-x="535" 
d="M422 712q23 0 37.5 -13t14.5 -35t-14.5 -35t-37.5 -13q-24 0 -38.5 13t-14.5 35t14.5 35t38.5 13zM112 709q22 0 35 -12.5t13 -32.5t-13 -33t-35 -13h-39v91h39zM201 643h33v-25h-63v91h62v-24h-32v-10h29v-22h-29v-10zM352 709l13 -91h-30l-5 46l-22 -46h-10l-21 46
l-6 -46h-30l13 91h30l19 -43l19 43h30zM422 643q9 0 14 6t5 15q0 20 -19 20q-20 0 -20 -20q0 -9 5.5 -15t14.5 -6zM110 646q19 0 19 18t-19 18h-6v-36h6z" />
    <glyph glyph-name="a" unicode="a" horiz-adv-x="692" 
d="M633 541v-540h-143l-16 38q-34 -27 -75 -42t-88 -15q-62 0 -114 21.5t-90 60t-59 91.5t-21 116t21 115.5t59 90.5t90 59t114 21q48 0 89.5 -15t75.5 -43l19 42h138zM336 147q26 0 48 9.5t38 26t25 39t9 48.5t-9 48.5t-25 39t-38 26t-48 9.5q-54 0 -87.5 -35t-33.5 -88
q0 -26 9 -48.5t25 -39t38.5 -26t48.5 -9.5z" />
    <glyph glyph-name="b" unicode="b" horiz-adv-x="687" 
d="M377 557q62 0 114 -21.5t89.5 -59.5t58.5 -90.5t21 -115.5t-21 -116t-58.5 -91t-89.5 -59.5t-114 -21.5q-48 0 -89 15t-74 43l-18 -40h-137v735h183v-215q60 37 135 37zM352 147q26 0 48 9.5t38.5 26t25.5 39t9 48.5t-9 48.5t-25.5 39t-38.5 26t-48 9.5t-48.5 -9.5
t-38.5 -26t-25 -39t-9 -48.5t9 -48.5t25 -39t38.5 -26t48.5 -9.5z" />
    <glyph glyph-name="c" unicode="c" horiz-adv-x="636" 
d="M326 -18q-65 0 -119.5 21.5t-94.5 60t-62 91.5t-22 116t22 115.5t61.5 90.5t94.5 59t120 21q57 0 106 -17t86.5 -48.5t62 -75.5t31.5 -98h-181q-12 33 -40.5 52.5t-64.5 19.5q-50 0 -81 -33t-31 -87q0 -53 31.5 -87t80.5 -34q38 0 66 21.5t39 57.5h183
q-8 -55 -32.5 -100.5t-62.5 -77.5t-87 -50t-106 -18z" />
    <glyph glyph-name="d" unicode="d" horiz-adv-x="687" 
d="M629 735v-735h-138l-17 40q-33 -28 -74 -43t-89 -15q-62 0 -114.5 21.5t-90 59.5t-58.5 91t-21 116t21 116t58.5 91t90 59.5t114.5 21.5q38 0 71.5 -10t62.5 -28v215h184zM336 146q26 0 48 9.5t38.5 26t25.5 39t9 49.5t-9 49.5t-25.5 39t-38.5 26t-48 9.5q-53 0 -87 -35
t-34 -89t34 -89t87 -35z" />
    <glyph glyph-name="e" unicode="e" horiz-adv-x="641" 
d="M615 275q0 -12 -1 -24t-3 -25h-401q9 -47 37.5 -70.5t72.5 -23.5q33 0 58.5 13.5t39.5 37.5h185q-14 -46 -41 -83.5t-63.5 -63.5t-82 -40t-96.5 -14q-63 0 -116.5 22t-93 60.5t-61.5 91t-22 114.5t22 115t61 91.5t93 60t117 21.5q65 0 119.5 -22t93.5 -60t60.5 -89.5
t21.5 -111.5zM320 412q-41 0 -68.5 -21t-38.5 -62h219q-26 83 -112 83z" />
    <glyph glyph-name="f" unicode="f" horiz-adv-x="432" 
d="M420 385h-122v-385h-186v385h-89v146h92v52q0 81 43.5 126t130.5 45h130v-142h-83q-20 0 -32 -12t-12 -32v-37h128v-146z" />
    <glyph glyph-name="g" unicode="g" horiz-adv-x="676" 
d="M617 540v-480q0 -64 -20 -115t-57.5 -86.5t-91 -54.5t-120.5 -19q-116 0 -191.5 54t-94.5 151h180q10 -27 40 -41t64 -14q47 0 79.5 27.5t32.5 76.5v16q-30 -20 -66 -30.5t-75 -10.5q-58 0 -107.5 20.5t-85.5 56.5t-56.5 86t-20.5 109q0 58 20.5 107.5t56.5 86t85.5 57
t107.5 20.5q50 0 93 -16.5t78 -45.5l23 45h126zM328 167q51 0 83 33.5t32 85.5q0 51 -32 84t-83 33t-83 -33t-32 -84q0 -52 32 -85.5t83 -33.5z" />
    <glyph glyph-name="h" unicode="h" horiz-adv-x="645" 
d="M389 556q47 0 84.5 -16.5t63.5 -46.5t40.5 -72.5t14.5 -95.5v-325h-186v304q0 94 -70 94q-42 0 -66.5 -28.5t-24.5 -81.5v-288h-186v735h186v-231q29 24 66 38t78 14z" />
    <glyph glyph-name="i" unicode="i" horiz-adv-x="303" 
d="M60 765h183v-157h-183v157zM59 540h186v-540h-186v540z" />
    <glyph glyph-name="j" unicode="j" horiz-adv-x="315" 
d="M72 765h183v-157h-183v157zM-42 -42h45q68 0 68 72v510h186v-525q0 -105 -60.5 -163t-169.5 -58h-69v164z" />
    <glyph glyph-name="k" unicode="k" horiz-adv-x="597" 
d="M388 0l-135 228v-228h-186v735h186v-407l128 212h209l-168 -257l185 -283h-219z" />
    <glyph glyph-name="l" unicode="l" horiz-adv-x="303" 
d="M59 735h186v-735h-186v735z" />
    <glyph glyph-name="m" unicode="m" horiz-adv-x="939" 
d="M694 556q44 0 79.5 -16t60.5 -45t39 -68.5t14 -87.5v-339h-186v316q0 83 -60 83q-78 0 -78 -103v-296h-181v316q0 83 -59 83q-78 0 -78 -103v-296h-186v540h130l27 -58q29 34 69.5 54t88.5 20q49 0 89 -21t66 -59q29 37 71.5 58.5t93.5 21.5z" />
    <glyph glyph-name="n" unicode="n" horiz-adv-x="645" 
d="M385 556q47 0 85 -16t65 -45.5t42 -71.5t15 -94v-329h-186v304q0 94 -70 94q-44 0 -67.5 -29t-23.5 -81v-288h-186v540h130l26 -56q30 34 73.5 53t96.5 19z" />
    <glyph glyph-name="o" unicode="o" horiz-adv-x="660" 
d="M330 -18q-66 0 -121.5 21.5t-96 60t-63 91t-22.5 115.5t22.5 115.5t63 91t96 60t121.5 21.5t121.5 -21.5t96 -60t63 -91t22.5 -115.5t-22.5 -115.5t-63 -91t-96 -60t-121.5 -21.5zM330 149q51 0 83.5 33.5t32.5 87.5t-32.5 87.5t-83.5 33.5t-84 -33.5t-33 -87.5t33 -87.5
t84 -33.5z" />
    <glyph glyph-name="p" unicode="p" horiz-adv-x="684" 
d="M374 558q62 0 114 -21.5t89.5 -59.5t58.5 -91t21 -116t-21 -116t-58.5 -91t-89.5 -59.5t-114 -21.5q-37 0 -70 9.5t-62 26.5v-213h-183v735h126l23 -43q34 29 76 45t90 16zM349 146q26 0 48 9.5t38.5 26t25.5 39t9 49.5q0 54 -34 89t-87 35t-87 -35t-34 -89t34 -89
t87 -35z" />
    <glyph glyph-name="q" unicode="q" horiz-adv-x="684" 
d="M626 540v-735h-184v213q-29 -17 -62 -26.5t-70 -9.5q-62 0 -114 21.5t-89.5 59.5t-58.5 91t-21 116t21 116t58.5 91t89.5 59.5t114 21.5q48 0 90 -16t76 -45l24 43h126zM335 146q53 0 87 35t34 89t-34 89t-87 35t-87 -35t-34 -89q0 -27 9 -49.5t25.5 -39t38.5 -26
t48 -9.5z" />
    <glyph glyph-name="r" unicode="r" horiz-adv-x="422" 
d="M410 543v-171h-72q-50 0 -71.5 -23t-21.5 -74v-275h-186v540h124l29 -60q29 33 65 48t84 15h49z" />
    <glyph glyph-name="s" unicode="s" horiz-adv-x="534" 
d="M267 -18q-55 0 -99 14t-74.5 39.5t-47.5 61.5t-17 80h179q0 -29 18 -43.5t44 -14.5q21 0 37 10.5t16 31.5q0 23 -27 32.5t-65 16.5q-31 5 -65.5 13.5t-63.5 27t-47.5 49.5t-18.5 80q0 41 16.5 73.5t46.5 56t72.5 36t94.5 12.5t94 -13t71.5 -37t46 -58t17.5 -75h-174
q0 26 -15.5 38.5t-41.5 12.5q-23 0 -36.5 -10.5t-13.5 -29.5q0 -23 27.5 -31.5t65.5 -15.5q32 -6 67 -14t64.5 -25.5t48.5 -48.5t19 -82q0 -42 -17 -76.5t-48.5 -59t-75.5 -38t-98 -13.5z" />
    <glyph glyph-name="t" unicode="t" horiz-adv-x="451" 
d="M423 163v-163h-128q-91 0 -141.5 51t-50.5 142v204h-99v43l242 258h38v-158h136v-143h-131v-172q0 -29 16.5 -45.5t45.5 -16.5h72z" />
    <glyph glyph-name="u" unicode="u" horiz-adv-x="635" 
d="M318 -18q-60 0 -109 18t-84 50.5t-54 78.5t-19 103v308h186v-300q0 -43 21 -67t59 -24t59 24t21 67v300h186v-308q0 -57 -19 -103t-54 -78.5t-84 -50.5t-109 -18z" />
    <glyph glyph-name="v" unicode="v" horiz-adv-x="607" 
d="M606 540l-217 -540h-169l-220 540h204l102 -320l101 320h199z" />
    <glyph glyph-name="w" unicode="w" horiz-adv-x="867" 
d="M862 540l-172 -540h-150l-107 242l-104 -242h-150l-177 540h195l82 -284l128 282h50l134 -284l81 286h190z" />
    <glyph glyph-name="x" unicode="x" horiz-adv-x="580" 
d="M378 0l-88 160l-91 -160h-205l179 280l-166 260h205l78 -136l82 136h202l-167 -255l179 -285h-208z" />
    <glyph glyph-name="y" unicode="y" horiz-adv-x="620" 
d="M623 540l-226 -516q-27 -62 -54.5 -105t-60 -69.5t-72.5 -38.5t-92 -12h-64v160h51q27 0 45 4t31 13.5t23 26.5t19 42l-223 495h202l114 -297l107 297h200z" />
    <glyph glyph-name="z" unicode="z" horiz-adv-x="516" 
d="M487 165v-165h-467v28l207 348h-188v164h446v-30l-204 -345h206z" />
    <glyph glyph-name="braceleft" unicode="{" horiz-adv-x="389" 
d="M275 439q0 -45 -22 -80t-59 -49q36 -14 57.5 -48.5t21.5 -79.5v-206h77v-147h-117q-27 0 -51 10t-41.5 28t-28 42t-10.5 51v231q0 23 -16 38.5t-39 15.5h-20v130h20q23 0 39 16t16 39v232q0 27 10.5 50.5t28 41.5t41.5 28t51 10h117v-146h-75v-207z" />
    <glyph glyph-name="bar" unicode="|" 
d="M286 532q-39 0 -62.5 25.5t-23.5 67.5t23.5 68t62.5 26t63 -26t24 -68t-24 -67.5t-63 -25.5zM286 661q-17 0 -26.5 -10t-9.5 -26t9.5 -25.5t26.5 -9.5t27 9.5t10 25.5t-10 26t-27 10zM204 500l164 24v-54l-83 -10l83 -38v-19l-82 -38l82 -9v-55l-164 24v54l79 33l-79 34
v54zM324 288h44v-113h-164v112h44v-58h18v52h40v-52h18v59zM286 157q36 0 59 -24t23 -63v-70h-164v70q0 39 23 63t59 24zM286 101q-15 0 -24 -9t-9 -26v-11h66v11q0 17 -9 26t-24 9z" />
    <glyph glyph-name="braceright" unicode="}" horiz-adv-x="389" 
d="M362 375v-130h-21q-23 0 -39 -15.5t-16 -38.5v-231q0 -27 -10.5 -51t-28 -42t-41.5 -28t-51 -10h-116v147h76v206q0 45 21.5 79.5t58.5 48.5q-38 14 -60 49t-22 80v207h-74v146h116q27 0 51 -10t41.5 -28t28 -41.5t10.5 -50.5v-232q0 -23 16 -39t39 -16h21z" />
    <glyph glyph-name="asciitilde" unicode="~" 
d="M286 532q-39 0 -62.5 25.5t-23.5 67.5t23.5 68t62.5 26t63 -26t24 -68t-24 -67.5t-63 -25.5zM286 661q-17 0 -26.5 -10t-9.5 -26t9.5 -25.5t26.5 -9.5t27 9.5t10 25.5t-10 26t-27 10zM204 500l164 24v-54l-83 -10l83 -38v-19l-82 -38l82 -9v-55l-164 24v54l79 33l-79 34
v54zM324 288h44v-113h-164v112h44v-58h18v52h40v-52h18v59zM286 157q36 0 59 -24t23 -63v-70h-164v70q0 39 23 63t59 24zM286 101q-15 0 -24 -9t-9 -26v-11h66v11q0 17 -9 26t-24 9z" />
    <glyph glyph-name="uni0437.ss02" unicode="&#xa0;" horiz-adv-x="217" 
 />
    <glyph glyph-name="exclamdown" unicode="&#xa1;" 
d="M286 532q-39 0 -62.5 25.5t-23.5 67.5t23.5 68t62.5 26t63 -26t24 -68t-24 -67.5t-63 -25.5zM286 661q-17 0 -26.5 -10t-9.5 -26t9.5 -25.5t26.5 -9.5t27 9.5t10 25.5t-10 26t-27 10zM204 500l164 24v-54l-83 -10l83 -38v-19l-82 -38l82 -9v-55l-164 24v54l79 33l-79 34
v54zM324 288h44v-113h-164v112h44v-58h18v52h40v-52h18v59zM286 157q36 0 59 -24t23 -63v-70h-164v70q0 39 23 63t59 24zM286 101q-15 0 -24 -9t-9 -26v-11h66v11q0 17 -9 26t-24 9z" />
    <glyph glyph-name="cent" unicode="&#xa2;" horiz-adv-x="619" 
d="M593 217q-13 -85 -66.5 -143t-134.5 -78v-73h-149v74q-46 11 -84.5 34.5t-65.5 57.5t-42 77t-15 92q0 50 15 92.5t42 76.5t65.5 58t84.5 35v83h149v-83q81 -19 133.5 -75.5t65.5 -141.5h-174q-11 31 -38 49t-60 18q-46 0 -75.5 -31t-29.5 -81t29.5 -81.5t75.5 -31.5
q35 0 61.5 20t37.5 52h175z" />
    <glyph glyph-name="sterling" unicode="&#xa3;" horiz-adv-x="614" 
d="M577 209v-209h-538v107l60 27v126h-47v127h47v95q0 46 16.5 83t47 63.5t73.5 41t96 14.5q103 0 162 -54t59 -148v-15h-160v12q0 31 -16.5 48.5t-44.5 17.5q-29 0 -45.5 -17.5t-16.5 -48.5v-92h120v-127h-120v-118h154v67h153z" />
    <glyph glyph-name="currency" unicode="&#xa4;" 
d="M286 532q-39 0 -62.5 25.5t-23.5 67.5t23.5 68t62.5 26t63 -26t24 -68t-24 -67.5t-63 -25.5zM286 661q-17 0 -26.5 -10t-9.5 -26t9.5 -25.5t26.5 -9.5t27 9.5t10 25.5t-10 26t-27 10zM204 500l164 24v-54l-83 -10l83 -38v-19l-82 -38l82 -9v-55l-164 24v54l79 33l-79 34
v54zM324 288h44v-113h-164v112h44v-58h18v52h40v-52h18v59zM286 157q36 0 59 -24t23 -63v-70h-164v70q0 39 23 63t59 24zM286 101q-15 0 -24 -9t-9 -26v-11h66v11q0 17 -9 26t-24 9z" />
    <glyph glyph-name="yen" unicode="&#xa5;" horiz-adv-x="695" 
d="M445 302h148v-98h-157v-44h157v-92h-157v-68h-177v68h-158v92h158v44h-158v98h147l-224 363h190l133 -239l134 239h190z" />
    <glyph glyph-name="brokenbar" unicode="&#xa6;" 
d="M286 532q-39 0 -62.5 25.5t-23.5 67.5t23.5 68t62.5 26t63 -26t24 -68t-24 -67.5t-63 -25.5zM286 661q-17 0 -26.5 -10t-9.5 -26t9.5 -25.5t26.5 -9.5t27 9.5t10 25.5t-10 26t-27 10zM204 500l164 24v-54l-83 -10l83 -38v-19l-82 -38l82 -9v-55l-164 24v54l79 33l-79 34
v54zM324 288h44v-113h-164v112h44v-58h18v52h40v-52h18v59zM286 157q36 0 59 -24t23 -63v-70h-164v70q0 39 23 63t59 24zM286 101q-15 0 -24 -9t-9 -26v-11h66v11q0 17 -9 26t-24 9z" />
    <glyph glyph-name="section" unicode="&#xa7;" horiz-adv-x="541" 
d="M504 319q0 -76 -60 -127q37 -40 37 -96q0 -81 -56 -124.5t-153 -43.5q-99 0 -156.5 48t-57.5 131h154q0 -25 19 -37t42 -12q20 0 35.5 9.5t15.5 26.5q0 24 -28 35t-68 21q-31 8 -65 18t-62 29t-46 49t-18 77q0 43 16.5 74t45.5 54q-38 38 -38 95q0 81 55.5 125t151.5 44
q98 0 155 -48t57 -132h-153q0 25 -18.5 37t-41.5 12q-20 0 -34.5 -9t-14.5 -27q0 -24 28 -35t68 -21q31 -8 64.5 -18.5t61.5 -29t46 -48.5t18 -77zM195 331q0 -26 29 -40t74 -25q8 -2 12 -4q17 8 27.5 20t9.5 31q-1 29 -30.5 43t-77.5 25l-6 3q-18 -8 -28.5 -21.5
t-9.5 -31.5z" />
    <glyph glyph-name="dieresis" unicode="&#xa8;" horiz-adv-x="629" 
d="M432 606h-186v157h186v-157z" />
    <glyph glyph-name="copyright" unicode="&#xa9;" horiz-adv-x="831" 
d="M416 -15q-82 0 -151.5 27t-120.5 75t-79.5 115t-28.5 147t28.5 147t79.5 115.5t120.5 75.5t151.5 27q81 0 150.5 -27t120.5 -75.5t79.5 -115.5t28.5 -147t-28.5 -147t-79.5 -115t-120.5 -75t-150.5 -27zM416 84q59 0 109 19.5t86 54.5t56 84t20 107q0 59 -20 107.5
t-56 84t-86 55t-109 19.5q-60 0 -110 -19.5t-86 -55t-56 -84t-20 -107.5q0 -58 20 -107t56 -84t86 -54.5t110 -19.5zM417 161q-43 0 -79.5 14t-62.5 39.5t-41 60t-15 75.5q0 42 14.5 77t41 60t63 39t79.5 14q75 0 126.5 -42.5t61.5 -114.5h-120q-8 21 -26 33.5t-42 12.5
q-33 0 -54 -22t-21 -57q0 -33 21 -55t54 -22q25 0 43 13.5t26 36.5h121q-5 -36 -21.5 -66t-41.5 -51.5t-57 -33t-70 -11.5z" />
    <glyph glyph-name="ordfeminine" unicode="&#xaa;" 
d="M286 532q-39 0 -62.5 25.5t-23.5 67.5t23.5 68t62.5 26t63 -26t24 -68t-24 -67.5t-63 -25.5zM286 661q-17 0 -26.5 -10t-9.5 -26t9.5 -25.5t26.5 -9.5t27 9.5t10 25.5t-10 26t-27 10zM204 500l164 24v-54l-83 -10l83 -38v-19l-82 -38l82 -9v-55l-164 24v54l79 33l-79 34
v54zM324 288h44v-113h-164v112h44v-58h18v52h40v-52h18v59zM286 157q36 0 59 -24t23 -63v-70h-164v70q0 39 23 63t59 24zM286 101q-15 0 -24 -9t-9 -26v-11h66v11q0 17 -9 26t-24 9z" />
    <glyph glyph-name="guillemotleft" unicode="&#xab;" horiz-adv-x="724" 
d="M26 258v18l157 213h207l-160 -222l160 -222h-207zM332 258v18l157 213h207l-160 -222l160 -222h-207z" />
    <glyph glyph-name="logicalnot" unicode="&#xac;" 
d="M286 532q-39 0 -62.5 25.5t-23.5 67.5t23.5 68t62.5 26t63 -26t24 -68t-24 -67.5t-63 -25.5zM286 661q-17 0 -26.5 -10t-9.5 -26t9.5 -25.5t26.5 -9.5t27 9.5t10 25.5t-10 26t-27 10zM204 500l164 24v-54l-83 -10l83 -38v-19l-82 -38l82 -9v-55l-164 24v54l79 33l-79 34
v54zM324 288h44v-113h-164v112h44v-58h18v52h40v-52h18v59zM286 157q36 0 59 -24t23 -63v-70h-164v70q0 39 23 63t59 24zM286 101q-15 0 -24 -9t-9 -26v-11h66v11q0 17 -9 26t-24 9z" />
    <glyph glyph-name="registered" unicode="&#xae;" horiz-adv-x="512" 
d="M256 714q48 0 88 -16.5t69.5 -46t46 -70t16.5 -88.5t-16.5 -88.5t-46 -70t-69.5 -46t-88 -16.5t-88.5 17t-70 46.5t-46 70t-16.5 87.5q0 48 16.5 88.5t46 70t70 46t88.5 16.5zM256 340q33 0 61 11.5t48.5 31.5t32 48.5t11.5 61.5t-11.5 61.5t-32 48.5t-48.5 31.5
t-61 11.5t-61.5 -11.5t-48.5 -32t-31.5 -48.5t-11.5 -61t11.5 -61t32 -48.5t48.5 -32t61 -11.5zM349 521q0 -41 -31 -60l38 -68h-69l-30 56h-18v-56h-65v204h99q34 0 55 -21t21 -55zM239 502h23q22 0 22 20t-22 20h-23v-40z" />
    <glyph glyph-name="macron" unicode="&#xaf;" horiz-adv-x="510" 
d="M409 712q23 0 37.5 -13t14.5 -35t-14.5 -35t-37.5 -13q-24 0 -38.5 13t-14.5 35t14.5 35t38.5 13zM99 709q22 0 35 -12.5t13 -32.5t-13 -33t-35 -13h-39v91h39zM188 643h33v-25h-63v91h62v-24h-32v-10h29v-22h-29v-10zM339 709l13 -91h-30l-5 46l-22 -46h-10l-21 46
l-6 -46h-30l13 91h30l19 -43l19 43h30zM409 643q9 0 14 6t5 15q0 20 -19 20q-20 0 -20 -20q0 -9 5.5 -15t14.5 -6zM97 646q19 0 19 18t-19 18h-6v-36h6z" />
    <glyph glyph-name="degree" unicode="&#xb0;" 
d="M286 532q-39 0 -62.5 25.5t-23.5 67.5t23.5 68t62.5 26t63 -26t24 -68t-24 -67.5t-63 -25.5zM286 661q-17 0 -26.5 -10t-9.5 -26t9.5 -25.5t26.5 -9.5t27 9.5t10 25.5t-10 26t-27 10zM204 500l164 24v-54l-83 -10l83 -38v-19l-82 -38l82 -9v-55l-164 24v54l79 33l-79 34
v54zM324 288h44v-113h-164v112h44v-58h18v52h40v-52h18v59zM286 157q36 0 59 -24t23 -63v-70h-164v70q0 39 23 63t59 24zM286 101q-15 0 -24 -9t-9 -26v-11h66v11q0 17 -9 26t-24 9z" />
    <glyph glyph-name="plusminus" unicode="&#xb1;" 
d="M286 532q-39 0 -62.5 25.5t-23.5 67.5t23.5 68t62.5 26t63 -26t24 -68t-24 -67.5t-63 -25.5zM286 661q-17 0 -26.5 -10t-9.5 -26t9.5 -25.5t26.5 -9.5t27 9.5t10 25.5t-10 26t-27 10zM204 500l164 24v-54l-83 -10l83 -38v-19l-82 -38l82 -9v-55l-164 24v54l79 33l-79 34
v54zM324 288h44v-113h-164v112h44v-58h18v52h40v-52h18v59zM286 157q36 0 59 -24t23 -63v-70h-164v70q0 39 23 63t59 24zM286 101q-15 0 -24 -9t-9 -26v-11h66v11q0 17 -9 26t-24 9z" />
    <glyph glyph-name="acute" unicode="&#xb4;" horiz-adv-x="539" 
d="M330 712q23 0 37.5 -13t14.5 -35t-14.5 -35t-37.5 -13q-24 0 -38.5 13t-14.5 35t14.5 35t38.5 13zM20 709q22 0 35 -12.5t13 -32.5t-13 -33t-35 -13h-39v91h39zM109 643h33v-25h-63v91h62v-24h-32v-10h29v-22h-29v-10zM260 709l13 -91h-30l-5 46l-22 -46h-10l-21 46
l-6 -46h-30l13 91h30l19 -43l19 43h30zM330 643q9 0 14 6t5 15q0 20 -19 20q-20 0 -20 -20q0 -9 5.5 -15t14.5 -6zM18 646q19 0 19 18t-19 18h-6v-36h6z" />
    <glyph glyph-name="paragraph" unicode="&#xb6;" horiz-adv-x="720" 
d="M683 537h-92v-624h-158v624h-72v-624h-158v341q-40 10 -72.5 30.5t-55.5 48.5t-36 63t-13 74q0 49 18.5 91t51.5 73t79.5 48.5t102.5 17.5h405v-163z" />
    <glyph glyph-name="periodcentered" unicode="&#xb7;" horiz-adv-x="289" 
d="M54 446h181v-173h-181v173z" />
    <glyph glyph-name="cedilla" unicode="&#xb8;" horiz-adv-x="478" 
d="M206 -33q44 -5 70.5 -30t26.5 -66q0 -47 -36 -75t-93 -28h-77v81h64q31 0 31 28q0 12 -8.5 20t-22.5 8h-46l-9 12l39 139h86z" />
    <glyph glyph-name="ordmasculine" unicode="&#xba;" 
d="M286 532q-39 0 -62.5 25.5t-23.5 67.5t23.5 68t62.5 26t63 -26t24 -68t-24 -67.5t-63 -25.5zM286 661q-17 0 -26.5 -10t-9.5 -26t9.5 -25.5t26.5 -9.5t27 9.5t10 25.5t-10 26t-27 10zM204 500l164 24v-54l-83 -10l83 -38v-19l-82 -38l82 -9v-55l-164 24v54l79 33l-79 34
v54zM324 288h44v-113h-164v112h44v-58h18v52h40v-52h18v59zM286 157q36 0 59 -24t23 -63v-70h-164v70q0 39 23 63t59 24zM286 101q-15 0 -24 -9t-9 -26v-11h66v11q0 17 -9 26t-24 9z" />
    <glyph glyph-name="guillemotright" unicode="&#xbb;" horiz-adv-x="724" 
d="M28 45l160 222l-160 222h207l157 -213v-18l-157 -213h-207zM334 45l160 222l-160 222h207l157 -213v-18l-157 -213h-207z" />
    <glyph glyph-name="questiondown" unicode="&#xbf;" 
d="M286 532q-39 0 -62.5 25.5t-23.5 67.5t23.5 68t62.5 26t63 -26t24 -68t-24 -67.5t-63 -25.5zM286 661q-17 0 -26.5 -10t-9.5 -26t9.5 -25.5t26.5 -9.5t27 9.5t10 25.5t-10 26t-27 10zM204 500l164 24v-54l-83 -10l83 -38v-19l-82 -38l82 -9v-55l-164 24v54l79 33l-79 34
v54zM324 288h44v-113h-164v112h44v-58h18v52h40v-52h18v59zM286 157q36 0 59 -24t23 -63v-70h-164v70q0 39 23 63t59 24zM286 101q-15 0 -24 -9t-9 -26v-11h66v11q0 17 -9 26t-24 9z" />
    <glyph glyph-name="Agrave" unicode="&#xc0;" horiz-adv-x="744" 
d="M521 786q-24 0 -38 13t-14 35t14 35t38 13q23 0 37.5 -13t14.5 -35t-14.5 -35t-37.5 -13zM259 834q0 -20 -13 -33t-35 -13h-39v91h39q22 0 35 -12.5t13 -32.5zM333 788h-63v91h62v-24h-32v-10h29v-22h-29v-10h33v-25zM371 788h-31l13 91h30l19 -43l19 43h30l13 -91h-30
l-5 46l-22 -46h-10l-21 46zM521 854q-20 0 -20 -20q0 -9 5.5 -15t14.5 -6t14.5 6t5.5 15q0 20 -20 20zM209 816q19 0 19 18t-19 18h-6v-36h6zM744 0h-212l-39 114h-248l-39 -114h-206l275 700h188zM446 265l-77 217l-77 -217h154z" />
    <glyph glyph-name="Aacute" unicode="&#xc1;" horiz-adv-x="744" 
d="M522 786q-23 0 -37.5 13t-14.5 35t14.5 35t37.5 13t37.5 -13t14.5 -35t-14.5 -35t-37.5 -13zM261 834q0 -20 -13.5 -33t-34.5 -13h-40v91h40q21 0 34.5 -12.5t13.5 -32.5zM334 788h-63v91h63v-24h-33v-10h29v-22h-29v-10h33v-25zM372 788h-31l14 91h30l19 -43l18 43h30
l14 -91h-31l-5 46l-21 -46h-11l-21 46zM522 854q-20 0 -20 -20q0 -9 5.5 -15t14.5 -6t14.5 6t5.5 15q0 20 -20 20zM211 816q19 0 19 18t-19 18h-7v-36h7zM493 114h-248l-39 -114h-206l275 700h188l281 -700h-212zM369 482l-77 -217h154z" />
    <glyph glyph-name="Acircumflex" unicode="&#xc2;" horiz-adv-x="744" 
d="M522 786q-23 0 -37.5 13t-14.5 35t14.5 35t37.5 13t37.5 -13t14.5 -35t-14.5 -35t-37.5 -13zM261 834q0 -20 -13.5 -33t-35.5 -13h-39v91h39q22 0 35.5 -12.5t13.5 -32.5zM334 788h-63v91h62v-24h-32v-10h29v-22h-29v-10h33v-25zM372 788h-31l14 91h30l18 -43l19 43h30
l13 -91h-30l-5 46l-21 -46h-11l-21 46zM522 854q-20 0 -20 -20q0 -9 5.5 -15t14.5 -6t14.5 6t5.5 15q0 20 -20 20zM210 816q20 0 20 18t-20 18h-6v-36h6zM493 114h-248l-39 -114h-206l275 700h188l281 -700h-212zM369 482l-77 -217h154z" />
    <glyph glyph-name="Atilde" unicode="&#xc3;" horiz-adv-x="744" 
d="M522 786q-24 0 -38.5 13t-14.5 35t14.5 35t38.5 13q23 0 37.5 -13t14.5 -35t-14.5 -35t-37.5 -13zM260 834q0 -20 -13 -33t-35 -13h-39v91h39q22 0 35 -12.5t13 -32.5zM334 788h-64v91h63v-24h-33v-10h30v-22h-30v-10h34v-25zM371 788h-30l13 91h30l19 -43l19 43h30
l13 -91h-30l-6 46l-21 -46h-10l-22 46zM522 854q-20 0 -20 -20q0 -9 5.5 -15t14.5 -6q8 0 13.5 6t5.5 15q0 20 -19 20zM210 816q19 0 19 18t-19 18h-7v-36h7zM744 0h-212l-39 114h-248l-39 -114h-206l275 700h188zM446 265l-77 217l-77 -217h154z" />
    <glyph glyph-name="Adieresis" unicode="&#xc4;" horiz-adv-x="744" 
d="M517 786q-23 0 -37.5 13t-14.5 35t14.5 35t37.5 13t37.5 -13t14.5 -35t-14.5 -35t-37.5 -13zM256 834q0 -20 -13.5 -33t-34.5 -13h-40v91h40q21 0 34.5 -12.5t13.5 -32.5zM329 788h-63v91h63v-24h-33v-10h29v-22h-29v-10h33v-25zM367 788h-31l14 91h30l18 -43l19 43h30
l14 -91h-31l-5 46l-21 -46h-11l-21 46zM517 854q-20 0 -20 -20q0 -9 5.5 -15t14.5 -6t14.5 6t5.5 15q0 20 -20 20zM205 816q20 0 20 18t-20 18h-6v-36h6zM744 0h-212l-39 114h-248l-39 -114h-206l275 700h188zM446 265l-77 217l-77 -217h154z" />
    <glyph glyph-name="Aring" unicode="&#xc5;" horiz-adv-x="744" 
d="M522 786q-24 0 -38.5 13t-14.5 35t14.5 35t38.5 13q23 0 37.5 -13t14.5 -35t-14.5 -35t-37.5 -13zM260 834q0 -20 -13 -33t-35 -13h-39v91h39q22 0 35 -12.5t13 -32.5zM334 788h-63v91h62v-24h-32v-10h29v-22h-29v-10h33v-25zM371 788h-30l13 91h30l19 -43l19 43h30
l13 -91h-30l-5 46l-22 -46h-10l-21 46zM522 854q-20 0 -20 -20q0 -9 5.5 -15t14.5 -6t14.5 6t5.5 15q0 20 -20 20zM210 816q19 0 19 18t-19 18h-6v-36h6zM744 0h-212l-39 114h-248l-39 -114h-206l275 700h188zM446 265l-77 217l-77 -217h154z" />
    <glyph glyph-name="AE" unicode="&#xc6;" 
d="M286 532q-39 0 -62.5 25.5t-23.5 67.5t23.5 68t62.5 26t63 -26t24 -68t-24 -67.5t-63 -25.5zM286 661q-17 0 -26.5 -10t-9.5 -26t9.5 -25.5t26.5 -9.5t27 9.5t10 25.5t-10 26t-27 10zM204 500l164 24v-54l-83 -10l83 -38v-19l-82 -38l82 -9v-55l-164 24v54l79 33l-79 34
v54zM324 288h44v-113h-164v112h44v-58h18v52h40v-52h18v59zM286 157q36 0 59 -24t23 -63v-70h-164v70q0 39 23 63t59 24zM286 101q-15 0 -24 -9t-9 -26v-11h66v11q0 17 -9 26t-24 9z" />
    <glyph glyph-name="Ccedilla" unicode="&#xc7;" horiz-adv-x="784" 
d="M559 882q23 0 37.5 -13t14.5 -35t-14.5 -35t-37.5 -13t-37.5 13t-14.5 35t14.5 35t37.5 13zM249 879q22 0 35.5 -12.5t13.5 -32.5t-13.5 -33t-35.5 -13h-39v91h39zM338 813h33v-25h-63v91h62v-24h-32v-10h29v-22h-29v-10zM489 879l13 -91h-30l-5 46l-21 -46h-11l-21 46
l-5 -46h-31l14 91h30l18 -43l19 43h30zM559 813q9 0 14.5 6t5.5 15q0 20 -20 20t-20 -20q0 -9 5.5 -15t14.5 -6zM247 816q20 0 20 18t-20 18h-6v-36h6zM403 -18q-80 0 -148 28t-118 77t-78 116.5t-28 145.5q0 79 28 146.5t78 117t118 77.5t148 28q69 0 129 -21.5t106.5 -61
t77.5 -94.5t41 -122h-195q-18 54 -60.5 86.5t-97.5 32.5q-37 0 -68.5 -14t-54.5 -39.5t-36 -60t-13 -75.5q0 -40 13 -74.5t36 -59t54.5 -38.5t68.5 -14q58 0 101 35t57 93h197q-10 -69 -40.5 -126t-77 -97.5t-107.5 -63t-131 -22.5z" />
    <glyph glyph-name="Egrave" unicode="&#xc8;" horiz-adv-x="567" 
d="M446 786q-24 0 -38 13t-14 35t14 35t38 13q23 0 37.5 -13t14.5 -35t-14.5 -35t-37.5 -13zM185 834q0 -20 -13.5 -33t-35.5 -13h-39v91h39q22 0 35.5 -12.5t13.5 -32.5zM258 788h-63v91h62v-24h-32v-10h29v-22h-29v-10h33v-25zM296 788h-31l14 91h30l18 -43l19 43h30
l13 -91h-30l-5 46l-22 -46h-10l-21 46zM446 854q-20 0 -20 -20q0 -9 5.5 -15t14.5 -6t14.5 6t5.5 15q0 20 -20 20zM134 816q20 0 20 18t-20 18h-6v-36h6zM524 167v-167h-456v700h448v-167h-256v-103h230v-158h-230v-105h264z" />
    <glyph glyph-name="Eacute" unicode="&#xc9;" horiz-adv-x="567" 
d="M447 786q-23 0 -37.5 13t-14.5 35t14.5 35t37.5 13q24 0 38 -13t14 -35t-14 -35t-38 -13zM186 834q0 -20 -13.5 -33t-34.5 -13h-39v91h39q21 0 34.5 -12.5t13.5 -32.5zM259 788h-63v91h63v-24h-33v-10h29v-22h-29v-10h33v-25zM297 788h-30l13 91h30l19 -43l18 43h30
l14 -91h-31l-5 46l-21 -46h-11l-21 46zM447 854q-20 0 -20 -20q0 -9 5.5 -15t14.5 -6t14.5 6t5.5 15q0 20 -20 20zM136 816q19 0 19 18t-19 18h-7v-36h7zM524 167v-167h-456v700h448v-167h-256v-103h230v-158h-230v-105h264z" />
    <glyph glyph-name="Ecircumflex" unicode="&#xca;" horiz-adv-x="567" 
d="M447 786q-23 0 -37.5 13t-14.5 35t14.5 35t37.5 13t37.5 -13t14.5 -35t-14.5 -35t-37.5 -13zM186 834q0 -20 -13.5 -33t-34.5 -13h-40v91h40q21 0 34.5 -12.5t13.5 -32.5zM259 788h-63v91h63v-24h-33v-10h29v-22h-29v-10h33v-25zM297 788h-31l14 91h30l18 -43l19 43h30
l14 -91h-31l-5 46l-21 -46h-11l-21 46zM447 854q-20 0 -20 -20q0 -9 5.5 -15t14.5 -6t14.5 6t5.5 15q0 20 -20 20zM135 816q20 0 20 18t-20 18h-6v-36h6zM524 167v-167h-456v700h448v-167h-256v-103h230v-158h-230v-105h264z" />
    <glyph glyph-name="Edieresis" unicode="&#xcb;" horiz-adv-x="567" 
d="M524 167v-167h-456v700h448v-167h-256v-103h230v-158h-230v-105h264zM268 786h-186v157h186v-157zM511 786h-186v157h186v-157z" />
    <glyph glyph-name="Igrave" unicode="&#xcc;" horiz-adv-x="331" 
d="M320 882q23 0 37.5 -13t14.5 -35t-14.5 -35t-37.5 -13t-37.5 13t-14.5 35t14.5 35t37.5 13zM10 879q22 0 35.5 -12.5t13.5 -32.5t-13.5 -33t-35.5 -13h-39v91h39zM132 788h-63v91h62v-24h-32v-10h29v-22h-29v-10h33v-25zM250 879l13 -91h-30l-5 46l-21 -46h-11l-21 46
l-5 -46h-31l14 91h30l18 -43l19 43h30zM320 813q9 0 14.5 6t5.5 15q0 20 -20 20t-20 -20q0 -9 5.5 -15t14.5 -6zM8 816q20 0 20 18t-20 18h-6v-36h6zM68 700h195v-700h-195v700z" />
    <glyph glyph-name="Iacute" unicode="&#xcd;" horiz-adv-x="331" 
d="M315 882q23 0 37.5 -13t14.5 -35t-14.5 -35t-37.5 -13t-37.5 13t-14.5 35t14.5 35t37.5 13zM6 879q21 0 34.5 -12.5t13.5 -32.5t-13.5 -33t-34.5 -13h-40v91h40zM127 788h-63v91h63v-24h-33v-10h29v-22h-29v-10h33v-25zM165 788h-31l14 91h30l18 -43l19 43h30l14 -91h-31
l-5 46l-21 -46h-11l-21 46zM315 813q9 0 14.5 6t5.5 15q0 20 -20 20t-20 -20q0 -9 5.5 -15t14.5 -6zM3 816q20 0 20 18t-20 18h-6v-36h6zM68 700h195v-700h-195v700z" />
    <glyph glyph-name="Icircumflex" unicode="&#xce;" horiz-adv-x="331" 
d="M319 882q23 0 37.5 -13t14.5 -35t-14.5 -35t-37.5 -13t-37.5 13t-14.5 35t14.5 35t37.5 13zM10 879q21 0 34.5 -12.5t13.5 -32.5t-13.5 -33t-34.5 -13h-40v91h40zM131 788h-63v91h62v-24h-32v-10h29v-22h-29v-10h33v-25zM169 788h-31l14 91h30l18 -43l19 43h30l14 -91
h-31l-5 46l-21 -46h-11l-21 46zM319 813q9 0 14.5 6t5.5 15q0 20 -20 20t-20 -20q0 -9 5.5 -15t14.5 -6zM7 816q20 0 20 18t-20 18h-6v-36h6zM68 700h195v-700h-195v700z" />
    <glyph glyph-name="Idieresis" unicode="&#xcf;" horiz-adv-x="566" 
d="M185 700h195v-700h-195v700zM255 786h-187v157h187v-157zM498 786h-187v157h187v-157z" />
    <glyph glyph-name="Eth" unicode="&#xd0;" horiz-adv-x="745" 
d="M435 786q-24 0 -38.5 13t-14.5 35t14.5 35t38.5 13q23 0 37.5 -13t14.5 -35t-14.5 -35t-37.5 -13zM173 834q0 -20 -13 -33t-35 -13h-39v91h39q22 0 35 -12.5t13 -32.5zM247 788h-63v91h62v-24h-32v-10h29v-22h-29v-10h33v-25zM284 788h-30l13 91h30l19 -43l19 43h30
l13 -91h-30l-5 46l-22 -46h-10l-21 46zM435 854q-20 0 -20 -20q0 -9 5.5 -15t14.5 -6t14 6t5 15q0 20 -19 20zM123 816q19 0 19 18t-19 18h-6v-36h6zM351 700q80 0 146 -26t114 -72t74.5 -110t26.5 -141t-26.5 -141.5t-74.5 -111t-114.5 -72.5t-145.5 -26h-283v700h283z
M342 177q39 0 71 12.5t54.5 35.5t35 55t12.5 71q0 78 -47.5 125t-125.5 47h-81v-346h81z" />
    <glyph glyph-name="Ntilde" unicode="&#xd1;" horiz-adv-x="760" 
d="M535 786q-23 0 -37.5 13t-14.5 35t14.5 35t37.5 13t37.5 -13t14.5 -35t-14.5 -35t-37.5 -13zM274 834q0 -20 -13.5 -33t-34.5 -13h-39v91h39q21 0 34.5 -12.5t13.5 -32.5zM347 788h-63v91h63v-24h-33v-10h29v-22h-29v-10h33v-25zM385 788h-31l14 91h30l19 -43l18 43h30
l14 -91h-31l-5 46l-21 -46h-11l-21 46zM535 854q-20 0 -20 -20q0 -9 5.5 -15t14.5 -6t14.5 6t5.5 15q0 20 -20 20zM224 816q19 0 19 18t-19 18h-7v-36h7zM692 700v-700h-159l-278 380v-380h-187v700h168l269 -367v367h187z" />
    <glyph glyph-name="Ograve" unicode="&#xd2;" horiz-adv-x="832" 
d="M569 882q23 0 37.5 -13t14.5 -35t-14.5 -35t-37.5 -13t-37.5 13t-14.5 35t14.5 35t37.5 13zM260 879q21 0 34.5 -12.5t13.5 -32.5t-13.5 -33t-34.5 -13h-40v91h40zM348 813h33v-25h-63v91h63v-24h-33v-10h29v-22h-29v-10zM499 879l14 -91h-31l-5 46l-21 -46h-11l-21 46
l-5 -46h-31l14 91h30l18 -43l19 43h30zM569 813q9 0 14.5 6t5.5 15q0 20 -20 20t-20 -20q0 -9 5.5 -15t14.5 -6zM258 816q19 0 19 18t-19 18h-7v-36h7zM417 -18q-84 0 -155 27.5t-122.5 76.5t-80 116.5t-28.5 147.5t28.5 147.5t80 116.5t122.5 76.5t155 27.5t154.5 -27.5
t121.5 -76t79.5 -116t28.5 -148.5t-28.5 -148.5t-79.5 -116t-121.5 -76t-154.5 -27.5zM417 162q40 0 73.5 14t58 39t38 59.5t13.5 75.5t-13.5 75.5t-38 59.5t-58 39t-73.5 14t-74 -14t-58.5 -39t-38.5 -59.5t-14 -75.5t14 -75.5t38.5 -59.5t58.5 -39t74 -14z" />
    <glyph glyph-name="Oacute" unicode="&#xd3;" horiz-adv-x="832" 
d="M571 882q23 0 37.5 -13t14.5 -35t-14.5 -35t-37.5 -13q-24 0 -38.5 13t-14.5 35t14.5 35t38.5 13zM261 879q22 0 35 -12.5t13 -32.5t-13 -33t-35 -13h-39v91h39zM349 813h34v-25h-64v91h63v-24h-33v-10h30v-22h-30v-10zM501 879l13 -91h-30l-6 46l-21 -46h-10l-22 46
l-5 -46h-30l13 91h30l19 -43l19 43h30zM571 813q8 0 13.5 6t5.5 15q0 20 -19 20q-20 0 -20 -20q0 -9 5.5 -15t14.5 -6zM259 816q19 0 19 18t-19 18h-7v-36h7zM417 -18q-84 0 -155 27.5t-122.5 76.5t-80 116.5t-28.5 147.5t28.5 147.5t80 116.5t122.5 76.5t155 27.5
t154.5 -27.5t121.5 -76t79.5 -116t28.5 -148.5t-28.5 -148.5t-79.5 -116t-121.5 -76t-154.5 -27.5zM417 162q40 0 73.5 14t58 39t38 59.5t13.5 75.5t-13.5 75.5t-38 59.5t-58 39t-73.5 14t-74 -14t-58.5 -39t-38.5 -59.5t-14 -75.5t14 -75.5t38.5 -59.5t58.5 -39t74 -14z
" />
    <glyph glyph-name="Ocircumflex" unicode="&#xd4;" horiz-adv-x="832" 
d="M570 882q24 0 38.5 -13t14.5 -35t-14.5 -35t-38.5 -13q-23 0 -37.5 13t-14.5 35t14.5 35t37.5 13zM261 879q22 0 35 -12.5t13 -32.5t-13 -33t-35 -13h-39v91h39zM349 813h33v-25h-63v91h63v-24h-33v-10h29v-22h-29v-10zM501 879l13 -91h-30l-6 46l-21 -46h-10l-22 46
l-5 -46h-30l13 91h30l19 -43l19 43h30zM570 813q9 0 14.5 6t5.5 15q0 20 -20 20q-19 0 -19 -20q0 -9 5 -15t14 -6zM259 816q19 0 19 18t-19 18h-7v-36h7zM417 -18q-84 0 -155 27.5t-122.5 76.5t-80 116.5t-28.5 147.5t28.5 147.5t80 116.5t122.5 76.5t155 27.5t154.5 -27.5
t121.5 -76t79.5 -116t28.5 -148.5t-28.5 -148.5t-79.5 -116t-121.5 -76t-154.5 -27.5zM417 162q40 0 73.5 14t58 39t38 59.5t13.5 75.5t-13.5 75.5t-38 59.5t-58 39t-73.5 14t-74 -14t-58.5 -39t-38.5 -59.5t-14 -75.5t14 -75.5t38.5 -59.5t58.5 -39t74 -14z" />
    <glyph glyph-name="Otilde" unicode="&#xd5;" horiz-adv-x="832" 
d="M570 882q23 0 37.5 -13t14.5 -35t-14.5 -35t-37.5 -13t-37.5 13t-14.5 35t14.5 35t37.5 13zM260 879q22 0 35.5 -12.5t13.5 -32.5t-13.5 -33t-35.5 -13h-39v91h39zM349 813h33v-25h-63v91h62v-24h-32v-10h29v-22h-29v-10zM500 879l13 -91h-30l-5 46l-21 -46h-11l-21 46
l-5 -46h-31l14 91h30l18 -43l19 43h30zM570 813q9 0 14.5 6t5.5 15q0 20 -20 20t-20 -20q0 -9 5.5 -15t14.5 -6zM258 816q20 0 20 18t-20 18h-6v-36h6zM417 -18q-84 0 -155 27.5t-122.5 76.5t-80 116.5t-28.5 147.5t28.5 147.5t80 116.5t122.5 76.5t155 27.5t154.5 -27.5
t121.5 -76t79.5 -116t28.5 -148.5t-28.5 -148.5t-79.5 -116t-121.5 -76t-154.5 -27.5zM417 162q40 0 73.5 14t58 39t38 59.5t13.5 75.5t-13.5 75.5t-38 59.5t-58 39t-73.5 14t-74 -14t-58.5 -39t-38.5 -59.5t-14 -75.5t14 -75.5t38.5 -59.5t58.5 -39t74 -14z" />
    <glyph glyph-name="Odieresis" unicode="&#xd6;" horiz-adv-x="832" 
d="M565 786q-23 0 -37.5 13t-14.5 35t14.5 35t37.5 13q24 0 38.5 -13t14.5 -35t-14.5 -35t-38.5 -13zM304 834q0 -20 -13 -33t-35 -13h-39v91h39q22 0 35 -12.5t13 -32.5zM378 788h-64v91h63v-24h-33v-10h29v-22h-29v-10h34v-25zM415 788h-30l13 91h30l19 -43l19 43h30
l13 -91h-30l-6 46l-21 -46h-10l-22 46zM565 854q-19 0 -19 -20q0 -9 5.5 -15t13.5 -6q9 0 14.5 6t5.5 15q0 20 -20 20zM254 816q19 0 19 18t-19 18h-7v-36h7zM417 718q84 0 154.5 -27.5t121.5 -76t79.5 -116t28.5 -148.5t-28.5 -148.5t-79.5 -116t-121.5 -76t-154.5 -27.5
t-155 27.5t-122.5 76.5t-80 116.5t-28.5 147.5t28.5 147.5t80 116.5t122.5 76.5t155 27.5zM417 162q40 0 73.5 14t58 39t38 59.5t13.5 75.5t-13.5 75.5t-38 59.5t-58 39t-73.5 14t-74 -14t-58.5 -39t-38.5 -59.5t-14 -75.5t14 -75.5t38.5 -59.5t58.5 -39t74 -14z" />
    <glyph glyph-name="multiply" unicode="&#xd7;" horiz-adv-x="564" 
d="M397 326l132 -133l-116 -113l-131 131l-131 -131l-115 113l131 133l-131 133l116 114l130 -131l130 131l117 -114z" />
    <glyph glyph-name="Oslash" unicode="&#xd8;" horiz-adv-x="832" 
d="M569 882q23 0 37.5 -13t14.5 -35t-14.5 -35t-37.5 -13t-37.5 13t-14.5 35t14.5 35t37.5 13zM260 879q21 0 34.5 -12.5t13.5 -32.5t-13.5 -33t-34.5 -13h-40v91h40zM348 813h33v-25h-63v91h63v-24h-33v-10h29v-22h-29v-10zM499 879l14 -91h-31l-5 46l-21 -46h-11l-21 46
l-5 -46h-31l14 91h30l18 -43l19 43h30zM569 813q9 0 14.5 6t5.5 15q0 20 -20 20t-20 -20q0 -9 5.5 -15t14.5 -6zM258 816q19 0 19 18t-19 18h-7v-36h7zM417 -18q-84 0 -155 27.5t-122.5 76.5t-80 116.5t-28.5 147.5t28.5 147.5t80 116.5t122.5 76.5t155 27.5t154.5 -27.5
t121.5 -76t79.5 -116t28.5 -148.5t-28.5 -148.5t-79.5 -116t-121.5 -76t-154.5 -27.5zM417 162q40 0 73.5 14t58 39t38 59.5t13.5 75.5t-13.5 75.5t-38 59.5t-58 39t-73.5 14t-74 -14t-58.5 -39t-38.5 -59.5t-14 -75.5t14 -75.5t38.5 -59.5t58.5 -39t74 -14z" />
    <glyph glyph-name="Ugrave" unicode="&#xd9;" horiz-adv-x="732" 
d="M518 882q24 0 38 -13t14 -35t-14 -35t-38 -13q-23 0 -37.5 13t-14.5 35t14.5 35t37.5 13zM209 879q21 0 34.5 -12.5t13.5 -32.5t-13.5 -33t-34.5 -13h-39v91h39zM297 813h33v-25h-63v91h63v-24h-33v-10h29v-22h-29v-10zM448 879l14 -91h-31l-5 46l-21 -46h-11l-21 46
l-5 -46h-30l13 91h30l19 -43l18 43h30zM518 813q9 0 14.5 6t5.5 15q0 20 -20 20t-20 -20q0 -9 5.5 -15t14.5 -6zM207 816q19 0 19 18t-19 18h-7v-36h7zM366 -18q-67 0 -123.5 21t-97 59t-63 91.5t-22.5 117.5v429h197v-426q0 -51 30 -81.5t79 -30.5q48 0 78 30.5t30 81.5
v426h197v-429q0 -64 -22.5 -117.5t-63 -91.5t-96.5 -59t-123 -21z" />
    <glyph glyph-name="Uacute" unicode="&#xda;" horiz-adv-x="732" 
d="M520 882q23 0 37.5 -13t14.5 -35t-14.5 -35t-37.5 -13q-24 0 -38.5 13t-14.5 35t14.5 35t38.5 13zM210 879q22 0 35 -12.5t13 -32.5t-13 -33t-35 -13h-39v91h39zM299 813h33v-25h-63v91h62v-24h-32v-10h29v-22h-29v-10zM450 879l13 -91h-30l-5 46l-22 -46h-10l-21 46
l-6 -46h-30l13 91h30l19 -43l19 43h30zM520 813q9 0 14.5 6t5.5 15q0 20 -20 20t-20 -20q0 -9 5.5 -15t14.5 -6zM208 816q19 0 19 18t-19 18h-6v-36h6zM366 -18q-67 0 -123.5 21t-97 59t-63 91.5t-22.5 117.5v429h197v-426q0 -51 30 -81.5t79 -30.5q48 0 78 30.5t30 81.5
v426h197v-429q0 -64 -22.5 -117.5t-63 -91.5t-96.5 -59t-123 -21z" />
    <glyph glyph-name="Ucircumflex" unicode="&#xdb;" horiz-adv-x="732" 
d="M519 882q24 0 38.5 -13t14.5 -35t-14.5 -35t-38.5 -13q-23 0 -37.5 13t-14.5 35t14.5 35t37.5 13zM210 879q22 0 35 -12.5t13 -32.5t-13 -33t-35 -13h-39v91h39zM298 813h34v-25h-64v91h63v-24h-33v-10h30v-22h-30v-10zM450 879l13 -91h-30l-6 46l-21 -46h-10l-22 46
l-5 -46h-30l13 91h30l19 -43l19 43h30zM519 813q9 0 14.5 6t5.5 15q0 20 -20 20q-19 0 -19 -20q0 -9 5.5 -15t13.5 -6zM208 816q19 0 19 18t-19 18h-7v-36h7zM366 -18q-67 0 -123.5 21t-97 59t-63 91.5t-22.5 117.5v429h197v-426q0 -51 30 -81.5t79 -30.5q48 0 78 30.5
t30 81.5v426h197v-429q0 -64 -22.5 -117.5t-63 -91.5t-96.5 -59t-123 -21z" />
    <glyph glyph-name="Udieresis" unicode="&#xdc;" horiz-adv-x="732" 
d="M515 786q-24 0 -38.5 13t-14.5 35t14.5 35t38.5 13q23 0 37.5 -13t14.5 -35t-14.5 -35t-37.5 -13zM253 834q0 -20 -13 -33t-35 -13h-39v91h39q22 0 35 -12.5t13 -32.5zM327 788h-63v91h62v-24h-32v-10h29v-22h-29v-10h33v-25zM364 788h-30l13 91h30l19 -43l19 43h30
l13 -91h-30l-6 46l-21 -46h-10l-21 46zM515 854q-20 0 -20 -20q0 -9 5.5 -15t14.5 -6q8 0 13.5 6t5.5 15q0 20 -19 20zM203 816q19 0 19 18t-19 18h-7v-36h7zM671 700v-429q0 -64 -22.5 -117.5t-63 -91.5t-96.5 -59t-123 -21t-123.5 21t-97 59t-63 91.5t-22.5 117.5v429h197
v-426q0 -51 30 -81.5t79 -30.5q48 0 78 30.5t30 81.5v426h197z" />
    <glyph glyph-name="Yacute" unicode="&#xdd;" horiz-adv-x="699" 
d="M504 786q-23 0 -37.5 13t-14.5 35t14.5 35t37.5 13t37.5 -13t14.5 -35t-14.5 -35t-37.5 -13zM243 834q0 -20 -13.5 -33t-35.5 -13h-39v91h39q22 0 35.5 -12.5t13.5 -32.5zM316 788h-63v91h62v-24h-32v-10h29v-22h-29v-10h33v-25zM354 788h-31l14 91h30l18 -43l19 43h30
l13 -91h-30l-5 46l-21 -46h-11l-21 46zM504 854q-20 0 -20 -20q0 -9 5.5 -15t14.5 -6t14.5 6t5.5 15q0 20 -20 20zM192 816q20 0 20 18t-20 18h-6v-36h6zM447 274v-274h-196v274l-243 426h214l128 -253l128 253h214z" />
    <glyph glyph-name="Thorn" unicode="&#xde;" 
d="M286 532q-39 0 -62.5 25.5t-23.5 67.5t23.5 68t62.5 26t63 -26t24 -68t-24 -67.5t-63 -25.5zM286 661q-17 0 -26.5 -10t-9.5 -26t9.5 -25.5t26.5 -9.5t27 9.5t10 25.5t-10 26t-27 10zM204 500l164 24v-54l-83 -10l83 -38v-19l-82 -38l82 -9v-55l-164 24v54l79 33l-79 34
v54zM324 288h44v-113h-164v112h44v-58h18v52h40v-52h18v59zM286 157q36 0 59 -24t23 -63v-70h-164v70q0 39 23 63t59 24zM286 101q-15 0 -24 -9t-9 -26v-11h66v11q0 17 -9 26t-24 9z" />
    <glyph glyph-name="germandbls" unicode="&#xdf;" 
d="M286 532q-39 0 -62.5 25.5t-23.5 67.5t23.5 68t62.5 26t63 -26t24 -68t-24 -67.5t-63 -25.5zM286 661q-17 0 -26.5 -10t-9.5 -26t9.5 -25.5t26.5 -9.5t27 9.5t10 25.5t-10 26t-27 10zM204 500l164 24v-54l-83 -10l83 -38v-19l-82 -38l82 -9v-55l-164 24v54l79 33l-79 34
v54zM324 288h44v-113h-164v112h44v-58h18v52h40v-52h18v59zM286 157q36 0 59 -24t23 -63v-70h-164v70q0 39 23 63t59 24zM286 101q-15 0 -24 -9t-9 -26v-11h66v11q0 17 -9 26t-24 9z" />
    <glyph glyph-name="agrave" unicode="&#xe0;" horiz-adv-x="692" 
d="M490 616q-23 0 -37.5 13t-14.5 35t14.5 35t37.5 13q24 0 38 -13t14 -35t-14 -35t-38 -13zM229 664q0 -20 -13.5 -33t-34.5 -13h-39v91h39q21 0 34.5 -12.5t13.5 -32.5zM302 618h-63v91h63v-24h-33v-10h29v-22h-29v-10h33v-25zM340 618h-30l13 91h30l19 -43l18 43h30
l14 -91h-30l-6 46l-21 -46h-11l-21 46zM490 684q-20 0 -20 -20q0 -9 5.5 -15t14.5 -6t14.5 6t5.5 15q0 20 -20 20zM179 646q19 0 19 18t-19 18h-7v-36h7zM633 541v-540h-143l-16 38q-34 -27 -75 -42t-88 -15q-62 0 -114 21.5t-90 60t-59 91.5t-21 116t21 115.5t59 90.5
t90 59t114 21q48 0 89.5 -15t75.5 -43l19 42h138zM336 147q26 0 48 9.5t38 26t25 39t9 48.5t-9 48.5t-25 39t-38 26t-48 9.5q-54 0 -87.5 -35t-33.5 -88q0 -26 9 -48.5t25 -39t38.5 -26t48.5 -9.5z" />
    <glyph glyph-name="aacute" unicode="&#xe1;" horiz-adv-x="692" 
d="M496 616q-23 0 -37.5 13t-14.5 35t14.5 35t37.5 13q24 0 38.5 -13t14.5 -35t-14.5 -35t-38.5 -13zM235 664q0 -20 -13 -33t-35 -13h-39v91h39q22 0 35 -12.5t13 -32.5zM309 618h-64v91h63v-24h-33v-10h29v-22h-29v-10h34v-25zM346 618h-30l13 91h30l19 -43l19 43h30
l13 -91h-30l-6 46l-21 -46h-10l-22 46zM496 684q-19 0 -19 -20q0 -9 5.5 -15t13.5 -6q9 0 14.5 6t5.5 15q0 20 -20 20zM185 646q19 0 19 18t-19 18h-7v-36h7zM633 541v-540h-143l-16 38q-34 -27 -75 -42t-88 -15q-62 0 -114 21.5t-90 60t-59 91.5t-21 116t21 115.5t59 90.5
t90 59t114 21q48 0 89.5 -15t75.5 -43l19 42h138zM336 147q26 0 48 9.5t38 26t25 39t9 48.5t-9 48.5t-25 39t-38 26t-48 9.5q-54 0 -87.5 -35t-33.5 -88q0 -26 9 -48.5t25 -39t38.5 -26t48.5 -9.5z" />
    <glyph glyph-name="acircumflex" unicode="&#xe2;" horiz-adv-x="692" 
d="M497 616q-24 0 -38.5 13t-14.5 35t14.5 35t38.5 13q23 0 37.5 -13t14.5 -35t-14.5 -35t-37.5 -13zM235 664q0 -20 -13 -33t-35 -13h-39v91h39q22 0 35 -12.5t13 -32.5zM309 618h-64v91h63v-24h-33v-10h30v-22h-30v-10h34v-25zM346 618h-30l13 91h30l19 -43l19 43h30
l13 -91h-30l-6 46l-21 -46h-10l-22 46zM497 684q-20 0 -20 -20q0 -9 5.5 -15t14.5 -6q8 0 13.5 6t5.5 15q0 20 -19 20zM185 646q19 0 19 18t-19 18h-7v-36h7zM633 541v-540h-143l-16 38q-34 -27 -75 -42t-88 -15q-62 0 -114 21.5t-90 60t-59 91.5t-21 116t21 115.5t59 90.5
t90 59t114 21q48 0 89.5 -15t75.5 -43l19 42h138zM336 147q26 0 48 9.5t38 26t25 39t9 48.5t-9 48.5t-25 39t-38 26t-48 9.5q-54 0 -87.5 -35t-33.5 -88q0 -26 9 -48.5t25 -39t38.5 -26t48.5 -9.5z" />
    <glyph glyph-name="atilde" unicode="&#xe3;" horiz-adv-x="692" 
d="M496 616q-23 0 -37.5 13t-14.5 35t14.5 35t37.5 13q24 0 38 -13t14 -35t-14 -35t-38 -13zM235 664q0 -20 -13.5 -33t-34.5 -13h-39v91h39q21 0 34.5 -12.5t13.5 -32.5zM308 618h-63v91h63v-24h-33v-10h29v-22h-29v-10h33v-25zM346 618h-30l13 91h30l19 -43l18 43h30
l14 -91h-31l-5 46l-21 -46h-11l-21 46zM496 684q-20 0 -20 -20q0 -9 5.5 -15t14.5 -6t14.5 6t5.5 15q0 20 -20 20zM185 646q19 0 19 18t-19 18h-7v-36h7zM633 541v-540h-143l-16 38q-34 -27 -75 -42t-88 -15q-62 0 -114 21.5t-90 60t-59 91.5t-21 116t21 115.5t59 90.5
t90 59t114 21q48 0 89.5 -15t75.5 -43l19 42h138zM336 147q26 0 48 9.5t38 26t25 39t9 48.5t-9 48.5t-25 39t-38 26t-48 9.5q-54 0 -87.5 -35t-33.5 -88q0 -26 9 -48.5t25 -39t38.5 -26t48.5 -9.5z" />
    <glyph glyph-name="adieresis" unicode="&#xe4;" horiz-adv-x="692" 
d="M496 616q-24 0 -38.5 13t-14.5 35t14.5 35t38.5 13q23 0 37.5 -13t14.5 -35t-14.5 -35t-37.5 -13zM234 664q0 -20 -13 -33t-35 -13h-39v91h39q22 0 35 -12.5t13 -32.5zM308 618h-64v91h63v-24h-33v-10h30v-22h-30v-10h34v-25zM345 618h-30l13 91h30l19 -43l19 43h30
l13 -91h-30l-6 46l-21 -46h-10l-22 46zM496 684q-20 0 -20 -20q0 -9 5.5 -15t14.5 -6q8 0 13.5 6t5.5 15q0 20 -19 20zM184 646q19 0 19 18t-19 18h-7v-36h7zM633 541v-540h-143l-16 38q-34 -27 -75 -42t-88 -15q-62 0 -114 21.5t-90 60t-59 91.5t-21 116t21 115.5t59 90.5
t90 59t114 21q48 0 89.5 -15t75.5 -43l19 42h138zM336 147q26 0 48 9.5t38 26t25 39t9 48.5t-9 48.5t-25 39t-38 26t-48 9.5q-54 0 -87.5 -35t-33.5 -88q0 -26 9 -48.5t25 -39t38.5 -26t48.5 -9.5z" />
    <glyph glyph-name="aring" unicode="&#xe5;" horiz-adv-x="692" 
d="M496 616q-24 0 -38.5 13t-14.5 35t14.5 35t38.5 13q23 0 37.5 -13t14.5 -35t-14.5 -35t-37.5 -13zM234 664q0 -20 -13 -33t-35 -13h-39v91h39q22 0 35 -12.5t13 -32.5zM308 618h-64v91h63v-24h-33v-10h30v-22h-30v-10h34v-25zM345 618h-30l13 91h30l19 -43l19 43h30
l13 -91h-30l-6 46l-21 -46h-10l-22 46zM496 684q-20 0 -20 -20q0 -9 5.5 -15t14.5 -6q8 0 13.5 6t5.5 15q0 20 -19 20zM184 646q19 0 19 18t-19 18h-7v-36h7zM633 541v-540h-143l-16 38q-34 -27 -75 -42t-88 -15q-62 0 -114 21.5t-90 60t-59 91.5t-21 116t21 115.5t59 90.5
t90 59t114 21q48 0 89.5 -15t75.5 -43l19 42h138zM336 147q26 0 48 9.5t38 26t25 39t9 48.5t-9 48.5t-25 39t-38 26t-48 9.5q-54 0 -87.5 -35t-33.5 -88q0 -26 9 -48.5t25 -39t38.5 -26t48.5 -9.5z" />
    <glyph glyph-name="ae" unicode="&#xe6;" 
d="M286 532q-39 0 -62.5 25.5t-23.5 67.5t23.5 68t62.5 26t63 -26t24 -68t-24 -67.5t-63 -25.5zM286 661q-17 0 -26.5 -10t-9.5 -26t9.5 -25.5t26.5 -9.5t27 9.5t10 25.5t-10 26t-27 10zM204 500l164 24v-54l-83 -10l83 -38v-19l-82 -38l82 -9v-55l-164 24v54l79 33l-79 34
v54zM324 288h44v-113h-164v112h44v-58h18v52h40v-52h18v59zM286 157q36 0 59 -24t23 -63v-70h-164v70q0 39 23 63t59 24zM286 101q-15 0 -24 -9t-9 -26v-11h66v11q0 17 -9 26t-24 9z" />
    <glyph glyph-name="ccedilla" unicode="&#xe7;" horiz-adv-x="636" 
d="M479 712q24 0 38.5 -13t14.5 -35t-14.5 -35t-38.5 -13q-23 0 -37.5 13t-14.5 35t14.5 35t37.5 13zM170 709q22 0 35 -12.5t13 -32.5t-13 -33t-35 -13h-39v91h39zM258 643h33v-25h-63v91h63v-24h-33v-10h29v-22h-29v-10zM410 709l13 -91h-30l-6 46l-21 -46h-10l-22 46
l-5 -46h-30l13 91h30l19 -43l19 43h30zM479 643q9 0 14.5 6t5.5 15q0 20 -20 20q-19 0 -19 -20q0 -9 5 -15t14 -6zM168 646q19 0 19 18t-19 18h-7v-36h7zM326 -18q-65 0 -119.5 21.5t-94.5 60t-62 91.5t-22 116t22 115.5t61.5 90.5t94.5 59t120 21q57 0 106 -17t86.5 -48.5
t62 -75.5t31.5 -98h-181q-12 33 -40.5 52.5t-64.5 19.5q-50 0 -81 -33t-31 -87q0 -53 31.5 -87t80.5 -34q38 0 66 21.5t39 57.5h183q-8 -55 -32.5 -100.5t-62.5 -77.5t-87 -50t-106 -18z" />
    <glyph glyph-name="egrave" unicode="&#xe8;" horiz-adv-x="641" 
d="M468 616q-23 0 -37.5 13t-14.5 35t14.5 35t37.5 13q24 0 38.5 -13t14.5 -35t-14.5 -35t-38.5 -13zM207 664q0 -20 -13 -33t-35 -13h-39v91h39q22 0 35 -12.5t13 -32.5zM280 618h-63v91h63v-24h-33v-10h29v-22h-29v-10h33v-25zM318 618h-30l13 91h30l19 -43l19 43h30
l13 -91h-30l-6 46l-21 -46h-10l-22 46zM468 684q-19 0 -19 -20q0 -9 5.5 -15t13.5 -6q9 0 14.5 6t5.5 15q0 20 -20 20zM157 646q19 0 19 18t-19 18h-7v-36h7zM615 275q0 -12 -1 -24t-3 -25h-401q9 -47 37.5 -70.5t72.5 -23.5q33 0 58.5 13.5t39.5 37.5h185
q-14 -46 -41 -83.5t-63.5 -63.5t-82 -40t-96.5 -14q-63 0 -116.5 22t-93 60.5t-61.5 91t-22 114.5t22 115t61 91.5t93 60t117 21.5q65 0 119.5 -22t93.5 -60t60.5 -89.5t21.5 -111.5zM320 412q-41 0 -68.5 -21t-38.5 -62h219q-26 83 -112 83z" />
    <glyph glyph-name="eacute" unicode="&#xe9;" horiz-adv-x="641" 
d="M475 616q-24 0 -38.5 13t-14.5 35t14.5 35t38.5 13q23 0 37.5 -13t14.5 -35t-14.5 -35t-37.5 -13zM213 664q0 -20 -13 -33t-35 -13h-39v91h39q22 0 35 -12.5t13 -32.5zM287 618h-64v91h63v-24h-33v-10h30v-22h-30v-10h34v-25zM324 618h-30l13 91h30l19 -43l19 43h30
l13 -91h-30l-6 46l-21 -46h-10l-22 46zM475 684q-20 0 -20 -20q0 -9 5.5 -15t14.5 -6q8 0 13.5 6t5.5 15q0 20 -19 20zM163 646q19 0 19 18t-19 18h-7v-36h7zM615 275q0 -12 -1 -24t-3 -25h-401q9 -47 37.5 -70.5t72.5 -23.5q33 0 58.5 13.5t39.5 37.5h185
q-14 -46 -41 -83.5t-63.5 -63.5t-82 -40t-96.5 -14q-63 0 -116.5 22t-93 60.5t-61.5 91t-22 114.5t22 115t61 91.5t93 60t117 21.5q65 0 119.5 -22t93.5 -60t60.5 -89.5t21.5 -111.5zM320 412q-41 0 -68.5 -21t-38.5 -62h219q-26 83 -112 83z" />
    <glyph glyph-name="ecircumflex" unicode="&#xea;" horiz-adv-x="641" 
d="M475 616q-24 0 -38.5 13t-14.5 35t14.5 35t38.5 13q23 0 37.5 -13t14.5 -35t-14.5 -35t-37.5 -13zM213 664q0 -20 -13 -33t-35 -13h-39v91h39q22 0 35 -12.5t13 -32.5zM287 618h-63v91h62v-24h-32v-10h29v-22h-29v-10h33v-25zM324 618h-30l13 91h30l19 -43l19 43h30
l13 -91h-30l-6 46l-21 -46h-10l-21 46zM475 684q-20 0 -20 -20q0 -9 5.5 -15t14.5 -6q8 0 13.5 6t5.5 15q0 20 -19 20zM163 646q19 0 19 18t-19 18h-7v-36h7zM615 275q0 -12 -1 -24t-3 -25h-401q9 -47 37.5 -70.5t72.5 -23.5q33 0 58.5 13.5t39.5 37.5h185
q-14 -46 -41 -83.5t-63.5 -63.5t-82 -40t-96.5 -14q-63 0 -116.5 22t-93 60.5t-61.5 91t-22 114.5t22 115t61 91.5t93 60t117 21.5q65 0 119.5 -22t93.5 -60t60.5 -89.5t21.5 -111.5zM320 412q-41 0 -68.5 -21t-38.5 -62h219q-26 83 -112 83z" />
    <glyph glyph-name="edieresis" unicode="&#xeb;" horiz-adv-x="641" 
d="M615 275q0 -12 -1 -24t-3 -25h-401q9 -47 37.5 -70.5t72.5 -23.5q33 0 58.5 13.5t39.5 37.5h185q-14 -46 -41 -83.5t-63.5 -63.5t-82 -40t-96.5 -14q-63 0 -116.5 22t-93 60.5t-61.5 91t-22 114.5t22 115t61 91.5t93 60t117 21.5q65 0 119.5 -22t93.5 -60t60.5 -89.5
t21.5 -111.5zM320 412q-41 0 -68.5 -21t-38.5 -62h219q-26 83 -112 83zM292 616h-186v157h186v-157zM535 616h-186v157h186v-157z" />
    <glyph glyph-name="igrave" unicode="&#xec;" horiz-adv-x="303" 
d="M305 712q23 0 37.5 -13t14.5 -35t-14.5 -35t-37.5 -13q-24 0 -38.5 13t-14.5 35t14.5 35t38.5 13zM-5 709q22 0 35 -12.5t13 -32.5t-13 -33t-35 -13h-39v91h39zM117 618h-64v91h63v-24h-33v-10h30v-22h-30v-10h34v-25zM235 709l13 -91h-30l-6 46l-21 -46h-10l-22 46
l-5 -46h-30l13 91h30l19 -43l19 43h30zM305 643q8 0 13.5 6t5.5 15q0 20 -19 20q-20 0 -20 -20q0 -9 5.5 -15t14.5 -6zM-7 646q19 0 19 18t-19 18h-7v-36h7zM59 540h186v-540h-186v540z" />
    <glyph glyph-name="iacute" unicode="&#xed;" horiz-adv-x="303" 
d="M305 712q23 0 37.5 -13t14.5 -35t-14.5 -35t-37.5 -13t-37.5 13t-14.5 35t14.5 35t37.5 13zM-5 709q22 0 35.5 -12.5t13.5 -32.5t-13.5 -33t-35.5 -13h-39v91h39zM117 618h-63v91h62v-24h-32v-10h29v-22h-29v-10h33v-25zM235 709l13 -91h-30l-5 46l-21 -46h-11l-21 46
l-5 -46h-31l14 91h30l18 -43l19 43h30zM305 643q9 0 14.5 6t5.5 15q0 20 -20 20t-20 -20q0 -9 5.5 -15t14.5 -6zM-7 646q20 0 20 18t-20 18h-6v-36h6zM59 540h186v-540h-186v540z" />
    <glyph glyph-name="icircumflex" unicode="&#xee;" horiz-adv-x="303" 
d="M305 712q23 0 37.5 -13t14.5 -35t-14.5 -35t-37.5 -13t-37.5 13t-14.5 35t14.5 35t37.5 13zM-4 709q21 0 34.5 -12.5t13.5 -32.5t-13.5 -33t-34.5 -13h-39v91h39zM117 618h-63v91h63v-24h-33v-10h29v-22h-29v-10h33v-25zM235 709l14 -91h-31l-5 46l-21 -46h-11l-21 46
l-5 -46h-31l14 91h30l19 -43l18 43h30zM305 643q9 0 14.5 6t5.5 15q0 20 -20 20t-20 -20q0 -9 5.5 -15t14.5 -6zM-6 646q19 0 19 18t-19 18h-7v-36h7zM59 540h186v-540h-186v540z" />
    <glyph glyph-name="idieresis" unicode="&#xef;" horiz-adv-x="546" 
d="M179 540h186v-540h-186v540zM245 608h-187v157h187v-157zM488 608h-187v157h187v-157z" />
    <glyph glyph-name="eth" unicode="&#xf0;" 
d="M286 532q-39 0 -62.5 25.5t-23.5 67.5t23.5 68t62.5 26t63 -26t24 -68t-24 -67.5t-63 -25.5zM286 661q-17 0 -26.5 -10t-9.5 -26t9.5 -25.5t26.5 -9.5t27 9.5t10 25.5t-10 26t-27 10zM204 500l164 24v-54l-83 -10l83 -38v-19l-82 -38l82 -9v-55l-164 24v54l79 33l-79 34
v54zM324 288h44v-113h-164v112h44v-58h18v52h40v-52h18v59zM286 157q36 0 59 -24t23 -63v-70h-164v70q0 39 23 63t59 24zM286 101q-15 0 -24 -9t-9 -26v-11h66v11q0 17 -9 26t-24 9z" />
    <glyph glyph-name="ntilde" unicode="&#xf1;" horiz-adv-x="645" 
d="M483 616q-23 0 -37.5 13t-14.5 35t14.5 35t37.5 13t37.5 -13t14.5 -35t-14.5 -35t-37.5 -13zM222 664q0 -20 -13.5 -33t-35.5 -13h-39v91h39q22 0 35.5 -12.5t13.5 -32.5zM295 618h-63v91h62v-24h-32v-10h29v-22h-29v-10h33v-25zM333 618h-31l14 91h30l18 -43l19 43h30
l13 -91h-30l-5 46l-21 -46h-11l-21 46zM483 684q-20 0 -20 -20q0 -9 5.5 -15t14.5 -6t14.5 6t5.5 15q0 20 -20 20zM171 646q20 0 20 18t-20 18h-6v-36h6zM385 556q47 0 85 -16t65 -45.5t42 -71.5t15 -94v-329h-186v304q0 94 -70 94q-44 0 -67.5 -29t-23.5 -81v-288h-186v540
h130l26 -56q30 34 73.5 53t96.5 19z" />
    <glyph glyph-name="ograve" unicode="&#xf2;" horiz-adv-x="660" 
d="M477 712q24 0 38 -13t14 -35t-14 -35t-38 -13q-23 0 -37.5 13t-14.5 35t14.5 35t37.5 13zM168 709q21 0 34.5 -12.5t13.5 -32.5t-13.5 -33t-34.5 -13h-39v91h39zM256 643h33v-25h-63v91h63v-24h-33v-10h29v-22h-29v-10zM407 709l14 -91h-31l-5 46l-21 -46h-11l-21 46
l-5 -46h-30l13 91h30l19 -43l18 43h30zM477 643q9 0 14.5 6t5.5 15q0 20 -20 20t-20 -20q0 -9 5.5 -15t14.5 -6zM166 646q19 0 19 18t-19 18h-7v-36h7zM330 -18q-66 0 -121.5 21.5t-96 60t-63 91t-22.5 115.5t22.5 115.5t63 91t96 60t121.5 21.5t121.5 -21.5t96 -60t63 -91
t22.5 -115.5t-22.5 -115.5t-63 -91t-96 -60t-121.5 -21.5zM330 149q51 0 83.5 33.5t32.5 87.5t-32.5 87.5t-83.5 33.5t-84 -33.5t-33 -87.5t33 -87.5t84 -33.5z" />
    <glyph glyph-name="oacute" unicode="&#xf3;" horiz-adv-x="660" 
d="M483 712q24 0 38.5 -13t14.5 -35t-14.5 -35t-38.5 -13q-23 0 -37.5 13t-14.5 35t14.5 35t37.5 13zM174 709q22 0 35 -12.5t13 -32.5t-13 -33t-35 -13h-39v91h39zM262 643h34v-25h-64v91h63v-24h-33v-10h29v-22h-29v-10zM414 709l13 -91h-30l-6 46l-21 -46h-10l-22 46
l-5 -46h-30l13 91h30l19 -43l19 43h30zM483 643q9 0 14.5 6t5.5 15q0 20 -20 20q-19 0 -19 -20q0 -9 5.5 -15t13.5 -6zM172 646q19 0 19 18t-19 18h-7v-36h7zM330 -18q-66 0 -121.5 21.5t-96 60t-63 91t-22.5 115.5t22.5 115.5t63 91t96 60t121.5 21.5t121.5 -21.5t96 -60
t63 -91t22.5 -115.5t-22.5 -115.5t-63 -91t-96 -60t-121.5 -21.5zM330 149q51 0 83.5 33.5t32.5 87.5t-32.5 87.5t-83.5 33.5t-84 -33.5t-33 -87.5t33 -87.5t84 -33.5z" />
    <glyph glyph-name="ocircumflex" unicode="&#xf4;" horiz-adv-x="660" 
d="M483 712q24 0 38.5 -13t14.5 -35t-14.5 -35t-38.5 -13q-23 0 -37.5 13t-14.5 35t14.5 35t37.5 13zM174 709q22 0 35 -12.5t13 -32.5t-13 -33t-35 -13h-39v91h39zM262 643h34v-25h-64v91h63v-24h-33v-10h30v-22h-30v-10zM414 709l13 -91h-30l-6 46l-21 -46h-10l-22 46
l-5 -46h-30l13 91h30l19 -43l19 43h30zM483 643q9 0 14.5 6t5.5 15q0 20 -20 20q-19 0 -19 -20q0 -9 5.5 -15t13.5 -6zM172 646q19 0 19 18t-19 18h-7v-36h7zM330 -18q-66 0 -121.5 21.5t-96 60t-63 91t-22.5 115.5t22.5 115.5t63 91t96 60t121.5 21.5t121.5 -21.5t96 -60
t63 -91t22.5 -115.5t-22.5 -115.5t-63 -91t-96 -60t-121.5 -21.5zM330 149q51 0 83.5 33.5t32.5 87.5t-32.5 87.5t-83.5 33.5t-84 -33.5t-33 -87.5t33 -87.5t84 -33.5z" />
    <glyph glyph-name="otilde" unicode="&#xf5;" horiz-adv-x="660" 
d="M483 712q23 0 37.5 -13t14.5 -35t-14.5 -35t-37.5 -13t-37.5 13t-14.5 35t14.5 35t37.5 13zM174 709q21 0 34.5 -12.5t13.5 -32.5t-13.5 -33t-34.5 -13h-39v91h39zM262 643h33v-25h-63v91h63v-24h-33v-10h29v-22h-29v-10zM413 709l14 -91h-31l-5 46l-21 -46h-11l-21 46
l-5 -46h-31l14 91h30l19 -43l18 43h30zM483 643q9 0 14.5 6t5.5 15q0 20 -20 20t-20 -20q0 -9 5.5 -15t14.5 -6zM172 646q19 0 19 18t-19 18h-7v-36h7zM330 -18q-66 0 -121.5 21.5t-96 60t-63 91t-22.5 115.5t22.5 115.5t63 91t96 60t121.5 21.5t121.5 -21.5t96 -60t63 -91
t22.5 -115.5t-22.5 -115.5t-63 -91t-96 -60t-121.5 -21.5zM330 149q51 0 83.5 33.5t32.5 87.5t-32.5 87.5t-83.5 33.5t-84 -33.5t-33 -87.5t33 -87.5t84 -33.5z" />
    <glyph glyph-name="odieresis" unicode="&#xf6;" horiz-adv-x="660" 
d="M482 712q24 0 38.5 -13t14.5 -35t-14.5 -35t-38.5 -13q-23 0 -37.5 13t-14.5 35t14.5 35t37.5 13zM173 709q22 0 35 -12.5t13 -32.5t-13 -33t-35 -13h-39v91h39zM261 643h34v-25h-64v91h63v-24h-33v-10h30v-22h-30v-10zM413 709l13 -91h-30l-6 46l-21 -46h-10l-22 46
l-5 -46h-30l13 91h30l19 -43l19 43h30zM482 643q9 0 14.5 6t5.5 15q0 20 -20 20q-19 0 -19 -20q0 -9 5.5 -15t13.5 -6zM171 646q19 0 19 18t-19 18h-7v-36h7zM330 -18q-66 0 -121.5 21.5t-96 60t-63 91t-22.5 115.5t22.5 115.5t63 91t96 60t121.5 21.5t121.5 -21.5t96 -60
t63 -91t22.5 -115.5t-22.5 -115.5t-63 -91t-96 -60t-121.5 -21.5zM330 149q51 0 83.5 33.5t32.5 87.5t-32.5 87.5t-83.5 33.5t-84 -33.5t-33 -87.5t33 -87.5t84 -33.5z" />
    <glyph glyph-name="divide" unicode="&#xf7;" horiz-adv-x="540" 
d="M270 446q-37 0 -62 25t-25 62q0 36 25 61t62 25t62 -25t25 -61q0 -37 -25 -62t-62 -25zM32 400h476v-148h-476v148zM270 32q-37 0 -62 25t-25 62q0 36 25 61t62 25q36 0 61.5 -25t25.5 -61q0 -37 -25 -62t-62 -25z" />
    <glyph glyph-name="oslash" unicode="&#xf8;" horiz-adv-x="660" 
d="M483 712q23 0 37.5 -13t14.5 -35t-14.5 -35t-37.5 -13q-24 0 -38.5 13t-14.5 35t14.5 35t38.5 13zM173 709q22 0 35 -12.5t13 -32.5t-13 -33t-35 -13h-39v91h39zM262 643h33v-25h-63v91h62v-24h-32v-10h29v-22h-29v-10zM413 709l13 -91h-30l-5 46l-22 -46h-10l-21 46
l-6 -46h-30l13 91h30l19 -43l19 43h30zM483 643q9 0 14 6t5 15q0 20 -19 20q-20 0 -20 -20q0 -9 5.5 -15t14.5 -6zM171 646q19 0 19 18t-19 18h-6v-36h6zM330 -18q-66 0 -121.5 21.5t-96 60t-63 91t-22.5 115.5t22.5 115.5t63 91t96 60t121.5 21.5t121.5 -21.5t96 -60
t63 -91t22.5 -115.5t-22.5 -115.5t-63 -91t-96 -60t-121.5 -21.5zM330 149q51 0 83.5 33.5t32.5 87.5t-32.5 87.5t-83.5 33.5t-84 -33.5t-33 -87.5t33 -87.5t84 -33.5z" />
    <glyph glyph-name="ugrave" unicode="&#xf9;" horiz-adv-x="635" 
d="M466 712q23 0 37.5 -13t14.5 -35t-14.5 -35t-37.5 -13t-37.5 13t-14.5 35t14.5 35t37.5 13zM156 709q22 0 35.5 -12.5t13.5 -32.5t-13.5 -33t-35.5 -13h-39v91h39zM245 643h33v-25h-63v91h62v-24h-32v-10h29v-22h-29v-10zM396 709l13 -91h-30l-5 46l-22 -46h-10l-21 46
l-5 -46h-31l14 91h30l18 -43l19 43h30zM466 643q9 0 14.5 6t5.5 15q0 20 -20 20t-20 -20q0 -9 5.5 -15t14.5 -6zM154 646q20 0 20 18t-20 18h-6v-36h6zM318 -18q-60 0 -109 18t-84 50.5t-54 78.5t-19 103v308h186v-300q0 -43 21 -67t59 -24t59 24t21 67v300h186v-308
q0 -57 -19 -103t-54 -78.5t-84 -50.5t-109 -18z" />
    <glyph glyph-name="uacute" unicode="&#xfa;" horiz-adv-x="635" 
d="M472 712q23 0 37.5 -13t14.5 -35t-14.5 -35t-37.5 -13t-37.5 13t-14.5 35t14.5 35t37.5 13zM162 709q22 0 35.5 -12.5t13.5 -32.5t-13.5 -33t-35.5 -13h-39v91h39zM251 643h33v-25h-63v91h62v-24h-32v-10h29v-22h-29v-10zM402 709l13 -91h-30l-5 46l-21 -46h-11l-21 46
l-5 -46h-31l14 91h30l18 -43l19 43h30zM472 643q9 0 14.5 6t5.5 15q0 20 -20 20t-20 -20q0 -9 5.5 -15t14.5 -6zM160 646q20 0 20 18t-20 18h-6v-36h6zM318 -18q-60 0 -109 18t-84 50.5t-54 78.5t-19 103v308h186v-300q0 -43 21 -67t59 -24t59 24t21 67v300h186v-308
q0 -57 -19 -103t-54 -78.5t-84 -50.5t-109 -18z" />
    <glyph glyph-name="ucircumflex" unicode="&#xfb;" horiz-adv-x="635" 
d="M472 712q23 0 37.5 -13t14.5 -35t-14.5 -35t-37.5 -13t-37.5 13t-14.5 35t14.5 35t37.5 13zM163 709q21 0 34.5 -12.5t13.5 -32.5t-13.5 -33t-34.5 -13h-40v91h40zM251 643h33v-25h-63v91h63v-24h-33v-10h29v-22h-29v-10zM402 709l14 -91h-31l-5 46l-21 -46h-11l-21 46
l-5 -46h-31l14 91h30l18 -43l19 43h30zM472 643q9 0 14.5 6t5.5 15q0 20 -20 20t-20 -20q0 -9 5.5 -15t14.5 -6zM160 646q20 0 20 18t-20 18h-6v-36h6zM318 -18q-60 0 -109 18t-84 50.5t-54 78.5t-19 103v308h186v-300q0 -43 21 -67t59 -24t59 24t21 67v300h186v-308
q0 -57 -19 -103t-54 -78.5t-84 -50.5t-109 -18z" />
    <glyph glyph-name="udieresis" unicode="&#xfc;" horiz-adv-x="635" 
d="M471 712q23 0 37.5 -13t14.5 -35t-14.5 -35t-37.5 -13t-37.5 13t-14.5 35t14.5 35t37.5 13zM162 709q21 0 34.5 -12.5t13.5 -32.5t-13.5 -33t-34.5 -13h-40v91h40zM250 643h33v-25h-63v91h63v-24h-33v-10h29v-22h-29v-10zM401 709l14 -91h-31l-5 46l-21 -46h-11l-21 46
l-5 -46h-31l14 91h30l18 -43l19 43h30zM471 643q9 0 14.5 6t5.5 15q0 20 -20 20t-20 -20q0 -9 5.5 -15t14.5 -6zM159 646q20 0 20 18t-20 18h-6v-36h6zM318 -18q-60 0 -109 18t-84 50.5t-54 78.5t-19 103v308h186v-300q0 -43 21 -67t59 -24t59 24t21 67v300h186v-308
q0 -57 -19 -103t-54 -78.5t-84 -50.5t-109 -18z" />
    <glyph glyph-name="yacute" unicode="&#xfd;" horiz-adv-x="620" 
d="M467 616q-23 0 -37.5 13t-14.5 35t14.5 35t37.5 13t37.5 -13t14.5 -35t-14.5 -35t-37.5 -13zM206 664q0 -20 -13.5 -33t-35.5 -13h-39v91h39q22 0 35.5 -12.5t13.5 -32.5zM279 618h-63v91h62v-24h-32v-10h29v-22h-29v-10h33v-25zM317 618h-31l14 91h30l18 -43l19 43h30
l13 -91h-30l-5 46l-21 -46h-11l-21 46zM467 684q-20 0 -20 -20q0 -9 5.5 -15t14.5 -6t14.5 6t5.5 15q0 20 -20 20zM155 646q20 0 20 18t-20 18h-6v-36h6zM623 540l-226 -516q-27 -62 -54.5 -105t-60 -69.5t-72.5 -38.5t-92 -12h-64v160h51q27 0 45 4t31 13.5t23 26.5t19 42
l-223 495h202l114 -297l107 297h200z" />
    <glyph glyph-name="thorn" unicode="&#xfe;" 
d="M286 532q-39 0 -62.5 25.5t-23.5 67.5t23.5 68t62.5 26t63 -26t24 -68t-24 -67.5t-63 -25.5zM286 661q-17 0 -26.5 -10t-9.5 -26t9.5 -25.5t26.5 -9.5t27 9.5t10 25.5t-10 26t-27 10zM204 500l164 24v-54l-83 -10l83 -38v-19l-82 -38l82 -9v-55l-164 24v54l79 33l-79 34
v54zM324 288h44v-113h-164v112h44v-58h18v52h40v-52h18v59zM286 157q36 0 59 -24t23 -63v-70h-164v70q0 39 23 63t59 24zM286 101q-15 0 -24 -9t-9 -26v-11h66v11q0 17 -9 26t-24 9z" />
    <glyph glyph-name="ydieresis" unicode="&#xff;" horiz-adv-x="620" 
d="M466 616q-23 0 -37.5 13t-14.5 35t14.5 35t37.5 13t37.5 -13t14.5 -35t-14.5 -35t-37.5 -13zM205 664q0 -20 -13.5 -33t-34.5 -13h-40v91h40q21 0 34.5 -12.5t13.5 -32.5zM278 618h-63v91h62v-24h-32v-10h29v-22h-29v-10h33v-25zM316 618h-31l14 91h30l18 -43l19 43h30
l14 -91h-31l-5 46l-21 -46h-11l-21 46zM466 684q-20 0 -20 -20q0 -9 5.5 -15t14.5 -6t14.5 6t5.5 15q0 20 -20 20zM154 646q20 0 20 18t-20 18h-6v-36h6zM623 540l-226 -516q-27 -62 -54.5 -105t-60 -69.5t-72.5 -38.5t-92 -12h-64v160h51q27 0 45 4t31 13.5t23 26.5t19 42
l-223 495h202l114 -297l107 297h200z" />
    <glyph glyph-name="abreve" unicode="&#x100;" horiz-adv-x="744" 
d="M521 786q-23 0 -37.5 13t-14.5 35t14.5 35t37.5 13t37.5 -13t14.5 -35t-14.5 -35t-37.5 -13zM260 834q0 -20 -13.5 -33t-34.5 -13h-39v91h39q21 0 34.5 -12.5t13.5 -32.5zM333 788h-63v91h63v-24h-33v-10h29v-22h-29v-10h33v-25zM371 788h-31l14 91h30l19 -43l18 43h30
l14 -91h-31l-5 46l-21 -46h-11l-21 46zM521 854q-20 0 -20 -20q0 -9 5.5 -15t14.5 -6t14.5 6t5.5 15q0 20 -20 20zM210 816q19 0 19 18t-19 18h-7v-36h7zM744 0h-212l-39 114h-248l-39 -114h-206l275 700h188zM446 265l-77 217l-77 -217h154z" />
    <glyph glyph-name="gravecomb.narrow.case" unicode="&#x101;" horiz-adv-x="692" 
d="M496 616q-24 0 -38.5 13t-14.5 35t14.5 35t38.5 13q23 0 37.5 -13t14.5 -35t-14.5 -35t-37.5 -13zM234 664q0 -20 -13 -33t-35 -13h-39v91h39q22 0 35 -12.5t13 -32.5zM308 618h-63v91h62v-24h-32v-10h29v-22h-29v-10h33v-25zM345 618h-30l13 91h30l19 -43l19 43h30
l13 -91h-30l-5 46l-22 -46h-10l-21 46zM496 684q-20 0 -20 -20q0 -9 5.5 -15t14.5 -6t14.5 6t5.5 15q0 20 -20 20zM184 646q19 0 19 18t-19 18h-6v-36h6zM633 541v-540h-143l-16 38q-34 -27 -75 -42t-88 -15q-62 0 -114 21.5t-90 60t-59 91.5t-21 116t21 115.5t59 90.5
t90 59t114 21q48 0 89.5 -15t75.5 -43l19 42h138zM336 147q26 0 48 9.5t38 26t25 39t9 48.5t-9 48.5t-25 39t-38 26t-48 9.5q-54 0 -87.5 -35t-33.5 -88q0 -26 9 -48.5t25 -39t38.5 -26t48.5 -9.5z" />
    <glyph glyph-name="1.003" unicode="&#x102;" horiz-adv-x="744" 
d="M522 786q-23 0 -37.5 13t-14.5 35t14.5 35t37.5 13t37.5 -13t14.5 -35t-14.5 -35t-37.5 -13zM261 834q0 -20 -13.5 -33t-35.5 -13h-39v91h39q22 0 35.5 -12.5t13.5 -32.5zM334 788h-63v91h62v-24h-32v-10h29v-22h-29v-10h33v-25zM372 788h-31l14 91h30l18 -43l19 43h30
l13 -91h-30l-5 46l-21 -46h-11l-21 46zM522 854q-20 0 -20 -20q0 -9 5.5 -15t14.5 -6t14.5 6t5.5 15q0 20 -20 20zM210 816q20 0 20 18t-20 18h-6v-36h6zM493 114h-248l-39 -114h-206l275 700h188l281 -700h-212zM369 482l-77 -217h154z" />
    <glyph glyph-name="gravecomb.narrow" unicode="&#x103;" horiz-adv-x="692" 
d="M495 616q-23 0 -37.5 13t-14.5 35t14.5 35t37.5 13t37.5 -13t14.5 -35t-14.5 -35t-37.5 -13zM234 664q0 -20 -13.5 -33t-35.5 -13h-39v91h39q22 0 35.5 -12.5t13.5 -32.5zM307 618h-63v91h62v-24h-32v-10h29v-22h-29v-10h33v-25zM345 618h-31l14 91h30l18 -43l19 43h30
l13 -91h-30l-5 46l-22 -46h-10l-21 46zM495 684q-20 0 -20 -20q0 -9 5.5 -15t14.5 -6t14.5 6t5.5 15q0 20 -20 20zM183 646q20 0 20 18t-20 18h-6v-36h6zM633 541v-540h-143l-16 38q-34 -27 -75 -42t-88 -15q-62 0 -114 21.5t-90 60t-59 91.5t-21 116t21 115.5t59 90.5
t90 59t114 21q48 0 89.5 -15t75.5 -43l19 42h138zM336 147q26 0 48 9.5t38 26t25 39t9 48.5t-9 48.5t-25 39t-38 26t-48 9.5q-54 0 -87.5 -35t-33.5 -88q0 -26 9 -48.5t25 -39t38.5 -26t48.5 -9.5z" />
    <glyph glyph-name="Abreve" unicode="&#x104;" horiz-adv-x="743" 
d="M527 786q-24 0 -38.5 13t-14.5 35t14.5 35t38.5 13q23 0 37.5 -13t14.5 -35t-14.5 -35t-37.5 -13zM265 834q0 -20 -13 -33t-35 -13h-39v91h39q22 0 35 -12.5t13 -32.5zM339 788h-63v91h62v-24h-32v-10h29v-22h-29v-10h33v-25zM376 788h-30l13 91h30l19 -43l19 43h30
l13 -91h-30l-5 46l-22 -46h-10l-21 46zM527 854q-20 0 -20 -20q0 -9 5.5 -15t14.5 -6t14.5 6t5.5 15q0 20 -20 20zM215 816q19 0 19 18t-19 18h-6v-36h6zM744 0h-212l-39 114h-248l-39 -114h-206l275 700h188zM446 265l-77 217l-77 -217h154z" />
    <glyph glyph-name="greaterequal" unicode="&#x105;" horiz-adv-x="692" 
d="M496 616q-24 0 -38.5 13t-14.5 35t14.5 35t38.5 13q23 0 37.5 -13t14.5 -35t-14.5 -35t-37.5 -13zM234 664q0 -20 -13 -33t-35 -13h-39v91h39q22 0 35 -12.5t13 -32.5zM308 618h-63v91h62v-24h-32v-10h29v-22h-29v-10h33v-25zM345 618h-30l13 91h30l19 -43l19 43h30
l13 -91h-30l-5 46l-22 -46h-10l-21 46zM496 684q-20 0 -20 -20q0 -9 5.5 -15t14.5 -6t14.5 6t5.5 15q0 20 -20 20zM184 646q19 0 19 18t-19 18h-6v-36h6zM633 541v-540h-143l-16 38q-34 -27 -75 -42t-88 -15q-62 0 -114 21.5t-90 60t-59 91.5t-21 116t21 115.5t59 90.5
t90 59t114 21q48 0 89.5 -15t75.5 -43l19 42h138zM336 147q26 0 48 9.5t38 26t25 39t9 48.5t-9 48.5t-25 39t-38 26t-48 9.5q-54 0 -87.5 -35t-33.5 -88q0 -26 9 -48.5t25 -39t38.5 -26t48.5 -9.5z" />
    <glyph glyph-name="acutecomb.case" unicode="&#x106;" horiz-adv-x="784" 
d="M553 882q24 0 38.5 -13t14.5 -35t-14.5 -35t-38.5 -13q-23 0 -37.5 13t-14.5 35t14.5 35t37.5 13zM244 879q22 0 35 -12.5t13 -32.5t-13 -33t-35 -13h-39v91h39zM332 813h33v-25h-63v91h63v-24h-33v-10h29v-22h-29v-10zM484 879l13 -91h-30l-6 46l-21 -46h-10l-22 46
l-5 -46h-30l13 91h30l19 -43l19 43h30zM553 813q9 0 14.5 6t5.5 15q0 20 -20 20q-19 0 -19 -20q0 -9 5.5 -15t13.5 -6zM242 816q19 0 19 18t-19 18h-7v-36h7zM403 -18q-80 0 -148 28t-118 77t-78 116.5t-28 145.5q0 79 28 146.5t78 117t118 77.5t148 28q69 0 129 -21.5
t106.5 -61t77.5 -94.5t41 -122h-195q-18 54 -60.5 86.5t-97.5 32.5q-37 0 -68.5 -14t-54.5 -39.5t-36 -60t-13 -75.5q0 -40 13 -74.5t36 -59t54.5 -38.5t68.5 -14q58 0 101 35t57 93h197q-10 -69 -40.5 -126t-77 -97.5t-107.5 -63t-131 -22.5z" />
    <glyph glyph-name="Hbar" unicode="&#x107;" horiz-adv-x="636" 
d="M480 712q23 0 37.5 -13t14.5 -35t-14.5 -35t-37.5 -13q-24 0 -38 13t-14 35t14 35t38 13zM170 709q22 0 35.5 -12.5t13.5 -32.5t-13.5 -33t-35.5 -13h-39v91h39zM259 643h33v-25h-63v91h62v-24h-32v-10h29v-22h-29v-10zM410 709l13 -91h-30l-5 46l-22 -46h-10l-21 46
l-5 -46h-31l14 91h30l18 -43l19 43h30zM480 643q9 0 14.5 6t5.5 15q0 20 -20 20t-20 -20q0 -9 5.5 -15t14.5 -6zM168 646q20 0 20 18t-20 18h-6v-36h6zM326 -18q-65 0 -119.5 21.5t-94.5 60t-62 91.5t-22 116t22 115.5t61.5 90.5t94.5 59t120 21q57 0 106 -17t86.5 -48.5
t62 -75.5t31.5 -98h-181q-12 33 -40.5 52.5t-64.5 19.5q-50 0 -81 -33t-31 -87q0 -53 31.5 -87t80.5 -34q38 0 66 21.5t39 57.5h183q-8 -55 -32.5 -100.5t-62.5 -77.5t-87 -50t-106 -18z" />
    <glyph glyph-name="acutecomb.narrow.case" unicode="&#x108;" horiz-adv-x="784" 
d="M553 882q24 0 38 -13t14 -35t-14 -35t-38 -13q-23 0 -37.5 13t-14.5 35t14.5 35t37.5 13zM244 879q21 0 34.5 -12.5t13.5 -32.5t-13.5 -33t-34.5 -13h-39v91h39zM332 813h33v-25h-63v91h63v-24h-33v-10h29v-22h-29v-10zM483 879l14 -91h-31l-5 46l-21 -46h-11l-21 46
l-5 -46h-31l14 91h30l19 -43l18 43h30zM553 813q9 0 14.5 6t5.5 15q0 20 -20 20t-20 -20q0 -9 5.5 -15t14.5 -6zM242 816q19 0 19 18t-19 18h-7v-36h7zM403 -18q-80 0 -148 28t-118 77t-78 116.5t-28 145.5q0 79 28 146.5t78 117t118 77.5t148 28q69 0 129 -21.5t106.5 -61
t77.5 -94.5t41 -122h-195q-18 54 -60.5 86.5t-97.5 32.5q-37 0 -68.5 -14t-54.5 -39.5t-36 -60t-13 -75.5q0 -40 13 -74.5t36 -59t54.5 -38.5t68.5 -14q58 0 101 35t57 93h197q-10 -69 -40.5 -126t-77 -97.5t-107.5 -63t-131 -22.5z" />
    <glyph glyph-name="Hcircumflex" unicode="&#x109;" horiz-adv-x="636" 
d="M480 712q23 0 37.5 -13t14.5 -35t-14.5 -35t-37.5 -13t-37.5 13t-14.5 35t14.5 35t37.5 13zM170 709q22 0 35.5 -12.5t13.5 -32.5t-13.5 -33t-35.5 -13h-39v91h39zM259 643h33v-25h-63v91h62v-24h-32v-10h29v-22h-29v-10zM410 709l13 -91h-30l-5 46l-21 -46h-11l-21 46
l-5 -46h-31l14 91h30l18 -43l19 43h30zM480 643q9 0 14.5 6t5.5 15q0 20 -20 20t-20 -20q0 -9 5.5 -15t14.5 -6zM168 646q20 0 20 18t-20 18h-6v-36h6zM326 -18q-65 0 -119.5 21.5t-94.5 60t-62 91.5t-22 116t22 115.5t61.5 90.5t94.5 59t120 21q57 0 106 -17t86.5 -48.5
t62 -75.5t31.5 -98h-181q-12 33 -40.5 52.5t-64.5 19.5q-50 0 -81 -33t-31 -87q0 -53 31.5 -87t80.5 -34q38 0 66 21.5t39 57.5h183q-8 -55 -32.5 -100.5t-62.5 -77.5t-87 -50t-106 -18z" />
    <glyph glyph-name="aeacute" unicode="&#x10a;" horiz-adv-x="784" 
d="M554 882q23 0 37.5 -13t14.5 -35t-14.5 -35t-37.5 -13q-24 0 -38.5 13t-14.5 35t14.5 35t38.5 13zM244 879q22 0 35 -12.5t13 -32.5t-13 -33t-35 -13h-39v91h39zM333 813h33v-25h-63v91h62v-24h-32v-10h29v-22h-29v-10zM484 879l13 -91h-30l-5 46l-22 -46h-10l-21 46
l-6 -46h-30l13 91h30l19 -43l19 43h30zM554 813q9 0 14 6t5 15q0 20 -19 20q-20 0 -20 -20q0 -9 5.5 -15t14.5 -6zM242 816q19 0 19 18t-19 18h-6v-36h6zM403 -18q-80 0 -148 28t-118 77t-78 116.5t-28 145.5q0 79 28 146.5t78 117t118 77.5t148 28q69 0 129 -21.5
t106.5 -61t77.5 -94.5t41 -122h-195q-18 54 -60 86.5t-98 32.5q-37 0 -68.5 -14t-54.5 -39.5t-36 -60t-13 -75.5q0 -40 13 -74.5t36 -59t54.5 -38.5t68.5 -14q59 0 101.5 35t56.5 93h197q-10 -69 -40.5 -126t-77 -97.5t-107.5 -63t-131 -22.5z" />
    <glyph glyph-name="i.loclTRK" unicode="&#x10b;" horiz-adv-x="636" 
d="M480 712q24 0 38 -13t14 -35t-14 -35t-38 -13q-23 0 -37.5 13t-14.5 35t14.5 35t37.5 13zM171 709q21 0 34.5 -12.5t13.5 -32.5t-13.5 -33t-34.5 -13h-39v91h39zM259 643h33v-25h-63v91h63v-24h-33v-10h29v-22h-29v-10zM410 709l14 -91h-31l-5 46l-21 -46h-11l-21 46
l-5 -46h-30l13 91h30l19 -43l18 43h30zM480 643q9 0 14.5 6t5.5 15q0 20 -20 20t-20 -20q0 -9 5.5 -15t14.5 -6zM169 646q19 0 19 18t-19 18h-7v-36h7zM326 -18q-65 0 -119.5 21.5t-94.5 60t-62 91.5t-22 116t22 115.5t61.5 90.5t94.5 59t120 21q57 0 106 -17t86.5 -48.5
t62 -75.5t31.5 -98h-181q-12 33 -40.5 52.5t-64.5 19.5q-50 0 -81 -33t-31 -87q0 -53 31.5 -87t80.5 -34q38 0 66 21.5t39 57.5h183q-8 -55 -32.5 -100.5t-62.5 -77.5t-87 -50t-106 -18z" />
    <glyph glyph-name="acutecomb.narrow" unicode="&#x10c;" horiz-adv-x="784" 
d="M547 882q24 0 38 -13t14 -35t-14 -35t-38 -13q-23 0 -37.5 13t-14.5 35t14.5 35t37.5 13zM238 879q21 0 34.5 -12.5t13.5 -32.5t-13.5 -33t-34.5 -13h-39v91h39zM326 813h33v-25h-63v91h63v-24h-33v-10h29v-22h-29v-10zM477 879l14 -91h-31l-5 46l-21 -46h-11l-21 46
l-5 -46h-31l14 91h30l19 -43l18 43h30zM547 813q9 0 14.5 6t5.5 15q0 20 -20 20t-20 -20q0 -9 5.5 -15t14.5 -6zM236 816q19 0 19 18t-19 18h-7v-36h7zM403 -18q-80 0 -148 28t-118 77t-78 116.5t-28 145.5q0 79 28 146.5t78 117t118 77.5t148 28q69 0 129 -21.5t106.5 -61
t77.5 -94.5t41 -122h-195q-18 54 -60.5 86.5t-97.5 32.5q-37 0 -68.5 -14t-54.5 -39.5t-36 -60t-13 -75.5q0 -40 13 -74.5t36 -59t54.5 -38.5t68.5 -14q58 0 101 35t57 93h197q-10 -69 -40.5 -126t-77 -97.5t-107.5 -63t-131 -22.5z" />
    <glyph glyph-name="hcircumflex" unicode="&#x10d;" horiz-adv-x="636" 
d="M479 712q24 0 38.5 -13t14.5 -35t-14.5 -35t-38.5 -13q-23 0 -37.5 13t-14.5 35t14.5 35t37.5 13zM170 709q22 0 35 -12.5t13 -32.5t-13 -33t-35 -13h-39v91h39zM258 643h33v-25h-63v91h63v-24h-33v-10h29v-22h-29v-10zM410 709l13 -91h-30l-6 46l-21 -46h-10l-22 46
l-5 -46h-30l13 91h30l19 -43l19 43h30zM479 643q9 0 14.5 6t5.5 15q0 20 -20 20q-19 0 -19 -20q0 -9 5 -15t14 -6zM168 646q19 0 19 18t-19 18h-7v-36h7zM326 -18q-65 0 -119.5 21.5t-94.5 60t-62 91.5t-22 116t22 115.5t61.5 90.5t94.5 59t120 21q57 0 106 -17t86.5 -48.5
t62 -75.5t31.5 -98h-181q-12 33 -40.5 52.5t-64.5 19.5q-50 0 -81 -33t-31 -87q0 -53 31.5 -87t80.5 -34q38 0 66 21.5t39 57.5h183q-8 -55 -32.5 -100.5t-62.5 -77.5t-87 -50t-106 -18z" />
    <glyph glyph-name="AEacute" unicode="&#x10e;" horiz-adv-x="745" 
d="M437 786q-23 0 -37.5 13t-14.5 35t14.5 35t37.5 13t37.5 -13t14.5 -35t-14.5 -35t-37.5 -13zM176 834q0 -20 -13.5 -33t-35.5 -13h-39v91h39q22 0 35.5 -12.5t13.5 -32.5zM249 788h-63v91h62v-24h-32v-10h29v-22h-29v-10h33v-25zM287 788h-31l14 91h30l18 -43l19 43h30
l13 -91h-30l-5 46l-22 -46h-10l-21 46zM437 854q-20 0 -20 -20q0 -9 5.5 -15t14.5 -6t14.5 6t5.5 15q0 20 -20 20zM125 816q20 0 20 18t-20 18h-6v-36h6zM351 700q80 0 146 -26t114 -72t74.5 -110t26.5 -141t-26.5 -141.5t-74.5 -111t-114.5 -72.5t-145.5 -26h-283v700h283z
M342 177q39 0 71 12.5t54.5 35.5t35 55t12.5 71q0 78 -47.5 125t-125.5 47h-81v-346h81z" />
    <glyph glyph-name="ibreve" unicode="&#x10f;" 
d="M286 532q-39 0 -62.5 25.5t-23.5 67.5t23.5 68t62.5 26t63 -26t24 -68t-24 -67.5t-63 -25.5zM286 661q-17 0 -26.5 -10t-9.5 -26t9.5 -25.5t26.5 -9.5t27 9.5t10 25.5t-10 26t-27 10zM204 500l164 24v-54l-83 -10l83 -38v-19l-82 -38l82 -9v-55l-164 24v54l79 33l-79 34
v54zM324 288h44v-113h-164v112h44v-58h18v52h40v-52h18v59zM286 157q36 0 59 -24t23 -63v-70h-164v70q0 39 23 63t59 24zM286 101q-15 0 -24 -9t-9 -26v-11h66v11q0 17 -9 26t-24 9z" />
    <glyph glyph-name="amacron" unicode="&#x110;" horiz-adv-x="745" 
d="M435 786q-24 0 -38.5 13t-14.5 35t14.5 35t38.5 13q23 0 37.5 -13t14.5 -35t-14.5 -35t-37.5 -13zM173 834q0 -20 -13 -33t-35 -13h-39v91h39q22 0 35 -12.5t13 -32.5zM247 788h-63v91h62v-24h-32v-10h29v-22h-29v-10h33v-25zM284 788h-30l13 91h30l19 -43l19 43h30
l13 -91h-30l-5 46l-22 -46h-10l-21 46zM435 854q-20 0 -20 -20q0 -9 5.5 -15t14.5 -6t14 6t5 15q0 20 -19 20zM123 816q19 0 19 18t-19 18h-6v-36h6zM351 700q80 0 146 -26t114 -72t74.5 -110t26.5 -141t-26.5 -141.5t-74.5 -111t-114.5 -72.5t-145.5 -26h-283v700h283z
M342 177q39 0 71 12.5t54.5 35.5t35 55t12.5 71q0 78 -47.5 125t-125.5 47h-81v-346h81z" />
    <glyph glyph-name="Ibreve" unicode="&#x111;" 
d="M286 532q-39 0 -62.5 25.5t-23.5 67.5t23.5 68t62.5 26t63 -26t24 -68t-24 -67.5t-63 -25.5zM286 661q-17 0 -26.5 -10t-9.5 -26t9.5 -25.5t26.5 -9.5t27 9.5t10 25.5t-10 26t-27 10zM204 500l164 24v-54l-83 -10l83 -38v-19l-82 -38l82 -9v-55l-164 24v54l79 33l-79 34
v54zM324 288h44v-113h-164v112h44v-58h18v52h40v-52h18v59zM286 157q36 0 59 -24t23 -63v-70h-164v70q0 39 23 63t59 24zM286 101q-15 0 -24 -9t-9 -26v-11h66v11q0 17 -9 26t-24 9z" />
    <glyph glyph-name="approxequal" unicode="&#x112;" horiz-adv-x="567" 
d="M446 786q-23 0 -37.5 13t-14.5 35t14.5 35t37.5 13q24 0 38 -13t14 -35t-14 -35t-38 -13zM185 834q0 -20 -13.5 -33t-34.5 -13h-39v91h39q21 0 34.5 -12.5t13.5 -32.5zM258 788h-63v91h63v-24h-33v-10h29v-22h-29v-10h33v-25zM296 788h-30l13 91h30l19 -43l18 43h30
l14 -91h-31l-5 46l-21 -46h-11l-21 46zM446 854q-20 0 -20 -20q0 -9 5.5 -15t14.5 -6t14.5 6t5.5 15q0 20 -20 20zM135 816q19 0 19 18t-19 18h-7v-36h7zM524 167v-167h-456v700h448v-167h-256v-103h230v-158h-230v-105h264z" />
    <glyph glyph-name="imacron" unicode="&#x113;" horiz-adv-x="641" 
d="M474 616q-24 0 -38 13t-14 35t14 35t38 13q23 0 37.5 -13t14.5 -35t-14.5 -35t-37.5 -13zM213 664q0 -20 -13.5 -33t-35.5 -13h-39v91h39q22 0 35.5 -12.5t13.5 -32.5zM286 618h-63v91h62v-24h-32v-10h29v-22h-29v-10h33v-25zM324 618h-31l13 91h30l19 -43l19 43h30
l13 -91h-30l-5 46l-22 -46h-10l-21 46zM474 684q-20 0 -20 -20q0 -9 5.5 -15t14.5 -6t14.5 6t5.5 15q0 20 -20 20zM162 646q19 0 19 18t-19 18h-6v-36h6zM615 275q0 -12 -1 -24t-3 -25h-401q9 -47 37.5 -70.5t72.5 -23.5q33 0 58.5 13.5t39.5 37.5h185q-14 -46 -41 -83.5
t-63.5 -63.5t-82 -40t-96.5 -14q-63 0 -116.5 22t-93 60.5t-61.5 91t-22 114.5t22 115t61 91.5t93 60t117 21.5q65 0 119.5 -22t93.5 -60t60.5 -89.5t21.5 -111.5zM320 412q-41 0 -68.5 -21t-38.5 -62h219q-26 83 -112 83z" />
    <glyph glyph-name="Amacron" unicode="&#x114;" horiz-adv-x="567" 
d="M447 786q-23 0 -37.5 13t-14.5 35t14.5 35t37.5 13t37.5 -13t14.5 -35t-14.5 -35t-37.5 -13zM186 834q0 -20 -13.5 -33t-34.5 -13h-40v91h40q21 0 34.5 -12.5t13.5 -32.5zM259 788h-63v91h63v-24h-33v-10h29v-22h-29v-10h33v-25zM297 788h-31l14 91h30l18 -43l19 43h30
l14 -91h-31l-5 46l-21 -46h-11l-21 46zM447 854q-20 0 -20 -20q0 -9 5.5 -15t14.5 -6t14.5 6t5.5 15q0 20 -20 20zM135 816q20 0 20 18t-20 18h-6v-36h6zM524 167v-167h-456v700h448v-167h-256v-103h230v-158h-230v-105h264z" />
    <glyph glyph-name="Idotaccent" unicode="&#x115;" horiz-adv-x="641" 
d="M473 616q-23 0 -37.5 13t-14.5 35t14.5 35t37.5 13t37.5 -13t14.5 -35t-14.5 -35t-37.5 -13zM212 664q0 -20 -13.5 -33t-35.5 -13h-39v91h39q22 0 35.5 -12.5t13.5 -32.5zM285 618h-63v91h62v-24h-32v-10h29v-22h-29v-10h33v-25zM323 618h-31l14 91h30l18 -43l19 43h30
l13 -91h-30l-5 46l-21 -46h-11l-21 46zM473 684q-20 0 -20 -20q0 -9 5.5 -15t14.5 -6t14.5 6t5.5 15q0 20 -20 20zM161 646q20 0 20 18t-20 18h-6v-36h6zM615 275q0 -12 -1 -24t-3 -25h-401q9 -47 37.5 -70.5t72.5 -23.5q33 0 58.5 13.5t39.5 37.5h185q-14 -46 -41 -83.5
t-63.5 -63.5t-82 -40t-96.5 -14q-63 0 -116.5 22t-93 60.5t-61.5 91t-22 114.5t22 115t61 91.5t93 60t117 21.5q65 0 119.5 -22t93.5 -60t60.5 -89.5t21.5 -111.5zM320 412q-41 0 -68.5 -21t-38.5 -62h219q-26 83 -112 83z" />
    <glyph glyph-name="Aogonek" unicode="&#x116;" horiz-adv-x="567" 
d="M447 882q24 0 38.5 -13t14.5 -35t-14.5 -35t-38.5 -13q-23 0 -37.5 13t-14.5 35t14.5 35t37.5 13zM138 879q22 0 35 -12.5t13 -32.5t-13 -33t-35 -13h-39v91h39zM226 813h34v-25h-64v91h63v-24h-33v-10h30v-22h-30v-10zM378 879l13 -91h-30l-6 46l-21 -46h-10l-22 46
l-5 -46h-30l13 91h30l19 -43l19 43h30zM447 813q9 0 14.5 6t5.5 15q0 20 -20 20q-19 0 -19 -20q0 -9 5.5 -15t13.5 -6zM136 816q19 0 19 18t-19 18h-7v-36h7zM524 167v-167h-456v700h448v-167h-256v-103h230v-158h-230v-105h264z" />
    <glyph glyph-name="IJ" unicode="&#x117;" horiz-adv-x="641" 
d="M475 616q-23 0 -37.5 13t-14.5 35t14.5 35t37.5 13t37.5 -13t14.5 -35t-14.5 -35t-37.5 -13zM214 664q0 -20 -13.5 -33t-35.5 -13h-39v91h39q22 0 35.5 -12.5t13.5 -32.5zM287 618h-63v91h62v-24h-32v-10h29v-22h-29v-10h33v-25zM325 618h-31l14 91h30l18 -43l19 43h30
l13 -91h-30l-5 46l-21 -46h-11l-21 46zM475 684q-20 0 -20 -20q0 -9 5.5 -15t14.5 -6t14.5 6t5.5 15q0 20 -20 20zM163 646q20 0 20 18t-20 18h-6v-36h6zM615 275q0 -12 -1 -24t-3 -25h-401q9 -47 37.5 -70.5t72.5 -23.5q33 0 58.5 13.5t39.5 37.5h185q-14 -46 -41 -83.5
t-63.5 -63.5t-82 -40t-96.5 -14q-63 0 -116.5 22t-93 60.5t-61.5 91t-22 114.5t22 115t61 91.5t93 60t117 21.5q65 0 119.5 -22t93.5 -60t60.5 -89.5t21.5 -111.5zM320 412q-41 0 -68.5 -21t-38.5 -62h219q-26 83 -112 83z" />
    <glyph glyph-name="arrowdown" unicode="&#x118;" horiz-adv-x="567" 
d="M446 786q-23 0 -37.5 13t-14.5 35t14.5 35t37.5 13q24 0 38 -13t14 -35t-14 -35t-38 -13zM185 834q0 -20 -13.5 -33t-34.5 -13h-39v91h39q21 0 34.5 -12.5t13.5 -32.5zM258 788h-63v91h63v-24h-33v-10h29v-22h-29v-10h33v-25zM296 788h-30l13 91h30l19 -43l18 43h30
l14 -91h-31l-5 46l-21 -46h-11l-21 46zM446 854q-20 0 -20 -20q0 -9 5.5 -15t14.5 -6t14.5 6t5.5 15q0 20 -20 20zM135 816q19 0 19 18t-19 18h-7v-36h7zM524 167v-167h-456v700h448v-167h-256v-103h230v-158h-230v-105h264z" />
    <glyph glyph-name="Imacron" unicode="&#x119;" horiz-adv-x="641" 
d="M474 616q-24 0 -38 13t-14 35t14 35t38 13q23 0 37.5 -13t14.5 -35t-14.5 -35t-37.5 -13zM213 664q0 -20 -13.5 -33t-35.5 -13h-39v91h39q22 0 35.5 -12.5t13.5 -32.5zM286 618h-63v91h62v-24h-32v-10h29v-22h-29v-10h33v-25zM324 618h-31l13 91h30l19 -43l19 43h30
l13 -91h-30l-5 46l-22 -46h-10l-21 46zM474 684q-20 0 -20 -20q0 -9 5.5 -15t14.5 -6t14.5 6t5.5 15q0 20 -20 20zM162 646q19 0 19 18t-19 18h-6v-36h6zM615 275q0 -12 -1 -24t-3 -25h-401q9 -47 37.5 -70.5t72.5 -23.5q33 0 58.5 13.5t39.5 37.5h185q-14 -46 -41 -83.5
t-63.5 -63.5t-82 -40t-96.5 -14q-63 0 -116.5 22t-93 60.5t-61.5 91t-22 114.5t22 115t61 91.5t93 60t117 21.5q65 0 119.5 -22t93.5 -60t60.5 -89.5t21.5 -111.5zM320 412q-41 0 -68.5 -21t-38.5 -62h219q-26 83 -112 83z" />
    <glyph glyph-name="aogonek" unicode="&#x11a;" horiz-adv-x="567" 
d="M441 786q-23 0 -37.5 13t-14.5 35t14.5 35t37.5 13t37.5 -13t14.5 -35t-14.5 -35t-37.5 -13zM180 834q0 -20 -13.5 -33t-34.5 -13h-40v91h40q21 0 34.5 -12.5t13.5 -32.5zM253 788h-63v91h63v-24h-33v-10h29v-22h-29v-10h33v-25zM291 788h-31l14 91h30l18 -43l19 43h30
l14 -91h-31l-5 46l-21 -46h-11l-21 46zM441 854q-20 0 -20 -20q0 -9 5.5 -15t14.5 -6t14.5 6t5.5 15q0 20 -20 20zM129 816q20 0 20 18t-20 18h-6v-36h6zM524 167v-167h-456v700h448v-167h-256v-103h230v-158h-230v-105h264z" />
    <glyph glyph-name="ij" unicode="&#x11b;" horiz-adv-x="641" 
d="M474 616q-23 0 -37.5 13t-14.5 35t14.5 35t37.5 13t37.5 -13t14.5 -35t-14.5 -35t-37.5 -13zM213 664q0 -20 -13.5 -33t-34.5 -13h-40v91h40q21 0 34.5 -12.5t13.5 -32.5zM286 618h-63v91h62v-24h-32v-10h29v-22h-29v-10h33v-25zM324 618h-31l14 91h30l18 -43l19 43h30
l14 -91h-31l-5 46l-21 -46h-11l-21 46zM474 684q-20 0 -20 -20q0 -9 5.5 -15t14.5 -6t14.5 6t5.5 15q0 20 -20 20zM162 646q20 0 20 18t-20 18h-6v-36h6zM615 275q0 -12 -1 -24t-3 -25h-401q9 -47 37.5 -70.5t72.5 -23.5q33 0 58.5 13.5t39.5 37.5h185q-14 -46 -41 -83.5
t-63.5 -63.5t-82 -40t-96.5 -14q-63 0 -116.5 22t-93 60.5t-61.5 91t-22 114.5t22 115t61 91.5t93 60t117 21.5q65 0 119.5 -22t93.5 -60t60.5 -89.5t21.5 -111.5zM320 412q-41 0 -68.5 -21t-38.5 -62h219q-26 83 -112 83z" />
    <glyph glyph-name="arrowright" unicode="&#x11c;" horiz-adv-x="803" 
d="M561 786q-23 0 -37.5 13t-14.5 35t14.5 35t37.5 13t37.5 -13t14.5 -35t-14.5 -35t-37.5 -13zM300 834q0 -20 -13.5 -33t-34.5 -13h-40v91h40q21 0 34.5 -12.5t13.5 -32.5zM373 788h-63v91h63v-24h-33v-10h29v-22h-29v-10h33v-25zM411 788h-31l14 91h30l19 -43l18 43h30
l14 -91h-31l-5 46l-21 -46h-11l-21 46zM561 854q-20 0 -20 -20q0 -9 5.5 -15t14.5 -6t14.5 6t5.5 15q0 20 -20 20zM250 816q19 0 19 18t-19 18h-7v-36h7zM773 374q0 -86 -26.5 -158t-75 -124t-116.5 -81t-150 -29q-81 0 -149 27.5t-118 76t-78 116t-28 147.5t27.5 147.5
t77 117t117.5 77t149 27.5q69 0 130 -20.5t109 -57.5t80.5 -88t43.5 -112h-202q-19 45 -62 71t-97 26q-39 0 -71.5 -13.5t-56 -38.5t-36 -59.5t-12.5 -76.5q0 -41 12.5 -75.5t35.5 -59t55.5 -38t72.5 -13.5q55 0 98 24.5t60 65.5h-174v121h384z" />
    <glyph glyph-name="integral" unicode="&#x11d;" horiz-adv-x="676" 
d="M469 616q-23 0 -37.5 13t-14.5 35t14.5 35t37.5 13q24 0 38.5 -13t14.5 -35t-14.5 -35t-38.5 -13zM208 664q0 -20 -13 -33t-35 -13h-39v91h39q22 0 35 -12.5t13 -32.5zM282 618h-64v91h63v-24h-33v-10h29v-22h-29v-10h34v-25zM319 618h-30l13 91h30l19 -43l19 43h30
l13 -91h-30l-6 46l-21 -46h-10l-22 46zM469 684q-19 0 -19 -20q0 -9 5.5 -15t13.5 -6q9 0 14.5 6t5.5 15q0 20 -20 20zM158 646q19 0 19 18t-19 18h-7v-36h7zM617 540v-480q0 -64 -20 -115t-57.5 -86.5t-91 -54.5t-120.5 -19q-116 0 -191.5 54t-94.5 151h180q10 -27 40 -41
t64 -14q47 0 79.5 27.5t32.5 76.5v16q-30 -20 -66 -30.5t-75 -10.5q-58 0 -107.5 20.5t-85.5 56.5t-56.5 86t-20.5 109q0 58 20.5 107.5t56.5 86t85.5 57t107.5 20.5q50 0 93 -16.5t78 -45.5l23 45h126zM328 167q51 0 83 33.5t32 85.5q0 51 -32 84t-83 33t-83 -33t-32 -84
q0 -52 32 -85.5t83 -33.5z" />
    <glyph glyph-name="arrowleft" unicode="&#x11e;" horiz-adv-x="803" 
d="M561 786q-23 0 -37.5 13t-14.5 35t14.5 35t37.5 13t37.5 -13t14.5 -35t-14.5 -35t-37.5 -13zM300 834q0 -20 -13.5 -33t-34.5 -13h-40v91h40q21 0 34.5 -12.5t13.5 -32.5zM373 788h-63v91h63v-24h-33v-10h29v-22h-29v-10h33v-25zM411 788h-31l14 91h30l19 -43l18 43h30
l14 -91h-31l-5 46l-21 -46h-11l-21 46zM561 854q-20 0 -20 -20q0 -9 5.5 -15t14.5 -6t14.5 6t5.5 15q0 20 -20 20zM250 816q19 0 19 18t-19 18h-7v-36h7zM773 374q0 -86 -26.5 -158t-75 -124t-116.5 -81t-150 -29q-81 0 -149 27.5t-118 76t-78 116t-28 147.5t27.5 147.5
t77 117t117.5 77t149 27.5q69 0 130 -20.5t109 -57.5t80.5 -88t43.5 -112h-202q-19 45 -62 71t-97 26q-39 0 -71.5 -13.5t-56 -38.5t-36 -59.5t-12.5 -76.5q0 -41 12.5 -75.5t35.5 -59t55.5 -38t72.5 -13.5q55 0 98 24.5t60 65.5h-174v121h384z" />
    <glyph glyph-name="infinity" unicode="&#x11f;" horiz-adv-x="676" 
d="M468 616q-24 0 -38 13t-14 35t14 35t38 13q23 0 37.5 -13t14.5 -35t-14.5 -35t-37.5 -13zM207 664q0 -20 -13.5 -33t-35.5 -13h-39v91h39q22 0 35.5 -12.5t13.5 -32.5zM280 618h-63v91h62v-24h-32v-10h29v-22h-29v-10h33v-25zM318 618h-31l14 91h30l18 -43l19 43h30
l13 -91h-30l-5 46l-22 -46h-10l-21 46zM468 684q-20 0 -20 -20q0 -9 5.5 -15t14.5 -6t14.5 6t5.5 15q0 20 -20 20zM156 646q19 0 19 18t-19 18h-6v-36h6zM617 540v-480q0 -64 -20 -115t-57.5 -86.5t-91 -54.5t-120.5 -19q-116 0 -191.5 54t-94.5 151h180q10 -27 40 -41
t64 -14q47 0 79.5 27.5t32.5 76.5v16q-30 -20 -66 -30.5t-75 -10.5q-58 0 -107.5 20.5t-85.5 56.5t-56.5 86t-20.5 109q0 58 20.5 107.5t56.5 86t85.5 57t107.5 20.5q50 0 93 -16.5t78 -45.5l23 45h126zM328 167q51 0 83 33.5t32 85.5q0 51 -32 84t-83 33t-83 -33t-32 -84
q0 -52 32 -85.5t83 -33.5z" />
    <glyph glyph-name="arrowup" unicode="&#x120;" horiz-adv-x="803" 
d="M562 786q-24 0 -38.5 13t-14.5 35t14.5 35t38.5 13q23 0 37.5 -13t14.5 -35t-14.5 -35t-37.5 -13zM300 834q0 -20 -13 -33t-35 -13h-39v91h39q22 0 35 -12.5t13 -32.5zM374 788h-63v91h62v-24h-32v-10h29v-22h-29v-10h33v-25zM411 788h-30l13 91h30l19 -43l19 43h30
l13 -91h-30l-6 46l-21 -46h-10l-21 46zM562 854q-20 0 -20 -20q0 -9 5.5 -15t14.5 -6q8 0 13.5 6t5.5 15q0 20 -19 20zM250 816q19 0 19 18t-19 18h-7v-36h7zM773 374q0 -86 -26.5 -158t-75 -124t-116.5 -81t-150 -29q-81 0 -149 27.5t-118 76t-78 116t-28 147.5t27.5 147.5
t77 117t117.5 77t149 27.5q69 0 130 -20.5t109 -57.5t80.5 -88t43.5 -112h-202q-19 45 -62 71t-97 26q-39 0 -71.5 -13.5t-56 -38.5t-36 -59.5t-12.5 -76.5q0 -41 12.5 -75.5t35.5 -59t55.5 -38t72.5 -13.5q55 0 98 24.5t60 65.5h-174v121h384z" />
    <glyph glyph-name="iogonek" unicode="&#x121;" horiz-adv-x="676" 
d="M470 616q-24 0 -38 13t-14 35t14 35t38 13q23 0 37.5 -13t14.5 -35t-14.5 -35t-37.5 -13zM208 664q0 -20 -13 -33t-35 -13h-39v91h39q22 0 35 -12.5t13 -32.5zM282 618h-63v91h62v-24h-32v-10h29v-22h-29v-10h33v-25zM320 618h-31l13 91h30l19 -43l19 43h30l13 -91h-30
l-5 46l-22 -46h-10l-21 46zM470 684q-20 0 -20 -20q0 -9 5.5 -15t14.5 -6t14.5 6t5.5 15q0 20 -20 20zM158 646q19 0 19 18t-19 18h-6v-36h6zM617 540v-480q0 -64 -20 -115t-57.5 -86.5t-91 -54.5t-120.5 -19q-116 0 -191.5 54t-94.5 151h180q10 -27 40 -41t64 -14
q47 0 79.5 27.5t32.5 76.5v16q-30 -20 -66 -30.5t-75 -10.5q-58 0 -107.5 20.5t-85.5 56.5t-56.5 86t-20.5 109q0 58 20.5 107.5t56.5 86t85.5 57t107.5 20.5q50 0 93 -16.5t78 -45.5l23 45h126zM328 167q51 0 83 33.5t32 85.5q0 51 -32 84t-83 33t-83 -33t-32 -84
q0 -52 32 -85.5t83 -33.5z" />
    <glyph glyph-name="Gcircumflex" unicode="&#x122;" horiz-adv-x="803" 
d="M561 786q-23 0 -37.5 13t-14.5 35t14.5 35t37.5 13t37.5 -13t14.5 -35t-14.5 -35t-37.5 -13zM300 834q0 -20 -13.5 -33t-34.5 -13h-40v91h40q21 0 34.5 -12.5t13.5 -32.5zM373 788h-63v91h63v-24h-33v-10h29v-22h-29v-10h33v-25zM411 788h-31l14 91h30l19 -43l18 43h30
l14 -91h-31l-5 46l-21 -46h-11l-21 46zM561 854q-20 0 -20 -20q0 -9 5.5 -15t14.5 -6t14.5 6t5.5 15q0 20 -20 20zM250 816q19 0 19 18t-19 18h-7v-36h7zM773 374q0 -86 -26.5 -158t-75 -124t-116.5 -81t-150 -29q-81 0 -149 27.5t-118 76t-78 116t-28 147.5t27.5 147.5
t77 117t117.5 77t149 27.5q69 0 130 -20.5t109 -57.5t80.5 -88t43.5 -112h-202q-19 45 -62 71t-97 26q-39 0 -71.5 -13.5t-56 -38.5t-36 -59.5t-12.5 -76.5q0 -41 12.5 -75.5t35.5 -59t55.5 -38t72.5 -13.5q55 0 98 24.5t60 65.5h-174v121h384z" />
    <glyph glyph-name="notequal" unicode="&#x123;" horiz-adv-x="676" 
d="M487 616q-23 0 -37.5 13t-14.5 35t14.5 35t37.5 13t37.5 -13t14.5 -35t-14.5 -35t-37.5 -13zM226 664q0 -20 -13.5 -33t-34.5 -13h-39v91h39q21 0 34.5 -12.5t13.5 -32.5zM299 618h-63v91h63v-24h-33v-10h29v-22h-29v-10h33v-25zM337 618h-31l14 91h30l19 -43l18 43h30
l14 -91h-31l-5 46l-21 -46h-11l-21 46zM487 684q-20 0 -20 -20q0 -9 5.5 -15t14.5 -6t14.5 6t5.5 15q0 20 -20 20zM176 646q19 0 19 18t-19 18h-7v-36h7zM617 540v-480q0 -64 -20 -115t-57.5 -86.5t-91 -54.5t-120.5 -19q-116 0 -191.5 54t-94.5 151h180q10 -27 40 -41
t64 -14q47 0 79.5 27.5t32.5 76.5v16q-30 -20 -66 -30.5t-75 -10.5q-58 0 -107.5 20.5t-85.5 56.5t-56.5 86t-20.5 109q0 58 20.5 107.5t56.5 86t85.5 57t107.5 20.5q50 0 93 -16.5t78 -45.5l23 45h126zM328 167q51 0 83 33.5t32 85.5q0 51 -32 84t-83 33t-83 -33t-32 -84
q0 -52 32 -85.5t83 -33.5z" />
    <glyph glyph-name="brevecombcy.case" unicode="&#x124;" horiz-adv-x="734" 
d="M521 786q-23 0 -37.5 13t-14.5 35t14.5 35t37.5 13t37.5 -13t14.5 -35t-14.5 -35t-37.5 -13zM260 834q0 -20 -13.5 -33t-35.5 -13h-39v91h39q22 0 35.5 -12.5t13.5 -32.5zM333 788h-63v91h62v-24h-32v-10h29v-22h-29v-10h33v-25zM371 788h-31l14 91h30l18 -43l19 43h30
l13 -91h-30l-5 46l-21 -46h-11l-21 46zM521 854q-20 0 -20 -20q0 -9 5.5 -15t14.5 -6t14.5 6t5.5 15q0 20 -20 20zM209 816q20 0 20 18t-20 18h-6v-36h6zM667 700v-700h-195v269h-210v-269h-194v700h194v-253h210v253h195z" />
    <glyph glyph-name="itilde" unicode="&#x125;" horiz-adv-x="645" 
d="M306 818q-24 0 -38.5 13.5t-14.5 35.5t14.5 35t38.5 13q23 0 37.5 -13t14.5 -35t-14.5 -35.5t-37.5 -13.5zM-4 912q22 0 35 -12.5t13 -32.5t-13 -33t-35 -13h-39v91h39zM118 821h-63v91h62v-24h-32v-10h29v-23h-29v-9h33v-25zM155 821h-30l13 91h30l19 -44l19 44h30
l13 -91h-30l-6 46l-21 -46h-10l-21 46zM306 887q-20 0 -20 -20q0 -21 20 -21q19 0 19 21q0 20 -19 20zM-6 848q19 0 19 19q0 18 -19 18h-7v-37h7zM389 556q47 0 84.5 -16.5t63.5 -46.5t40.5 -72.5t14.5 -95.5v-325h-186v304q0 94 -70 94q-42 0 -66.5 -28.5t-24.5 -81.5v-288
h-186v735h186v-231q29 24 66 38t78 14z" />
    <glyph glyph-name="brevecombcy" unicode="&#x126;" horiz-adv-x="734" 
d="M521 786q-23 0 -37.5 13t-14.5 35t14.5 35t37.5 13t37.5 -13t14.5 -35t-14.5 -35t-37.5 -13zM260 834q0 -20 -13.5 -33t-35.5 -13h-39v91h39q22 0 35.5 -12.5t13.5 -32.5zM333 788h-63v91h62v-24h-32v-10h29v-22h-29v-10h33v-25zM371 788h-31l14 91h30l18 -43l19 43h30
l13 -91h-30l-5 46l-21 -46h-11l-21 46zM521 854q-20 0 -20 -20q0 -9 5.5 -15t14.5 -6t14.5 6t5.5 15q0 20 -20 20zM209 816q20 0 20 18t-20 18h-6v-36h6zM667 700v-700h-195v269h-210v-269h-194v700h194v-253h210v253h195z" />
    <glyph glyph-name="Iogonek" unicode="&#x127;" horiz-adv-x="645" 
d="M306 818q-24 0 -38.5 13.5t-14.5 35.5t14.5 35t38.5 13q23 0 37.5 -13t14.5 -35t-14.5 -35.5t-37.5 -13.5zM-4 912q22 0 35 -12.5t13 -32.5t-13 -33t-35 -13h-39v91h39zM118 821h-63v91h62v-24h-32v-10h29v-23h-29v-9h33v-25zM155 821h-30l13 91h30l19 -44l19 44h30
l13 -91h-30l-6 46l-21 -46h-10l-21 46zM306 887q-20 0 -20 -20q0 -21 20 -21q19 0 19 21q0 20 -19 20zM-6 848q19 0 19 19q0 18 -19 18h-7v-37h7zM389 556q47 0 84.5 -16.5t63.5 -46.5t40.5 -72.5t14.5 -95.5v-325h-186v304q0 94 -70 94q-42 0 -66.5 -28.5t-24.5 -81.5v-288
h-186v735h186v-231q29 24 66 38t78 14z" />
    <glyph glyph-name="ccircumflex" unicode="&#x128;" horiz-adv-x="331" 
d="M319 882q23 0 37.5 -13t14.5 -35t-14.5 -35t-37.5 -13t-37.5 13t-14.5 35t14.5 35t37.5 13zM10 879q21 0 34.5 -12.5t13.5 -32.5t-13.5 -33t-34.5 -13h-40v91h40zM131 788h-63v91h62v-24h-32v-10h29v-22h-29v-10h33v-25zM169 788h-31l14 91h30l18 -43l19 43h30l14 -91
h-31l-5 46l-21 -46h-11l-21 46zM319 813q9 0 14.5 6t5.5 15q0 20 -20 20t-20 -20q0 -9 5.5 -15t14.5 -6zM7 816q20 0 20 18t-20 18h-6v-36h6zM68 700h195v-700h-195v700z" />
    <glyph glyph-name="K.ss01" unicode="&#x129;" horiz-adv-x="303" 
d="M304 712q24 0 38.5 -13t14.5 -35t-14.5 -35t-38.5 -13q-23 0 -37.5 13t-14.5 35t14.5 35t37.5 13zM-5 709q22 0 35 -12.5t13 -32.5t-13 -33t-35 -13h-39v91h39zM117 618h-64v91h63v-24h-33v-10h30v-22h-30v-10h34v-25zM235 709l13 -91h-30l-6 46l-21 -46h-10l-22 46
l-5 -46h-30l13 91h30l19 -43l19 43h30zM304 643q9 0 14.5 6t5.5 15q0 20 -20 20q-19 0 -19 -20q0 -9 5.5 -15t13.5 -6zM-7 646q19 0 19 18t-19 18h-7v-36h7zM59 540h186v-540h-186v540z" />
    <glyph glyph-name="ccaron" unicode="&#x12a;" horiz-adv-x="331" 
d="M318 882q24 0 38.5 -13t14.5 -35t-14.5 -35t-38.5 -13q-23 0 -37.5 13t-14.5 35t14.5 35t37.5 13zM9 879q22 0 35 -12.5t13 -32.5t-13 -33t-35 -13h-39v91h39zM131 788h-64v91h63v-24h-33v-10h30v-22h-30v-10h34v-25zM168 788h-30l13 91h30l19 -43l19 43h30l13 -91h-30
l-6 46l-21 -46h-10l-22 46zM318 813q9 0 14.5 6t5.5 15q0 20 -20 20q-19 0 -19 -20q0 -9 5.5 -15t13.5 -6zM7 816q19 0 19 18t-19 18h-7v-36h7zM68 700h195v-700h-195v700z" />
    <glyph glyph-name="Jcircumflex" unicode="&#x12b;" horiz-adv-x="303" 
d="M305 712q24 0 38.5 -13t14.5 -35t-14.5 -35t-38.5 -13q-23 0 -37.5 13t-14.5 35t14.5 35t37.5 13zM-4 709q22 0 35 -12.5t13 -32.5t-13 -33t-35 -13h-39v91h39zM118 618h-64v91h63v-24h-33v-10h29v-22h-29v-10h34v-25zM236 709l13 -91h-30l-6 46l-21 -46h-10l-22 46
l-5 -46h-30l13 91h30l19 -43l19 43h30zM305 643q9 0 14.5 6t5.5 15q0 20 -20 20q-19 0 -19 -20q0 -9 5.5 -15t13.5 -6zM-6 646q19 0 19 18t-19 18h-7v-36h7zM59 540h186v-540h-186v540z" />
    <glyph glyph-name="cacute" unicode="&#x12c;" horiz-adv-x="331" 
d="M313 882q23 0 37.5 -13t14.5 -35t-14.5 -35t-37.5 -13t-37.5 13t-14.5 35t14.5 35t37.5 13zM4 879q21 0 34.5 -12.5t13.5 -32.5t-13.5 -33t-34.5 -13h-40v91h40zM125 788h-63v91h62v-24h-32v-10h29v-22h-29v-10h33v-25zM163 788h-31l14 91h30l18 -43l19 43h30l14 -91h-31
l-5 46l-21 -46h-11l-21 46zM313 813q9 0 14.5 6t5.5 15q0 20 -20 20t-20 -20q0 -9 5.5 -15t14.5 -6zM1 816q20 0 20 18t-20 18h-6v-36h6zM68 700h195v-700h-195v700z" />
    <glyph glyph-name="Itilde" unicode="&#x12d;" horiz-adv-x="303" 
d="M305 712q24 0 38.5 -13t14.5 -35t-14.5 -35t-38.5 -13q-23 0 -37.5 13t-14.5 35t14.5 35t37.5 13zM-4 709q22 0 35 -12.5t13 -32.5t-13 -33t-35 -13h-39v91h39zM117 618h-63v91h63v-24h-33v-10h29v-22h-29v-10h33v-25zM236 709l13 -91h-30l-6 46l-21 -46h-10l-22 46
l-5 -46h-30l13 91h30l19 -43l19 43h30zM305 643q9 0 14.5 6t5.5 15q0 20 -20 20q-19 0 -19 -20q0 -9 5 -15t14 -6zM-6 646q19 0 19 18t-19 18h-7v-36h7zM59 540h186v-540h-186v540z" />
    <glyph glyph-name="Ccaron" unicode="&#x12e;" horiz-adv-x="331" 
d="M319 882q24 0 38.5 -13t14.5 -35t-14.5 -35t-38.5 -13q-23 0 -37.5 13t-14.5 35t14.5 35t37.5 13zM10 879q22 0 35 -12.5t13 -32.5t-13 -33t-35 -13h-39v91h39zM98 813h34v-25h-64v91h63v-24h-33v-10h30v-22h-30v-10zM250 879l13 -91h-30l-6 46l-21 -46h-10l-22 46
l-5 -46h-30l13 91h30l19 -43l19 43h30zM319 813q9 0 14.5 6t5.5 15q0 20 -20 20q-19 0 -19 -20q0 -9 5.5 -15t13.5 -6zM8 816q19 0 19 18t-19 18h-7v-36h7zM68 700h195v-700h-195v700z" />
    <glyph glyph-name="k.ss01" unicode="&#x12f;" horiz-adv-x="303" 
d="M305 712q24 0 38.5 -13t14.5 -35t-14.5 -35t-38.5 -13q-23 0 -37.5 13t-14.5 35t14.5 35t37.5 13zM-4 709q22 0 35 -12.5t13 -32.5t-13 -33t-35 -13h-39v91h39zM118 618h-64v91h63v-24h-33v-10h29v-22h-29v-10h34v-25zM236 709l13 -91h-30l-6 46l-21 -46h-10l-22 46
l-5 -46h-30l13 91h30l19 -43l19 43h30zM305 643q9 0 14.5 6t5.5 15q0 20 -20 20q-19 0 -19 -20q0 -9 5.5 -15t13.5 -6zM-6 646q19 0 19 18t-19 18h-7v-36h7zM59 540h186v-540h-186v540z" />
    <glyph glyph-name="Cacute" unicode="&#x130;" horiz-adv-x="331" 
d="M319 882q24 0 38.5 -13t14.5 -35t-14.5 -35t-38.5 -13q-23 0 -37.5 13t-14.5 35t14.5 35t37.5 13zM10 879q22 0 35 -12.5t13 -32.5t-13 -33t-35 -13h-39v91h39zM98 813h34v-25h-64v91h63v-24h-33v-10h30v-22h-30v-10zM250 879l13 -91h-30l-6 46l-21 -46h-10l-22 46
l-5 -46h-30l13 91h30l19 -43l19 43h30zM319 813q9 0 14.5 6t5.5 15q0 20 -20 20q-19 0 -19 -20q0 -9 5.5 -15t13.5 -6zM8 816q19 0 19 18t-19 18h-7v-36h7zM68 700h195v-700h-195v700z" />
    <glyph glyph-name="dotlessi" unicode="&#x131;" horiz-adv-x="303" 
d="M59 540h186v-540h-186v540z" />
    <glyph glyph-name="bullet.case" unicode="&#x132;" 
d="M286 532q-39 0 -62.5 25.5t-23.5 67.5t23.5 68t62.5 26t63 -26t24 -68t-24 -67.5t-63 -25.5zM286 661q-17 0 -26.5 -10t-9.5 -26t9.5 -25.5t26.5 -9.5t27 9.5t10 25.5t-10 26t-27 10zM204 500l164 24v-54l-83 -10l83 -38v-19l-82 -38l82 -9v-55l-164 24v54l79 33l-79 34
v54zM324 288h44v-113h-164v112h44v-58h18v52h40v-52h18v59zM286 157q36 0 59 -24t23 -63v-70h-164v70q0 39 23 63t59 24zM286 101q-15 0 -24 -9t-9 -26v-11h66v11q0 17 -9 26t-24 9z" />
    <glyph glyph-name="jcircumflex" unicode="&#x133;" 
d="M286 532q-39 0 -62.5 25.5t-23.5 67.5t23.5 68t62.5 26t63 -26t24 -68t-24 -67.5t-63 -25.5zM286 661q-17 0 -26.5 -10t-9.5 -26t9.5 -25.5t26.5 -9.5t27 9.5t10 25.5t-10 26t-27 10zM204 500l164 24v-54l-83 -10l83 -38v-19l-82 -38l82 -9v-55l-164 24v54l79 33l-79 34
v54zM324 288h44v-113h-164v112h44v-58h18v52h40v-52h18v59zM286 157q36 0 59 -24t23 -63v-70h-164v70q0 39 23 63t59 24zM286 101q-15 0 -24 -9t-9 -26v-11h66v11q0 17 -9 26t-24 9z" />
    <glyph glyph-name="Ccircumflex" unicode="&#x134;" horiz-adv-x="622" 
d="M614 882q23 0 37.5 -13t14.5 -35t-14.5 -35t-37.5 -13t-37.5 13t-14.5 35t14.5 35t37.5 13zM353 834q0 -20 -13.5 -33t-35.5 -13h-39v91h39q22 0 35.5 -12.5t13.5 -32.5zM426 788h-63v91h62v-24h-32v-10h29v-22h-29v-10h33v-25zM464 788h-31l14 91h30l18 -43l19 43h30
l13 -91h-30l-5 46l-22 -46h-10l-21 46zM614 813q9 0 14.5 6t5.5 15q0 20 -20 20t-20 -20q0 -9 5.5 -15t14.5 -6zM302 816q20 0 20 18t-20 18h-6v-36h6zM367 700h194v-460q0 -57 -19.5 -104.5t-55.5 -81.5t-86 -53t-111 -19q-60 0 -110.5 19t-86.5 53t-56 81.5t-20 104.5v28
h194v-18q0 -41 22 -64.5t57 -23.5t56.5 23.5t21.5 64.5v450z" />
    <glyph glyph-name="kcommaaccent" unicode="&#x135;" horiz-adv-x="315" 
d="M312 712q23 0 37.5 -13t14.5 -35t-14.5 -35t-37.5 -13q-24 0 -38.5 13t-14.5 35t14.5 35t38.5 13zM50 664q0 -20 -13 -33t-35 -13h-39v91h39q22 0 35 -12.5t13 -32.5zM124 618h-63v91h62v-24h-32v-10h29v-22h-29v-10h33v-25zM161 618h-30l13 91h30l19 -43l19 43h30
l13 -91h-30l-5 46l-22 -46h-10l-21 46zM312 643q9 0 14 6t5 15q0 20 -19 20q-20 0 -20 -20q0 -9 5.5 -15t14.5 -6zM0 646q19 0 19 18t-19 18h-6v-36h6zM71 540h186v-523q0 -104 -60.5 -162t-169.5 -58h-69v164h45q68 0 68 72v507z" />
    <glyph glyph-name="gcommaaccent" unicode="&#x136;" horiz-adv-x="677" 
d="M482 786q-24 0 -38.5 13t-14.5 35t14.5 35t38.5 13q23 0 37.5 -13t14.5 -35t-14.5 -35t-37.5 -13zM220 834q0 -20 -13 -33t-35 -13h-39v91h39q22 0 35 -12.5t13 -32.5zM294 788h-63v91h62v-24h-32v-10h29v-22h-29v-10h33v-25zM331 788h-30l13 91h30l19 -43l19 43h30
l13 -91h-30l-5 46l-22 -46h-10l-21 46zM482 854q-20 0 -20 -20q0 -9 5.5 -15t14.5 -6t14 6t5 15q0 20 -19 20zM170 816q19 0 19 18t-19 18h-6v-36h6zM461 0l-200 309v-309h-193v700h193v-295l185 295h223l-224 -339l245 -361h-229z" />
    <glyph glyph-name="numero" unicode="&#x137;" 
d="M286 532q-39 0 -62.5 25.5t-23.5 67.5t23.5 68t62.5 26t63 -26t24 -68t-24 -67.5t-63 -25.5zM286 661q-17 0 -26.5 -10t-9.5 -26t9.5 -25.5t26.5 -9.5t27 9.5t10 25.5t-10 26t-27 10zM204 500l164 24v-54l-83 -10l83 -38v-19l-82 -38l82 -9v-55l-164 24v54l79 33l-79 34
v54zM324 288h44v-113h-164v112h44v-58h18v52h40v-52h18v59zM286 157q36 0 59 -24t23 -63v-70h-164v70q0 39 23 63t59 24zM286 101q-15 0 -24 -9t-9 -26v-11h66v11q0 17 -9 26t-24 9z" />
    <glyph glyph-name="Kcommaaccent" unicode="&#x138;" horiz-adv-x="589" 
d="M380 0l-135 229v-229h-186v540h186v-212l129 212h208l-169 -258l186 -282h-219z" />
    <glyph glyph-name="cdotaccent" unicode="&#x139;" horiz-adv-x="531" 
d="M321 786q-23 0 -37.5 13t-14.5 35t14.5 35t37.5 13t37.5 -13t14.5 -35t-14.5 -35t-37.5 -13zM11 879q22 0 35.5 -12.5t13.5 -32.5t-13.5 -33t-35.5 -13h-39v91h39zM133 788h-63v91h62v-24h-32v-10h29v-22h-29v-10h33v-25zM171 788h-31l14 91h30l18 -43l19 43h30l13 -91
h-30l-5 46l-21 -46h-11l-21 46zM321 854q-20 0 -20 -20q0 -9 5.5 -15t14.5 -6t14.5 6t5.5 15q0 20 -20 20zM9 816q20 0 20 18t-20 18h-6v-36h6zM512 177v-177h-444v700h195v-523h249z" />
    <glyph glyph-name="kgreenlandic" unicode="&#x13a;" horiz-adv-x="303" 
d="M307 917q23 0 37.5 -13t14.5 -35t-14.5 -35t-37.5 -13q-24 0 -38.5 13t-14.5 35t14.5 35t38.5 13zM-3 914q22 0 35 -12.5t13 -32.5t-13 -33t-35 -13h-39v91h39zM85 848h34v-25h-64v91h63v-24h-33v-10h30v-22h-30v-10zM237 914l13 -91h-30l-6 46l-21 -46h-10l-22 46
l-5 -46h-30l13 91h30l19 -43l19 43h30zM307 848q8 0 13.5 6t5.5 15q0 20 -19 20q-20 0 -20 -20q0 -9 5.5 -15t14.5 -6zM-5 851q19 0 19 18t-19 18h-7v-36h7zM59 735h186v-735h-186v735z" />
    <glyph glyph-name="Gcommaaccent" unicode="&#x13b;" horiz-adv-x="531" 
d="M321 786q-23 0 -37.5 13t-14.5 35t14.5 35t37.5 13t37.5 -13t14.5 -35t-14.5 -35t-37.5 -13zM11 879q22 0 35.5 -12.5t13.5 -32.5t-13.5 -33t-35.5 -13h-39v91h39zM133 788h-63v91h62v-24h-32v-10h29v-22h-29v-10h33v-25zM171 788h-31l14 91h30l18 -43l19 43h30l13 -91
h-30l-5 46l-21 -46h-11l-21 46zM321 854q-20 0 -20 -20q0 -9 5.5 -15t14.5 -6t14.5 6t5.5 15q0 20 -20 20zM9 816q20 0 20 18t-20 18h-6v-36h6zM512 177v-177h-444v700h195v-523h249z" />
    <glyph glyph-name="obreve" unicode="&#x13c;" horiz-adv-x="303" 
d="M307 917q23 0 37.5 -13t14.5 -35t-14.5 -35t-37.5 -13q-24 0 -38.5 13t-14.5 35t14.5 35t38.5 13zM-3 914q22 0 35 -12.5t13 -32.5t-13 -33t-35 -13h-39v91h39zM85 848h34v-25h-64v91h63v-24h-33v-10h30v-22h-30v-10zM237 914l13 -91h-30l-6 46l-21 -46h-10l-22 46
l-5 -46h-30l13 91h30l19 -43l19 43h30zM307 848q8 0 13.5 6t5.5 15q0 20 -19 20q-20 0 -20 -20q0 -9 5.5 -15t14.5 -6zM-5 851q19 0 19 18t-19 18h-7v-36h7zM59 735h186v-735h-186v735z" />
    <glyph glyph-name="Cdotaccent" unicode="&#x13d;" horiz-adv-x="531" 
d="M321 786q-23 0 -37.5 13t-14.5 35t14.5 35t37.5 13t37.5 -13t14.5 -35t-14.5 -35t-37.5 -13zM11 879q22 0 35.5 -12.5t13.5 -32.5t-13.5 -33t-35.5 -13h-39v91h39zM133 788h-63v91h62v-24h-32v-10h29v-22h-29v-10h33v-25zM171 788h-31l14 91h30l18 -43l19 43h30l13 -91
h-30l-5 46l-21 -46h-11l-21 46zM321 854q-20 0 -20 -20q0 -9 5.5 -15t14.5 -6t14.5 6t5.5 15q0 20 -20 20zM9 816q20 0 20 18t-20 18h-6v-36h6zM512 177v-177h-444v700h195v-523h249z" />
    <glyph glyph-name="lacute" unicode="&#x13e;" horiz-adv-x="303" 
d="M307 917q23 0 37.5 -13t14.5 -35t-14.5 -35t-37.5 -13q-24 0 -38.5 13t-14.5 35t14.5 35t38.5 13zM-3 914q22 0 35 -12.5t13 -32.5t-13 -33t-35 -13h-39v91h39zM85 848h34v-25h-64v91h63v-24h-33v-10h30v-22h-30v-10zM237 914l13 -91h-30l-6 46l-21 -46h-10l-22 46
l-5 -46h-30l13 91h30l19 -43l19 43h30zM307 848q8 0 13.5 6t5.5 15q0 20 -19 20q-20 0 -20 -20q0 -9 5.5 -15t14.5 -6zM-5 851q19 0 19 18t-19 18h-7v-36h7zM59 735h186v-735h-186v735z" />
    <glyph glyph-name="dcaron" unicode="&#x13f;" horiz-adv-x="531" 
d="M321 786q-23 0 -37.5 13t-14.5 35t14.5 35t37.5 13t37.5 -13t14.5 -35t-14.5 -35t-37.5 -13zM11 879q22 0 35.5 -12.5t13.5 -32.5t-13.5 -33t-35.5 -13h-39v91h39zM133 788h-63v91h62v-24h-32v-10h29v-22h-29v-10h33v-25zM171 788h-31l14 91h30l18 -43l19 43h30l13 -91
h-30l-5 46l-21 -46h-11l-21 46zM321 854q-20 0 -20 -20q0 -9 5.5 -15t14.5 -6t14.5 6t5.5 15q0 20 -20 20zM9 816q20 0 20 18t-20 18h-6v-36h6zM512 177v-177h-444v700h195v-523h249z" />
    <glyph glyph-name="Lacute" unicode="&#x140;" horiz-adv-x="303" 
d="M307 917q23 0 37.5 -13t14.5 -35t-14.5 -35t-37.5 -13q-24 0 -38.5 13t-14.5 35t14.5 35t38.5 13zM-3 914q22 0 35 -12.5t13 -32.5t-13 -33t-35 -13h-39v91h39zM85 848h34v-25h-64v91h63v-24h-33v-10h30v-22h-30v-10zM237 914l13 -91h-30l-6 46l-21 -46h-10l-22 46
l-5 -46h-30l13 91h30l19 -43l19 43h30zM307 848q8 0 13.5 6t5.5 15q0 20 -19 20q-20 0 -20 -20q0 -9 5.5 -15t14.5 -6zM-5 851q19 0 19 18t-19 18h-7v-36h7zM59 735h186v-735h-186v735z" />
    <glyph glyph-name="Lslash" unicode="&#x141;" horiz-adv-x="531" 
d="M321 786q-23 0 -37.5 13t-14.5 35t14.5 35t37.5 13t37.5 -13t14.5 -35t-14.5 -35t-37.5 -13zM11 879q22 0 35.5 -12.5t13.5 -32.5t-13.5 -33t-35.5 -13h-39v91h39zM133 788h-63v91h62v-24h-32v-10h29v-22h-29v-10h33v-25zM171 788h-31l14 91h30l18 -43l19 43h30l13 -91
h-30l-5 46l-21 -46h-11l-21 46zM321 854q-20 0 -20 -20q0 -9 5.5 -15t14.5 -6t14.5 6t5.5 15q0 20 -20 20zM9 816q20 0 20 18t-20 18h-6v-36h6zM512 177v-177h-444v700h195v-523h249z" />
    <glyph glyph-name="lslash" unicode="&#x142;" horiz-adv-x="303" 
d="M307 917q23 0 37.5 -13t14.5 -35t-14.5 -35t-37.5 -13q-24 0 -38.5 13t-14.5 35t14.5 35t38.5 13zM-3 914q22 0 35 -12.5t13 -32.5t-13 -33t-35 -13h-39v91h39zM85 848h34v-25h-64v91h63v-24h-33v-10h30v-22h-30v-10zM237 914l13 -91h-30l-6 46l-21 -46h-10l-22 46
l-5 -46h-30l13 91h30l19 -43l19 43h30zM307 848q8 0 13.5 6t5.5 15q0 20 -19 20q-20 0 -20 -20q0 -9 5.5 -15t14.5 -6zM-5 851q19 0 19 18t-19 18h-7v-36h7zM59 735h186v-735h-186v735z" />
    <glyph glyph-name="Dcaron" unicode="&#x143;" horiz-adv-x="760" 
d="M536 786q-24 0 -38 13t-14 35t14 35t38 13q23 0 37.5 -13t14.5 -35t-14.5 -35t-37.5 -13zM275 834q0 -20 -13.5 -33t-35.5 -13h-39v91h39q22 0 35.5 -12.5t13.5 -32.5zM348 788h-63v91h62v-24h-32v-10h29v-22h-29v-10h33v-25zM386 788h-31l13 91h31l18 -43l19 43h30
l13 -91h-30l-5 46l-22 -46h-10l-21 46zM536 854q-20 0 -20 -20q0 -9 5.5 -15t14.5 -6t14.5 6t5.5 15q0 20 -20 20zM224 816q19 0 19 18t-19 18h-6v-36h6zM692 700v-700h-159l-278 380v-380h-187v700h168l269 -367v367h187z" />
    <glyph glyph-name="lcaron" unicode="&#x144;" horiz-adv-x="645" 
d="M483 616q-23 0 -37.5 13t-14.5 35t14.5 35t37.5 13t37.5 -13t14.5 -35t-14.5 -35t-37.5 -13zM222 664q0 -20 -13.5 -33t-34.5 -13h-39v91h39q21 0 34.5 -12.5t13.5 -32.5zM295 618h-63v91h63v-24h-33v-10h29v-22h-29v-10h33v-25zM333 618h-31l14 91h30l19 -43l18 43h30
l14 -91h-31l-5 46l-21 -46h-11l-21 46zM483 684q-20 0 -20 -20q0 -9 5.5 -15t14.5 -6t14.5 6t5.5 15q0 20 -20 20zM172 646q19 0 19 18t-19 18h-7v-36h7zM385 556q47 0 85 -16t65 -45.5t42 -71.5t15 -94v-329h-186v304q0 94 -70 94q-44 0 -67.5 -29t-23.5 -81v-288h-186v540
h130l26 -56q30 34 73.5 53t96.5 19z" />
    <glyph glyph-name="gdotaccent" unicode="&#x145;" horiz-adv-x="760" 
d="M536 786q-24 0 -38 13t-14 35t14 35t38 13q23 0 37.5 -13t14.5 -35t-14.5 -35t-37.5 -13zM275 834q0 -20 -13.5 -33t-35.5 -13h-39v91h39q22 0 35.5 -12.5t13.5 -32.5zM348 788h-63v91h62v-24h-32v-10h29v-22h-29v-10h33v-25zM386 788h-31l13 91h31l18 -43l19 43h30
l13 -91h-30l-5 46l-22 -46h-10l-21 46zM536 854q-20 0 -20 -20q0 -9 5.5 -15t14.5 -6t14.5 6t5.5 15q0 20 -20 20zM224 816q19 0 19 18t-19 18h-6v-36h6zM692 700v-700h-159l-278 380v-380h-187v700h168l269 -367v367h187z" />
    <glyph glyph-name="Obreve" unicode="&#x146;" horiz-adv-x="645" 
d="M483 616q-23 0 -37.5 13t-14.5 35t14.5 35t37.5 13t37.5 -13t14.5 -35t-14.5 -35t-37.5 -13zM222 664q0 -20 -13.5 -33t-34.5 -13h-39v91h39q21 0 34.5 -12.5t13.5 -32.5zM295 618h-63v91h63v-24h-33v-10h29v-22h-29v-10h33v-25zM333 618h-31l14 91h30l19 -43l18 43h30
l14 -91h-31l-5 46l-21 -46h-11l-21 46zM483 684q-20 0 -20 -20q0 -9 5.5 -15t14.5 -6t14.5 6t5.5 15q0 20 -20 20zM172 646q19 0 19 18t-19 18h-7v-36h7zM385 556q47 0 85 -16t65 -45.5t42 -71.5t15 -94v-329h-186v304q0 94 -70 94q-44 0 -67.5 -29t-23.5 -81v-288h-186v540
h130l26 -56q30 34 73.5 53t96.5 19z" />
    <glyph glyph-name="dcroat" unicode="&#x147;" horiz-adv-x="760" 
d="M530 786q-24 0 -38.5 13t-14.5 35t14.5 35t38.5 13q23 0 37.5 -13t14.5 -35t-14.5 -35t-37.5 -13zM268 834q0 -20 -13 -33t-35 -13h-39v91h39q22 0 35 -12.5t13 -32.5zM342 788h-63v91h62v-24h-32v-10h29v-22h-29v-10h33v-25zM379 788h-30l13 91h30l19 -43l19 43h30
l13 -91h-30l-6 46l-21 -46h-10l-21 46zM530 854q-20 0 -20 -20q0 -9 5.5 -15t14.5 -6q8 0 13.5 6t5.5 15q0 20 -19 20zM218 816q19 0 19 18t-19 18h-7v-36h7zM692 700v-700h-159l-278 380v-380h-187v700h168l269 -367v367h187z" />
    <glyph glyph-name="Lcaron" unicode="&#x148;" horiz-adv-x="645" 
d="M483 616q-24 0 -38.5 13t-14.5 35t14.5 35t38.5 13q23 0 37.5 -13t14.5 -35t-14.5 -35t-37.5 -13zM221 664q0 -20 -13 -33t-35 -13h-39v91h39q22 0 35 -12.5t13 -32.5zM295 618h-63v91h62v-24h-32v-10h29v-22h-29v-10h33v-25zM333 618h-31l13 91h30l19 -43l19 43h30
l13 -91h-30l-5 46l-22 -46h-10l-21 46zM483 684q-20 0 -20 -20q0 -9 5.5 -15t14.5 -6t14.5 6t5.5 15q0 20 -20 20zM171 646q19 0 19 18t-19 18h-6v-36h6zM385 556q47 0 85 -16t65 -45.5t42 -71.5t15 -94v-329h-186v304q0 94 -70 94q-44 0 -67.5 -29t-23.5 -81v-288h-186v540
h130l26 -56q30 34 73.5 53t96.5 19z" />
    <glyph glyph-name="Dcroat" unicode="&#x14a;" horiz-adv-x="760" 
d="M530 786q-24 0 -38.5 13t-14.5 35t14.5 35t38.5 13q23 0 37.5 -13t14.5 -35t-14.5 -35t-37.5 -13zM268 834q0 -20 -13 -33t-35 -13h-39v91h39q22 0 35 -12.5t13 -32.5zM342 788h-63v91h62v-24h-32v-10h29v-22h-29v-10h33v-25zM379 788h-30l13 91h30l19 -43l19 43h30
l13 -91h-30l-6 46l-21 -46h-10l-21 46zM530 854q-20 0 -20 -20q0 -9 5.5 -15t14.5 -6q8 0 13.5 6t5.5 15q0 20 -19 20zM218 816q19 0 19 18t-19 18h-7v-36h7zM692 700v-700h-159l-278 380v-380h-187v700h168l269 -367v367h187z" />
    <glyph glyph-name="lcommaaccent" unicode="&#x14b;" horiz-adv-x="645" 
d="M483 616q-24 0 -38.5 13t-14.5 35t14.5 35t38.5 13q23 0 37.5 -13t14.5 -35t-14.5 -35t-37.5 -13zM221 664q0 -20 -13 -33t-35 -13h-39v91h39q22 0 35 -12.5t13 -32.5zM295 618h-63v91h62v-24h-32v-10h29v-22h-29v-10h33v-25zM333 618h-31l13 91h30l19 -43l19 43h30
l13 -91h-30l-5 46l-22 -46h-10l-21 46zM483 684q-20 0 -20 -20q0 -9 5.5 -15t14.5 -6t14.5 6t5.5 15q0 20 -20 20zM171 646q19 0 19 18t-19 18h-6v-36h6zM385 556q47 0 85 -16t65 -45.5t42 -71.5t15 -94v-329h-186v304q0 94 -70 94q-44 0 -67.5 -29t-23.5 -81v-288h-186v540
h130l26 -56q30 34 73.5 53t96.5 19z" />
    <glyph glyph-name="demodiac" unicode="&#x14c;" horiz-adv-x="832" 
d="M570 882q23 0 37.5 -13t14.5 -35t-14.5 -35t-37.5 -13q-24 0 -38.5 13t-14.5 35t14.5 35t38.5 13zM260 879q22 0 35 -12.5t13 -32.5t-13 -33t-35 -13h-39v91h39zM349 813h33v-25h-64v91h63v-24h-32v-10h29v-22h-29v-10zM500 879l13 -91h-30l-6 46l-21 -46h-10l-22 46
l-5 -46h-30l13 91h30l19 -43l19 43h30zM570 813q8 0 13.5 6t5.5 15q0 20 -19 20q-20 0 -20 -20q0 -9 5.5 -15t14.5 -6zM258 816q19 0 19 18t-19 18h-7v-36h7zM417 -18q-84 0 -155 27.5t-122.5 76.5t-80 116.5t-28.5 147.5t28.5 147.5t80 116.5t122.5 76.5t155 27.5
t154.5 -27.5t121.5 -76t79.5 -116t28.5 -148.5t-28.5 -148.5t-79.5 -116t-121.5 -76t-154.5 -27.5zM417 162q40 0 73.5 14t58 39t38 59.5t13.5 75.5t-13.5 75.5t-38 59.5t-58 39t-73.5 14t-74 -14t-58.5 -39t-38.5 -59.5t-14 -75.5t14 -75.5t38.5 -59.5t58.5 -39t74 -14z
" />
    <glyph glyph-name="Ldot" unicode="&#x14d;" horiz-adv-x="660" 
d="M483 712q23 0 37.5 -13t14.5 -35t-14.5 -35t-37.5 -13q-24 0 -38.5 13t-14.5 35t14.5 35t38.5 13zM173 709q22 0 35 -12.5t13 -32.5t-13 -33t-35 -13h-39v91h39zM262 643h33v-25h-63v91h62v-24h-32v-10h29v-22h-29v-10zM413 709l13 -91h-30l-5 46l-22 -46h-10l-21 46
l-6 -46h-30l13 91h30l19 -43l19 43h30zM483 643q9 0 14 6t5 15q0 20 -19 20q-20 0 -20 -20q0 -9 5.5 -15t14.5 -6zM171 646q19 0 19 18t-19 18h-6v-36h6zM330 -18q-66 0 -121.5 21.5t-96 60t-63 91t-22.5 115.5t22.5 115.5t63 91t96 60t121.5 21.5t121.5 -21.5t96 -60
t63 -91t22.5 -115.5t-22.5 -115.5t-63 -91t-96 -60t-121.5 -21.5zM330 149q51 0 83.5 33.5t32.5 87.5t-32.5 87.5t-83.5 33.5t-84 -33.5t-33 -87.5t33 -87.5t84 -33.5z" />
    <glyph glyph-name="demo" unicode="&#x14e;" horiz-adv-x="832" 
d="M570 882q24 0 38.5 -13t14.5 -35t-14.5 -35t-38.5 -13q-23 0 -37.5 13t-14.5 35t14.5 35t37.5 13zM261 879q22 0 35 -12.5t13 -32.5t-13 -33t-35 -13h-39v91h39zM349 813h33v-25h-63v91h63v-24h-33v-10h29v-22h-29v-10zM501 879l13 -91h-30l-6 46l-21 -46h-10l-22 46
l-5 -46h-30l13 91h30l19 -43l19 43h30zM570 813q9 0 14.5 6t5.5 15q0 20 -20 20q-19 0 -19 -20q0 -9 5 -15t14 -6zM259 816q19 0 19 18t-19 18h-7v-36h7zM417 -18q-84 0 -155 27.5t-122.5 76.5t-80 116.5t-28.5 147.5t28.5 147.5t80 116.5t122.5 76.5t155 27.5t154.5 -27.5
t121.5 -76t79.5 -116t28.5 -148.5t-28.5 -148.5t-79.5 -116t-121.5 -76t-154.5 -27.5zM417 162q40 0 73.5 14t58 39t38 59.5t13.5 75.5t-13.5 75.5t-38 59.5t-58 39t-73.5 14t-74 -14t-58.5 -39t-38.5 -59.5t-14 -75.5t14 -75.5t38.5 -59.5t58.5 -39t74 -14z" />
    <glyph glyph-name="Lcommaaccent" unicode="&#x14f;" horiz-adv-x="660" 
d="M482 712q23 0 37.5 -13t14.5 -35t-14.5 -35t-37.5 -13t-37.5 13t-14.5 35t14.5 35t37.5 13zM172 709q22 0 35.5 -12.5t13.5 -32.5t-13.5 -33t-35.5 -13h-39v91h39zM261 643h33v-25h-63v91h62v-24h-32v-10h29v-22h-29v-10zM412 709l13 -91h-30l-5 46l-22 -46h-10l-21 46
l-5 -46h-31l14 91h30l18 -43l19 43h30zM482 643q9 0 14.5 6t5.5 15q0 20 -20 20t-20 -20q0 -9 5.5 -15t14.5 -6zM170 646q20 0 20 18t-20 18h-6v-36h6zM330 -18q-66 0 -121.5 21.5t-96 60t-63 91t-22.5 115.5t22.5 115.5t63 91t96 60t121.5 21.5t121.5 -21.5t96 -60t63 -91
t22.5 -115.5t-22.5 -115.5t-63 -91t-96 -60t-121.5 -21.5zM330 149q51 0 83.5 33.5t32.5 87.5t-32.5 87.5t-83.5 33.5t-84 -33.5t-33 -87.5t33 -87.5t84 -33.5z" />
    <glyph glyph-name="DEMO" unicode="&#x150;" horiz-adv-x="832" 
d="M569 882q23 0 37.5 -13t14.5 -35t-14.5 -35t-37.5 -13t-37.5 13t-14.5 35t14.5 35t37.5 13zM260 879q21 0 34.5 -12.5t13.5 -32.5t-13.5 -33t-34.5 -13h-40v91h40zM348 813h33v-25h-63v91h63v-24h-33v-10h29v-22h-29v-10zM499 879l14 -91h-31l-5 46l-21 -46h-11l-21 46
l-5 -46h-31l14 91h30l18 -43l19 43h30zM569 813q9 0 14.5 6t5.5 15q0 20 -20 20t-20 -20q0 -9 5.5 -15t14.5 -6zM258 816q19 0 19 18t-19 18h-7v-36h7zM417 -18q-84 0 -155 27.5t-122.5 76.5t-80 116.5t-28.5 147.5t28.5 147.5t80 116.5t122.5 76.5t155 27.5t154.5 -27.5
t121.5 -76t79.5 -116t28.5 -148.5t-28.5 -148.5t-79.5 -116t-121.5 -76t-154.5 -27.5zM417 162q40 0 73.5 14t58 39t38 59.5t13.5 75.5t-13.5 75.5t-38 59.5t-58 39t-73.5 14t-74 -14t-58.5 -39t-38.5 -59.5t-14 -75.5t14 -75.5t38.5 -59.5t58.5 -39t74 -14z" />
    <glyph glyph-name="ldot" unicode="&#x151;" horiz-adv-x="660" 
d="M484 712q23 0 37.5 -13t14.5 -35t-14.5 -35t-37.5 -13q-24 0 -38.5 13t-14.5 35t14.5 35t38.5 13zM174 709q22 0 35 -12.5t13 -32.5t-13 -33t-35 -13h-39v91h39zM263 643h33v-25h-63v91h62v-24h-32v-10h29v-22h-29v-10zM414 709l13 -91h-30l-6 46l-21 -46h-10l-21 46
l-6 -46h-30l13 91h30l19 -43l19 43h30zM484 643q8 0 13.5 6t5.5 15q0 20 -19 20q-20 0 -20 -20q0 -9 5.5 -15t14.5 -6zM172 646q19 0 19 18t-19 18h-7v-36h7zM330 -18q-66 0 -121.5 21.5t-96 60t-63 91t-22.5 115.5t22.5 115.5t63 91t96 60t121.5 21.5t121.5 -21.5t96 -60
t63 -91t22.5 -115.5t-22.5 -115.5t-63 -91t-96 -60t-121.5 -21.5zM330 149q51 0 83.5 33.5t32.5 87.5t-32.5 87.5t-83.5 33.5t-84 -33.5t-33 -87.5t33 -87.5t84 -33.5z" />
    <glyph glyph-name="OE" unicode="&#x152;" 
d="M286 532q-39 0 -62.5 25.5t-23.5 67.5t23.5 68t62.5 26t63 -26t24 -68t-24 -67.5t-63 -25.5zM286 661q-17 0 -26.5 -10t-9.5 -26t9.5 -25.5t26.5 -9.5t27 9.5t10 25.5t-10 26t-27 10zM204 500l164 24v-54l-83 -10l83 -38v-19l-82 -38l82 -9v-55l-164 24v54l79 33l-79 34
v54zM324 288h44v-113h-164v112h44v-58h18v52h40v-52h18v59zM286 157q36 0 59 -24t23 -63v-70h-164v70q0 39 23 63t59 24zM286 101q-15 0 -24 -9t-9 -26v-11h66v11q0 17 -9 26t-24 9z" />
    <glyph glyph-name="oe" unicode="&#x153;" horiz-adv-x="1051" 
d="M1025 273q0 -12 -1 -23.5t-3 -24.5h-402q9 -45 38 -68.5t74 -23.5q33 0 58.5 13.5t39.5 38.5h185q-14 -46 -41 -84t-63.5 -64t-82 -40.5t-96.5 -14.5q-59 0 -109 22t-87 60q-38 -38 -90 -60t-115 -22q-66 0 -122 21.5t-96 59.5t-62.5 91t-22.5 116t22.5 115.5t62.5 91
t96 59.5t122 21q63 0 115 -21.5t90 -59.5q36 38 86 59.5t110 21.5q65 0 119 -21.5t93 -59t60.5 -89.5t21.5 -114zM731 410q-85 0 -109 -81h220q-24 81 -111 81zM330 149q51 0 83.5 33.5t32.5 87.5t-32.5 87t-83.5 33t-84 -33t-33 -87t33 -87.5t84 -33.5z" />
    <glyph glyph-name="dieresistonos" unicode="&#x154;" horiz-adv-x="676" 
d="M465 786q-23 0 -37.5 13t-14.5 35t14.5 35t37.5 13q24 0 38.5 -13t14.5 -35t-14.5 -35t-38.5 -13zM204 834q0 -20 -13 -33t-35 -13h-39v91h39q22 0 35 -12.5t13 -32.5zM277 788h-63v91h63v-24h-33v-10h29v-22h-29v-10h33v-25zM315 788h-30l13 91h30l19 -43l19 43h30
l13 -91h-30l-6 46l-21 -46h-11l-21 46zM465 854q-20 0 -20 -20q0 -9 5.5 -15t14.5 -6t14.5 6t5.5 15q0 20 -20 20zM154 816q19 0 19 18t-19 18h-7v-36h7zM330 214h-69v-214h-193v700h303q57 0 104.5 -18t82 -51t54 -78.5t19.5 -100.5q0 -65 -29.5 -115.5t-81.5 -81.5
l139 -255h-215zM261 377h88q41 0 63 21.5t22 54.5t-22 54.5t-63 21.5h-88v-152z" />
    <glyph glyph-name="longs" unicode="&#x155;" horiz-adv-x="422" 
d="M389 713q23 0 37.5 -13.5t14.5 -35.5t-14.5 -35t-37.5 -13q-24 0 -38.5 13t-14.5 35t14.5 35.5t38.5 13.5zM127 664q0 -20 -13 -32.5t-35 -12.5h-39v91h39q22 0 35 -12.5t13 -33.5zM201 619h-63v91h62v-24h-32v-10h29v-23h-29v-10h33v-24zM239 619h-31l13 91h30l19 -44
l19 44h30l13 -91h-30l-5 46l-22 -46h-10l-21 46zM389 644q20 0 20 20q0 21 -20 21t-20 -21q0 -20 20 -20zM77 646q19 0 19 18q0 19 -19 19h-6v-37h6zM212 480q29 33 65 48t84 15h49v-171h-72q-50 0 -71.5 -23t-21.5 -74v-275h-186v540h124z" />
    <glyph glyph-name="Gdotaccent" unicode="&#x156;" horiz-adv-x="676" 
d="M465 786q-23 0 -37.5 13t-14.5 35t14.5 35t37.5 13q24 0 38.5 -13t14.5 -35t-14.5 -35t-38.5 -13zM204 834q0 -20 -13 -33t-35 -13h-39v91h39q22 0 35 -12.5t13 -32.5zM277 788h-63v91h63v-24h-33v-10h29v-22h-29v-10h33v-25zM315 788h-30l13 91h30l19 -43l19 43h30
l13 -91h-30l-6 46l-21 -46h-11l-21 46zM465 854q-20 0 -20 -20q0 -9 5.5 -15t14.5 -6t14.5 6t5.5 15q0 20 -20 20zM154 816q19 0 19 18t-19 18h-7v-36h7zM330 214h-69v-214h-193v700h303q57 0 104.5 -18t82 -51t54 -78.5t19.5 -100.5q0 -65 -29.5 -115.5t-81.5 -81.5
l139 -255h-215zM261 377h88q41 0 63 21.5t22 54.5t-22 54.5t-63 21.5h-88v-152z" />
    <glyph glyph-name="ohungarumlaut" unicode="&#x157;" horiz-adv-x="422" 
d="M388 713q24 0 38 -13.5t14 -35.5t-14 -35t-38 -13q-23 0 -37.5 13t-14.5 35t14.5 35.5t37.5 13.5zM127 664q0 -20 -13.5 -32.5t-34.5 -12.5h-39v91h39q21 0 34.5 -12.5t13.5 -33.5zM200 619h-63v91h63v-24h-33v-10h29v-23h-29v-10h33v-24zM238 619h-31l14 91h30l19 -44
l18 44h30l14 -91h-31l-5 46l-21 -46h-11l-21 46zM388 644q20 0 20 20q0 21 -20 21t-20 -21q0 -20 20 -20zM77 646q19 0 19 18q0 19 -19 19h-7v-37h7zM212 480q29 33 65 48t84 15h49v-171h-72q-50 0 -71.5 -23t-21.5 -74v-275h-186v540h124z" />
    <glyph glyph-name="dieresistonos.narrow" unicode="&#x158;" horiz-adv-x="676" 
d="M459 786q-23 0 -37.5 13t-14.5 35t14.5 35t37.5 13t37.5 -13t14.5 -35t-14.5 -35t-37.5 -13zM198 834q0 -20 -13.5 -33t-34.5 -13h-40v91h40q21 0 34.5 -12.5t13.5 -32.5zM271 788h-63v91h63v-24h-33v-10h29v-22h-29v-10h33v-25zM309 788h-31l14 91h30l19 -43l18 43h30
l14 -91h-31l-5 46l-21 -46h-11l-21 46zM459 854q-20 0 -20 -20q0 -9 5.5 -15t14.5 -6t14.5 6t5.5 15q0 20 -20 20zM148 816q19 0 19 18t-19 18h-7v-36h7zM330 214h-69v-214h-193v700h303q57 0 104.5 -18t82 -51t54 -78.5t19.5 -100.5q0 -65 -29.5 -115.5t-81.5 -81.5
l139 -255h-215zM261 377h88q41 0 63 21.5t22 54.5t-22 54.5t-63 21.5h-88v-152z" />
    <glyph glyph-name="lozenge" unicode="&#x159;" horiz-adv-x="422" 
d="M388 713q24 0 38 -13.5t14 -35.5t-14 -35t-38 -13q-23 0 -37.5 13t-14.5 35t14.5 35.5t37.5 13.5zM127 664q0 -20 -13.5 -32.5t-34.5 -12.5h-39v91h39q21 0 34.5 -12.5t13.5 -33.5zM200 619h-63v91h63v-24h-33v-10h29v-23h-29v-10h33v-24zM238 619h-31l14 91h30l19 -44
l18 44h30l14 -91h-31l-5 46l-21 -46h-11l-21 46zM388 644q20 0 20 20q0 21 -20 21t-20 -21q0 -20 20 -20zM77 646q19 0 19 18q0 19 -19 19h-7v-37h7zM212 480q29 33 65 48t84 15h49v-171h-72q-50 0 -71.5 -23t-21.5 -74v-275h-186v540h124z" />
    <glyph glyph-name="ebreve" unicode="&#x15a;" horiz-adv-x="629" 
d="M455 882q23 0 37.5 -13t14.5 -35t-14.5 -35t-37.5 -13q-24 0 -38.5 13t-14.5 35t14.5 35t38.5 13zM145 879q22 0 35 -12.5t13 -32.5t-13 -33t-35 -13h-39v91h39zM234 813h33v-25h-63v91h62v-24h-32v-10h29v-22h-29v-10zM385 879l13 -91h-30l-5 46l-22 -46h-10l-21 46
l-6 -46h-30l13 91h30l19 -43l19 43h30zM455 813q9 0 14 6t5 15q0 20 -19 20q-20 0 -20 -20q0 -9 5.5 -15t14.5 -6zM143 816q19 0 19 18t-19 18h-6v-36h6zM316 -17q-64 0 -116.5 16.5t-89 47.5t-56.5 76.5t-20 102.5h199q0 -38 24.5 -56t57.5 -18q31 0 55 15t24 44
q0 17 -9.5 28t-26 19t-38.5 14t-47 12q-38 9 -78.5 21.5t-74.5 36t-55.5 61t-21.5 97.5q0 104 70.5 160.5t195.5 56.5q127 0 195.5 -61t68.5 -168h-193q0 33 -21.5 49t-51.5 16q-26 0 -47 -11.5t-21 -36.5q0 -15 9.5 -25t25.5 -17.5t37.5 -14t46.5 -12.5q39 -10 81 -23.5
t77 -37.5t57.5 -62t22.5 -98q0 -57 -21 -100.5t-58.5 -73t-88.5 -44t-112 -14.5z" />
    <glyph glyph-name="Modern and elegant sans serif font family." unicode="&#x15b;" horiz-adv-x="534" 
d="M418 712q24 0 38.5 -13t14.5 -35t-14.5 -35t-38.5 -13q-23 0 -37.5 13t-14.5 35t14.5 35t37.5 13zM109 709q22 0 35 -12.5t13 -32.5t-13 -33t-35 -13h-39v91h39zM197 643h34v-25h-64v91h63v-24h-33v-10h29v-22h-29v-10zM349 709l13 -91h-30l-6 46l-21 -46h-10l-22 46
l-5 -46h-30l13 91h30l19 -43l19 43h30zM418 643q9 0 14.5 6t5.5 15q0 20 -20 20q-19 0 -19 -20q0 -9 5.5 -15t13.5 -6zM107 646q19 0 19 18t-19 18h-7v-36h7zM267 -18q-55 0 -99 14t-74.5 39.5t-47.5 61.5t-17 80h179q0 -29 18 -43.5t44 -14.5q21 0 37 10.5t16 31.5
q0 23 -27 32.5t-65 16.5q-31 5 -65.5 13.5t-63.5 27t-47.5 49.5t-18.5 80q0 41 16.5 73.5t46.5 56t72.5 36t94.5 12.5t94 -13t71.5 -37t46 -58t17.5 -75h-174q0 26 -15.5 38.5t-41.5 12.5q-23 0 -36.5 -10.5t-13.5 -29.5q0 -23 27.5 -31.5t65.5 -15.5q32 -6 67 -14
t64.5 -25.5t48.5 -48.5t19 -82q0 -42 -17 -76.5t-48.5 -59t-75.5 -38t-98 -13.5z" />
    <glyph glyph-name="ecaron" unicode="&#x15c;" horiz-adv-x="629" 
d="M454 882q24 0 38.5 -13t14.5 -35t-14.5 -35t-38.5 -13q-23 0 -37.5 13t-14.5 35t14.5 35t37.5 13zM145 879q22 0 35 -12.5t13 -32.5t-13 -33t-35 -13h-39v91h39zM233 813h34v-25h-64v91h63v-24h-33v-10h30v-22h-30v-10zM385 879l13 -91h-30l-6 46l-21 -46h-10l-22 46
l-5 -46h-30l13 91h30l19 -43l19 43h30zM454 813q9 0 14.5 6t5.5 15q0 20 -20 20q-19 0 -19 -20q0 -9 5.5 -15t13.5 -6zM143 816q19 0 19 18t-19 18h-7v-36h7zM316 -17q-64 0 -116.5 16.5t-89 47.5t-56.5 76.5t-20 102.5h199q0 -38 24.5 -56t57.5 -18q31 0 55 15t24 44
q0 17 -9.5 28t-26 19t-38.5 14t-47 12q-38 9 -78.5 21.5t-74.5 36t-55.5 61t-21.5 97.5q0 104 70.5 160.5t195.5 56.5q127 0 195.5 -61t68.5 -168h-193q0 33 -21.5 49t-51.5 16q-26 0 -47 -11.5t-21 -36.5q0 -15 9.5 -25t25.5 -17.5t37.5 -14t46.5 -12.5q39 -10 81 -23.5
t77 -37.5t57.5 -62t22.5 -98q0 -57 -21 -100.5t-58.5 -73t-88.5 -44t-112 -14.5z" />
    <glyph glyph-name="nacute" unicode="&#x15d;" horiz-adv-x="534" 
d="M419 712q23 0 37.5 -13t14.5 -35t-14.5 -35t-37.5 -13q-24 0 -38.5 13t-14.5 35t14.5 35t38.5 13zM109 709q22 0 35 -12.5t13 -32.5t-13 -33t-35 -13h-39v91h39zM197 643h34v-25h-64v91h63v-24h-33v-10h30v-22h-30v-10zM349 709l13 -91h-30l-6 46l-21 -46h-10l-22 46
l-5 -46h-30l13 91h30l19 -43l19 43h30zM419 643q8 0 13.5 6t5.5 15q0 20 -19 20q-20 0 -20 -20q0 -9 5.5 -15t14.5 -6zM107 646q19 0 19 18t-19 18h-7v-36h7zM267 -18q-55 0 -99 14t-74.5 39.5t-47.5 61.5t-17 80h179q0 -29 18 -43.5t44 -14.5q21 0 37 10.5t16 31.5
q0 23 -27 32.5t-65 16.5q-31 5 -65.5 13.5t-63.5 27t-47.5 49.5t-18.5 80q0 41 16.5 73.5t46.5 56t72.5 36t94.5 12.5t94 -13t71.5 -37t46 -58t17.5 -75h-174q0 26 -15.5 38.5t-41.5 12.5q-23 0 -36.5 -10.5t-13.5 -29.5q0 -23 27.5 -31.5t65.5 -15.5q32 -6 67 -14
t64.5 -25.5t48.5 -48.5t19 -82q0 -42 -17 -76.5t-48.5 -59t-75.5 -38t-98 -13.5z" />
    <glyph glyph-name="Ebreve" unicode="&#x15e;" horiz-adv-x="629" 
d="M476 876q23 0 37.5 -13t14.5 -35t-14.5 -35t-37.5 -13t-37.5 13t-14.5 35t14.5 35t37.5 13zM167 874q21 0 34.5 -13t13.5 -33t-13.5 -33t-34.5 -13h-40v92h40zM255 807h33v-25h-63v92h63v-25h-33v-10h29v-22h-29v-10zM406 874l14 -92h-31l-5 46l-21 -46h-11l-21 46
l-5 -46h-31l14 92h30l18 -44l19 44h30zM476 808q20 0 20 20t-20 20t-20 -20t20 -20zM165 810q19 0 19 18t-19 18h-7v-36h7zM316 -17q-64 0 -116.5 16.5t-89 47.5t-56.5 76.5t-20 102.5h199q0 -38 24.5 -56t57.5 -18q31 0 55 15t24 44q0 17 -9.5 28t-26 19t-38.5 14t-47 12
q-38 9 -78.5 21.5t-74.5 36t-55.5 61t-21.5 97.5q0 104 70.5 160.5t195.5 56.5q127 0 195.5 -61t68.5 -168h-193q0 33 -21.5 49t-51.5 16q-26 0 -47 -11.5t-21 -36.5q0 -15 9.5 -25t25.5 -17.5t37.5 -14t46.5 -12.5q39 -10 81 -23.5t77 -37.5t57.5 -62t22.5 -98
q0 -57 -21 -100.5t-58.5 -73t-88.5 -44t-112 -14.5z" />
    <glyph glyph-name="Mont Heavy DEMO" unicode="&#x15f;" horiz-adv-x="534" 
d="M418 712q23 0 37.5 -13t14.5 -35t-14.5 -35t-37.5 -13t-37.5 13t-14.5 35t14.5 35t37.5 13zM108 709q22 0 35.5 -12.5t13.5 -32.5t-13.5 -33t-35.5 -13h-39v91h39zM197 643h33v-25h-63v91h62v-24h-32v-10h29v-22h-29v-10zM348 709l13 -91h-30l-5 46l-21 -46h-11l-21 46
l-5 -46h-31l14 91h30l18 -43l19 43h30zM418 643q9 0 14.5 6t5.5 15q0 20 -20 20t-20 -20q0 -9 5.5 -15t14.5 -6zM106 646q20 0 20 18t-20 18h-6v-36h6zM267 -18q-55 0 -99 14t-74.5 39.5t-47.5 61.5t-17 80h179q0 -29 18 -43.5t44 -14.5q21 0 37 10.5t16 31.5q0 23 -27 32.5
t-65 16.5q-31 5 -65.5 13.5t-63.5 27t-47.5 49.5t-18.5 80q0 41 16.5 73.5t46.5 56t72.5 36t94.5 12.5t94 -13t71.5 -37t46 -58t17.5 -75h-174q0 26 -15.5 38.5t-41.5 12.5q-23 0 -36.5 -10.5t-13.5 -29.5q0 -23 27.5 -31.5t65.5 -15.5q32 -6 67 -14t64.5 -25.5t48.5 -48.5
t19 -82q0 -42 -17 -76.5t-48.5 -59t-75.5 -38t-98 -13.5z" />
    <glyph glyph-name="Scaron" unicode="&#x160;" horiz-adv-x="629" 
d="M448 882q24 0 38.5 -13t14.5 -35t-14.5 -35t-38.5 -13q-23 0 -37.5 13t-14.5 35t14.5 35t37.5 13zM139 879q22 0 35 -12.5t13 -32.5t-13 -33t-35 -13h-39v91h39zM227 813h34v-25h-64v91h63v-24h-33v-10h30v-22h-30v-10zM379 879l13 -91h-30l-6 46l-21 -46h-10l-22 46
l-5 -46h-30l13 91h30l19 -43l19 43h30zM448 813q9 0 14.5 6t5.5 15q0 20 -20 20q-19 0 -19 -20q0 -9 5.5 -15t13.5 -6zM137 816q19 0 19 18t-19 18h-7v-36h7zM316 -17q-64 0 -116.5 16.5t-89 47.5t-56.5 76.5t-20 102.5h199q0 -38 24.5 -56t57.5 -18q31 0 55 15t24 44
q0 17 -9.5 28t-26 19t-38.5 14t-47 12q-38 9 -78.5 21.5t-74.5 36t-55.5 61t-21.5 97.5q0 104 70.5 160.5t195.5 56.5q127 0 195.5 -61t68.5 -168h-193q0 33 -21.5 49t-51.5 16q-26 0 -47 -11.5t-21 -36.5q0 -15 9.5 -25t25.5 -17.5t37.5 -14t46.5 -12.5q39 -10 81 -23.5
t77 -37.5t57.5 -62t22.5 -98q0 -57 -21 -100.5t-58.5 -73t-88.5 -44t-112 -14.5z" />
    <glyph glyph-name="scaron" unicode="&#x161;" horiz-adv-x="534" 
d="M418 712q23 0 37.5 -13t14.5 -35t-14.5 -35t-37.5 -13t-37.5 13t-14.5 35t14.5 35t37.5 13zM108 709q22 0 35.5 -12.5t13.5 -32.5t-13.5 -33t-35.5 -13h-39v91h39zM197 643h33v-25h-63v91h62v-24h-32v-10h29v-22h-29v-10zM348 709l13 -91h-30l-5 46l-21 -46h-11l-21 46
l-5 -46h-31l14 91h30l18 -43l19 43h30zM418 643q9 0 14.5 6t5.5 15q0 20 -20 20t-20 -20q0 -9 5.5 -15t14.5 -6zM106 646q20 0 20 18t-20 18h-6v-36h6zM267 -18q-55 0 -99 14t-74.5 39.5t-47.5 61.5t-17 80h179q0 -29 18 -43.5t44 -14.5q21 0 37 10.5t16 31.5q0 23 -27 32.5
t-65 16.5q-31 5 -65.5 13.5t-63.5 27t-47.5 49.5t-18.5 80q0 41 16.5 73.5t46.5 56t72.5 36t94.5 12.5t94 -13t71.5 -37t46 -58t17.5 -75h-174q0 26 -15.5 38.5t-41.5 12.5q-23 0 -36.5 -10.5t-13.5 -29.5q0 -23 27.5 -31.5t65.5 -15.5q32 -6 67 -14t64.5 -25.5t48.5 -48.5
t19 -82q0 -42 -17 -76.5t-48.5 -59t-75.5 -38t-98 -13.5z" />
    <glyph glyph-name="Germandbls" unicode="&#x162;" horiz-adv-x="611" 
d="M453 786q-23 0 -37.5 13t-14.5 35t14.5 35t37.5 13q24 0 38 -13t14 -35t-14 -35t-38 -13zM192 834q0 -20 -13.5 -33t-34.5 -13h-39v91h39q21 0 34.5 -12.5t13.5 -32.5zM265 788h-63v91h63v-24h-33v-10h29v-22h-29v-10h33v-25zM303 788h-30l13 91h30l19 -43l18 43h30
l14 -91h-31l-5 46l-21 -46h-11l-21 46zM453 854q-20 0 -20 -20q0 -9 5.5 -15t14.5 -6t14.5 6t5.5 15q0 20 -20 20zM142 816q19 0 19 18t-19 18h-7v-36h7zM593 526h-191v-526h-193v526h-190v174h574v-174z" />
    <glyph glyph-name="Ohungarumlaut" unicode="&#x163;" 
d="M286 532q-39 0 -62.5 25.5t-23.5 67.5t23.5 68t62.5 26t63 -26t24 -68t-24 -67.5t-63 -25.5zM286 661q-17 0 -26.5 -10t-9.5 -26t9.5 -25.5t26.5 -9.5t27 9.5t10 25.5t-10 26t-27 10zM204 500l164 24v-54l-83 -10l83 -38v-19l-82 -38l82 -9v-55l-164 24v54l79 33l-79 34
v54zM324 288h44v-113h-164v112h44v-58h18v52h40v-52h18v59zM286 157q36 0 59 -24t23 -63v-70h-164v70q0 39 23 63t59 24zM286 101q-15 0 -24 -9t-9 -26v-11h66v11q0 17 -9 26t-24 9z" />
    <glyph glyph-name="Edotaccent" unicode="&#x164;" horiz-adv-x="611" 
d="M453 786q-23 0 -37.5 13t-14.5 35t14.5 35t37.5 13q24 0 38 -13t14 -35t-14 -35t-38 -13zM192 834q0 -20 -13.5 -33t-34.5 -13h-39v91h39q21 0 34.5 -12.5t13.5 -32.5zM265 788h-63v91h63v-24h-33v-10h29v-22h-29v-10h33v-25zM303 788h-30l13 91h30l19 -43l18 43h30
l14 -91h-31l-5 46l-21 -46h-11l-21 46zM453 854q-20 0 -20 -20q0 -9 5.5 -15t14.5 -6t14.5 6t5.5 15q0 20 -20 20zM142 816q19 0 19 18t-19 18h-7v-36h7zM593 526h-191v-526h-193v526h-190v174h574v-174z" />
    <glyph glyph-name="ncaron" unicode="&#x165;" 
d="M286 532q-39 0 -62.5 25.5t-23.5 67.5t23.5 68t62.5 26t63 -26t24 -68t-24 -67.5t-63 -25.5zM286 661q-17 0 -26.5 -10t-9.5 -26t9.5 -25.5t26.5 -9.5t27 9.5t10 25.5t-10 26t-27 10zM204 500l164 24v-54l-83 -10l83 -38v-19l-82 -38l82 -9v-55l-164 24v54l79 33l-79 34
v54zM324 288h44v-113h-164v112h44v-58h18v52h40v-52h18v59zM286 157q36 0 59 -24t23 -63v-70h-164v70q0 39 23 63t59 24zM286 101q-15 0 -24 -9t-9 -26v-11h66v11q0 17 -9 26t-24 9z" />
    <glyph glyph-name="edotaccent" unicode="&#x166;" horiz-adv-x="611" 
d="M453 786q-23 0 -37.5 13t-14.5 35t14.5 35t37.5 13q24 0 38 -13t14 -35t-14 -35t-38 -13zM192 834q0 -20 -13.5 -33t-34.5 -13h-39v91h39q21 0 34.5 -12.5t13.5 -32.5zM265 788h-63v91h63v-24h-33v-10h29v-22h-29v-10h33v-25zM303 788h-30l13 91h30l19 -43l18 43h30
l14 -91h-31l-5 46l-21 -46h-11l-21 46zM453 854q-20 0 -20 -20q0 -9 5.5 -15t14.5 -6t14.5 6t5.5 15q0 20 -20 20zM142 816q19 0 19 18t-19 18h-7v-36h7zM593 526h-191v-526h-193v526h-190v174h574v-174z" />
    <glyph glyph-name="nonbreakingspace" unicode="&#x167;" 
d="M286 532q-39 0 -62.5 25.5t-23.5 67.5t23.5 68t62.5 26t63 -26t24 -68t-24 -67.5t-63 -25.5zM286 661q-17 0 -26.5 -10t-9.5 -26t9.5 -25.5t26.5 -9.5t27 9.5t10 25.5t-10 26t-27 10zM204 500l164 24v-54l-83 -10l83 -38v-19l-82 -38l82 -9v-55l-164 24v54l79 33l-79 34
v54zM324 288h44v-113h-164v112h44v-58h18v52h40v-52h18v59zM286 157q36 0 59 -24t23 -63v-70h-164v70q0 39 23 63t59 24zM286 101q-15 0 -24 -9t-9 -26v-11h66v11q0 17 -9 26t-24 9z" />
    <glyph glyph-name="eogonek" unicode="&#x168;" horiz-adv-x="732" 
d="M519 882q23 0 37.5 -13t14.5 -35t-14.5 -35t-37.5 -13t-37.5 13t-14.5 35t14.5 35t37.5 13zM210 879q21 0 34.5 -12.5t13.5 -32.5t-13.5 -33t-34.5 -13h-40v91h40zM298 813h33v-25h-63v91h63v-24h-33v-10h29v-22h-29v-10zM449 879l14 -91h-31l-5 46l-21 -46h-11l-21 46
l-5 -46h-31l14 91h30l18 -43l19 43h30zM519 813q9 0 14.5 6t5.5 15q0 20 -20 20t-20 -20q0 -9 5.5 -15t14.5 -6zM207 816q20 0 20 18t-20 18h-6v-36h6zM366 -18q-67 0 -123.5 21t-97 59t-63 91.5t-22.5 117.5v429h197v-426q0 -51 30 -81.5t79 -30.5q48 0 78 30.5t30 81.5
v426h197v-429q0 -64 -22.5 -117.5t-63 -91.5t-96.5 -59t-123 -21z" />
    <glyph glyph-name="partialdiff" unicode="&#x169;" horiz-adv-x="635" 
d="M472 712q23 0 37.5 -13t14.5 -35t-14.5 -35t-37.5 -13q-24 0 -38 13t-14 35t14 35t38 13zM162 709q22 0 35.5 -12.5t13.5 -32.5t-13.5 -33t-35.5 -13h-39v91h39zM251 643h33v-25h-63v91h62v-24h-32v-10h29v-22h-29v-10zM402 709l13 -91h-30l-5 46l-22 -46h-10l-21 46
l-5 -46h-31l13 91h31l18 -43l19 43h30zM472 643q9 0 14.5 6t5.5 15q0 20 -20 20t-20 -20q0 -9 5.5 -15t14.5 -6zM160 646q20 0 20 18t-20 18h-6v-36h6zM318 -18q-60 0 -109 18t-84 50.5t-54 78.5t-19 103v308h186v-300q0 -43 21 -67t59 -24t59 24t21 67v300h186v-308
q0 -57 -19 -103t-54 -78.5t-84 -50.5t-109 -18z" />
    <glyph glyph-name="emptyset" unicode="&#x16a;" horiz-adv-x="732" 
d="M519 882q23 0 37.5 -13t14.5 -35t-14.5 -35t-37.5 -13q-24 0 -38.5 13t-14.5 35t14.5 35t38.5 13zM209 879q22 0 35 -12.5t13 -32.5t-13 -33t-35 -13h-39v91h39zM298 813h33v-25h-63v91h62v-24h-32v-10h29v-22h-29v-10zM449 879l13 -91h-30l-5 46l-22 -46h-10l-21 46
l-5 -46h-31l13 91h30l19 -43l19 43h30zM519 813q9 0 14.5 6t5.5 15q0 20 -20 20t-20 -20q0 -9 5.5 -15t14.5 -6zM207 816q19 0 19 18t-19 18h-6v-36h6zM366 -18q-67 0 -123.5 21t-97 59t-63 91.5t-22.5 117.5v429h197v-426q0 -51 30 -81.5t79 -30.5q48 0 78 30.5t30 81.5
v426h197v-429q0 -64 -22.5 -117.5t-63 -91.5t-96.5 -59t-123 -21z" />
    <glyph glyph-name="Ncommaaccent" unicode="&#x16b;" horiz-adv-x="635" 
d="M471 712q24 0 38 -13t14 -35t-14 -35t-38 -13q-23 0 -37.5 13t-14.5 35t14.5 35t37.5 13zM162 709q21 0 34.5 -12.5t13.5 -32.5t-13.5 -33t-34.5 -13h-39v91h39zM250 643h33v-25h-63v91h63v-24h-33v-10h29v-22h-29v-10zM401 709l14 -91h-31l-5 46l-21 -46h-11l-21 46
l-5 -46h-30l13 91h30l19 -43l18 43h30zM471 643q9 0 14.5 6t5.5 15q0 20 -20 20t-20 -20q0 -9 5.5 -15t14.5 -6zM160 646q19 0 19 18t-19 18h-7v-36h7zM318 -18q-60 0 -109 18t-84 50.5t-54 78.5t-19 103v308h186v-300q0 -43 21 -67t59 -24t59 24t21 67v300h186v-308
q0 -57 -19 -103t-54 -78.5t-84 -50.5t-109 -18z" />
    <glyph glyph-name="emacron" unicode="&#x16c;" horiz-adv-x="732" 
d="M519 882q24 0 38.5 -13t14.5 -35t-14.5 -35t-38.5 -13q-23 0 -37.5 13t-14.5 35t14.5 35t37.5 13zM210 879q22 0 35 -12.5t13 -32.5t-13 -33t-35 -13h-39v91h39zM298 813h34v-25h-64v91h63v-24h-33v-10h30v-22h-30v-10zM450 879l13 -91h-30l-6 46l-21 -46h-10l-22 46
l-5 -46h-30l13 91h30l19 -43l19 43h30zM519 813q9 0 14.5 6t5.5 15q0 20 -20 20q-19 0 -19 -20q0 -9 5.5 -15t13.5 -6zM208 816q19 0 19 18t-19 18h-7v-36h7zM366 -18q-67 0 -123.5 21t-97 59t-63 91.5t-22.5 117.5v429h197v-426q0 -51 30 -81.5t79 -30.5q48 0 78 30.5
t30 81.5v426h197v-429q0 -64 -22.5 -117.5t-63 -91.5t-96.5 -59t-123 -21z" />
    <glyph glyph-name="Ncaron" unicode="&#x16d;" horiz-adv-x="635" 
d="M470 712q24 0 38.5 -13t14.5 -35t-14.5 -35t-38.5 -13q-23 0 -37.5 13t-14.5 35t14.5 35t37.5 13zM161 709q22 0 35 -12.5t13 -32.5t-13 -33t-35 -13h-39v91h39zM249 643h34v-25h-64v91h63v-24h-33v-10h30v-22h-30v-10zM401 709l13 -91h-30l-6 46l-21 -46h-10l-22 46
l-5 -46h-30l13 91h30l19 -43l19 43h30zM470 643q9 0 14.5 6t5.5 15q0 20 -20 20q-19 0 -19 -20q0 -9 5.5 -15t13.5 -6zM159 646q19 0 19 18t-19 18h-7v-36h7zM318 -18q-60 0 -109 18t-84 50.5t-54 78.5t-19 103v308h186v-300q0 -43 21 -67t59 -24t59 24t21 67v300h186v-308
q0 -57 -19 -103t-54 -78.5t-84 -50.5t-109 -18z" />
    <glyph glyph-name="Eng" unicode="&#x16e;" horiz-adv-x="732" 
d="M519 786q-23 0 -37.5 13t-14.5 35t14.5 35t37.5 13t37.5 -13t14.5 -35t-14.5 -35t-37.5 -13zM258 834q0 -20 -13.5 -33t-34.5 -13h-39v91h39q21 0 34.5 -12.5t13.5 -32.5zM331 788h-63v91h63v-24h-33v-10h29v-22h-29v-10h33v-25zM369 788h-31l14 91h30l19 -43l18 43h30
l14 -91h-31l-5 46l-21 -46h-11l-21 46zM519 854q-20 0 -20 -20q0 -9 5.5 -15t14.5 -6t14.5 6t5.5 15q0 20 -20 20zM208 816q19 0 19 18t-19 18h-7v-36h7zM671 700v-429q0 -64 -22.5 -117.5t-63 -91.5t-96.5 -59t-123 -21t-123.5 21t-97 59t-63 91.5t-22.5 117.5v429h197
v-426q0 -51 30 -81.5t79 -30.5q48 0 78 30.5t30 81.5v426h197z" />
    <glyph glyph-name="Oslashacute" unicode="&#x16f;" horiz-adv-x="635" 
d="M471 712q23 0 37.5 -13t14.5 -35t-14.5 -35t-37.5 -13t-37.5 13t-14.5 35t14.5 35t37.5 13zM162 709q21 0 34.5 -12.5t13.5 -32.5t-13.5 -33t-34.5 -13h-40v91h40zM250 643h33v-25h-63v91h63v-24h-33v-10h29v-22h-29v-10zM401 709l14 -91h-31l-5 46l-21 -46h-11l-21 46
l-5 -46h-31l14 91h30l18 -43l19 43h30zM471 643q9 0 14.5 6t5.5 15q0 20 -20 20t-20 -20q0 -9 5.5 -15t14.5 -6zM159 646q20 0 20 18t-20 18h-6v-36h6zM318 -18q-60 0 -109 18t-84 50.5t-54 78.5t-19 103v308h186v-300q0 -43 21 -67t59 -24t59 24t21 67v300h186v-308
q0 -57 -19 -103t-54 -78.5t-84 -50.5t-109 -18z" />
    <glyph glyph-name="Emacron" unicode="&#x170;" horiz-adv-x="732" 
d="M518 882q24 0 38 -13t14 -35t-14 -35t-38 -13q-23 0 -37.5 13t-14.5 35t14.5 35t37.5 13zM209 879q21 0 34.5 -12.5t13.5 -32.5t-13.5 -33t-34.5 -13h-39v91h39zM297 813h33v-25h-63v91h63v-24h-33v-10h29v-22h-29v-10zM448 879l14 -91h-31l-5 46l-21 -46h-11l-21 46
l-5 -46h-30l13 91h30l19 -43l18 43h30zM518 813q9 0 14.5 6t5.5 15q0 20 -20 20t-20 -20q0 -9 5.5 -15t14.5 -6zM207 816q19 0 19 18t-19 18h-7v-36h7zM366 -18q-67 0 -123.5 21t-97 59t-63 91.5t-22.5 117.5v429h197v-426q0 -51 30 -81.5t79 -30.5q48 0 78 30.5t30 81.5
v426h197v-429q0 -64 -22.5 -117.5t-63 -91.5t-96.5 -59t-123 -21z" />
    <glyph glyph-name="ncommaaccent" unicode="&#x171;" horiz-adv-x="635" 
d="M472 712q24 0 38 -13t14 -35t-14 -35t-38 -13q-23 0 -37.5 13t-14.5 35t14.5 35t37.5 13zM163 709q21 0 34.5 -12.5t13.5 -32.5t-13.5 -33t-34.5 -13h-39v91h39zM251 643h33v-25h-63v91h63v-24h-33v-10h29v-22h-29v-10zM402 709l14 -91h-31l-5 46l-21 -46h-11l-21 46
l-5 -46h-31l14 91h30l19 -43l18 43h30zM472 643q9 0 14.5 6t5.5 15q0 20 -20 20t-20 -20q0 -9 5.5 -15t14.5 -6zM161 646q19 0 19 18t-19 18h-7v-36h7zM318 -18q-60 0 -109 18t-84 50.5t-54 78.5t-19 103v308h186v-300q0 -43 21 -67t59 -24t59 24t21 67v300h186v-308
q0 -57 -19 -103t-54 -78.5t-84 -50.5t-109 -18z" />
    <glyph glyph-name="eng" unicode="&#x172;" horiz-adv-x="732" 
d="M518 882q24 0 38 -13t14 -35t-14 -35t-38 -13q-23 0 -37.5 13t-14.5 35t14.5 35t37.5 13zM209 879q21 0 34.5 -12.5t13.5 -32.5t-13.5 -33t-34.5 -13h-39v91h39zM297 813h33v-25h-63v91h63v-24h-33v-10h29v-22h-29v-10zM448 879l14 -91h-31l-5 46l-21 -46h-11l-21 46
l-5 -46h-30l13 91h30l19 -43l18 43h30zM518 813q9 0 14.5 6t5.5 15q0 20 -20 20t-20 -20q0 -9 5.5 -15t14.5 -6zM207 816q19 0 19 18t-19 18h-7v-36h7zM366 -18q-67 0 -123.5 21t-97 59t-63 91.5t-22.5 117.5v429h197v-426q0 -51 30 -81.5t79 -30.5q48 0 78 30.5t30 81.5
v426h197v-429q0 -64 -22.5 -117.5t-63 -91.5t-96.5 -59t-123 -21z" />
    <glyph glyph-name="oslashacute" unicode="&#x173;" horiz-adv-x="635" 
d="M471 712q23 0 37.5 -13t14.5 -35t-14.5 -35t-37.5 -13t-37.5 13t-14.5 35t14.5 35t37.5 13zM162 709q21 0 34.5 -12.5t13.5 -32.5t-13.5 -33t-34.5 -13h-40v91h40zM250 643h33v-25h-63v91h63v-24h-33v-10h29v-22h-29v-10zM401 709l14 -91h-31l-5 46l-21 -46h-11l-21 46
l-5 -46h-31l14 91h30l18 -43l19 43h30zM471 643q9 0 14.5 6t5.5 15q0 20 -20 20t-20 -20q0 -9 5.5 -15t14.5 -6zM159 646q20 0 20 18t-20 18h-6v-36h6zM318 -18q-60 0 -109 18t-84 50.5t-54 78.5t-19 103v308h186v-300q0 -43 21 -67t59 -24t59 24t21 67v300h186v-308
q0 -57 -19 -103t-54 -78.5t-84 -50.5t-109 -18z" />
    <glyph glyph-name="estimated" unicode="&#x174;" horiz-adv-x="1050" 
d="M677 786q-23 0 -37.5 13t-14.5 35t14.5 35t37.5 13q24 0 38.5 -13t14.5 -35t-14.5 -35t-38.5 -13zM416 834q0 -20 -13 -33t-35 -13h-39v91h39q22 0 35 -12.5t13 -32.5zM490 788h-64v91h63v-24h-33v-10h30v-22h-30v-10h34v-25zM527 788h-30l13 91h30l19 -43l19 43h30
l13 -91h-30l-6 46l-21 -46h-10l-22 46zM677 854q-19 0 -19 -20q0 -9 5.5 -15t13.5 -6q9 0 14.5 6t5.5 15q0 20 -20 20zM366 816q19 0 19 18t-19 18h-7v-36h7zM1044 700l-216 -700h-169l-135 338l-131 -338h-170l-219 700h207l113 -403l167 400h67l170 -401l111 404h205z" />
    <glyph glyph-name="racute" unicode="&#x175;" horiz-adv-x="867" 
d="M587 616q-24 0 -38.5 13t-14.5 35t14.5 35t38.5 13q23 0 37.5 -13t14.5 -35t-14.5 -35t-37.5 -13zM325 664q0 -20 -13 -33t-35 -13h-39v91h39q22 0 35 -12.5t13 -32.5zM399 618h-63v91h62v-24h-32v-10h29v-22h-29v-10h33v-25zM436 618h-30l13 91h30l19 -43l19 43h30
l13 -91h-30l-6 46l-21 -46h-10l-21 46zM587 684q-20 0 -20 -20q0 -9 5.5 -15t14.5 -6q8 0 13.5 6t5.5 15q0 20 -19 20zM275 646q19 0 19 18t-19 18h-7v-36h7zM862 540l-172 -540h-150l-107 242l-104 -242h-150l-177 540h195l82 -284l128 282h50l134 -284l81 286h190z" />
    <glyph glyph-name="fontfabric" unicode="&#x176;" horiz-adv-x="699" 
d="M504 786q-24 0 -38 13t-14 35t14 35t38 13q23 0 37.5 -13t14.5 -35t-14.5 -35t-37.5 -13zM242 834q0 -20 -13 -33t-35 -13h-39v91h39q22 0 35 -12.5t13 -32.5zM316 788h-63v91h62v-24h-32v-10h29v-22h-29v-10h33v-25zM354 788h-31l13 91h30l19 -43l19 43h30l13 -91h-30
l-5 46l-22 -46h-10l-21 46zM504 854q-20 0 -20 -20q0 -9 5.5 -15t14.5 -6t14.5 6t5.5 15q0 20 -20 20zM192 816q19 0 19 18t-19 18h-6v-36h6zM447 274v-274h-196v274l-243 426h214l128 -253l128 253h214z" />
    <glyph glyph-name="rcaron" unicode="&#x177;" horiz-adv-x="620" 
d="M467 616q-23 0 -37.5 13t-14.5 35t14.5 35t37.5 13t37.5 -13t14.5 -35t-14.5 -35t-37.5 -13zM206 664q0 -20 -13.5 -33t-34.5 -13h-40v91h40q21 0 34.5 -12.5t13.5 -32.5zM279 618h-63v91h62v-24h-32v-10h29v-22h-29v-10h33v-25zM317 618h-31l14 91h30l18 -43l19 43h30
l14 -91h-31l-5 46l-21 -46h-11l-21 46zM467 684q-20 0 -20 -20q0 -9 5.5 -15t14.5 -6t14.5 6t5.5 15q0 20 -20 20zM155 646q20 0 20 18t-20 18h-6v-36h6zM623 540l-226 -516q-27 -62 -54.5 -105t-60 -69.5t-72.5 -38.5t-92 -12h-64v160h51q27 0 45 4t31 13.5t23 26.5t19 42
l-223 495h202l114 -297l107 297h200z" />
    <glyph glyph-name="Ydieresis" unicode="&#x178;" horiz-adv-x="699" 
d="M499 786q-24 0 -38 13t-14 35t14 35t38 13q23 0 37.5 -13t14.5 -35t-14.5 -35t-37.5 -13zM238 834q0 -20 -13.5 -33t-35.5 -13h-39v91h39q22 0 35.5 -12.5t13.5 -32.5zM311 788h-63v91h62v-24h-32v-10h29v-22h-29v-10h33v-25zM349 788h-31l14 91h30l18 -43l19 43h30
l13 -91h-30l-5 46l-22 -46h-10l-21 46zM499 854q-20 0 -20 -20q0 -9 5.5 -15t14.5 -6t14.5 6t5.5 15q0 20 -20 20zM187 816q20 0 20 18t-20 18h-6v-36h6zM692 700l-245 -426v-274h-196v274l-243 426h214l128 -253l128 253h214z" />
    <glyph glyph-name="Gbreve" unicode="&#x179;" horiz-adv-x="603" 
d="M464 786q-23 0 -37.5 13t-14.5 35t14.5 35t37.5 13q24 0 38 -13t14 -35t-14 -35t-38 -13zM203 834q0 -20 -13.5 -33t-34.5 -13h-39v91h39q21 0 34.5 -12.5t13.5 -32.5zM276 788h-63v91h63v-24h-33v-10h29v-22h-29v-10h33v-25zM314 788h-30l13 91h30l19 -43l18 43h30
l14 -91h-31l-5 46l-21 -46h-11l-21 46zM464 854q-20 0 -20 -20q0 -9 5.5 -15t14.5 -6t14.5 6t5.5 15q0 20 -20 20zM153 816q19 0 19 18t-19 18h-7v-36h7zM577 180v-180h-554v40l259 480h-242v180h525v-44l-258 -476h270z" />
    <glyph glyph-name="rcommaaccent" unicode="&#x17a;" horiz-adv-x="516" 
d="M416 616q-23 0 -37.5 13t-14.5 35t14.5 35t37.5 13t37.5 -13t14.5 -35t-14.5 -35t-37.5 -13zM155 664q0 -20 -13.5 -33t-34.5 -13h-40v91h40q21 0 34.5 -12.5t13.5 -32.5zM228 618h-63v91h63v-24h-33v-10h29v-22h-29v-10h33v-25zM266 618h-31l14 91h30l18 -43l19 43h30
l14 -91h-31l-5 46l-21 -46h-11l-21 46zM416 684q-20 0 -20 -20q0 -9 5.5 -15t14.5 -6t14.5 6t5.5 15q0 20 -20 20zM104 646q20 0 20 18t-20 18h-6v-36h6zM487 165v-165h-467v28l207 348h-188v164h446v-30l-204 -345h206z" />
    <glyph glyph-name="gcircumflex" unicode="&#x17b;" horiz-adv-x="603" 
d="M465 786q-24 0 -38.5 13t-14.5 35t14.5 35t38.5 13q23 0 37.5 -13t14.5 -35t-14.5 -35t-37.5 -13zM203 834q0 -20 -13 -33t-35 -13h-39v91h39q22 0 35 -12.5t13 -32.5zM277 788h-64v91h63v-24h-33v-10h30v-22h-30v-10h34v-25zM314 788h-30l13 91h30l19 -43l19 43h30
l13 -91h-30l-6 46l-21 -46h-10l-22 46zM465 854q-20 0 -20 -20q0 -9 5.5 -15t14.5 -6q8 0 13.5 6t5.5 15q0 20 -19 20zM153 816q19 0 19 18t-19 18h-7v-36h7zM577 180v-180h-554v40l259 480h-242v180h525v-44l-258 -476h270z" />
    <glyph glyph-name="Rcommaaccent" unicode="&#x17c;" horiz-adv-x="516" 
d="M416 616q-23 0 -37.5 13t-14.5 35t14.5 35t37.5 13q24 0 38.5 -13t14.5 -35t-14.5 -35t-38.5 -13zM155 664q0 -20 -13 -33t-35 -13h-39v91h39q22 0 35 -12.5t13 -32.5zM229 618h-64v91h63v-24h-33v-10h30v-22h-30v-10h34v-25zM266 618h-30l13 91h30l19 -43l19 43h30
l13 -91h-30l-6 46l-21 -46h-10l-22 46zM416 684q-19 0 -19 -20q0 -9 5.5 -15t13.5 -6q9 0 14.5 6t5.5 15q0 20 -20 20zM105 646q19 0 19 18t-19 18h-7v-36h7zM487 165v-165h-467v28l207 348h-188v164h446v-30l-204 -345h206z" />
    <glyph glyph-name="Zcaron" unicode="&#x17d;" horiz-adv-x="603" 
d="M458 786q-23 0 -37.5 13t-14.5 35t14.5 35t37.5 13t37.5 -13t14.5 -35t-14.5 -35t-37.5 -13zM197 834q0 -20 -13.5 -33t-34.5 -13h-40v91h40q21 0 34.5 -12.5t13.5 -32.5zM270 788h-63v91h63v-24h-33v-10h29v-22h-29v-10h33v-25zM308 788h-31l14 91h30l18 -43l19 43h30
l14 -91h-31l-5 46l-21 -46h-11l-21 46zM458 854q-20 0 -20 -20q0 -9 5.5 -15t14.5 -6t14.5 6t5.5 15q0 20 -20 20zM146 816q20 0 20 18t-20 18h-6v-36h6zM577 180v-180h-554v40l259 480h-242v180h525v-44l-258 -476h270z" />
    <glyph glyph-name="zcaron" unicode="&#x17e;" horiz-adv-x="516" 
d="M416 616q-24 0 -38.5 13t-14.5 35t14.5 35t38.5 13q23 0 37.5 -13t14.5 -35t-14.5 -35t-37.5 -13zM154 664q0 -20 -13 -33t-35 -13h-39v91h39q22 0 35 -12.5t13 -32.5zM228 618h-63v91h62v-24h-32v-10h29v-22h-29v-10h33v-25zM265 618h-30l13 91h30l19 -43l19 43h30
l13 -91h-30l-6 46l-21 -46h-10l-21 46zM416 684q-20 0 -20 -20q0 -9 5.5 -15t14.5 -6q8 0 13.5 6t5.5 15q0 20 -19 20zM104 646q19 0 19 18t-19 18h-7v-36h7zM487 165v-165h-467v28l207 348h-188v164h446v-30l-204 -345h206z" />
    <glyph glyph-name="Nacute" unicode="&#x17f;" 
d="M286 532q-39 0 -62.5 25.5t-23.5 67.5t23.5 68t62.5 26t63 -26t24 -68t-24 -67.5t-63 -25.5zM286 661q-17 0 -26.5 -10t-9.5 -26t9.5 -25.5t26.5 -9.5t27 9.5t10 25.5t-10 26t-27 10zM204 500l164 24v-54l-83 -10l83 -38v-19l-82 -38l82 -9v-55l-164 24v54l79 33l-79 34
v54zM324 288h44v-113h-164v112h44v-58h18v52h40v-52h18v59zM286 157q36 0 59 -24t23 -63v-70h-164v70q0 39 23 63t59 24zM286 101q-15 0 -24 -9t-9 -26v-11h66v11q0 17 -9 26t-24 9z" />
    <glyph glyph-name="florin" unicode="&#x192;" 
d="M286 532q-39 0 -62.5 25.5t-23.5 67.5t23.5 68t62.5 26t63 -26t24 -68t-24 -67.5t-63 -25.5zM286 661q-17 0 -26.5 -10t-9.5 -26t9.5 -25.5t26.5 -9.5t27 9.5t10 25.5t-10 26t-27 10zM204 500l164 24v-54l-83 -10l83 -38v-19l-82 -38l82 -9v-55l-164 24v54l79 33l-79 34
v54zM324 288h44v-113h-164v112h44v-58h18v52h40v-52h18v59zM286 157q36 0 59 -24t23 -63v-70h-164v70q0 39 23 63t59 24zM286 101q-15 0 -24 -9t-9 -26v-11h66v11q0 17 -9 26t-24 9z" />
    <glyph glyph-name="acutecomb" unicode="&#x1fc;" 
d="M286 532q-39 0 -62.5 25.5t-23.5 67.5t23.5 68t62.5 26t63 -26t24 -68t-24 -67.5t-63 -25.5zM286 661q-17 0 -26.5 -10t-9.5 -26t9.5 -25.5t26.5 -9.5t27 9.5t10 25.5t-10 26t-27 10zM204 500l164 24v-54l-83 -10l83 -38v-19l-82 -38l82 -9v-55l-164 24v54l79 33l-79 34
v54zM324 288h44v-113h-164v112h44v-58h18v52h40v-52h18v59zM286 157q36 0 59 -24t23 -63v-70h-164v70q0 39 23 63t59 24zM286 101q-15 0 -24 -9t-9 -26v-11h66v11q0 17 -9 26t-24 9z" />
    <glyph glyph-name="hbar" unicode="&#x1fd;" 
d="M286 532q-39 0 -62.5 25.5t-23.5 67.5t23.5 68t62.5 26t63 -26t24 -68t-24 -67.5t-63 -25.5zM286 661q-17 0 -26.5 -10t-9.5 -26t9.5 -25.5t26.5 -9.5t27 9.5t10 25.5t-10 26t-27 10zM204 500l164 24v-54l-83 -10l83 -38v-19l-82 -38l82 -9v-55l-164 24v54l79 33l-79 34
v54zM324 288h44v-113h-164v112h44v-58h18v52h40v-52h18v59zM286 157q36 0 59 -24t23 -63v-70h-164v70q0 39 23 63t59 24zM286 101q-15 0 -24 -9t-9 -26v-11h66v11q0 17 -9 26t-24 9z" />
    <glyph glyph-name="Demodiac" unicode="&#x1fe;" horiz-adv-x="832" 
d="M569 786q-23 0 -37.5 13t-14.5 35t14.5 35t37.5 13h2h2q23 0 37.5 -13t14.5 -35t-14.5 -35t-37.5 -13h-2h-2zM220 879h43q22 0 35 -12.5t13 -32.5t-13 -33t-35 -13h-43v91zM318 879h66v-24h-32v-10h29v-22h-29v-10h33v-25h-67v91zM402 879h33l17 -39l17 39h34l13 -91h-34
l-4 40l-19 -40h-14l-18 40l-4 -40h-35zM589 834q0 18 -18 20q-18 -2 -18 -20q0 -20 18 -20t18 20zM255 852v-36h2q20 0 20 18t-20 18h-2zM417 718q84 0 154.5 -27.5t121.5 -76t79.5 -116t28.5 -148.5t-28.5 -148.5t-79.5 -116t-121.5 -76t-154.5 -27.5t-155 27.5
t-122.5 76.5t-80 116.5t-28.5 147.5t28.5 147.5t80 116.5t122.5 76.5t155 27.5zM417 162q40 0 73.5 14t58 39t38 59.5t13.5 75.5t-13.5 75.5t-38 59.5t-58 39t-73.5 14t-74 -14t-58.5 -39t-38.5 -59.5t-14 -75.5t14 -75.5t38.5 -59.5t58.5 -39t74 -14z" />
    <glyph glyph-name="lessequal" unicode="&#x1ff;" horiz-adv-x="660" 
d="M483 616q-24 0 -38.5 13t-14.5 35t14.5 35t38.5 13h3h3q23 0 37.5 -13t14.5 -35t-14.5 -35t-37.5 -13h-3h-3zM134 709h46q21 0 34.5 -12.5t13.5 -32.5t-13.5 -33t-34.5 -13h-46v91zM232 709h69v-24h-33v-10h29v-22h-29v-10h33v-25h-69v91zM315 709h37l15 -36l16 36h36
l14 -91h-37l-4 35l-16 -35h-17l-16 35l-4 -35h-37zM502 664q0 18 -16 20q-17 -2 -17 -20t17 -20q16 2 16 20zM171 646q19 0 19 18t-19 18v-36zM330 558q66 0 121.5 -21.5t96 -60t63 -91t22.5 -115.5t-22.5 -115.5t-63 -91t-96 -60t-121.5 -21.5t-121.5 21.5t-96 60t-63 91
t-22.5 115.5t22.5 115.5t63 91t96 60t121.5 21.5zM330 149q51 0 83.5 33.5t32.5 87.5t-32.5 87.5t-83.5 33.5t-84 -33.5t-33 -87.5t33 -87.5t84 -33.5z" />
    <glyph glyph-name="germandbls.calt" unicode="&#x218;" horiz-adv-x="629" 
d="M455 882q23 0 37.5 -13t14.5 -35t-14.5 -35t-37.5 -13q-24 0 -38.5 13t-14.5 35t14.5 35t38.5 13zM145 879q22 0 35 -12.5t13 -32.5t-13 -33t-35 -13h-39v91h39zM234 813h33v-25h-63v91h62v-24h-32v-10h29v-22h-29v-10zM385 879l13 -91h-30l-5 46l-22 -46h-10l-21 46
l-6 -46h-30l13 91h30l19 -43l19 43h30zM455 813q9 0 14 6t5 15q0 20 -19 20q-20 0 -20 -20q0 -9 5.5 -15t14.5 -6zM143 816q19 0 19 18t-19 18h-6v-36h6zM316 -17q-64 0 -116.5 16.5t-89 47.5t-56.5 76.5t-20 102.5h199q0 -38 24.5 -56t57.5 -18q31 0 55 15t24 44
q0 17 -9.5 28t-26 19t-38.5 14t-47 12q-38 9 -78.5 21.5t-74.5 36t-55.5 61t-21.5 97.5q0 104 70.5 160.5t195.5 56.5q127 0 195.5 -61t68.5 -168h-193q0 33 -21.5 49t-51.5 16q-26 0 -47 -11.5t-21 -36.5q0 -15 9.5 -25t25.5 -17.5t37.5 -14t46.5 -12.5q39 -10 81 -23.5
t77 -37.5t57.5 -62t22.5 -98q0 -57 -21 -100.5t-58.5 -73t-88.5 -44t-112 -14.5z" />
    <glyph glyph-name="omacron" unicode="&#x219;" horiz-adv-x="534" 
d="M418 712q23 0 37.5 -13t14.5 -35t-14.5 -35t-37.5 -13t-37.5 13t-14.5 35t14.5 35t37.5 13zM108 709q22 0 35.5 -12.5t13.5 -32.5t-13.5 -33t-35.5 -13h-39v91h39zM197 643h33v-25h-63v91h62v-24h-32v-10h29v-22h-29v-10zM348 709l13 -91h-30l-5 46l-21 -46h-11l-21 46
l-5 -46h-31l14 91h30l18 -43l19 43h30zM418 643q9 0 14.5 6t5.5 15q0 20 -20 20t-20 -20q0 -9 5.5 -15t14.5 -6zM106 646q20 0 20 18t-20 18h-6v-36h6zM267 -18q-55 0 -99 14t-74.5 39.5t-47.5 61.5t-17 80h179q0 -29 18 -43.5t44 -14.5q21 0 37 10.5t16 31.5q0 23 -27 32.5
t-65 16.5q-31 5 -65.5 13.5t-63.5 27t-47.5 49.5t-18.5 80q0 41 16.5 73.5t46.5 56t72.5 36t94.5 12.5t94 -13t71.5 -37t46 -58t17.5 -75h-174q0 26 -15.5 38.5t-41.5 12.5q-23 0 -36.5 -10.5t-13.5 -29.5q0 -23 27.5 -31.5t65.5 -15.5q32 -6 67 -14t64.5 -25.5t48.5 -48.5
t19 -82q0 -42 -17 -76.5t-48.5 -59t-75.5 -38t-98 -13.5z" />
    <glyph glyph-name="gravecomb" unicode="&#x21a;" horiz-adv-x="611" 
d="M453 786q-23 0 -37.5 13t-14.5 35t14.5 35t37.5 13q24 0 38 -13t14 -35t-14 -35t-38 -13zM192 834q0 -20 -13.5 -33t-34.5 -13h-39v91h39q21 0 34.5 -12.5t13.5 -32.5zM265 788h-63v91h63v-24h-33v-10h29v-22h-29v-10h33v-25zM303 788h-30l13 91h30l19 -43l18 43h30
l14 -91h-31l-5 46l-21 -46h-11l-21 46zM453 854q-20 0 -20 -20q0 -9 5.5 -15t14.5 -6t14.5 6t5.5 15q0 20 -20 20zM142 816q19 0 19 18t-19 18h-7v-36h7zM593 526h-191v-526h-193v526h-190v174h574v-174z" />
    <glyph glyph-name="Omacron" unicode="&#x21b;" 
d="M286 532q-39 0 -62.5 25.5t-23.5 67.5t23.5 68t62.5 26t63 -26t24 -68t-24 -67.5t-63 -25.5zM286 661q-17 0 -26.5 -10t-9.5 -26t9.5 -25.5t26.5 -9.5t27 9.5t10 25.5t-10 26t-27 10zM204 500l164 24v-54l-83 -10l83 -38v-19l-82 -38l82 -9v-55l-164 24v54l79 33l-79 34
v54zM324 288h44v-113h-164v112h44v-58h18v52h40v-52h18v59zM286 157q36 0 59 -24t23 -63v-70h-164v70q0 39 23 63t59 24zM286 101q-15 0 -24 -9t-9 -26v-11h66v11q0 17 -9 26t-24 9z" />
    <glyph glyph-name="circumflex" unicode="&#x2c6;" horiz-adv-x="600" 
d="M469 712q23 0 37.5 -13t14.5 -35t-14.5 -35t-37.5 -13q-24 0 -38.5 13t-14.5 35t14.5 35t38.5 13zM159 709q22 0 35 -12.5t13 -32.5t-13 -33t-35 -13h-39v91h39zM248 643h33v-25h-63v91h62v-24h-32v-10h29v-22h-29v-10zM399 709l13 -91h-30l-5 46l-22 -46h-10l-21 46
l-6 -46h-30l13 91h30l19 -43l19 43h30zM469 643q9 0 14 6t5 15q0 20 -19 20q-20 0 -20 -20q0 -9 5.5 -15t14.5 -6zM157 646q19 0 19 18t-19 18h-6v-36h6z" />
    <glyph glyph-name="caron" unicode="&#x2c7;" horiz-adv-x="600" 
d="M440 712q23 0 37.5 -13t14.5 -35t-14.5 -35t-37.5 -13q-24 0 -38.5 13t-14.5 35t14.5 35t38.5 13zM130 709q22 0 35 -12.5t13 -32.5t-13 -33t-35 -13h-39v91h39zM219 643h33v-25h-63v91h62v-24h-32v-10h29v-22h-29v-10zM370 709l13 -91h-30l-5 46l-22 -46h-10l-21 46
l-6 -46h-30l13 91h30l19 -43l19 43h30zM440 643q9 0 14 6t5 15q0 20 -19 20q-20 0 -20 -20q0 -9 5.5 -15t14.5 -6zM128 646q19 0 19 18t-19 18h-6v-36h6z" />
    <glyph glyph-name="breve" unicode="&#x2d8;" horiz-adv-x="600" 
d="M432 712q23 0 37.5 -13t14.5 -35t-14.5 -35t-37.5 -13q-24 0 -38.5 13t-14.5 35t14.5 35t38.5 13zM122 709q22 0 35 -12.5t13 -32.5t-13 -33t-35 -13h-39v91h39zM211 643h33v-25h-63v91h62v-24h-32v-10h29v-22h-29v-10zM362 709l13 -91h-30l-5 46l-22 -46h-10l-21 46
l-6 -46h-30l13 91h30l19 -43l19 43h30zM432 643q9 0 14 6t5 15q0 20 -19 20q-20 0 -20 -20q0 -9 5.5 -15t14.5 -6zM120 646q19 0 19 18t-19 18h-6v-36h6z" />
    <glyph glyph-name="dotaccent" unicode="&#x2d9;" horiz-adv-x="337" 
d="M323 712q23 0 37.5 -13t14.5 -35t-14.5 -35t-37.5 -13q-24 0 -38.5 13t-14.5 35t14.5 35t38.5 13zM13 709q22 0 35 -12.5t13 -32.5t-13 -33t-35 -13h-39v91h39zM102 643h33v-25h-63v91h62v-24h-32v-10h29v-22h-29v-10zM253 709l13 -91h-30l-5 46l-22 -46h-10l-21 46
l-6 -46h-30l13 91h30l19 -43l19 43h30zM323 643q9 0 14 6t5 15q0 20 -19 20q-20 0 -20 -20q0 -9 5.5 -15t14.5 -6zM11 646q19 0 19 18t-19 18h-6v-36h6z" />
    <glyph glyph-name="ring" unicode="&#x2da;" horiz-adv-x="439" 
d="M373 712q23 0 37.5 -13t14.5 -35t-14.5 -35t-37.5 -13q-24 0 -38.5 13t-14.5 35t14.5 35t38.5 13zM63 709q22 0 35 -12.5t13 -32.5t-13 -33t-35 -13h-39v91h39zM152 643h33v-25h-63v91h62v-24h-32v-10h29v-22h-29v-10zM303 709l13 -91h-30l-5 46l-22 -46h-10l-21 46
l-6 -46h-30l13 91h30l19 -43l19 43h30zM373 643q9 0 14 6t5 15q0 20 -19 20q-20 0 -20 -20q0 -9 5.5 -15t14.5 -6zM61 646q19 0 19 18t-19 18h-6v-36h6z" />
    <glyph glyph-name="ogonek" unicode="&#x2db;" horiz-adv-x="440" 
d="M233 -240q-58 0 -95.5 31t-37.5 83q0 70 62.5 127.5t177.5 89.5v-79q-55 -16 -84 -41.5t-29 -57.5q0 -21 15 -33t41 -12q11 0 26 3t29 10v-91q-24 -15 -51.5 -22.5t-53.5 -7.5z" />
    <glyph glyph-name="tilde" unicode="&#x2dc;" horiz-adv-x="600" 
d="M449 712q23 0 37.5 -13t14.5 -35t-14.5 -35t-37.5 -13q-24 0 -38.5 13t-14.5 35t14.5 35t38.5 13zM139 709q22 0 35 -12.5t13 -32.5t-13 -33t-35 -13h-39v91h39zM228 643h33v-25h-63v91h62v-24h-32v-10h29v-22h-29v-10zM379 709l13 -91h-30l-5 46l-22 -46h-10l-21 46
l-6 -46h-30l13 91h30l19 -43l19 43h30zM449 643q9 0 14 6t5 15q0 20 -19 20q-20 0 -20 -20q0 -9 5.5 -15t14.5 -6zM137 646q19 0 19 18t-19 18h-6v-36h6z" />
    <glyph glyph-name="hungarumlaut" unicode="&#x2dd;" horiz-adv-x="638" 
d="M424 712q23 0 37.5 -13t14.5 -35t-14.5 -35t-37.5 -13t-37.5 13t-14.5 35t14.5 35t37.5 13zM114 709q22 0 35.5 -12.5t13.5 -32.5t-13.5 -33t-35.5 -13h-39v91h39zM203 643h33v-25h-63v91h62v-24h-32v-10h29v-22h-29v-10zM354 709l13 -91h-30l-5 46l-21 -46h-11l-21 46
l-5 -46h-31l14 91h30l18 -43l19 43h30zM424 643q9 0 14.5 6t5.5 15q0 20 -20 20t-20 -20q0 -9 5.5 -15t14.5 -6zM112 646q20 0 20 18t-20 18h-6v-36h6z" />
    <glyph glyph-name="uni0447" unicode="&#x300;" horiz-adv-x="0" 
d="M-14 712q24 0 38.5 -13t14.5 -35t-14.5 -35t-38.5 -13q-23 0 -37.5 13t-14.5 35t14.5 35t37.5 13zM-323 709q22 0 35 -12.5t13 -32.5t-13 -33t-35 -13h-39v91h39zM-235 643h33v-25h-63v91h63v-24h-33v-10h29v-22h-29v-10zM-83 709l13 -91h-30l-6 46l-21 -46h-10l-22 46
l-5 -46h-30l13 91h30l19 -43l19 43h30zM-14 643q9 0 14.5 6t5.5 15q0 20 -20 20q-19 0 -19 -20q0 -9 5.5 -15t13.5 -6zM-325 646q19 0 19 18t-19 18h-7v-36h7z" />
    <glyph glyph-name="uni0448" unicode="&#x301;" horiz-adv-x="0" 
d="M-106 712q24 0 38.5 -13t14.5 -35t-14.5 -35t-38.5 -13q-23 0 -37.5 13t-14.5 35t14.5 35t37.5 13zM-415 709q22 0 35 -12.5t13 -32.5t-13 -33t-35 -13h-39v91h39zM-327 643h33v-25h-63v91h63v-24h-33v-10h29v-22h-29v-10zM-175 709l13 -91h-30l-6 46l-21 -46h-10l-22 46
l-5 -46h-30l13 91h30l19 -43l19 43h30zM-106 643q9 0 14.5 6t5.5 15q0 20 -20 20q-19 0 -19 -20q0 -9 5.5 -15t13.5 -6zM-417 646q19 0 19 18t-19 18h-7v-36h7z" />
    <glyph glyph-name="uni0448.ss02" unicode="&#x302;" horiz-adv-x="0" 
d="M-150 712q24 0 38 -13t14 -35t-14 -35t-38 -13q-23 0 -37.5 13t-14.5 35t14.5 35t37.5 13zM-459 709q21 0 34.5 -12.5t13.5 -32.5t-13.5 -33t-34.5 -13h-39v91h39zM-371 643h33v-25h-63v91h63v-24h-33v-10h29v-22h-29v-10zM-220 709l14 -91h-31l-5 46l-21 -46h-11l-21 46
l-5 -46h-30l13 91h30l19 -43l18 43h30zM-150 643q9 0 14.5 6t5.5 15q0 20 -20 20t-20 -20q0 -9 5.5 -15t14.5 -6zM-461 646q19 0 19 18t-19 18h-7v-36h7z" />
    <glyph glyph-name="uni044A" unicode="&#x303;" horiz-adv-x="0" 
d="M-151 712q23 0 37.5 -13t14.5 -35t-14.5 -35t-37.5 -13q-24 0 -38.5 13t-14.5 35t14.5 35t38.5 13zM-461 709q22 0 35 -12.5t13 -32.5t-13 -33t-35 -13h-39v91h39zM-372 643h33v-25h-63v91h62v-24h-32v-10h29v-22h-29v-10zM-221 709l13 -91h-30l-5 46l-22 -46h-10l-21 46
l-6 -46h-30l13 91h30l19 -43l19 43h30zM-151 643q9 0 14 6t5 15q0 20 -19 20q-20 0 -20 -20q0 -9 5.5 -15t14.5 -6zM-463 646q19 0 19 18t-19 18h-6v-36h6z" />
    <glyph glyph-name="uni044B" unicode="&#x304;" horiz-adv-x="0" 
d="M-101 712q23 0 37.5 -13t14.5 -35t-14.5 -35t-37.5 -13t-37.5 13t-14.5 35t14.5 35t37.5 13zM-410 709q21 0 34.5 -12.5t13.5 -32.5t-13.5 -33t-34.5 -13h-40v91h40zM-322 643h33v-25h-63v91h63v-24h-33v-10h29v-22h-29v-10zM-171 709l14 -91h-31l-5 46l-21 -46h-11
l-21 46l-5 -46h-31l14 91h30l18 -43l19 43h30zM-101 643q9 0 14.5 6t5.5 15q0 20 -20 20t-20 -20q0 -9 5.5 -15t14.5 -6zM-412 646q19 0 19 18t-19 18h-7v-36h7z" />
    <glyph glyph-name="uni0449.loclBGR" unicode="&#x306;" horiz-adv-x="0" 
d="M-125 712q24 0 38 -13t14 -35t-14 -35t-38 -13q-23 0 -37.5 13t-14.5 35t14.5 35t37.5 13zM-434 709q21 0 34.5 -12.5t13.5 -32.5t-13.5 -33t-34.5 -13h-39v91h39zM-346 643h33v-25h-63v91h63v-24h-33v-10h29v-22h-29v-10zM-195 709l14 -91h-31l-5 46l-21 -46h-11l-21 46
l-5 -46h-30l13 91h30l19 -43l18 43h30zM-125 643q9 0 14.5 6t5.5 15q0 20 -20 20t-20 -20q0 -9 5.5 -15t14.5 -6zM-436 646q19 0 19 18t-19 18h-7v-36h7z" />
    <glyph glyph-name="uni0446.ss02" unicode="&#x307;" horiz-adv-x="0" 
d="M-14 712q23 0 37.5 -13t14.5 -35t-14.5 -35t-37.5 -13q-24 0 -38.5 13t-14.5 35t14.5 35t38.5 13zM-324 709q22 0 35 -12.5t13 -32.5t-13 -33t-35 -13h-39v91h39zM-235 643h33v-25h-63v91h62v-24h-32v-10h29v-22h-29v-10zM-84 709l13 -91h-30l-6 46l-21 -46h-10l-21 46
l-6 -46h-30l13 91h30l19 -43l19 43h30zM-14 643q8 0 13.5 6t5.5 15q0 20 -19 20q-20 0 -20 -20q0 -9 5.5 -15t14.5 -6zM-326 646q19 0 19 18t-19 18h-7v-36h7z" />
    <glyph glyph-name="uni0446.loclBGR" unicode="&#x308;" horiz-adv-x="0" 
d="M-158 712q23 0 37.5 -13t14.5 -35t-14.5 -35t-37.5 -13t-37.5 13t-14.5 35t14.5 35t37.5 13zM-467 709q21 0 34.5 -12.5t13.5 -32.5t-13.5 -33t-34.5 -13h-40v91h40zM-379 643h33v-25h-63v91h63v-24h-33v-10h29v-22h-29v-10zM-228 709l14 -91h-31l-5 46l-21 -46h-11
l-21 46l-5 -46h-31l14 91h30l18 -43l19 43h30zM-158 643q9 0 14.5 6t5.5 15q0 20 -20 20t-20 -20q0 -9 5.5 -15t14.5 -6zM-469 646q19 0 19 18t-19 18h-7v-36h7z" />
    <glyph glyph-name="uni0449.ss02" unicode="&#x30a;" horiz-adv-x="0" 
d="M-66 712q23 0 37.5 -13t14.5 -35t-14.5 -35t-37.5 -13q-24 0 -38 13t-14 35t14 35t38 13zM-376 709q22 0 35.5 -12.5t13.5 -32.5t-13.5 -33t-35.5 -13h-39v91h39zM-287 643h33v-25h-63v91h62v-24h-32v-10h29v-22h-29v-10zM-136 709l13 -91h-30l-5 46l-22 -46h-10l-21 46
l-5 -46h-31l14 91h30l18 -43l19 43h30zM-66 643q9 0 14.5 6t5.5 15q0 20 -20 20t-20 -20q0 -9 5.5 -15t14.5 -6zM-378 646q20 0 20 18t-20 18h-6v-36h6z" />
    <glyph glyph-name="uni0448.loclBGR" unicode="&#x30b;" horiz-adv-x="0" 
d="M-241 712q24 0 38.5 -13t14.5 -35t-14.5 -35t-38.5 -13q-23 0 -37.5 13t-14.5 35t14.5 35t37.5 13zM-550 709q22 0 35 -12.5t13 -32.5t-13 -33t-35 -13h-39v91h39zM-462 643h33v-25h-63v91h63v-24h-33v-10h29v-22h-29v-10zM-310 709l13 -91h-30l-6 46l-21 -46h-11l-21 46
l-5 -46h-30l13 91h30l19 -43l19 43h30zM-241 643q9 0 14.5 6t5.5 15q0 20 -20 20t-20 -20q0 -9 5.5 -15t14.5 -6zM-552 646q19 0 19 18t-19 18h-7v-36h7z" />
    <glyph glyph-name="uni0449" unicode="&#x30c;" horiz-adv-x="0" 
d="M-160 712q23 0 37.5 -13t14.5 -35t-14.5 -35t-37.5 -13q-24 0 -38.5 13t-14.5 35t14.5 35t38.5 13zM-470 709q22 0 35 -12.5t13 -32.5t-13 -33t-35 -13h-39v91h39zM-381 643h33v-25h-63v91h62v-24h-32v-10h29v-22h-29v-10zM-230 709l13 -91h-30l-5 46l-22 -46h-10l-21 46
l-6 -46h-30l13 91h30l19 -43l19 43h30zM-160 643q9 0 14 6t5 15q0 20 -19 20q-20 0 -20 -20q0 -9 5.5 -15t14.5 -6zM-472 646q19 0 19 18t-19 18h-6v-36h6z" />
    <glyph glyph-name="uni044C" unicode="&#x312;" horiz-adv-x="0" 
d="M-94 712q23 0 37.5 -13t14.5 -35t-14.5 -35t-37.5 -13q-24 0 -38 13t-14 35t14 35t38 13zM-404 709q22 0 35.5 -12.5t13.5 -32.5t-13.5 -33t-35.5 -13h-39v91h39zM-315 643h33v-25h-63v91h62v-24h-32v-10h29v-22h-29v-10zM-164 709l13 -91h-30l-5 46l-22 -46h-10l-21 46
l-5 -46h-31l14 91h30l18 -43l19 43h30zM-94 643q9 0 14.5 6t5.5 15q0 20 -20 20t-20 -20q0 -9 5.5 -15t14.5 -6zM-406 646q20 0 20 18t-20 18h-6v-36h6z" />
    <glyph glyph-name="uni044D" unicode="&#x326;" horiz-adv-x="0" 
d="M-181 -244q30 2 47 18t17 42h-70v137h153v-124q0 -64 -39 -104t-108 -46v77z" />
    <glyph glyph-name="uni044E" unicode="&#x327;" horiz-adv-x="0" 
d="M-272 -33q44 -5 70.5 -30t26.5 -66q0 -47 -36 -75t-92 -28h-78v81h64q14 0 23 7.5t9 20.5q0 12 -9 20t-23 8h-45l-10 12l39 139h87z" />
    <glyph glyph-name="uni044E.loclBGR" unicode="&#x328;" horiz-adv-x="0" 
d="M-207 -240q-58 0 -95.5 31t-37.5 83q0 70 62.5 127.5t177.5 89.5v-79q-55 -16 -84 -41.5t-29 -57.5q0 -21 15 -33t41 -12q11 0 26 3t29 10v-91q-25 -15 -52 -22.5t-53 -7.5z" />
    <glyph glyph-name="uni044E.ss02" unicode="&#x335;" horiz-adv-x="0" 
d="M-507 702h411v-102h-411v102z" />
    <glyph glyph-name="uni044F" unicode="&#x337;" horiz-adv-x="0" 
d="M-459 365l340 165v-164l-340 -164v163z" />
    <glyph glyph-name="wcircumflex" unicode="&#x384;" horiz-adv-x="435" 
d="M155 765h190l-110 -165h-136z" />
    <glyph glyph-name="wdieresis" unicode="&#x385;" horiz-adv-x="603" 
d="M245 765h164l-74 -166h-126zM51 748h129v-126h-129v126zM422 748h129v-126h-129v126z" />
    <glyph glyph-name="tcaron" unicode="&#x401;" horiz-adv-x="567" 
d="M524 167v-167h-456v700h448v-167h-256v-103h230v-158h-230v-105h264zM268 786h-186v157h186v-157zM511 786h-186v157h186v-157z" />
    <glyph glyph-name="uni030A.case" unicode="&#x402;" horiz-adv-x="768" 
d="M504 463q50 0 93 -16.5t75 -47t50.5 -74t18.5 -97.5t-18 -97.5t-50 -74.5t-77.5 -48t-100.5 -17h-22v162h11q37 0 56.5 22.5t19.5 51.5q0 31 -20 53.5t-57 22.5q-26 0 -50 -12t-43 -33v-258h-187v529h-184v171h562v-171h-191v-95q49 29 114 29z" />
    <glyph glyph-name="Scommaaccent" unicode="&#x403;" horiz-adv-x="513" 
d="M406 786q-23 0 -37.5 13t-14.5 35t14.5 35t37.5 13t37.5 -13t14.5 -35t-14.5 -35t-37.5 -13zM145 834q0 -20 -13.5 -33t-35.5 -13h-39v91h39q22 0 35.5 -12.5t13.5 -32.5zM218 788h-63v91h62v-24h-32v-10h29v-22h-29v-10h33v-25zM256 788h-31l14 91h30l18 -43l19 43h30
l13 -91h-30l-5 46l-22 -46h-10l-21 46zM406 854q-20 0 -20 -20q0 -9 5.5 -15t14.5 -6t14.5 6t5.5 15q0 20 -20 20zM94 816q20 0 20 18t-20 18h-6v-36h6zM494 526h-232v-526h-194v700h426v-174z" />
    <glyph glyph-name="uni0306.narrow.case" unicode="&#x404;" horiz-adv-x="787" 
d="M762 290q-9 -69 -40 -125.5t-78.5 -97t-109 -63t-132.5 -22.5q-80 0 -148 28t-117.5 77.5t-77.5 116.5t-28 146t28 146.5t78 116.5t118 77t147 28q69 0 129 -21t106.5 -60t78.5 -94t44 -123h-196q-18 55 -61.5 87t-100.5 32q-60 0 -103 -30t-62 -83h227v-152h-227
q20 -52 62.5 -82.5t102.5 -30.5t104.5 34.5t61.5 94.5h194z" />
    <glyph glyph-name="uni0306.narrow" unicode="&#x405;" horiz-adv-x="629" 
d="M316 -17q-64 0 -116.5 16.5t-89 47.5t-56.5 76.5t-20 102.5h199q0 -38 24.5 -56t57.5 -18q31 0 55 15t24 44q0 17 -9.5 28t-26 19t-38.5 14t-47 12q-38 9 -78.5 21.5t-74.5 36t-55.5 61t-21.5 97.5q0 104 70.5 160.5t195.5 56.5q127 0 195.5 -61t68.5 -168h-193
q0 33 -21.5 49t-51.5 16q-26 0 -47 -11.5t-21 -36.5q0 -15 9.5 -25t25.5 -17.5t37.5 -14t46.5 -12.5q39 -10 81 -23.5t77 -37.5t57.5 -62t22.5 -98q0 -57 -21 -100.5t-58.5 -73t-88.5 -44t-112 -14.5z" />
    <glyph glyph-name="uni0307.case" unicode="&#x406;" horiz-adv-x="331" 
d="M68 700h195v-700h-195v700z" />
    <glyph glyph-name="uni0308" unicode="&#x407;" horiz-adv-x="566" 
d="M185 700h195v-700h-195v700zM255 786h-187v157h187v-157zM498 786h-187v157h187v-157z" />
    <glyph glyph-name="uni0308.case" unicode="&#x408;" horiz-adv-x="622" 
d="M289 -18q-60 0 -110.5 19t-86.5 53t-56 81.5t-20 104.5v28h194v-18q0 -41 22 -64.5t57 -23.5t56.5 23.5t21.5 64.5v450h194v-460q0 -57 -19.5 -104.5t-55.5 -81.5t-86 -53t-111 -19z" />
    <glyph glyph-name="uni0306" unicode="&#x409;" horiz-adv-x="1086" 
d="M806 494q57 0 105 -18t82.5 -50.5t53.5 -78t19 -99.5q0 -55 -19 -100.5t-53.5 -78.5t-82.5 -51t-105 -18h-293v524h-141l-27 -243q-31 -283 -267 -283h-56v179h33q45 0 68.5 26.5t30.5 85.5l48 411h497v-206h107zM783 165q40 0 65 23t25 60q0 38 -25 60.5t-65 22.5h-84
v-166h84z" />
    <glyph glyph-name="uni0306.case" unicode="&#x40a;" horiz-adv-x="1034" 
d="M765 473q55 0 101 -17.5t79 -49t51.5 -75t18.5 -95.5t-18.5 -95t-51.5 -74.5t-79 -49t-101 -17.5h-303v272h-200v-272h-194v700h194v-249h200v249h193v-227h110zM744 164q35 0 56.5 20t21.5 52t-21.5 51.5t-56.5 19.5h-91v-143h91z" />
    <glyph glyph-name="uni0308.narrow" unicode="&#x40b;" horiz-adv-x="790" 
d="M501 458q57 0 103.5 -19.5t80 -54.5t52 -84.5t18.5 -108.5v-191h-196v184q0 53 -23.5 81.5t-66.5 28.5q-30 0 -70 -14v-280h-194v529h-186v171h569v-171h-189v-88q54 17 102 17z" />
    <glyph glyph-name="Uhungarumlaut" unicode="&#x40e;" horiz-adv-x="662" 
d="M180 898h321v-130h-321v130zM664 700l-194 -470q-27 -64 -56.5 -108.5t-66.5 -72.5t-82 -40.5t-103 -12.5h-62v176h50q38 0 62.5 9.5t41.5 33.5l-254 485h221l133 -289l102 289h208z" />
    <glyph glyph-name="uni0304" unicode="&#x40f;" horiz-adv-x="713" 
d="M646 0h-198v-125h-183v125h-197v700h194v-523h189v523h195v-700z" />
    <glyph glyph-name="Scedilla" unicode="&#x410;" horiz-adv-x="744" 
d="M493 114h-248l-39 -114h-206l275 700h188l281 -700h-212zM369 482l-77 -217h154z" />
    <glyph glyph-name="scircumflex" unicode="&#x411;" horiz-adv-x="631" 
d="M374 446q51 0 93 -16.5t72.5 -45.5t47 -70t16.5 -91q0 -49 -17 -90.5t-47 -70.5t-72 -45.5t-93 -16.5h-306v700h473v-171h-288v-83h121zM339 155q31 0 50 19.5t19 49.5t-19 49t-50 19h-86v-137h86z" />
    <glyph glyph-name="Scircumflex" unicode="&#x412;" horiz-adv-x="651" 
d="M510 370q50 -24 78.5 -68.5t28.5 -102.5q0 -42 -17 -78.5t-47.5 -63.5t-72 -42t-90.5 -15h-322v700h316q47 0 86 -13.5t68 -37.5t45 -56.5t16 -71.5q0 -48 -24 -87.5t-65 -63.5zM416 489q0 27 -17.5 44t-48.5 17h-97v-122h97q31 0 48.5 17t17.5 44zM358 158q31 0 50 18
t19 46t-19 46t-50 18h-105v-128h105z" />
    <glyph glyph-name="scommaaccent" unicode="&#x413;" horiz-adv-x="513" 
d="M494 526h-232v-526h-194v700h426v-174z" />
    <glyph glyph-name="tbar" unicode="&#x414;" horiz-adv-x="786" 
d="M749 177v-303h-177v126h-371v-126h-177v303h64q17 19 27.5 50t18.5 89.5t15.5 150.5t17.5 233h511v-523h71zM339 525q-4 -72 -9 -127.5t-12.5 -97.5t-17 -72t-21.5 -51h210v348h-150z" />
    <glyph glyph-name="Tbar" unicode="&#x415;" horiz-adv-x="567" 
d="M524 167v-167h-456v700h448v-167h-256v-103h230v-158h-230v-105h264z" />
    <glyph glyph-name="Tcaron" unicode="&#x416;" horiz-adv-x="1014" 
d="M799 0l-197 315v-315h-190v315l-197 -315h-225l242 361l-219 339h222l177 -300v300h190v-300l177 300h222l-219 -339l242 -361h-225z" />
    <glyph glyph-name="tcedilla" unicode="&#x417;" horiz-adv-x="605" 
d="M472 364q103 -57 101 -166q0 -54 -23.5 -94.5t-61.5 -67.5t-87.5 -40.5t-102.5 -13.5q-55 0 -104 15.5t-86 46t-59 75t-22 102.5h192q0 -37 23.5 -56.5t54.5 -19.5q33 0 56.5 19t23.5 51q0 29 -22.5 48t-61.5 19h-57v154h55q36 0 56 18t20 44q0 30 -20.5 47.5t-49.5 17.5
t-51 -18.5t-23 -50.5h-187q0 56 22.5 97.5t59.5 70t85 42.5t99 14q48 0 94 -13t81.5 -39.5t57 -65t21.5 -89.5q0 -48 -22 -84.5t-62 -62.5z" />
    <glyph glyph-name="Tcedilla" unicode="&#x418;" horiz-adv-x="753" 
d="M685 700v-700h-189v373l-279 -373h-149v700h189v-375l277 375h151z" />
    <glyph glyph-name="tcommaaccent" unicode="&#x419;" horiz-adv-x="753" 
d="M219 898h321v-130h-321v130zM685 700v-700h-189v373l-279 -373h-149v700h189v-375l277 375h151z" />
    <glyph glyph-name="Tcommaaccent" unicode="&#x41a;" horiz-adv-x="677" 
d="M461 0l-200 309v-309h-193v700h193v-295l185 295h223l-224 -339l245 -361h-229z" />
    <glyph glyph-name="tildecomb" unicode="&#x41b;" horiz-adv-x="769" 
d="M701 700v-700h-193v524h-135l-27 -243q-31 -283 -267 -283h-56v177h33q45 0 68.5 26.5t30.5 86.5l48 412h498z" />
    <glyph glyph-name="tildecomb.case" unicode="&#x41c;" horiz-adv-x="982" 
d="M760 0l-55 403l-185 -404h-57l-186 404l-54 -403h-195l106 700h192l165 -381l166 381h193l104 -700h-194z" />
    <glyph glyph-name="tildecomb.narrow" unicode="&#x41d;" horiz-adv-x="734" 
d="M667 700v-700h-195v269h-210v-269h-194v700h194v-253h210v253h195z" />
    <glyph glyph-name="tildecomb.narrow.case" unicode="&#x41e;" horiz-adv-x="832" 
d="M417 -18q-84 0 -155 27.5t-122.5 76.5t-80 116.5t-28.5 147.5t28.5 147.5t80 116.5t122.5 76.5t155 27.5t154.5 -27.5t121.5 -76t79.5 -116t28.5 -148.5t-28.5 -148.5t-79.5 -116t-121.5 -76t-154.5 -27.5zM417 162q40 0 73.5 14t58 39t38 59.5t13.5 75.5t-13.5 75.5
t-38 59.5t-58 39t-73.5 14t-74 -14t-58.5 -39t-38.5 -59.5t-14 -75.5t14 -75.5t38.5 -59.5t58.5 -39t74 -14z" />
    <glyph glyph-name="tonos" unicode="&#x41f;" horiz-adv-x="721" 
d="M654 700v-700h-196v524h-195v-524h-195v700h586z" />
    <glyph glyph-name="tonos.case" unicode="&#x420;" horiz-adv-x="645" 
d="M366 700q56 0 103 -19t82 -52.5t54.5 -80t19.5 -101.5t-19.5 -101.5t-54.5 -80.5t-82 -53t-103 -19h-105v-193h-193v700h298zM343 362q38 0 61 23.5t23 61.5q0 37 -23 61t-61 24h-82v-170h82z" />
    <glyph glyph-name="ubreve" unicode="&#x421;" horiz-adv-x="784" 
d="M403 -18q-80 0 -148 28t-118 77t-78 116.5t-28 145.5q0 79 28 146.5t78 117t118 77.5t148 28q69 0 129 -21.5t106.5 -61t77.5 -94.5t41 -122h-195q-18 54 -60.5 86.5t-97.5 32.5q-37 0 -68.5 -14t-54.5 -39.5t-36 -60t-13 -75.5q0 -40 13 -74.5t36 -59t54.5 -38.5
t68.5 -14q58 0 101 35t57 93h197q-10 -69 -40.5 -126t-77 -97.5t-107.5 -63t-131 -22.5z" />
    <glyph glyph-name="Ubreve" unicode="&#x422;" horiz-adv-x="611" 
d="M593 526h-191v-526h-193v526h-190v174h574v-174z" />
    <glyph glyph-name="uhungarumlaut" unicode="&#x423;" horiz-adv-x="662" 
d="M664 700l-194 -470q-27 -64 -56.5 -108.5t-66.5 -72.5t-82 -40.5t-103 -12.5h-62v176h50q38 0 62.5 9.5t41.5 33.5l-254 485h221l133 -289l102 289h208z" />
    <glyph glyph-name="umacron" unicode="&#x424;" horiz-adv-x="925" 
d="M894 351q0 -69 -22.5 -132t-65.5 -112t-105.5 -80.5t-142.5 -38.5v-102h-190v102q-79 7 -142 38.5t-106 80.5t-66 111.5t-23 130.5q0 69 23 131.5t66 112t106 81t142 38.5v87h190v-87q80 -7 142.5 -38.5t105.5 -80t65.5 -111t22.5 -131.5zM224 350q0 -34 10 -66.5
t29.5 -58t48 -43t64.5 -23.5v381q-36 -6 -64.5 -23.5t-48 -43t-29.5 -57.5t-10 -66zM550 159q36 6 64.5 23.5t48 43t29.5 58t10 66.5t-10 66t-29.5 57.5t-48 43t-64.5 23.5v-381z" />
    <glyph glyph-name="Umacron" unicode="&#x425;" horiz-adv-x="664" 
d="M448 0l-115 215l-116 -215h-219l210 364l-198 336h217l105 -198l106 198h215l-197 -339l211 -361h-219z" />
    <glyph glyph-name="uni0302.case" unicode="&#x426;" horiz-adv-x="749" 
d="M710 177v-303h-176v126h-466v700h194v-523h185v523h194v-523h69z" />
    <glyph glyph-name="uni0302" unicode="&#x427;" horiz-adv-x="674" 
d="M606 700v-700h-195v219q-54 -15 -105 -15q-57 0 -106 18.5t-85 54t-56.5 87.5t-20.5 120v216h196v-212q0 -54 25.5 -81.5t70.5 -27.5q33 0 81 17v304h195z" />
    <glyph glyph-name="uni0302.narrow" unicode="&#x428;" horiz-adv-x="989" 
d="M922 700v-700h-854v700h193v-523h142v523h183v-523h142v523h194z" />
    <glyph glyph-name="uni0302.narrow.case" unicode="&#x429;" horiz-adv-x="1030" 
d="M993 177v-303h-176v126h-749v700h193v-523h142v523h183v-523h142v523h194v-523h71z" />
    <glyph glyph-name="uni0304.narrow" unicode="&#x42a;" horiz-adv-x="755" 
d="M476 497q57 0 104.5 -18t82 -51t53.5 -78.5t19 -100.5t-19 -100.5t-53.5 -78.5t-82 -51.5t-104.5 -18.5h-297v528h-159v172h348v-203h108zM452 166q40 0 64.5 23t24.5 60t-24.5 59.5t-64.5 22.5h-84v-165h84z" />
    <glyph glyph-name="uni0304.narrow.case" unicode="&#x42b;" horiz-adv-x="950" 
d="M365 497q57 0 104.5 -18t82 -51t53.5 -78.5t19 -100.5t-19 -100.5t-53.5 -78.5t-82 -51.5t-104.5 -18.5h-297v700h190v-203h107zM882 700v-700h-195v700h195zM341 166q40 0 64.5 23t24.5 60t-24.5 59.5t-64.5 22.5h-83v-165h83z" />
    <glyph glyph-name="uni0304.case" unicode="&#x42c;" horiz-adv-x="644" 
d="M365 497q57 0 104.5 -18t82 -51t53.5 -78.5t19 -100.5t-19 -100.5t-53.5 -78.5t-82 -51.5t-104.5 -18.5h-297v700h190v-203h107zM341 166q40 0 64.5 23t24.5 60t-24.5 59.5t-64.5 22.5h-83v-165h83z" />
    <glyph glyph-name="uni0307" unicode="&#x42d;" horiz-adv-x="787" 
d="M386 718q80 0 147.5 -28t117 -77t77.5 -116.5t28 -146.5t-28 -146t-77.5 -116.5t-117 -77.5t-147.5 -28q-71 0 -132.5 22.5t-109 63t-78.5 97t-41 125.5h194q17 -60 61.5 -94.5t105.5 -34.5q59 0 102 30.5t62 82.5h-226v152h226q-19 53 -62 83t-102 30q-58 0 -101.5 -32
t-61.5 -87h-196q12 68 44 123t78.5 94t107 60t129.5 21z" />
    <glyph glyph-name="uni0308.narrow.case" unicode="&#x42e;" horiz-adv-x="1092" 
d="M686 718q82 0 150.5 -26.5t118 -75t77.5 -116.5t28 -150t-28 -150t-78 -116.5t-119 -75t-152 -26.5q-68 0 -127 20t-105.5 56.5t-78 88t-44.5 115.5h-67v-262h-193v700h193v-260h67q14 64 45.5 115.5t78 87.5t106 55.5t128.5 19.5zM682 162q40 0 73 14t56.5 38.5t36.5 59
t13 76.5q0 41 -13 75.5t-36.5 59.5t-56.5 39t-73 14t-73 -14t-57 -38.5t-37 -59t-13 -76.5t13 -76.5t37 -59t57 -38.5t73 -14z" />
    <glyph glyph-name="uni030A" unicode="&#x42f;" horiz-adv-x="676" 
d="M609 700v-700h-191v219h-65l-114 -219h-216l139 253q-58 29 -90.5 80.5t-32.5 119.5q0 54 19 99.5t53.5 78t82 51t103.5 18.5h312zM418 374v156h-93q-38 0 -61.5 -21t-23.5 -56t23.5 -57t61.5 -22h93z" />
    <glyph glyph-name="uni0326" unicode="&#x430;" horiz-adv-x="692" 
d="M633 541v-540h-143l-16 38q-34 -27 -75 -42t-88 -15q-62 0 -114 21.5t-90 60t-59 91.5t-21 116t21 115.5t59 90.5t90 59t114 21q48 0 89.5 -15t75.5 -43l19 42h138zM336 147q26 0 48 9.5t38 26t25 39t9 48.5t-9 48.5t-25 39t-38 26t-48 9.5q-54 0 -87.5 -35t-33.5 -88
q0 -26 9 -48.5t25 -39t38.5 -26t48.5 -9.5z" />
    <glyph glyph-name="uni0326.case" unicode="&#x431;" horiz-adv-x="662" 
d="M368 517q59 0 108 -19t84 -53.5t54.5 -82.5t19.5 -106q0 -62 -21 -112.5t-59.5 -86.5t-93 -55.5t-121.5 -19.5q-71 0 -127.5 23t-95.5 66.5t-59.5 105.5t-20.5 141q0 346 311 420l200 49v-173l-200 -49q-113 -27 -136 -102q72 54 157 54zM339 143q49 0 81.5 32.5
t32.5 83.5t-32 83.5t-82 32.5t-82 -32.5t-32 -83.5t32 -83.5t82 -32.5z" />
    <glyph glyph-name="uni0327" unicode="&#x432;" horiz-adv-x="579" 
d="M461 286q42 -16 65.5 -49.5t23.5 -80.5q0 -34 -13 -62.5t-36 -49.5t-55.5 -32.5t-71.5 -11.5h-315v540h311q36 0 66 -10t51.5 -28t33.5 -43t12 -55q0 -39 -19 -70t-53 -48zM363 377q0 20 -13 32.5t-36 12.5h-82v-91h82q23 0 36 13t13 33zM320 125q25 0 38.5 12.5
t13.5 35.5q0 22 -13.5 35t-38.5 13h-88v-96h88z" />
    <glyph glyph-name="uni0327.case" unicode="&#x433;" horiz-adv-x="452" 
d="M437 380h-196v-380h-182v540h378v-160z" />
    <glyph glyph-name="uni0335" unicode="&#x434;" horiz-adv-x="682" 
d="M648 164v-290h-160v126h-310v-126h-159v290h60q13 14 22.5 37t17 65.5t15 108.5t16.5 165h430v-376h68zM307 384q-7 -88 -18 -139.5t-29 -80.5h147v220h-100z" />
    <glyph glyph-name="uni0335.case" unicode="&#x435;" horiz-adv-x="641" 
d="M615 275q0 -12 -1 -24t-3 -25h-401q9 -47 37.5 -70.5t72.5 -23.5q33 0 58.5 13.5t39.5 37.5h185q-14 -46 -41 -83.5t-63.5 -63.5t-82 -40t-96.5 -14q-63 0 -116.5 22t-93 60.5t-61.5 91t-22 114.5t22 115t61 91.5t93 60t117 21.5q65 0 119.5 -22t93.5 -60t60.5 -89.5
t21.5 -111.5zM320 412q-41 0 -68.5 -21t-38.5 -62h219q-26 83 -112 83z" />
    <glyph glyph-name="uni0337" unicode="&#x436;" horiz-adv-x="861" 
d="M661 0l-145 233v-233h-177v229l-138 -229h-209l181 281l-164 259h203l127 -213v213h177v-218l133 218h203l-166 -258l185 -282h-210z" />
    <glyph glyph-name="uni0337.case" unicode="&#x437;" horiz-adv-x="522" 
d="M416 288q40 -21 59.5 -54.5t19.5 -76.5q0 -41 -19 -73.5t-51 -55t-75.5 -34.5t-91.5 -12q-52 0 -96 13.5t-76 39t-50.5 62.5t-19.5 84h172q2 -27 20 -42t47 -15q28 0 43 13.5t15 34.5t-15.5 35t-46.5 14h-58v117h58q28 0 41.5 12t13.5 31q0 20 -14 32t-40 12
q-51 0 -57 -48h-168q2 43 20.5 76.5t49.5 57t72 35.5t88 12q45 0 85.5 -11.5t70.5 -33t47.5 -51.5t17.5 -67q0 -66 -62 -107z" />
    <glyph glyph-name="uni0338.case" unicode="&#x438;" horiz-adv-x="623" 
d="M564 540v-540h-179v242l-217 -242h-109v540h179v-240l219 240h107z" />
    <glyph glyph-name="uni0401" unicode="&#x439;" horiz-adv-x="623" 
d="M465 615h-287v120h287v-120zM564 540v-540h-179v242l-217 -242h-109v540h179v-240l219 240h107z" />
    <glyph glyph-name="uni0403" unicode="&#x43a;" horiz-adv-x="589" 
d="M380 0l-135 229v-229h-186v540h186v-212l129 212h208l-169 -258l186 -282h-219z" />
    <glyph glyph-name="uni0405" unicode="&#x43b;" horiz-adv-x="638" 
d="M579 540v-540h-183v384h-84l-15 -153q-13 -124 -70 -178.5t-161 -54.5h-49v153h24q38 0 57.5 20t24.5 65l35 304h421z" />
    <glyph glyph-name="uni0406" unicode="&#x43c;" horiz-adv-x="811" 
d="M611 0l-39 275l-143 -277h-47l-143 278l-40 -276h-175l83 540h164l135 -273l137 273h158l86 -540h-176z" />
    <glyph glyph-name="uni0407" unicode="&#x43d;" horiz-adv-x="636" 
d="M577 540v-540h-185v190h-148v-190h-185v540h185v-186h148v186h185z" />
    <glyph glyph-name="uni0408" unicode="&#x43e;" horiz-adv-x="660" 
d="M330 -18q-66 0 -121.5 21.5t-96 60t-63 91t-22.5 115.5t22.5 115.5t63 91t96 60t121.5 21.5t121.5 -21.5t96 -60t63 -91t22.5 -115.5t-22.5 -115.5t-63 -91t-96 -60t-121.5 -21.5zM330 149q51 0 83.5 33.5t32.5 87.5t-32.5 87.5t-83.5 33.5t-84 -33.5t-33 -87.5t33 -87.5
t84 -33.5z" />
    <glyph glyph-name="uni0409" unicode="&#x43f;" horiz-adv-x="636" 
d="M577 540v-540h-185v380h-148v-380h-185v540h518z" />
    <glyph glyph-name="uni040A" unicode="&#x440;" horiz-adv-x="684" 
d="M374 558q62 0 114 -21.5t89.5 -59.5t58.5 -91t21 -116t-21 -116t-58.5 -91t-89.5 -59.5t-114 -21.5q-37 0 -70 9.5t-62 26.5v-213h-183v735h126l23 -43q34 29 76 45t90 16zM349 146q26 0 48 9.5t38.5 26t25.5 39t9 49.5q0 54 -34 89t-87 35t-87 -35t-34 -89t34 -89
t87 -35z" />
    <glyph glyph-name="uni040B" unicode="&#x441;" horiz-adv-x="636" 
d="M326 -18q-65 0 -119.5 21.5t-94.5 60t-62 91.5t-22 116t22 115.5t61.5 90.5t94.5 59t120 21q57 0 106 -17t86.5 -48.5t62 -75.5t31.5 -98h-181q-12 33 -40.5 52.5t-64.5 19.5q-50 0 -81 -33t-31 -87q0 -53 31.5 -87t80.5 -34q38 0 66 21.5t39 57.5h183
q-8 -55 -32.5 -100.5t-62.5 -77.5t-87 -50t-106 -18z" />
    <glyph glyph-name="uni040E" unicode="&#x442;" horiz-adv-x="553" 
d="M538 379h-170v-379h-182v379h-171v161h523v-161z" />
    <glyph glyph-name="uni040F" unicode="&#x443;" horiz-adv-x="620" 
d="M623 540l-226 -516q-27 -62 -54.5 -105t-60 -69.5t-72.5 -38.5t-92 -12h-64v160h51q27 0 45 4t31 13.5t23 26.5t19 42l-223 495h202l114 -297l107 297h200z" />
    <glyph glyph-name="uni0411" unicode="&#x444;" horiz-adv-x="789" 
d="M761 269q0 -60 -20.5 -111t-58 -88.5t-89 -60t-114.5 -25.5v-154h-169v154q-63 3 -115 25.5t-89.5 60t-58 88.5t-20.5 111t21 111.5t58.5 89t89.5 60.5t114 26v149h169v-149q62 -3 113.5 -26t89 -60.5t58.5 -89t21 -111.5zM469 137q52 5 83.5 41.5t31.5 90.5
q0 55 -32 91.5t-83 41.5v-265zM205 269q0 -54 31.5 -90t82.5 -41v264q-51 -5 -82.5 -41.5t-31.5 -91.5z" />
    <glyph glyph-name="uni0412" unicode="&#x445;" horiz-adv-x="580" 
d="M378 0l-88 160l-91 -160h-205l179 280l-166 260h205l78 -136l82 136h202l-167 -255l179 -285h-208z" />
    <glyph glyph-name="uni0414" unicode="&#x446;" horiz-adv-x="665" 
d="M632 161v-287h-160v126h-413v540h184v-379h135v379h184v-379h70z" />
    <glyph glyph-name="uni0413" unicode="&#x447;" horiz-adv-x="590" 
d="M531 540v-540h-183v161q-45 -12 -91 -12q-52 0 -94 16t-72 46.5t-46 74t-16 98.5v156h185v-157q0 -80 72 -80q16 0 32.5 4t29.5 10v223h183z" />
    <glyph glyph-name="uni0414.loclBGR" unicode="&#x448;" horiz-adv-x="859" 
d="M800 540v-540h-741v540h180v-379h106v379h169v-379h106v379h180z" />
    <glyph glyph-name="uni0414.ss01" unicode="&#x449;" horiz-adv-x="904" 
d="M871 162v-288h-160v126h-652v540h180v-379h106v379h169v-379h106v379h180v-378h71z" />
    <glyph glyph-name="uni0417" unicode="&#x44a;" horiz-adv-x="633" 
d="M401 402q50 0 89.5 -14.5t67.5 -41t43 -63.5t15 -82t-15 -82t-43 -63.5t-67.5 -41t-89.5 -14.5h-256v387h-129v153h301v-138h84zM381 141q29 0 45.5 15.5t16.5 44.5t-16.5 44t-45.5 15h-64v-119h64z" />
    <glyph glyph-name="uni0418" unicode="&#x44b;" horiz-adv-x="846" 
d="M315 402q50 0 89.5 -14.5t67.5 -41t43 -63.5t15 -82t-15 -82t-43 -63.5t-67.5 -41t-89.5 -14.5h-256v540h172v-138h84zM788 540v-540h-185v540h185zM294 141q29 0 46 15.5t17 44.5t-17 44t-46 15h-63v-119h63z" />
    <glyph glyph-name="uni0416" unicode="&#x44c;" horiz-adv-x="547" 
d="M315 402q50 0 89.5 -14.5t67.5 -41t43 -63.5t15 -82t-15 -82t-43 -63.5t-67.5 -41t-89.5 -14.5h-256v540h172v-138h84zM294 141q29 0 46 15.5t17 44.5t-17 44t-46 15h-63v-119h63z" />
    <glyph glyph-name="uni041B.ss01" unicode="&#x44d;" horiz-adv-x="629" 
d="M308 557q64 0 118 -21.5t93 -59.5t60.5 -90.5t21.5 -114.5q0 -63 -21.5 -116t-60.5 -91.5t-93 -60t-118 -21.5q-55 0 -103.5 17t-86.5 47.5t-63 73.5t-34 95h180q13 -37 40.5 -58t68.5 -21q40 0 67.5 20t40.5 55h-159v119h159q-13 35 -40.5 54t-67.5 19q-39 0 -68 -19.5
t-42 -54.5h-178q10 51 35 93t62.5 72t85.5 46.5t103 16.5z" />
    <glyph glyph-name="uni0420" unicode="&#x44e;" horiz-adv-x="899" 
d="M572 557q66 0 121.5 -21t95 -59.5t61.5 -91t22 -115.5q0 -64 -22 -117t-61.5 -91t-95 -59t-121.5 -21q-53 0 -98.5 15t-81 42t-60 65.5t-36.5 85.5h-53v-190h-184v540h184v-191h53q12 47 36.5 85.5t60.5 65.5t81.5 42t97.5 15zM572 148q51 0 83.5 34.5t32.5 87.5
q0 52 -32.5 86.5t-83.5 34.5t-83.5 -34.5t-32.5 -86.5q0 -53 32.5 -87.5t83.5 -34.5z" />
    <glyph glyph-name="uni0421" unicode="&#x44f;" horiz-adv-x="588" 
d="M529 540v-540h-171v174h-60l-86 -174h-198l118 206q-43 23 -67 61.5t-24 89.5q0 40 14 73.5t39.5 58t60.5 38t76 13.5h298zM358 299v111h-77q-28 0 -43 -15.5t-15 -40.5q0 -24 15 -39.5t43 -15.5h77z" />
    <glyph glyph-name="uni0336.case" unicode="&#x451;" horiz-adv-x="641" 
d="M615 275q0 -12 -1 -24t-3 -25h-401q9 -47 37.5 -70.5t72.5 -23.5q33 0 58.5 13.5t39.5 37.5h185q-14 -46 -41 -83.5t-63.5 -63.5t-82 -40t-96.5 -14q-63 0 -116.5 22t-93 60.5t-61.5 91t-22 114.5t22 115t61 91.5t93 60t117 21.5q65 0 119.5 -22t93.5 -60t60.5 -89.5
t21.5 -111.5zM320 412q-41 0 -68.5 -21t-38.5 -62h219q-26 83 -112 83zM292 616h-186v157h186v-157zM535 616h-186v157h186v-157z" />
    <glyph glyph-name="uni0422" unicode="&#x452;" horiz-adv-x="645" 
d="M389 555q47 0 84.5 -16.5t63.5 -46.5t40.5 -73t14.5 -96v-312q0 -97 -56 -153t-153 -56h-58v152h23q28 0 43 15.5t15 44.5v283q0 94 -70 94q-44 0 -67.5 -29t-23.5 -80v-282h-186v588h-87v102h87v45h186v-45h137v-102h-137v-85q29 24 66 38t78 14z" />
    <glyph glyph-name="uni0328" unicode="&#x453;" horiz-adv-x="452" 
d="M413 712q23 0 37.5 -13t14.5 -35t-14.5 -35t-37.5 -13t-37.5 13t-14.5 35t14.5 35t37.5 13zM152 664q0 -20 -13.5 -33t-35.5 -13h-39v91h39q22 0 35.5 -12.5t13.5 -32.5zM225 618h-63v91h62v-24h-32v-10h29v-22h-29v-10h33v-25zM263 618h-31l14 91h30l18 -43l19 43h30
l13 -91h-30l-5 46l-22 -46h-10l-21 46zM413 643q9 0 14.5 6t5.5 15q0 20 -20 20t-20 -20q0 -9 5.5 -15t14.5 -6zM101 646q20 0 20 18t-20 18h-6v-36h6zM59 540h378v-160h-196v-380h-182v540z" />
    <glyph glyph-name="uni041B.loclBGR" unicode="&#x454;" horiz-adv-x="629" 
d="M608 215q-9 -52 -34.5 -95t-63.5 -73.5t-86 -47.5t-104 -17q-64 0 -117.5 21.5t-92.5 60t-61 91.5t-22 116q0 62 21.5 114.5t60.5 90.5t93 59.5t118 21.5q55 0 103 -16.5t85.5 -46.5t62.5 -72t35 -93h-177q-14 35 -42.5 54.5t-67.5 19.5q-40 0 -67.5 -19t-40.5 -54h159
v-119h-159q12 -35 40 -55t68 -20t68 21t40 58h181z" />
    <glyph glyph-name="uni041B" unicode="&#x455;" horiz-adv-x="534" 
d="M267 -18q-55 0 -99 14t-74.5 39.5t-47.5 61.5t-17 80h179q0 -29 18 -43.5t44 -14.5q21 0 37 10.5t16 31.5q0 23 -27 32.5t-65 16.5q-31 5 -65.5 13.5t-63.5 27t-47.5 49.5t-18.5 80q0 41 16.5 73.5t46.5 56t72.5 36t94.5 12.5t94 -13t71.5 -37t46 -58t17.5 -75h-174
q0 26 -15.5 38.5t-41.5 12.5q-23 0 -36.5 -10.5t-13.5 -29.5q0 -23 27.5 -31.5t65.5 -15.5q32 -6 67 -14t64.5 -25.5t48.5 -48.5t19 -82q0 -42 -17 -76.5t-48.5 -59t-75.5 -38t-98 -13.5z" />
    <glyph glyph-name="uni041C" unicode="&#x456;" horiz-adv-x="303" 
d="M60 765h183v-157h-183v157zM59 540h186v-540h-186v540z" />
    <glyph glyph-name="uni041D" unicode="&#x457;" horiz-adv-x="546" 
d="M179 540h186v-540h-186v540zM245 608h-187v157h187v-157zM488 608h-187v157h187v-157z" />
    <glyph glyph-name="uni041E" unicode="&#x458;" horiz-adv-x="315" 
d="M72 765h183v-157h-183v157zM-42 -42h45q68 0 68 72v510h186v-525q0 -105 -60.5 -163t-169.5 -58h-69v164z" />
    <glyph glyph-name="uni0419" unicode="&#x459;" horiz-adv-x="891" 
d="M659 402q50 0 89.5 -14.5t67.5 -41t43 -63.5t15 -82t-15 -82t-43 -63.5t-67.5 -41t-89.5 -14.5h-256v386h-92l-15 -155q-13 -124 -70 -178.5t-161 -54.5h-49v153h24q38 0 57.5 20t24.5 65l35 304h415v-138h87zM639 141q29 0 45.5 15.5t16.5 44.5t-16.5 44t-45.5 15h-67
v-119h67z" />
    <glyph glyph-name="uni041A" unicode="&#x45a;" horiz-adv-x="890" 
d="M657 398q50 0 89.5 -14.5t67.5 -40.5t43 -62.5t15 -81.5q0 -44 -15 -80.5t-43 -63t-67.5 -41t-89.5 -14.5h-264v196h-151v-196h-183v540h183v-181h151v181h182v-142h82zM637 141q29 0 45.5 15.5t16.5 42.5q0 28 -16.5 43t-45.5 15h-63v-116h63z" />
    <glyph glyph-name="uni041F" unicode="&#x45b;" horiz-adv-x="645" 
d="M306 818q-24 0 -38.5 13.5t-14.5 35.5t14.5 35t38.5 13q23 0 37.5 -13t14.5 -35t-14.5 -35.5t-37.5 -13.5zM-4 912q22 0 35 -12.5t13 -32.5t-13 -33t-35 -13h-39v91h39zM118 821h-63v91h62v-24h-32v-10h29v-23h-29v-9h33v-25zM155 821h-30l13 91h30l19 -44l19 44h30
l13 -91h-30l-6 46l-21 -46h-10l-21 46zM306 887q-20 0 -20 -20q0 -21 20 -21q19 0 19 21q0 20 -19 20zM-6 848q19 0 19 19q0 18 -19 18h-7v-37h7zM389 556q47 0 84.5 -16.5t63.5 -46.5t40.5 -72.5t14.5 -95.5v-325h-186v304q0 94 -70 94q-42 0 -66.5 -28.5t-24.5 -81.5v-288
h-186v735h186v-231q29 24 66 38t78 14z" />
    <glyph glyph-name="uni0404" unicode="&#x45c;" horiz-adv-x="589" 
d="M459 616q-23 0 -37.5 13t-14.5 35t14.5 35t37.5 13q24 0 38 -13t14 -35t-14 -35t-38 -13zM198 664q0 -20 -13.5 -33t-34.5 -13h-39v91h39q21 0 34.5 -12.5t13.5 -32.5zM271 618h-63v91h63v-24h-33v-10h29v-22h-29v-10h33v-25zM309 618h-30l13 91h30l19 -43l18 43h30
l14 -91h-31l-5 46l-21 -46h-11l-21 46zM459 684q-20 0 -20 -20q0 -9 5.5 -15t14.5 -6t14.5 6t5.5 15q0 20 -20 20zM148 646q19 0 19 18t-19 18h-7v-36h7zM380 0l-135 229v-229h-186v540h186v-212l129 212h208l-169 -258l186 -282h-219z" />
    <glyph glyph-name="uni0402" unicode="&#x45d;" horiz-adv-x="623" 
d="M469 616q-23 0 -37.5 13t-14.5 35t14.5 35t37.5 13q24 0 38.5 -13t14.5 -35t-14.5 -35t-38.5 -13zM208 664q0 -20 -13 -33t-35 -13h-39v91h39q22 0 35 -12.5t13 -32.5zM281 618h-63v91h63v-24h-33v-10h29v-22h-29v-10h33v-25zM319 618h-30l13 91h30l19 -43l19 43h30
l13 -91h-30l-6 46l-21 -46h-10l-22 46zM469 684q-19 0 -19 -20q0 -9 5.5 -15t13.5 -6q9 0 14.5 6t5.5 15q0 20 -20 20zM158 646q19 0 19 18t-19 18h-7v-36h7zM564 540v-540h-179v242l-217 -242h-109v540h179v-240l219 240h107z" />
    <glyph glyph-name="uni0410" unicode="&#x45e;" horiz-adv-x="620" 
d="M456 615h-286v120h286v-120zM623 540l-226 -516q-27 -62 -54.5 -105t-60 -69.5t-72.5 -38.5t-92 -12h-64v160h51q27 0 45 4t31 13.5t23 26.5t19 42l-223 495h202l114 -297l107 297h200z" />
    <glyph glyph-name="uni0415" unicode="&#x45f;" horiz-adv-x="621" 
d="M563 0h-164v-125h-177v125h-163v540h184v-370h135v370h185v-540z" />
    <glyph glyph-name="summation" unicode="&#x490;" horiz-adv-x="512" 
d="M493 805v-279h-231v-526h-194v700h251v105h174z" />
    <glyph glyph-name="uni0328.case" unicode="&#x491;" horiz-adv-x="452" 
d="M437 644v-264h-196v-380h-182v540h216v104h162z" />
    <glyph glyph-name="florin.tf" unicode="&#x1e80;" horiz-adv-x="1050" 
d="M676 882q24 0 38 -13t14 -35t-14 -35t-38 -13q-23 0 -37.5 13t-14.5 35t14.5 35t37.5 13zM367 879q21 0 34.5 -12.5t13.5 -32.5t-13.5 -33t-34.5 -13h-39v91h39zM455 813h33v-25h-63v91h63v-24h-33v-10h29v-22h-29v-10zM606 879l14 -91h-31l-5 46l-21 -46h-11l-21 46
l-5 -46h-30l13 91h30l19 -43l18 43h30zM676 813q9 0 14.5 6t5.5 15q0 20 -20 20t-20 -20q0 -9 5.5 -15t14.5 -6zM365 816q19 0 19 18t-19 18h-7v-36h7zM1044 700l-216 -700h-169l-135 338l-131 -338h-170l-219 700h207l113 -403l167 400h67l170 -401l111 404h205z" />
    <glyph glyph-name="radical" unicode="&#x1e81;" horiz-adv-x="867" 
d="M580 616q-23 0 -37.5 13t-14.5 35t14.5 35t37.5 13q24 0 38.5 -13t14.5 -35t-14.5 -35t-38.5 -13zM319 664q0 -20 -13 -33t-35 -13h-39v91h39q22 0 35 -12.5t13 -32.5zM392 618h-63v91h63v-24h-33v-10h29v-22h-29v-10h33v-25zM430 618h-30l13 91h30l19 -43l19 43h30
l13 -91h-30l-6 46l-21 -46h-10l-22 46zM580 684q-19 0 -19 -20q0 -9 5 -15t14 -6t14.5 6t5.5 15q0 20 -20 20zM269 646q19 0 19 18t-19 18h-7v-36h7zM862 540l-172 -540h-150l-107 242l-104 -242h-150l-177 540h195l82 -284l128 282h50l134 -284l81 286h190z" />
    <glyph glyph-name="Eogonek" unicode="&#x1e82;" horiz-adv-x="1050" 
d="M678 786q-24 0 -38.5 13t-14.5 35t14.5 35t38.5 13q23 0 37.5 -13t14.5 -35t-14.5 -35t-37.5 -13zM416 834q0 -20 -13 -33t-35 -13h-39v91h39q22 0 35 -12.5t13 -32.5zM490 788h-63v91h62v-24h-32v-10h29v-22h-29v-10h33v-25zM527 788h-30l13 91h30l19 -43l19 43h30
l13 -91h-30l-5 46l-22 -46h-10l-21 46zM678 854q-20 0 -20 -20q0 -9 5.5 -15t14.5 -6t14 6t5 15q0 20 -19 20zM366 816q19 0 19 18t-19 18h-6v-36h6zM1044 700l-216 -700h-169l-135 338l-131 -338h-170l-219 700h207l113 -403l167 400h67l170 -401l111 404h205z" />
    <glyph glyph-name="product" unicode="&#x1e83;" horiz-adv-x="867" 
d="M587 616q-24 0 -38.5 13t-14.5 35t14.5 35t38.5 13q23 0 37.5 -13t14.5 -35t-14.5 -35t-37.5 -13zM325 664q0 -20 -13 -33t-35 -13h-39v91h39q22 0 35 -12.5t13 -32.5zM399 618h-64v91h63v-24h-33v-10h30v-22h-30v-10h34v-25zM436 618h-30l13 91h30l19 -43l19 43h30
l13 -91h-30l-6 46l-21 -46h-10l-22 46zM587 684q-20 0 -20 -20q0 -9 5.5 -15t14.5 -6q8 0 13.5 6t5.5 15q0 20 -19 20zM275 646q19 0 19 18t-19 18h-7v-36h7zM862 540l-172 -540h-150l-107 242l-104 -242h-150l-177 540h195l82 -284l128 282h50l134 -284l81 286h190z" />
    <glyph glyph-name="Euro" unicode="&#x1e84;" horiz-adv-x="1050" 
d="M673 786q-24 0 -38.5 13t-14.5 35t14.5 35t38.5 13q23 0 37.5 -13t14.5 -35t-14.5 -35t-37.5 -13zM411 834q0 -20 -13 -33t-35 -13h-39v91h39q22 0 35 -12.5t13 -32.5zM485 788h-63v91h62v-24h-32v-10h29v-22h-29v-10h33v-25zM522 788h-30l13 91h30l19 -43l19 43h30
l13 -91h-30l-6 46l-21 -46h-10l-21 46zM673 854q-20 0 -20 -20q0 -9 5.5 -15t14.5 -6q8 0 13.5 6t5.5 15q0 20 -19 20zM361 816q19 0 19 18t-19 18h-7v-36h7zM1044 700l-216 -700h-169l-135 338l-131 -338h-170l-219 700h207l113 -403l167 400h67l170 -401l111 404h205z" />
    <glyph glyph-name="Racute" unicode="&#x1e85;" horiz-adv-x="867" 
d="M586 616q-24 0 -38.5 13t-14.5 35t14.5 35t38.5 13q23 0 37.5 -13t14.5 -35t-14.5 -35t-37.5 -13zM324 664q0 -20 -13 -33t-35 -13h-39v91h39q22 0 35 -12.5t13 -32.5zM398 618h-63v91h62v-24h-32v-10h29v-22h-29v-10h33v-25zM435 618h-30l13 91h30l19 -43l19 43h30
l13 -91h-30l-6 46l-21 -46h-10l-21 46zM586 684q-20 0 -20 -20q0 -9 5.5 -15t14.5 -6q8 0 13.5 6t5.5 15q0 20 -19 20zM274 646q19 0 19 18t-19 18h-7v-36h7zM862 540l-172 -540h-150l-107 242l-104 -242h-150l-177 540h195l82 -284l128 282h50l134 -284l81 286h190z" />
    <glyph glyph-name="Ecaron" unicode="&#x1e9e;" 
d="M286 532q-39 0 -62.5 25.5t-23.5 67.5t23.5 68t62.5 26t63 -26t24 -68t-24 -67.5t-63 -25.5zM286 661q-17 0 -26.5 -10t-9.5 -26t9.5 -25.5t26.5 -9.5t27 9.5t10 25.5t-10 26t-27 10zM204 500l164 24v-54l-83 -10l83 -38v-19l-82 -38l82 -9v-55l-164 24v54l79 33l-79 34
v54zM324 288h44v-113h-164v112h44v-58h18v52h40v-52h18v59zM286 157q36 0 59 -24t23 -63v-70h-164v70q0 39 23 63t59 24zM286 101q-15 0 -24 -9t-9 -26v-11h66v11q0 17 -9 26t-24 9z" />
    <glyph glyph-name="gbreve" unicode="&#x1ef2;" horiz-adv-x="699" 
d="M502 882q24 0 38.5 -13t14.5 -35t-14.5 -35t-38.5 -13q-23 0 -37.5 13t-14.5 35t14.5 35t37.5 13zM193 879q22 0 35 -12.5t13 -32.5t-13 -33t-35 -13h-39v91h39zM281 813h34v-25h-64v91h63v-24h-33v-10h30v-22h-30v-10zM433 879l13 -91h-30l-6 46l-21 -46h-10l-22 46
l-5 -46h-30l13 91h30l19 -43l19 43h30zM502 813q9 0 14.5 6t5.5 15q0 20 -20 20q-19 0 -19 -20q0 -9 5.5 -15t13.5 -6zM191 816q19 0 19 18t-19 18h-7v-36h7zM447 274v-274h-196v274l-243 426h214l128 -253l128 253h214z" />
    <glyph glyph-name="Rcaron" unicode="&#x1ef3;" horiz-adv-x="620" 
d="M461 616q-24 0 -38 13t-14 35t14 35t38 13q23 0 37.5 -13t14.5 -35t-14.5 -35t-37.5 -13zM200 664q0 -20 -13.5 -33t-35.5 -13h-39v91h39q22 0 35.5 -12.5t13.5 -32.5zM273 618h-63v91h62v-24h-32v-10h29v-22h-29v-10h33v-25zM311 618h-31l13 91h31l18 -43l19 43h30
l13 -91h-30l-5 46l-22 -46h-10l-21 46zM461 684q-20 0 -20 -20q0 -9 5.5 -15t14.5 -6t14.5 6t5.5 15q0 20 -20 20zM149 646q20 0 20 18t-20 18h-6v-36h6zM623 540l-226 -516q-27 -62 -54.5 -105t-60 -69.5t-72.5 -38.5t-92 -12h-64v160h51q27 0 45 4t31 13.5t23 26.5t19 42
l-223 495h202l114 -297l107 297h200z" />
    <glyph glyph-name="endash" unicode="&#x2013;" horiz-adv-x="621" 
d="M54 361h513v-169h-513v169z" />
    <glyph glyph-name="emdash" unicode="&#x2014;" horiz-adv-x="827" 
d="M54 361h718v-169h-718v169z" />
    <glyph glyph-name="quoteleft" unicode="&#x2018;" horiz-adv-x="277" 
d="M220 670q-41 -4 -60.5 -27.5t-19.5 -55.5h87v-173h-181v159q0 81 48 131.5t126 57.5v-92z" />
    </font>
</defs>
</svg>
