<svg version="1.1" id="Слой_1" xmlns="http://www.w3.org/2000/svg" x="0" y="0" viewBox="0 0 172 172" xml:space="preserve"><style>.st1{fill:#fabf82}.st3{fill:#fddbbc}.st4{fill:#512c2b}.st5{fill:#472b29}.st6{fill:#895d3d}.st8{fill:#be7841}</style><path d="M0 172V0h172v172H0z" fill="none"/><path class="st1" d="M167.8 114.4c-.9-5-2.8-7.8-7.8-9.4-.3 0-.6-.3-.9-.3-.3 0-.9-.3-1.2-.6-2.8-1.2-19.9-7.5-19.9-7.5-1.2-.3-2.2-1.2-2.8-2.5-.9-1.9-.6-6.5-.6-6.5s-7.2 2.5-11.5 3.1c-4.4.3-13.7-5.3-13.7-5.3s-.3 6.9-.6 8.4c-.3 1.2-1.6 2.2-2.8 2.5l-16.2 5.9c-1.9.6-3.4 1.2-5 2.2-4.1 2.5-6.2 6.2-7.2 9.7 0 0-.9 7.5-.9 7.8 0 .9-.3 2.2-.3 3.4 17.8 12.2 32.1 15.3 56.4 14.3 11.2-.6 27.7-5.9 36.5-10.3-.6-9.3-1.5-14.9-1.5-14.9z"/><path d="M160.3 105.4c-.3 0-.6-.3-.9-.3s-.9-.3-1.2-.6c-1.9-.6-9-3.4-14-5.3h-.3c-5.6 2.8-14 7.5-21.5 7.5s-15-4.1-21.5-7.5l-.6.3-10.3 3.7c-1.9.6-3.4 1.2-5 2.2-4.1 2.5-6.2 6.2-7.2 9.7 0 0-.9 7.5-.9 7.8 0 .9-.3 12.5-.3 13.7 17.8 12.2 32.1 15.3 56.4 14.3 11.2-.6 27.7-5.9 36.5-10.3-.3-9.7-1.2-25.6-1.2-25.6-1.5-5.3-3.4-8.4-8-9.6z" fill="#ee3e54"/><path class="st3" d="M150.3 53.6h-.9c-2.2 0-2.8.6-2.8-.6.3-2.5-.3-12.2-.3-12.8 0-10.3-10.6-18.4-24-19h-.6c-13.4.3-24 8.7-24 19 0 .6-.3 10.3-.3 12.8 0 1.2-.6.6-2.8.6h-.9c-2.5.3-4.4 1.6-4.7 3.7.3.3 1.2 8.4 3.1 11.8.9 1.9 2.5 2.2 4.1 3.4.9.6.9 1.2 1.2 2.5.9 3.7 3.4 6.9 6.2 9.4 1.2 1.2 10.3 10.9 18.1 10.3 7.8-.3 16.5-9 18.1-10.3 2.8-2.5 5.3-5.6 6.2-9.4.3-.9.3-1.9 1.2-2.5 1.6-1.2 3.1-1.6 4.1-3.4 1.9-3.4 2.8-11.5 3.1-11.8.3-1.8-1.6-3.3-4.1-3.7z"/><path class="st4" d="M122.6 69.9c1.6 0 3.1-.6 4.1-1.9v-.3h-.3c-.9.9-2.2 1.6-3.7 1.6s-2.8-.6-3.7-1.6h-.6v.3c1 1.2 2.6 1.9 4.2 1.9zm-5-20.9l.9-1.9c-4.1-.9-9-.9-13.1.3l1.2 1.9c3.5-1.3 7.5-1.3 11-.3zm20.9 0l.9-1.9c-4.1-.9-9-.9-13.1.3l1.2 1.9c3.5-1.3 7.5-1.3 11-.3zm-27.2 2.5c-.9 0-1.9.6-2.5 1.6h.3c.9 0 1.6.6 1.6 1.6s-.6 1.6-1.6 1.6c-.3 0-.6 0-.6-.3.3 1.6 1.6 2.5 2.8 2.5 1.6 0 2.8-1.6 2.8-3.7 0-1.8-1.2-3.3-2.8-3.3zm22.2 0c-.9 0-1.6.6-2.2 1.2h.6c.9 0 1.6.6 1.6 1.6s-.6 1.6-1.6 1.6c-.6 0-.9-.3-1.2-.6 0 1.9 1.2 3.4 2.8 3.4 1.6 0 2.8-1.6 2.8-3.7 0-2-1.3-3.5-2.8-3.5zm.9 22.7v-.3h-.3c-2.5 2.2-6.9 3.1-11.8 3.1-5 0-9-1.2-11.8-3.1h-.6v.3c2.8 2.5 7.5 3.7 12.2 3.7 5.1.1 9.5-1.2 12.3-3.7zm-8.7 12.2l.3-.3s0-.3-.3-.3h-5.9l-.3.3s0 .3.3.3h5.9z"/><path class="st5" d="M124.7 152.4c-20.6 0-33.7-4.1-49.6-14.6-.6-.3-.6-.9-.6-1.6V134c0-5 .3-15.3 1.2-19.6 1.6-5.6 3.7-7.8 7.8-10.3 1.6-.9 3.4-1.9 5.6-2.2l16.2-5.9c1.2-.3 1.9-.9 1.9-1.6 0-.3.3-1.2.3-4.4-2.2-1.6-4.1-3.1-4.7-3.7-3.7-3.4-5.6-6.9-6.5-10.3-.3-.9-.3-1.2-.6-1.6-.3-.3-.9-.6-1.2-.9-1.2-.6-2.5-1.2-3.1-3.1-1.9-3.7-3.4-10.5-3.4-12.7v-.3c.6-2.8 3.1-4.7 6.2-5h2.1c0-2.8 0-8.4.3-10.9v-1.2c0-10.9 10.9-20.3 25.2-20.6h.9c14 .6 25.2 9.7 25.2 20.6v1.2c0 2.5.3 8.1.3 10.9h2.1c3.1.3 5.6 2.2 6.2 5v.3c0 2.5-1.6 9-3.4 12.8-.9 1.6-2.2 2.5-3.1 3.1-.3.3-.9.6-1.2.9-.3.3-.6.6-.6 1.6-.9 3.4-2.8 6.9-6.5 10.3-.6.6-2.5 2.2-5 4.1 0 2.5.3 3.4.3 3.7.3.9.9 1.6 1.9 1.6.9.3 17.1 6.2 19.9 7.5.6.3.9.3 1.2.6.3 0 .3.3.6.3 5 1.6 7.5 4.7 8.7 10.3v.3s.9 15.9 1.2 25.6c0 .6-.3 1.2-.9 1.6-9.4 4.7-26.2 10-37.1 10.6-2.5-.2-5-.2-7.8-.2zM78 135.6c16.8 11.2 30.9 14.6 54.9 13.7 10.3-.3 25.6-5.3 34.9-9.7-.3-9.4-1.2-23.1-1.2-24.3-.9-4.7-2.8-6.9-6.5-7.8-.3 0-.6-.3-.9-.3-.3-.3-.9-.3-1.2-.6-2.8-1.2-19.6-7.5-19.9-7.5-1.6-.3-2.8-1.6-3.7-3.1-.6-1.2-.9-3.1-.6-5.9 0-.6.3-.9.6-1.2 2.8-1.9 4.7-3.7 5.3-4.1 3.1-3.1 5-5.9 5.6-8.7.3-1.2.6-2.2 1.9-3.4.6-.3 1.2-.6 1.6-.9.9-.6 1.6-.9 1.9-1.9 1.6-3.1 2.8-9 3.1-10.9-.3-1.2-1.9-2.2-3.4-2.2h-2.2c-.6 0-1.2.3-2.2-.3-.6-.6-.6-1.6-.6-1.9V41.9c0-9.4-10-17.1-22.4-17.8h-.6c-12.5.3-22.4 8.1-22.4 17.8v1.2c0 2.5-.3 9.7 0 11.5 0 .3 0 1.2-.6 1.9-.6.6-1.6.6-2.2.3h-2.5c-1.6 0-3.1.9-3.4 2.2 0 2.2 1.2 8.1 3.1 10.9.3.9.9 1.2 1.9 1.9.6.3 1.2.6 1.6.9 1.2.9 1.6 2.2 1.9 3.1.6 2.8 2.5 5.6 5.6 8.7.3.3 2.2 1.9 5 3.7.3.3.6.9.6 1.2-.3 4.4-.3 5.3-.3 5.6-.3 1.9-2.2 3.4-4.1 3.7l-16.2 5.9c-1.9.6-3.4 1.2-4.7 1.9-3.7 2.2-5.3 4.1-6.5 8.7-.9 3.7-1.2 14.3-1.2 18.7v1.7z"/><path class="st6" d="M150.6 64.9l-1.9-.3.3-3.7-1.9.9-.6-1.9 3.4-1.6h.9c.3.3.3.6.3.9l-.5 5.7zm-55.8-.7l-.6-5.3c0-.3 0-.6.3-.9.3-.3.6-.3.9 0l3.4 1.6-.6 1.9-2.2-.9.3 3.7h-1.5z"/><path class="st5" d="M97.9 74.5c-.3 0-.6-.3-.6-.6l.3-19.6c0-.3.3-.6.6-.6s.6.3.6.6l-.3 19.6c.1.3-.3.6-.6.6zm49 0c-.3 0-.6-.3-.6-.6l-.3-19.6c0-.3.3-.6.6-.6s.6.3.6.6l.3 19.6c0 .3-.3.6-.6.6zm-24.3 20.9c-5 0-13.1-5.9-13.4-6.2-.3-.3-.3-.6-.3-.9.3-.3.6-.3.9-.3 2.5 1.9 9.4 6.2 13.1 5.9 4.4-.6 11.2-5.3 11.2-5.3.3-.3.9-.3.9.3.3.3.3.9-.3.9-.3.3-7.5 5.3-12.1 5.6.3 0 .3 0 0 0z"/><path class="st4" d="M94.2 30.3c.9-2.2 3.7-2.5 3.7-2.5s-2.5-3.1-1.6-4.4c.9-1.6 9.4-11.2 30.5-9 21.2 2.2 23.7 15.9 23.7 15.9l-4.4 24.9s-8.4-24.6-42.4-19.9c0 0 1.6 3.1-5.6 15.6.1-.1-3.9-20.6-3.9-20.6z"/><path class="st1" d="M94.2 116.3c-.9-5-2.8-7.8-7.5-9-.3 0-.6-.3-.9-.3s-.9-.3-1.2-.6c-2.8-1.2-19.6-7.5-19.6-7.5-1.2-.3-2.2-1.2-2.8-2.5-.9-1.9-.6-6.5-.6-6.5s-6.9 2.5-11.2 3.1C46 93.3 37 88 37 88s-.3 6.9-.6 8.4c-.3 1.2-1.6 2.2-2.8 2.5l-16.2 5.9c-1.9.3-3.4 1.2-5 2.2-4.1 2.5-6.2 6.2-7.2 9.4 0 0-.9 7.5-.9 7.8 0 .9-.3 2.2-.3 3.4 17.5 11.8 31.5 15.3 55.8 14 10.9-.6 27.4-5.9 35.8-10.3-.5-9.4-1.4-15-1.4-15z"/><path d="M86.7 107.6c-.3-.3-.6-.3-.9-.3s-.9-.3-1.2-.6c-1.9-.6-8.7-3.4-14-5.3h-.3c-5.6 2.8-13.7 7.2-21.2 7.2s-15-4.1-21.2-7.2l-.6.3-9.7 3.4c-1.9.3-3.4 1.2-5 2.2-4.1 2.5-6.2 6.2-7.2 9.4 0 0-.9 7.5-.9 7.8 0 .9-.3 12.2-.3 13.4 17.5 11.8 31.5 15.3 55.8 14 10.6-.3 27.1-5.9 35.5-10.3-.3-9.4-1.2-24.9-1.2-24.9-1-5.1-2.9-7.9-7.6-9.1z" fill="#88cdd7"/><path class="st8" d="M25 62.1c-.3-.9-8.7-19.6-2.5-32.1 2.8-5.3 7.5-8.7 14.3-10.3 4.1-2.8 8.7-4.1 13.4-4.1 4.1 0 7.8.9 11.2 3.1 1.9.9 3.4 1.9 4.7 2.8 4.1 2.5 5.3 3.1 7.5 3.1h2.1c2.5 0 3.1 1.6 3.1 2.5.3 2.5-.6 4.7-1.2 6.5-.6 1.6-1.2 2.8-.9 4.1 4.1 13.7-2.2 24.9-2.5 25.6l-2.8 5v-5.6s0-10-2.2-16.8c-3.1 1.6-6.9 2.5-11.2 2.5-7.2 0-15.3-2.5-23.4-7.5-6.9 5.6-6.9 21.8-6.9 21.8v7.2L25 62.1z"/><path class="st5" d="M49.9 16.9c3.4 0 6.9.9 10.6 2.8 8.1 4.4 9.4 5.9 13.1 5.9h2.1c.9 0 1.6.3 1.6.9.6 4.1-3.1 7.5-2.2 10.6 4.1 13.4-2.5 24.3-2.5 24.3s0-12.2-3.1-19c-3.1 2.2-7.2 3.1-11.8 3.1-6.9 0-15-2.5-23.4-8.1-8.4 5.6-8.1 23.7-8.1 23.7S10.3 26.5 37.5 20.6c3.4-2.2 7.8-3.7 12.4-3.7m0-3.2c-5 0-9.7 1.6-14 4.4-7.2 1.6-12.2 5.3-15 11.2C14 42.7 22.8 62 23.1 63L29 76.1V61.4c0-4.1.9-15 5.3-19.9 7.8 4.7 15.9 7.2 23.1 7.2 3.7 0 7.2-.6 10.3-1.9 1.6 6.2 1.6 14.6 1.6 14.6V73l5.9-10c.3-.6 7.2-12.2 2.8-26.8-.3-.6.3-1.9.9-2.8.9-1.9 1.9-4.4 1.2-7.2-.3-1.9-1.6-3.7-4.7-3.7h-2.1c-1.9 0-2.8-.6-6.9-2.8-1.2-.6-2.8-1.6-4.7-2.8-3.4-2.2-7.4-3.2-11.8-3.2z"/><path d="M19.4 147.5c-.6 0-.9-.3-.9-.9v-9c0-.6.3-.9.9-.9.6 0 .9.3.9.9v9c0 .5-.6.9-.9.9zm59.2 1.5c-.6 0-.9-.3-.9-.9v-10.6c0-.6.3-.9.9-.9.6 0 .9.3.9.9v10.6c0 .6-.3.9-.9.9z" fill="#00a5a5"/><path class="st3" d="M76.7 56.4h-.9c-2.2 0-1.9.6-1.9-.6.3-2.5-.9-12.2-.9-12.5 0-10-10.6-18.4-23.7-18.7h-.6C35.6 25 25 33.4 25 43.4c0 .6-.3 10.3-.3 12.5 0 1.2-.6.6-2.8.6H21c-2.5.3-4.4 1.6-4.7 3.4.3.3 1.2 8.4 3.1 11.5.9 1.9 2.5 2.2 4.1 3.1.9.6.9 1.2 1.2 2.5.9 3.7 3.4 6.5 5.9 9.4 1.2 1.2 10.3 10.6 17.8 10.3 7.5-.3 16.5-9 17.8-10.3 2.8-2.5 5.3-5.6 5.9-9.4.3-.9.3-1.6 1.2-2.5 1.6-1.2 3.1-1.6 4.1-3.1 1.9-3.1 2.8-11.5 3.1-11.5.6-1.6-1.3-3.1-3.8-3.5z"/><path class="st4" d="M49.3 72.7c1.6 0 3.1-.6 4.1-1.9v-.3h-.3c-.9.9-2.2 1.6-3.4 1.6-1.2 0-2.8-.6-3.4-1.6h-.6v.3c.8.9 2.1 1.9 3.6 1.9zm-4.7-20.9l.9-1.9c-4.1-.9-9-.9-12.8.3l1.2 1.9c3.3-1 7.3-1.3 10.7-.3zm20.6 0l.9-1.9c-4.1-.9-8.7-.9-12.8.3l1.2 1.9c3.2-1 7.3-1.3 10.7-.3zm-26.5 2.5c-.9 0-1.9.6-2.5 1.6h.3c.9 0 1.6.6 1.6 1.6s-.6 1.6-1.6 1.6c-.3 0-.6 0-.6-.3.3 1.6 1.6 2.5 2.8 2.5 1.6 0 2.8-1.6 2.8-3.7s-1.2-3.3-2.8-3.3zm21.5 0c-.9 0-1.6.6-2.2 1.2h.6c.9 0 1.6.6 1.6 1.6s-.6 1.6-1.6 1.6c-.6 0-.9-.3-1.2-.6 0 1.9 1.2 3.4 2.8 3.4 1.6 0 2.8-1.6 2.8-3.7 0-2-1.2-3.5-2.8-3.5zm1.3 22.4v-.3h-.3c-2.5 2.2-6.9 3.1-11.5 3.1s-9-1.2-11.5-3.1h-.6v.3c2.8 2.5 7.5 3.7 11.8 3.7 4.6 0 8.9-1.2 12.1-3.7zm-8.8 11.9l.3-.3s0-.3-.3-.3h-5.9l-.3.3s0 .3.3.3h5.9z"/><path class="st5" d="M51.8 154c-20.3 0-33-4.1-48.6-14.6-.6-.3-.6-.9-.6-1.6v-2.2c0-5 .3-15.3 1.2-19.3 1.6-5.6 3.7-7.8 7.8-10.3 1.6-.9 3.4-1.6 5.3-2.2l15.9-5.9c.9-.3 1.9-.9 1.9-1.2 0-.6.3-2.2.3-4.4-2.2-1.6-4.1-3.1-4.7-3.4-3.4-3.4-5.6-6.5-6.5-10-.3-.9-.3-1.2-.6-1.6-.3-.3-.9-.6-1.2-.9-.9-.6-2.2-1.2-3.1-2.8-1.9-3.7-3.4-10.3-3.4-12.5v-.3c.6-2.5 3.1-4.7 6.2-4.7h2.1c0-2.8 0-8.1.3-10.6v-1.2c0-10.9 10.9-20 24.9-20.6h.9c14 .6 24.9 9.7 24.9 20.6 0 0 0 .9.3 1.6.3 3.7.9 8.1.9 10h1.2c3.1.3 5.6 2.2 6.2 4.7v.3c0 2.5-1.6 9-3.4 12.5-.9 1.6-2.2 2.5-3.1 2.8-.3.3-.9.6-1.2.9-.3.3-.3.6-.6 1.6-.9 3.4-2.8 6.5-6.5 10.3-.6.6-2.5 2.2-5 4.1 0 2.5.3 3.4.3 3.7.3.9.9 1.2 1.9 1.6.9.3 16.8 6.2 19.6 7.5.6.3.9.3 1.2.6.3 0 .3.3.6.3 5 1.6 7.5 4.7 8.7 10.3v.3s.9 15.6 1.2 25.2c0 .6-.3 1.2-.9 1.6-9 4.7-25.6 10-36.5 10.3-2.9-.8-5.4-.5-7.9-.5zM5.4 137.2c16.5 10.9 30.2 14.3 53.9 13.4 10-.3 25.2-5.3 34.3-9.7-.3-9-1.2-22.8-1.2-24-.9-4.4-2.5-6.5-6.5-7.8-.3 0-.6-.3-.9-.3-.3-.3-.9-.3-1.2-.6-2.5-.9-19-7.2-19-7.2-1.6-.3-2.8-1.6-3.7-3.1-.3-.3-.9-1.9-.6-5.9 0-.6.3-.9.6-1.2 2.5-1.9 4.7-3.7 5.3-4.1 3.1-3.1 5-5.9 5.6-8.7.3-1.2.6-2.2 1.9-3.1.6-.3 1.2-.6 1.6-.9.9-.6 1.6-.9 1.9-1.6 1.6-3.1 2.8-8.7 2.8-10.9-.3-1.2-1.6-2.2-3.1-2.2h-.9c-1.2 0-2.2 0-2.8-.9-.6-.6-.6-1.2-.3-1.9 0-1.9-.3-7.5-.6-10 0-1.2-.3-1.9-.3-1.9 0-9.4-9.7-16.8-22.1-17.5h-.6c-12.5.3-22.1 8.1-22.1 17.5v1.2c0 2.5-.3 9.4 0 11.2 0 .3 0 1.2-.6 1.9-.6.6-1.6.6-2.2.3h-2.2c-1.6 0-2.8.9-3.4 2.2 0 2.2 1.2 8.1 2.8 10.9.3.9.9 1.2 1.9 1.6.6.3 1.2.6 1.6.9 1.2.9 1.6 2.2 1.9 3.1.6 2.8 2.5 5.6 5.6 8.7.3.3 2.2 1.9 5 3.7.3.3.6.9.6 1.2 0 2.8-.3 4.7-.3 5.6-.3 1.9-2.2 3.4-4.1 3.7l-15.9 5.9c-1.9.6-3.4 1.2-4.7 1.9-3.7 2.2-5.3 3.7-6.5 8.4-.9 3.7-1.2 14-1.2 18.4-.3.8-.3 1.5-.3 1.8z"/><path class="st6" d="M77.4 67.7l-1.9-.3.3-3.4-1.9.9-.6-1.9 3.4-1.6h.9c.3.3.3.6.3.9l-.5 5.4zm-55.2-1l-.6-5.3c0-.3 0-.6.3-.9.3-.3.6-.3.9 0l3.4 1.6-.6 1.9-1.8-1 .3 3.4-1.9.3z"/><path class="st5" d="M25.3 77c-.3 0-.6-.3-.6-.6l.3-19.6c0-.3.3-.6.6-.6s.6.3.6.6l-.3 19.6c0 .3-.3.6-.6.6zm48.3 0c-.3 0-.6-.3-.6-.6l-.3-19.6c0-.3.3-.6.6-.6s.6.3.6.6l.3 19.6c0 .3-.3.6-.6.6zm-24 20.6c-5 0-13.1-5.9-13.4-6.2-.3-.3-.3-.6-.3-.9.3-.3.6-.3.9-.3 2.5 1.9 9.4 6.2 12.8 5.9 4.4-.6 11.2-5.3 11.2-5.3.3-.3.9-.3.9.3.3.3.3.9-.3.9-.2.3-7.1 5-11.8 5.6.3 0 0 0 0 0z"/><path class="st8" d="M77.4 26.8c-.3-1.2-1.6-.9-2.8-.9-4.4.3-5.3-1.2-13.7-5.9-8.7-4.7-17.5-2.8-23.4 1.2-26.8 5.9-11.2 40.5-11.2 40.5s0-18.1 8.1-23.7c14 9 27.1 10 35.2 4.7 3.1 6.9 3.1 19 3.1 19s6.5-10.9 2.5-24.3c-1-3.4 2.8-6.5 2.2-10.6z"/><path class="st5" d="M74.2 61.4h-1.6s0-11.2-2.8-17.8c-9 5.3-22.4 3.4-35.5-5-7.5 5.6-7.5 22.8-7.5 22.8h-1.6c0-.6 0-18.7 8.7-24.3.3-.3.6-.3.9 0 13.1 8.4 26.8 10.3 35.2 4.7h.6c.3 0 .3.3.6.3 3 6.9 3 19 3 19.3z"/></svg>