<svg xmlns="http://www.w3.org/2000/svg" viewBox="0 0 172 172"><path d="M0 172V0h172v172H0z" fill="none"/><linearGradient id="a" gradientUnits="userSpaceOnUse" x1="86.742" y1="4.115" x2="86.742" y2="74.063" gradientTransform="matrix(1 0 0 -1 0 171.89)"><stop offset="0" stop-color="#3162af"/><stop offset=".299" stop-color="#3573c1"/><stop offset=".706" stop-color="#3984d3"/><stop offset="1" stop-color="#3b8ad9"/></linearGradient><path d="M169.4 56.3c.5 1.5.6 3 .3 4.5L119 67.6H54.5L3.7 60.9c-.2-1.5-.1-3.1.3-4.5-1 3.1-.4 6.7 1.9 9.4L76 147.7c5.6 6.5 15.7 6.5 21.3 0l70.1-81.9c2.4-2.8 3-6.3 2-9.5z" fill="url(#a)"/><linearGradient id="b" gradientUnits="userSpaceOnUse" x1="86.743" y1="19.41" x2="86.743" y2="105.446" gradientTransform="matrix(1 0 0 -1 0 171.89)"><stop offset="0" stop-color="#3162af"/><stop offset=".299" stop-color="#3573c1"/><stop offset=".706" stop-color="#3984d3"/><stop offset="1" stop-color="#3b8ad9"/></linearGradient><path d="M167.5 65.7l-70.1 81.9c-5.6 6.5-15.7 6.5-21.3 0L5.9 65.7c-3.5-4-3.1-10.1.8-13.7l37.8-34.7c2.8-2.6 6.5-4 10.3-4h63.8c3.8 0 7.5 1.4 10.3 4L166.7 52c3.9 3.6 4.3 9.7.8 13.7z" fill="url(#b)"/><linearGradient id="c" gradientUnits="userSpaceOnUse" x1="86.743" y1="158.571" x2="86.743" y2="104.256" gradientTransform="matrix(1 0 0 -1 0 171.89)"><stop offset="0" stop-color="#64d6f2"/><stop offset="0" stop-color="#64d6f2"/><stop offset=".36" stop-color="#5dd3f1"/><stop offset=".867" stop-color="#4bccee"/><stop offset="1" stop-color="#45c9ed"/></linearGradient><path d="M128.9 17.3c-2.8-2.6-6.5-4-10.3-4H54.8c-3.8 0-7.5 1.4-10.3 4L6.8 52c-2.5 2.3-3.6 5.7-3 8.9l50.8 6.8H119l50.8-6.8c.5-3.2-.5-6.5-3-8.9l-37.9-34.7z" fill="url(#c)"/><linearGradient id="d" gradientUnits="userSpaceOnUse" x1="86.743" y1="19.388" x2="86.743" y2="133.474" gradientTransform="matrix(1 0 0 -1 0 171.89)"><stop offset="0" stop-color="#2d91de"/><stop offset="1" stop-color="#2fa7f0"/></linearGradient><path d="M119 67.6l-32.2 84.9-32.3-84.9H119z" fill="url(#d)"/><linearGradient id="e" gradientUnits="userSpaceOnUse" x1="86.743" y1="86.464" x2="86.743" y2="140.78" gradientTransform="matrix(1 0 0 -1 0 171.89)"><stop offset="0" stop-color="#2d91de"/><stop offset=".557" stop-color="#2ea1eb"/><stop offset="1" stop-color="#2fa7f0"/></linearGradient><path d="M118.7 13.3H54.8c-2.4 0-4.8.6-6.9 1.7l6.6 52.6H119l6.6-52.6c-2.2-1-4.5-1.7-6.9-1.7z" fill="url(#e)"/><linearGradient id="f" gradientUnits="userSpaceOnUse" x1="86.743" y1="104.256" x2="86.743" y2="158.571" gradientTransform="matrix(1 0 0 -1 0 171.89)"><stop offset="0" stop-color="#479cde"/><stop offset=".515" stop-color="#48a9e8"/><stop offset="1" stop-color="#49afed"/></linearGradient><path d="M118.7 13.3H54.8c-2.4 0-4.8.6-6.9 1.7l6.6 52.6H119l6.6-52.6c-2.2-1-4.5-1.7-6.9-1.7z" fill="url(#f)"/><linearGradient id="g" gradientUnits="userSpaceOnUse" x1="86.743" y1="158.571" x2="86.743" y2="104.256" gradientTransform="matrix(1 0 0 -1 0 171.89)"><stop offset="0" stop-color="#64d6f2"/><stop offset="0" stop-color="#64d6f2"/><stop offset=".36" stop-color="#5dd3f1"/><stop offset=".867" stop-color="#4bccee"/><stop offset="1" stop-color="#45c9ed"/></linearGradient><path d="M119 67.6H54.5l32.2-54.3L119 67.6z" fill="url(#g)"/></svg>