<svg version="1.1" id="Слой_1" xmlns="http://www.w3.org/2000/svg" x="0" y="0" viewBox="0 0 226 226" xml:space="preserve"><style>.st2{fill:#472b29}.st5{fill:#84a7d7}</style><path d="M-104.5 329.3v-432.9h432.9v432.9h-432.9z" fill="none"/><path d="M214.5 126.5c1.3-10.2 1.1-20.3-.6-30.1-11.7.6-20.6-4.1-25.6-13.6-.4-.8-.8-1.5-1.1-2.3-4.7-10.7-2.5-20.7 6.5-29.9-6.3-8-13.6-15-21.8-20.7-8.6 9.4-18.5 12-29.5 7.8-7-2.6-11.9-7.1-14.6-13.2-1.6-3.7-2.4-8-2.3-12.4-10.1-1.2-20.2-.9-30.2.9.4 12.1-4.4 20.7-14.4 25.6 2.7 8.1.1 16.6-1.6 24.7-3.6 18.1-.9 37 2.4 55 4.2 22.7 10.4 49.7 2.2 72.1 6.4 2.6 11 6.9 13.6 12.8 1.6 3.5 2.4 7.7 2.4 11.9 10 1.3 20.2 1.1 30.1-.6-.2-12.3 4.9-20.9 15.2-25.7 10.9-5 21.1-3.1 30.4 5.8 5.7-3.7 17.6-16.2 20.8-21.6-3.5-3.2-6-6.7-7.6-10.2-2.6-6-2.6-12.5 0-19.4 4.2-11.1 12.8-16.8 25.7-16.9zm-92.2 8.4c-11.8 5.2-25.6-.2-30.7-12-5.2-11.8.2-25.6 12-30.7 11.8-5.2 25.6.2 30.7 12 5.2 11.7-.2 25.5-12 30.7z" fill="#a3a3cd"/><path class="st2" d="M124.1 138.9c14-6.1 20.4-22.5 14.2-36.6-6.1-14-22.5-20.4-36.6-14.2-14 6.1-20.4 22.5-14.2 36.6 6.2 14 22.6 20.4 36.6 14.2zm-18.7-42.7c9.6-4.2 20.7.1 24.9 9.7 4.2 9.6-.1 20.7-9.7 24.9-9.6 4.2-20.7-.1-24.9-9.7-4.2-9.5.1-20.7 9.7-24.9z"/><path class="st2" d="M218 94.4c0-.2-.1-.5-.2-.7-.5-1.2-1.7-1.9-3-1.7-10.6.8-18.2-2.9-22.6-11.2-.3-.7-.7-1.3-1-2-4.1-9.3-2-17.7 6.4-25.8.9-.9 1.2-2.3.7-3.4-.1-.2-.2-.4-.4-.6-7-9.2-15.3-17-24.6-23.3-1.3-.9-3-.7-4 .5-7.5 8.7-15.9 11.1-25.5 7.5-5.9-2.2-9.9-5.8-12.1-10.9-1.5-3.3-2.1-7.2-2.1-11.8 0-.5-.1-.9-.3-1.3-.3-1-1.2-1.7-2.3-1.9-11.3-1.5-22.7-1.2-33.8 1-1.5.2-2.6 1.6-2.5 3.2.7 11-3.2 18.4-11.9 22.6.7.9 1.2 1.9 1.7 2.9.7 1.8 1.1 3.6 1.3 5.5.1 0 .1-.1.2-.1 7.8-3.6 16.7-11.1 17.6-26.2 7.1-1 14.3-1.2 21.5-.6.4 3.7 1.2 7.1 2.6 10.2 3.2 7.3 9 12.5 17.1 15.6 8.3 3.2 20.1 4.4 31.6-6.1 5.7 4.3 10.9 9.2 15.6 14.8-10 12.1-8.2 23.8-4.7 31.8.4.8.8 1.7 1.3 2.6 5.2 9.8 14.1 15.3 25.7 15.9 1 7.1 1.1 14.3.5 21.5-15.7 1.5-22.7 11.2-25.9 19.5-3.1 8-3 15.6.1 22.7 1.4 3.1 3.3 6.1 5.9 8.9-3.5 4.5-10.2 11.5-14.9 15.4-12.4-9.9-24.3-7.9-32.5-4.1-7.6 3.6-16.5 10.9-17.6 25.9-7.1.9-14.4 1.1-21.5.4-.4-3.6-1.3-6.8-2.6-9.7-3.1-7.1-8.6-12.2-16.3-15.3-.8 2.8-1.8 5.6-3.1 8.3 5.4 2.2 9.1 5.6 11.3 10.5 1.4 3.2 2.1 7 2.2 11.4 0 .4.1.8.3 1.1.4.9 1.3 1.7 2.4 1.8 11.3 1.6 22.6 1.4 33.7-.7 1.5-.3 2.6-1.6 2.5-3.1-.5-11.1 3.6-18.6 12.6-22.8 9.4-4.4 18-2.5 26.2 5.7.9 1 2.5 1.1 3.6.5 6.4-3.6 21.2-19.1 24-25.1.4-.8.3-1.7 0-2.5-.2-.4-.4-.8-.8-1.1-3.4-3-5.8-6.1-7.3-9.4-2.2-4.9-2.1-10.2.1-16 3.7-9.7 11.2-14.2 22.8-14.1 1.6 0 2.9-1.1 3.1-2.6 1.2-11.1 1-22.5-1.1-33.6z"/><path d="M167.7 89.5C154.4 59.4 119.1 45.6 89 58.9c-3.5 1.6-6.9 3.4-9.9 5.6-2 10.7-1.8 21.7-.6 32.6 3.8-8 10.4-14.8 19.1-18.6 19.4-8.5 42.1.3 50.6 19.7s-.3 42.1-19.7 50.6c-15 6.6-31.9 2.7-42.8-8.3 1.4 9 2.4 18.2 2.2 27.2 15 7 32.9 7.7 49.2.6 30-13.3 43.8-48.6 30.6-78.8z" fill="#7777ab"/><path class="st2" d="M89.6 60.3c29.4-12.9 63.7.5 76.6 29.9 1.5 3.4 2.7 7 3.5 10.6.2.9 1 1.4 1.9 1.2.9-.2 1.4-1 1.2-1.9-.9-3.8-2.1-7.6-3.7-11.2-13.6-31-49.8-45.1-80.8-31.5-.8.4-1.2 1.3-.8 2.1.4.8 1.3 1.2 2.1.8zm81.2 47.1c.2 2.1.3 4.3.3 6.5 0 .2.1.5.1.6.2.5.8.9 1.4.9.9 0 1.6-.7 1.6-1.6 0-2.3-.1-4.6-.3-6.8-.1-.9-.9-1.5-1.7-1.4-.9.2-1.5.9-1.4 1.8zm-62 64.1c-5.2-.4-10.4-1.5-15.4-3.3-.8-.3-1.7.1-2 1-.1.4-.1.8 0 1.2.2.4.5.7.9.9 5.2 1.9 10.7 3 16.2 3.4.9.1 1.6-.6 1.7-1.5.1-.8-.5-1.6-1.4-1.7zm63.7-52.7c-.9-.1-1.7.5-1.7 1.4-2.4 20.5-15.6 38.3-34.4 46.6-5.3 2.3-10.9 3.9-16.7 4.5-.9.1-1.5.9-1.4 1.8 0 .2.1.3.1.5.3.6.9 1 1.6.9 6-.7 12-2.3 17.6-4.8 19.8-8.7 33.7-27.5 36.2-49.1.2-.9-.4-1.7-1.3-1.8z"/><path class="st2" d="M149.6 95.6c-8.9-20.2-32.5-29.4-52.7-20.5-8.3 3.6-14.7 9.8-18.8 17.2.2 2 .4 4 .6 5.9 3.4-8.7 10.2-16.1 19.4-20.2 18.6-8.2 40.4.3 48.5 18.9 8.2 18.6-.3 40.4-18.9 48.5-15.1 6.6-32.3 2.3-42.6-9.6.3 1.8.6 3.5.8 5.3 11.3 10.3 28.1 13.7 43 7.1 20.3-8.8 29.5-32.5 20.7-52.6z"/><path class="st2" d="M145.7 96.9c0-.1-.1-.2-.1-.3-.2-.9.4-1.7 1.2-1.9l21.2-4.1c.9-.2 1.7.4 1.9 1.2.2.9-.4 1.7-1.2 1.9l-21.2 4.1c-.8.1-1.5-.3-1.8-.9zm-14.5-18.6c-.3-.7-.1-1.6.6-2l18.5-11.2c.7-.5 1.7-.2 2.2.5.4.8.2 1.7-.5 2.2L133.4 79c-.7.5-1.7.2-2.2-.5v-.2zm8.6 9.4c-.3-.8 0-1.7.8-2.1l19.9-8.6c.8-.3 1.7.1 2.1.8.3.8 0 1.7-.8 2.1l-19.9 8.6c-.8.4-1.7 0-2.1-.8zm5.4 45.2c-.3-.7 0-1.6.7-2 .8-.4 1.7-.2 2.2.6l10.7 18.8c.4.8.2 1.7-.6 2.2-.8.4-1.7.2-2.2-.6L145.3 133l-.1-.1zm-64-38c.6-.6.7-1.6.1-2.2l-3.6-4c.1 1.7.2 3.4.4 5.1l.9 1c.6.7 1.6.7 2.2.1z"/><path d="M9.1 116.3c0-8.3 3.6-15.8 9.4-21-3-4.5-4.8-9.9-4.8-15.8 0-13.8 9.9-25.2 23-27.6 0-15.2 12.2-27.6 27.4-28h.8c1.7 0 3.3.2 4.9.5C72.2 15.7 80.1 9.3 89.5 9h.6c9.2 0 16.9 5.8 19.9 13.9 1.6 2.7 2.5 5.8 2.5 9.2v163.3c0 7.5-4.1 13.9-10.1 17.4-3.5 2.5-7.7 4-12.3 4-7.3 0-13.7-3.7-17.5-9.3-.5 0-.9.1-1.4.1-19 0-34.4-15.4-34.4-34.4 0-2.4.3-4.8.8-7.1-.8.1-1.6.2-2.5.2-9.2 0-16.6-7.5-16.6-16.6 0-3.7 1.3-7.1 3.3-9.9-7.7-5.1-12.7-13.7-12.7-23.5z" fill="#e0757d"/><path class="st2" d="M90.1 219.8c-7.4 0-14.4-3.4-19-9.2-20.6 0-37.4-16.8-37.4-37.5 0-1.3.1-2.6.2-3.9-10.3-.6-18.6-9.2-18.6-19.6 0-3.2.8-6.3 2.3-9.1-7.2-5.9-11.5-14.7-11.5-24.2 0-8 3.1-15.7 8.6-21.5-2.6-4.7-4-9.9-4-15.3 0-14.2 9.6-26.4 23.1-30.1C35 33.7 47.8 21.3 64 20.9h.8c.9 0 1.9.1 2.9.1 3.6-8.9 12-14.8 21.7-15.1l.6.1c10 0 19.1 6.3 22.6 15.7 1.9 3.3 2.8 6.8 2.8 10.4v163.3c0 8.2-4.4 15.9-11.6 20-3.9 2.8-8.7 4.4-13.7 4.4zm-16-15.4l.9 1.4c3.4 5 9 7.9 15 7.9 3.8 0 7.4-1.2 10.5-3.4 5.6-3.3 8.8-8.8 8.8-15V32.1c0-2.6-.7-5.2-2.1-7.7l-.2-.5c-2.6-7.1-9.5-12-17-12h-.5c-7.9.2-14.7 5.5-16.9 13.2l-.8 2.6-2.7-.5c-1.6-.3-3-.4-4.4-.4H64c-13.6.4-24.4 11.4-24.4 25v2.5l-2.4.7c-11.9 2.2-20.5 12.6-20.5 24.6 0 5 1.5 9.9 4.3 14.1l1.5 2.2-2 1.8c-5.3 4.8-8.4 11.6-8.4 18.7 0 8.4 4.2 16.2 11.2 20.9L26 139l-1.9 2.6c-1.8 2.4-2.7 5.2-2.7 8.1 0 7.5 6.1 13.6 13.6 13.6.6 0 1.3-.1 1.9-.2l4.3-.6-.7 4.2c-.5 2.2-.7 4.4-.7 6.5 0 17.3 14.1 31.4 31.4 31.4h.6l2.3-.2z"/><path class="st2" d="M36.7 179.1c-1.6 0-2.9-1.2-3-2.8-.1-1.2-2.2-28.9 22.2-42.8 1.5-.8 3.3-.3 4.1 1.1.8 1.5.3 3.3-1.1 4.1-21 12-19.2 36.8-19.1 37 .1 1.7-1.1 3.1-2.8 3.3-.2.1-.2.1-.3.1zm-26.8-67c-.3 0-.6 0-.9-.1-1.6-.5-2.5-2.2-2-3.8.3-.9 6.6-20.9 27.7-23.7 1.7-.3 3.2.9 3.4 2.6.2 1.7-.9 3.2-2.6 3.4-17.2 2.4-22.7 19.4-22.7 19.5-.4 1.2-1.6 2.1-2.9 2.1zm8.5 40c-1.7 0-3-1.4-3-3 0-.5.2-11.7 10.5-16.4 1.5-.7 3.3 0 4 1.5.7 1.5 0 3.3-1.5 4-6.8 3.1-7 10.6-7 10.9 0 1.7-1.3 3-3 3zM82.6 33.6c-.6 0-1.3-.2-1.8-.6-13.8-10.5-29.7-2.3-29.9-2.3-1.5.8-3.3.2-4.1-1.3-.8-1.5-.2-3.3 1.3-4.1.8-.4 19.5-10.1 36.4 2.8 1.3 1 1.6 2.9.6 4.2-.7.9-1.6 1.3-2.5 1.3z"/><path class="st2" d="M68.9 152.9c-.4 0-.9-.1-1.2-.4-.2-.1-19.1-13.8-7.6-38.9.5-1.1 1.8-1.6 2.9-1.1 1.1.5 1.6 1.8 1.1 2.9-10 21.8 6 33.4 6.1 33.5 1 .7 1.2 2 .5 3-.5.7-1.1 1-1.8 1zm2.1 38.2c-.9 0-1.8 0-2.8-.1-1.2-.1-2.1-1.2-1.9-2.4.1-1.2 1.2-2 2.4-1.9 7.6.7 14-2.2 17.4-7.9 3.1-5.2 3.2-11.6.3-16-.7-1-.4-2.3.6-3 1-.6 2.3-.4 3 .6 3.8 5.8 3.8 14.1-.2 20.7-3.9 6.4-10.6 10-18.8 10z"/><path class="st5" d="M87.3 87.4c-2.3 2.6-4.9 4.7-7.6 6.4"/><path class="st2" d="M79.7 96c-.7 0-1.4-.4-1.8-1-.6-1-.3-2.3.7-3 2.6-1.6 5-3.7 7.1-6 .8-.9 2.2-1 3.1-.2.9.8 1 2.2.2 3.1-2.4 2.7-5.1 5-8.1 6.8-.4.2-.8.3-1.2.3zm13.4-16.1c-.2 0-.5 0-.7-.1-1.1-.4-1.7-1.6-1.3-2.8 2.4-6.5 4-14.7-1.5-26-.5-1.1-.1-2.4 1-2.9s2.4-.1 2.9 1c6.2 12.8 4.3 22 1.7 29.4-.4.9-1.2 1.4-2.1 1.4zm18.6 78.5c-1 0-2-.8-2.1-1.8-1.7-11.4-6.9-20.8-14.4-26.3-1-.7-1.2-2.1-.5-3 .7-1 2.1-1.2 3-.5 8.5 6.2 14.2 16.5 16.2 29.1.2 1.2-.6 2.3-1.8 2.5h-.4z"/><path class="st5" d="M78.6 122.2c3 .2 5.9.9 8.6 1.8"/><path class="st2" d="M87.3 126.2c-.2 0-.5 0-.7-.1-2.5-.9-5.3-1.5-8.1-1.7-1.2-.1-2.1-1.1-2-2.3.1-1.2 1.3-2.1 2.3-2 3.2.2 6.3.9 9.2 1.9 1.1.4 1.7 1.6 1.3 2.8-.3.9-1.2 1.4-2 1.4zM60.9 79.6c-.8 0-1.6-.5-1.9-1.2-5.8-11.9-1.8-25.1 10.7-35.2.9-.8 2.3-.6 3 .3.8.9.6 2.3-.3 3-11 8.9-14.5 19.8-9.5 30 .5 1.1.1 2.4-1 2.9-.3.2-.7.2-1 .2z"/><path class="st5" d="M34.1 115.1c-2.4.8-5 1.3-7.8 1.6"/><path class="st2" d="M26.2 118.9c-1.1 0-2-.8-2.2-2-.1-1.2.8-2.3 2-2.4 2.6-.2 5.1-.7 7.4-1.5 1.1-.4 2.4.2 2.7 1.4.4 1.1-.2 2.4-1.4 2.7-2.6.8-5.4 1.4-8.3 1.7 0 .1-.1.1-.2.1z"/><path class="st5" d="M50.1 97.4c-.8 5.9-3.8 10.6-8.5 13.7"/><path class="st2" d="M41.6 113.3c-.7 0-1.4-.3-1.8-.9-.7-1-.4-2.3.6-3 4.3-2.9 6.8-7.1 7.5-12.2.2-1.2 1.3-2.1 2.4-1.9 1.2.2 2 1.2 1.9 2.4-.9 6.3-4.1 11.6-9.4 15.2-.3.3-.7.4-1.2.4z"/></svg>