<svg version="1.1" id="Слой_1" xmlns="http://www.w3.org/2000/svg" x="0" y="0" viewBox="0 0 172 172" xml:space="preserve"><style>.st5{fill:#f7941e}</style><path d="M0 172V0h172v172H0z" fill="none"/><path d="M165.3 86.6c-37.7 56.5-120.8 56.5-158.5 0 37.7-56.5 120.7-56.5 158.5 0z" fill="#f7f7fb"/><path d="M113 53.3c7.7 7.3 12.6 17.5 12.6 29 0 21.9-17.8 39.7-39.7 39.7-21.9 0-39.7-17.8-39.7-39.7 0-11.7 5.2-22.2 13.2-29.5 18.7-6.3 36.5-6.6 53.6.5" fill="#c7d7e2"/><path d="M86 95.6c-7.9 0-14.3-6.4-14.3-14.3S78.1 67.1 86 67.1s14.3 6.4 14.3 14.3S93.9 95.6 86 95.6" fill="#656c73"/><path d="M86 133.3c-33.4 0-64.3-16.6-82.8-44.2-.9-1.5-.9-3.3 0-4.9C21.7 56.4 52.6 39.8 86 39.8s64.3 16.6 82.8 44.4c.9 1.5.9 3.3 0 4.9-18.5 27.6-49.4 44.2-82.8 44.2zM12 86.6c17 23.9 44.5 38.1 74 38.1s57-14.1 74-38.1c-17-23.9-44.5-38.1-74-38.1S29 62.8 12 86.6z" fill="#454b54"/><path class="st5" d="M44.5 8H.8C.4 8 0 7.6 0 7.2V.8C0 .4.4 0 .8 0h43.7c.5 0 .8.4.8.8v6.4c.1.4-.3.8-.8.8z"/><path class="st5" d="M0 44.5V.8C0 .4.4 0 .8 0h6.4c.4 0 .8.4.8.8v43.7c0 .5-.4.8-.8.8H.8c-.4.1-.8-.3-.8-.8zm8 83.1v43.7c0 .5-.4.8-.8.8H.8c-.5 0-.8-.4-.8-.8v-43.7c0-.5.4-.8.8-.8h6.4c.4 0 .8.3.8.8z"/><path class="st5" d="M44.5 172.1H.8c-.5 0-.8-.4-.8-.8v-6.4c0-.5.4-.8.8-.8h43.7c.5 0 .8.4.8.8v6.4c.1.4-.3.8-.8.8zm83-8h43.7c.5 0 .8.4.8.8v6.4c0 .5-.4.8-.8.8h-43.7c-.5 0-.8-.4-.8-.8v-6.4c-.1-.4.3-.8.8-.8z"/><path class="st5" d="M172 127.6v43.7c0 .5-.4.8-.8.8h-6.4c-.5 0-.8-.4-.8-.8v-43.7c0-.5.4-.8.8-.8h6.4c.4 0 .8.3.8.8zm-8-83.1V.8c0-.5.4-.8.8-.8h6.4c.5 0 .8.4.8.8v43.7c0 .5-.4.8-.8.8h-6.4c-.4.1-.8-.3-.8-.8z"/><path class="st5" d="M127.5 0h43.7c.5 0 .8.4.8.8v6.4c0 .5-.4.8-.8.8h-43.7c-.5 0-.8-.4-.8-.8V.8c-.1-.4.3-.8.8-.8zM82.7 21.9V.9c0-.5.3-.9.8-.9h5c.5 0 .8.4.8.8v21c0 .5-.4.8-.8.8h-5c-.5.1-.8-.3-.8-.7zm.5 149.4v-21c0-.5.4-.8.8-.8h5c.5 0 .8.4.8.8v21c0 .5-.4.8-.8.8h-5c-.5 0-.8-.4-.8-.8z"/></svg>