<svg width="70" height="70" viewBox="0 0 70 70" fill="none" xmlns="http://www.w3.org/2000/svg">
<path d="M39.3457 42.4517C44.6193 42.5628 49.9145 42.91 55.1877 42.862C58.4935 42.831 61.81 42.713 65.0678 42.153C65.682 42.0468 66.3205 41.9141 66.8093 41.5275C67.6855 40.8332 67.8125 39.5732 67.8666 38.456C68.2134 31.0991 68.3725 26.648 68.3432 19.2821C68.342 18.9333 68.3391 18.5781 68.228 18.2484C67.9203 17.3335 66.894 16.8818 65.9473 16.695C64.8228 16.472 63.6682 16.4691 62.5206 16.4675C52.6795 16.4545 42.8355 16.441 33.0005 16.8028C31.465 16.8598 29.9295 16.9253 28.3935 16.9896C25.174 17.1268 21.6198 17.5016 18.4116 17.1952C15.4175 16.9095 9.35639 16.6893 6.34965 16.7446C4.8357 16.7723 3.03319 17.0906 2.42965 18.4783C2.2518 18.887 2.20785 19.3403 2.16715 19.7835C1.59819 25.9232 2.59163 29.146 2.02267 35.2857C1.95267 36.0443 1.88267 36.8098 1.98767 37.5635C2.1818 38.9505 2.99535 40.2398 4.16663 41.0098C5.54302 41.9153 7.26372 42.0773 8.90912 42.1908C16.7394 42.7364 24.5952 42.8149 32.4348 42.4257C34.392 42.3296 36.5384 42.3923 39.3457 42.4521V42.4517Z" fill="#FDB309"/>
<path d="M2.04749 21.512C2.04749 21.512 0.728889 16.5815 7.17052 16.7357C13.6121 16.8904 23.0316 17.5831 28.9857 16.9636C34.9402 16.3434 63.3166 16.4618 63.3166 16.4618C63.3166 16.4618 68.3741 15.1302 68.3465 20.5072C68.3184 25.8842 68.1902 29.12 68.1902 29.12C68.1902 29.12 69.7668 31.9843 63.617 31.8411C57.4671 31.6986 34.453 31.4577 34.453 31.4577C34.453 31.4577 13.8763 32.2582 12.333 32.2029C10.7906 32.1475 2.21395 32.97 2.20052 28.4595C2.18749 23.9486 2.04749 21.512 2.04749 21.512Z" fill="#FFC746"/>
<path d="M64.8184 42.1473C64.2409 40.9956 64.7777 40.7941 63.7875 39.97C63.3585 39.6127 62.7668 39.5455 62.2109 39.5004C55.7082 38.9754 49.1734 39.5659 42.6503 39.5834C32.423 39.6098 22.2103 38.2257 11.992 38.649C10.7059 38.7027 9.35232 38.8048 8.28035 39.5178C7.20715 40.2297 6.28535 40.7766 6.9707 41.8661L18.7148 42.63C18.7148 42.63 26.9178 42.6109 33.2382 42.1473C39.5585 41.6834 46.0458 42.3996 50.6173 42.63C55.1877 42.862 62.8279 42.7684 64.8184 42.1473Z" fill="#FFE9B0"/>
<path d="M40.5634 27.9633C39.2057 27.9633 37.8435 27.9198 36.5209 27.8775C34.9215 27.825 33.2675 27.7741 31.6502 27.7985C31.233 27.7619 30.9168 27.4823 30.9095 27.081C30.9065 26.8877 30.9804 26.7011 31.115 26.5622C31.2495 26.4233 31.4337 26.3435 31.627 26.3403C33.2805 26.3171 34.9503 26.3696 36.5677 26.4193C38.1659 26.4718 39.8194 26.5243 41.4372 26.4978C41.8165 26.4791 42.1705 26.8128 42.1779 27.2153C42.1808 27.4086 42.1069 27.5952 41.9724 27.7341C41.8378 27.873 41.6537 27.9528 41.4604 27.956C41.1616 27.9605 40.8625 27.9633 40.5634 27.9633Z" fill="#010427"/>
<path d="M69.0725 19.2793C69.0709 18.9159 69.0697 18.4641 68.9179 18.0148C68.5752 16.997 67.5708 16.2734 66.0886 15.9791C64.8929 15.7415 63.6882 15.7398 62.5202 15.7382C52.8398 15.7219 42.8225 15.7122 32.9729 16.0719C31.4357 16.1289 29.8986 16.1948 28.3618 16.2604C27.558 16.2941 26.7327 16.345 25.8984 16.393C23.4093 16.5404 20.8368 16.6934 18.48 16.4691C15.5327 16.1875 9.39302 15.9527 6.335 16.0141C3.90535 16.0589 2.36698 16.7915 1.76058 18.187C1.5343 18.7059 1.48465 19.2427 1.43907 19.7152C1.15052 22.8347 1.26 25.2395 1.365 27.5658C1.46837 29.8432 1.575 32.1972 1.295 35.2169C1.22175 36.0077 1.14605 36.8257 1.26448 37.6645C1.48587 39.257 2.4207 40.7343 3.76413 41.6195C5.24552 42.5934 7.0175 42.7904 8.85663 42.9202C16.716 43.4658 24.6008 43.5442 32.4694 43.155C34.182 43.0691 36.0455 43.1082 38.408 43.1607L39.3298 43.1811C41.2882 43.2218 43.251 43.2966 45.2143 43.3707C48.16 43.483 51.1961 43.597 54.202 43.597C54.5329 43.597 54.8641 43.5954 55.1934 43.5925C58.3784 43.5632 61.7925 43.457 65.192 42.8722C65.9005 42.7497 66.6445 42.5893 67.2611 42.1005C68.3754 41.2198 68.5345 39.7747 68.5943 38.4898C68.9545 30.8525 69.1002 26.4962 69.0725 19.2793ZM2.8932 19.8491C2.9282 19.469 2.96483 19.075 3.09913 18.769C3.5468 17.7405 5.12018 17.4955 6.36308 17.4723C9.39302 17.4243 15.435 17.6433 18.3416 17.9216C20.8075 18.1548 23.4398 18.0002 25.9847 17.85C26.8116 17.8004 27.6268 17.7523 28.4228 17.719C29.9572 17.653 31.4915 17.5875 33.0258 17.5305C42.8473 17.1704 52.8484 17.1805 62.5173 17.1968C63.6634 17.198 64.7472 17.1997 65.8016 17.4097C66.2432 17.4984 67.2965 17.7772 67.5341 18.48C67.6098 18.7047 67.6115 18.9993 67.6127 19.285C67.629 23.2152 67.5895 26.3013 67.4947 29.5298C67.4828 29.575 67.4609 29.6145 67.4597 29.6641C67.445 30.1932 66.8545 30.9258 66.2884 31.1166C65.6934 31.3148 64.9983 31.2448 64.2584 31.1691L63.9886 31.1415C62.7668 31.0259 61.5329 31.0129 60.3416 30.9998L35.6227 30.7402C32.8475 30.7097 29.9747 30.6791 27.1482 30.787C25.3034 30.857 23.4529 30.984 21.6011 31.1105C16.2005 31.4797 10.6152 31.8647 5.31715 30.7141L5.0925 30.6673C3.7393 30.3906 3.00552 30.0797 2.905 29.7484C2.88302 28.9816 2.85535 28.2304 2.82198 27.4982C2.72105 25.2232 2.6132 22.8697 2.8932 19.8495V19.8491ZM55.1816 42.1343C51.892 42.1648 48.5247 42.0366 45.2709 41.9141C43.2995 41.8397 41.3293 41.7652 39.3616 41.7229L38.4418 41.7025C37.0679 41.6732 35.8591 41.6472 34.7465 41.6472C33.9223 41.6472 33.1495 41.6618 32.3998 41.6997C24.6197 42.0818 16.7312 42.0045 8.96163 41.4648C8.45413 41.4298 7.97268 41.3834 7.50303 41.3248C7.39396 41.0855 7.51768 40.8991 8.55302 40.2138L8.68448 40.1259C9.58715 39.5268 10.78 39.4291 12.0241 39.3779C17.7247 39.1402 23.5375 39.4772 29.1607 39.8036C33.578 40.0604 38.1264 40.2761 42.6548 40.3127C44.8802 40.307 47.1393 40.2325 49.324 40.1625C53.5398 40.0241 57.9018 39.8841 62.1527 40.2268C62.6236 40.2647 63.0672 40.3184 63.3223 40.53C63.7073 40.8523 63.7204 40.9325 63.7729 41.2386C63.7891 41.335 63.8197 41.4632 63.8473 41.5873C60.909 42.0045 57.9584 42.1083 55.182 42.1343H55.1816ZM67.1385 38.4211C67.0938 39.3836 66.9916 40.4559 66.3572 40.9557C66.0845 41.1714 65.6979 41.2752 65.2868 41.3598C65.2542 41.2409 65.2288 41.12 65.2107 40.998C65.1191 40.4584 64.9979 40.0294 64.2555 39.4116C63.6752 38.9257 62.9565 38.8309 62.2707 38.7743C57.9364 38.4243 53.5341 38.5655 49.2759 38.7043C47.1011 38.7755 44.8541 38.8484 42.6491 38.8545C38.1936 38.863 33.6395 38.6034 29.2425 38.3482C23.5855 38.0202 17.7348 37.6848 11.9615 37.9197C10.5615 37.9795 9.09105 38.1048 7.87663 38.9111L7.7464 38.9957C7.05087 39.4568 6.1132 40.0925 6.01837 41.0229C5.5007 40.8743 5.00663 40.6891 4.5675 40.4002C3.57 39.7441 2.8757 38.6461 2.71087 37.4618C2.61768 36.7907 2.68198 36.0923 2.75035 35.3516C2.88058 33.9573 2.92128 32.7205 2.9282 31.5541C3.57448 31.8431 4.29605 31.9916 4.80233 32.095L5.01233 32.1373C7.79483 32.7425 10.627 32.9407 13.4591 32.9407C16.2225 32.9407 18.9875 32.7511 21.7045 32.5663C23.542 32.4393 25.3778 32.314 27.2068 32.2452C30.0023 32.1402 32.8532 32.1679 35.6109 32.1984L60.3298 32.458C61.4922 32.4711 62.6952 32.4845 63.8542 32.5936L64.1155 32.62C64.9336 32.703 65.8627 32.7979 66.7568 32.4975C66.9843 32.4218 67.2016 32.3034 67.4084 32.1679C67.3355 34.0668 67.248 36.0822 67.139 38.4211H67.1385ZM19.0587 49.8954C18.489 51.8965 17.3893 53.5997 15.8216 54.963C15.1127 55.58 16.1468 56.608 16.8525 55.9943C18.6009 54.4718 19.8291 52.5118 20.4648 50.2832C20.7228 49.3793 19.3155 48.9931 19.0591 49.8954H19.0587ZM28.2698 49.884C27.7013 53.3191 26.928 56.7171 25.9541 60.06C25.6916 60.9627 27.0973 61.3477 27.3598 60.4479C28.333 57.1048 29.1063 53.7068 29.6755 50.2718C29.8273 49.3529 28.4228 48.9577 28.2698 49.8836V49.884ZM36.2087 50.0675C36.1623 52.6355 36.3927 55.1893 36.4497 57.7557C36.4818 59.1761 36.085 60.7091 37.354 61.6232C38.1166 62.1718 38.8455 60.9069 38.0906 60.3648C37.4923 59.9347 37.8423 55.9939 37.809 55.3293C37.7194 53.5732 37.6352 51.8277 37.6673 50.0691C37.6836 49.1282 36.225 49.1282 36.2091 50.0675H36.2087ZM44.2648 50.2922C44.0198 53.2541 45.9212 55.7143 46.3241 58.5697C46.454 59.4955 47.8597 59.102 47.7298 58.1818C47.3477 55.4693 45.4915 53.0922 45.7234 50.2922C45.8008 49.3561 44.3422 49.3618 44.2648 50.2922ZM52.3291 50.0122C52.8223 52.404 54.1173 54.5243 56.0366 56.0379C56.7655 56.6141 57.8041 55.5886 57.0675 55.007C55.3232 53.6302 54.1845 51.8029 53.7352 49.6243C53.5472 48.7054 52.1415 49.0932 52.3295 50.0122H52.3291Z" fill="#010427"/>
</svg>
