<svg width="70" height="70" viewBox="0 0 70 70" fill="none" xmlns="http://www.w3.org/2000/svg">
<path d="M5.25 56H12.25V61.25H5.25V56ZM57.75 56H64.75V61.25H57.75V56Z" fill="#010427"/>
<path d="M5.25 58.625C2.83866 58.625 0.875 56.6634 0.875 54.25V19.25C0.875 16.8366 2.83866 14.875 5.25 14.875H64.75C67.1614 14.875 69.125 16.8366 69.125 19.25V54.25C69.125 56.6634 67.1614 58.625 64.75 58.625H5.25Z" fill="#FDB309"/>
<path d="M64.75 15.75C66.6803 15.75 68.25 17.3197 68.25 19.25V54.25C68.25 56.1803 66.6803 57.75 64.75 57.75H5.25C3.31971 57.75 1.75 56.1803 1.75 54.25V19.25C1.75 17.3197 3.31971 15.75 5.25 15.75H64.75ZM64.75 14H5.25C2.35029 14 0 16.3503 0 19.25V54.25C0 57.1497 2.35029 59.5 5.25 59.5H64.75C67.6497 59.5 70 57.1497 70 54.25V19.25C70 16.3503 67.6497 14 64.75 14Z" fill="#010427"/>
<path d="M6.125 20.125H51.625V53.375H6.125V20.125Z" fill="#FFE6B1"/>
<path d="M50.75 21V52.5H7V21H50.75ZM52.5 19.25H5.25V54.25H52.5V19.25Z" fill="#010427"/>
<path d="M60.375 20.125C59.4467 20.125 58.5565 20.4937 57.9001 21.1501C57.2437 21.8065 56.875 22.6967 56.875 23.625C56.875 24.5533 57.2437 25.4435 57.9001 26.0999C58.5565 26.7563 59.4467 27.125 60.375 27.125C61.3033 27.125 62.1935 26.7563 62.8499 26.0999C63.5062 25.4435 63.875 24.5533 63.875 23.625C63.875 22.6967 63.5062 21.8065 62.8499 21.1501C62.1935 20.4937 61.3033 20.125 60.375 20.125Z" fill="#FFE6B1"/>
<path d="M60.375 21C61.0709 21.0009 61.7381 21.2777 62.2302 21.7698C62.7223 22.2619 62.9991 22.9291 63 23.625C62.9991 24.3209 62.7223 24.9881 62.2302 25.4802C61.7381 25.9723 61.0709 26.2491 60.375 26.25C59.6791 26.2491 59.0119 25.9723 58.5198 25.4802C58.0277 24.9881 57.7509 24.3209 57.75 23.625C57.7509 22.9291 58.0277 22.2619 58.5198 21.7698C59.0119 21.2777 59.6791 21.0009 60.375 21ZM60.375 19.25C57.9584 19.25 56 21.2084 56 23.625C56 26.0416 57.9584 28 60.375 28C62.7916 28 64.75 26.0416 64.75 23.625C64.75 21.2084 62.7916 19.25 60.375 19.25Z" fill="#010427"/>
<path d="M60.375 32.375C59.4467 32.375 58.5565 32.7437 57.9001 33.4001C57.2437 34.0565 56.875 34.9467 56.875 35.875C56.875 36.8033 57.2437 37.6935 57.9001 38.3499C58.5565 39.0062 59.4467 39.375 60.375 39.375C61.3033 39.375 62.1935 39.0062 62.8499 38.3499C63.5062 37.6935 63.875 36.8033 63.875 35.875C63.875 34.9467 63.5062 34.0565 62.8499 33.4001C62.1935 32.7437 61.3033 32.375 60.375 32.375Z" fill="#FFE6B1"/>
<path d="M60.375 33.25C61.0709 33.2509 61.7381 33.5277 62.2302 34.0198C62.7223 34.5119 62.9991 35.1791 63 35.875C62.9991 36.5709 62.7223 37.2381 62.2302 37.7302C61.7381 38.2223 61.0709 38.4991 60.375 38.5C59.6791 38.4991 59.0119 38.2223 58.5198 37.7302C58.0277 37.2381 57.7509 36.5709 57.75 35.875C57.7509 35.1791 58.0277 34.5119 58.5198 34.0198C59.0119 33.5277 59.6791 33.2509 60.375 33.25ZM60.375 31.5C57.9584 31.5 56 33.4584 56 35.875C56 38.2916 57.9584 40.25 60.375 40.25C62.7916 40.25 64.75 38.2916 64.75 35.875C64.75 33.4584 62.7916 31.5 60.375 31.5Z" fill="#010427"/>
<path d="M60.375 49C59.6788 49 59.0111 49.2766 58.5188 49.7688C58.0266 50.2611 57.75 50.9288 57.75 51.625C57.75 52.3212 58.0266 52.9889 58.5188 53.4812C59.0111 53.9734 59.6788 54.25 60.375 54.25C61.0712 54.25 61.7389 53.9734 62.2312 53.4812C62.7234 52.9889 63 52.3212 63 51.625C63 50.9288 62.7234 50.2611 62.2312 49.7688C61.7389 49.2766 61.0712 49 60.375 49Z" fill="#FFEBC2"/>
<path d="M39.375 47.25V42M7 28.875H11.375L11.9281 30.5355C12.2767 31.5807 12.9452 32.4898 13.8391 33.134C14.733 33.7782 15.8068 34.1249 16.9087 34.125H40.8397C41.9416 34.1251 43.0156 33.7785 43.9095 33.1343C44.8034 32.49 45.4719 31.5808 45.8203 30.5355L46.375 28.875H50.75H7ZM34.125 35V29.75V35ZM28.875 35V29.75V35ZM23.625 35V29.75V35ZM18.375 35V29.75V35ZM39.375 35V29.75V35ZM7 41.125H11.375L11.9281 42.7855C12.2767 43.8307 12.9452 44.7398 13.8391 45.384C14.733 46.0282 15.8068 46.3749 16.9087 46.375H40.8397C41.9416 46.3751 43.0156 46.0285 43.9095 45.3843C44.8034 44.74 45.4719 43.8308 45.8203 42.7855L46.375 41.125H50.75H7ZM34.125 47.25V42V47.25ZM28.875 47.25V42V47.25ZM23.625 47.25V42V47.25ZM18.375 47.25V42V47.25Z" stroke="#010427" stroke-miterlimit="10"/>
</svg>
