<svg width="70" height="70" viewBox="0 0 70 70" fill="none" xmlns="http://www.w3.org/2000/svg">
<path d="M26.797 10.3905V59.6099C26.797 62.6174 29.258 65.0784 32.2655 65.0784H54.1405C57.1481 65.0784 59.6095 62.6174 59.6095 59.6099V10.3901C59.6095 7.38256 57.1485 4.92157 54.1405 4.92157H32.2655C29.258 4.92157 26.797 7.38256 26.797 10.3901V10.3905Z" fill="#FDB309"/>
<path d="M54.1405 59.6094H32.2655C29.258 59.6094 26.797 57.1485 26.797 54.1405V59.6094C26.797 62.617 29.258 65.078 32.2655 65.078H54.1405C57.1481 65.078 59.6095 62.617 59.6095 59.6094V54.1401C59.6095 57.1476 57.1485 59.609 54.1405 59.609" fill="#DB9E17"/>
<path d="M15.8595 10.3905V59.6099C15.8595 62.6174 18.3205 65.0784 21.328 65.0784H43.203C46.2106 65.0784 48.672 62.6174 48.672 59.6099V10.3901C48.672 7.38256 46.211 4.92157 43.203 4.92157H21.328C18.3205 4.92157 15.8595 7.38256 15.8595 10.3901" fill="#FFE6AE"/>
<path d="M44.7345 5.14056C37.1875 10.6099 32.2651 19.4686 32.2651 29.5311V40.469C32.2651 50.5311 37.1871 59.3906 44.7341 64.8591C46.9765 64.2031 48.6716 62.125 48.6716 59.6091V10.391C48.6716 7.87545 46.9761 5.79742 44.7341 5.14097" fill="#FFD26B"/>
<path d="M48.672 7.65647V65.078C41.7265 49.4375 41.7265 20.5625 48.672 4.922V7.65647Z" fill="#FDB309"/>
<path d="M15.8595 59.6094V10.3901C22.8045 26.0306 22.8045 43.9681 15.8595 59.609V59.6094Z" fill="white"/>
<path d="M21.0545 35.547V23.078C21.0545 15.75 26.578 10.2265 33.742 9.67956C34.125 9.67956 34.617 8.75002 35 8.75002V4.922H21.328C18.3205 4.922 15.8595 7.38299 15.8595 10.3905V35.547H21.0545Z" fill="white"/>
<path d="M22.039 4.922H43.914C35.875 11.3205 30.0235 11.3205 22.039 4.922Z" fill="white"/>
<path d="M43.203 66.7189H21.328C20.3939 66.7208 19.4685 66.5381 18.6052 66.1814C17.7418 65.8248 16.9573 65.3011 16.2968 64.6405C15.6363 63.9799 15.1127 63.1954 14.7561 62.332C14.3996 61.4686 14.217 60.5432 14.219 59.6091V10.3909C14.2171 9.4568 14.3997 8.5315 14.7563 7.66812C15.1129 6.80474 15.6364 6.02027 16.2969 5.35972C16.9574 4.69918 17.7419 4.17556 18.6052 3.81892C19.4686 3.46227 20.3939 3.27962 21.328 3.28145H43.203C44.1371 3.27957 45.0624 3.46217 45.9258 3.81876C46.7892 4.17536 47.5737 4.69893 48.2342 5.35943C48.8948 6.01994 49.4184 6.80438 49.775 7.66774C50.1317 8.53111 50.3143 9.45639 50.3125 10.3905V26.797C50.3125 27.7265 49.6015 28.4375 48.672 28.4375C47.742 28.4375 47.0315 27.7265 47.0315 26.797V10.3901C47.0346 9.8865 46.9377 9.38727 46.7464 8.92139C46.5551 8.45551 46.2732 8.03225 45.9171 7.67616C45.561 7.32006 45.1377 7.03822 44.6718 6.84698C44.2059 6.65573 43.7066 6.5589 43.203 6.56209H21.328C20.8244 6.55895 20.3252 6.65584 19.8593 6.84713C19.3934 7.03842 18.9702 7.32031 18.6141 7.67645C18.258 8.03258 17.9761 8.45587 17.7849 8.92177C17.5936 9.38767 17.4968 9.8869 17.5 10.3905V59.6099C17.4969 60.1135 17.5937 60.6126 17.785 61.0785C17.9763 61.5444 18.2581 61.9676 18.6142 62.3237C18.9703 62.6798 19.3935 62.9616 19.8594 63.1529C20.3253 63.3442 20.8244 63.441 21.328 63.4379H43.203C43.7066 63.441 44.2058 63.3442 44.6716 63.1529C45.1375 62.9616 45.5607 62.6798 45.9168 62.3237C46.2729 61.9676 46.5548 61.5444 46.746 61.0785C46.9373 60.6126 47.0342 60.1135 47.031 59.6099V32.2651C47.031 31.3356 47.742 30.6246 48.672 30.6246C49.6015 30.6246 50.3125 31.3356 50.3125 32.2651V59.6091C50.3144 60.5432 50.1318 61.4686 49.7751 62.332C49.4185 63.1954 48.8949 63.9799 48.2344 64.6404C47.5738 65.301 46.7893 65.8246 45.9259 66.1812C45.0625 66.5378 44.1372 66.7204 43.203 66.7185V66.7189Z" fill="#010427"/>
<path d="M48.125 28.4375H21.328C20.3985 28.4375 19.6875 27.7265 19.6875 26.797C19.6875 25.867 20.3985 25.1564 21.328 25.1564H48.125C49.0545 25.1564 49.7655 25.867 49.7655 26.7966C49.7655 27.7265 49.0545 28.4375 48.125 28.4375ZM25.4295 66.7189H9.02349C8.09395 66.7189 7.38296 66.008 7.38296 65.078C7.38296 64.1485 8.09395 63.4375 9.02308 63.4375H25.4295C26.3595 63.4375 27.0705 64.1485 27.0705 65.078C27.0705 66.008 26.3595 66.7185 25.4295 66.7185V66.7189ZM3.55453 66.7189C3.11703 66.7189 2.67953 66.5545 2.40645 66.2265C2.07802 65.8985 1.91401 65.5155 1.91401 65.078C1.91401 64.6405 2.07802 64.203 2.40645 63.9295C3.00796 63.328 4.10151 63.328 4.70302 63.9295C5.03145 64.2579 5.19546 64.6405 5.19546 65.078C5.19546 65.5155 5.03145 65.953 4.70302 66.2265C4.42953 66.5545 3.99203 66.7189 3.55453 66.7189Z" fill="#010427"/>
<path d="M54.1405 66.719H32.2655C31.336 66.719 30.625 66.008 30.625 65.0781C30.625 64.1485 31.336 63.4375 32.2655 63.4375H54.1405C54.6441 63.4407 55.1433 63.3438 55.6091 63.1525C56.075 62.9613 56.4982 62.6794 56.8543 62.3233C57.2104 61.9672 57.4923 61.544 57.6835 61.0781C57.8748 60.6123 57.9717 60.1131 57.9685 59.6095V10.3902C57.9717 9.88657 57.8748 9.38738 57.6835 8.92153C57.4923 8.45568 57.2104 8.03243 56.8543 7.67634C56.4982 7.32025 56.075 7.0384 55.6091 6.84713C55.1433 6.65587 54.6441 6.55899 54.1405 6.56213H32.2655C31.336 6.56213 30.625 5.85114 30.625 4.9216C30.625 3.99166 31.336 3.28108 32.2655 3.28108H54.1405C55.0746 3.2792 55.9999 3.4618 56.8633 3.8184C57.7267 4.17499 58.5112 4.69856 59.1717 5.35907C59.8323 6.01958 60.3559 6.80402 60.7125 7.66738C61.0692 8.53074 61.2518 9.45603 61.25 10.3902V59.6099C61.2519 60.5441 61.0693 61.4694 60.7126 62.3328C60.356 63.1962 59.8324 63.9807 59.1719 64.6413C58.5113 65.3018 57.7268 65.8254 56.8634 66.182C56 66.5387 55.0747 66.7213 54.1405 66.7194V66.719Z" fill="#010427"/>
</svg>
