<svg width="70" height="70" viewBox="0 0 70 70" fill="none" xmlns="http://www.w3.org/2000/svg">
<path d="M7.65646 3.28143H62.344V64.5314H7.65646V3.28143Z" fill="#FDB309"/>
<path d="M59.6095 64.5315H10.3901C8.85906 64.5315 7.65604 63.328 7.65604 61.7966C7.65604 60.2655 8.85906 59.0625 10.3901 59.0625H59.6099C61.1409 59.0625 62.3443 60.2655 62.3443 61.797C62.3443 63.328 61.1409 64.5315 59.6095 64.5315Z" fill="#E7A515"/>
<path d="M59.0625 14.219H10.9375C9.07801 14.219 7.65604 12.797 7.65604 10.9375V6.56252C7.65604 4.70304 9.07801 3.28107 10.9375 3.28107H59.0625C60.922 3.28107 62.3439 4.70304 62.3439 6.56252V10.9375C62.3439 12.797 60.922 14.219 59.0625 14.219Z" fill="#FFE09A"/>
<path d="M55.7815 7.65643H62.344V14.2189H55.7815V7.65643Z" fill="#FFDD8F"/>
<path d="M33.9065 18.5939C24.2412 18.5939 16.4065 26.4286 16.4065 36.0939C16.4065 45.7588 24.2412 53.5939 33.9065 53.5939C43.5713 53.5939 51.4065 45.7588 51.4065 36.0939C51.4065 26.4286 43.5713 18.5939 33.9065 18.5939Z" fill="#F3F3F3"/>
<path d="M33.9064 22.969C29.0935 22.969 24.828 25.594 22.5314 29.422C24.1715 31.172 25.1564 33.469 25.1564 36.094C25.1564 38.719 24.1715 41.0155 22.5314 42.7655C24.828 46.5936 29.0935 49.2186 33.9064 49.2186C41.125 49.2186 47.0314 43.3125 47.0314 36.0936C47.0314 28.875 41.125 22.9686 33.9064 22.9686V22.969Z" fill="#BBDEF9"/>
<path d="M33.9065 30.625C30.8859 30.625 28.4375 33.0734 28.4375 36.094C28.4375 39.1137 30.8859 41.5625 33.9065 41.5625C36.9262 41.5625 39.375 39.1141 39.375 36.0935C39.375 33.0738 36.9266 30.625 33.906 30.625H33.9065Z" fill="#D2EDFF"/>
<path d="M30.625 29.5315C29.7548 29.5315 28.9203 29.8772 28.305 30.4925C27.6896 31.1078 27.344 31.9424 27.344 32.8125C27.344 33.6827 27.6896 34.5173 28.305 35.1326C28.9203 35.7479 29.7548 36.0936 30.625 36.0936C31.4952 36.0936 32.3297 35.7479 32.9451 35.1326C33.5604 34.5173 33.9061 33.6827 33.9061 32.8125C33.9061 31.9424 33.5604 31.1078 32.9451 30.4925C32.3297 29.8772 31.4952 29.5315 30.625 29.5315ZM37.7345 38.2815C37.2994 38.2815 36.8821 38.4543 36.5745 38.762C36.2668 39.0696 36.094 39.4869 36.094 39.922C36.094 40.3571 36.2668 40.7744 36.5745 41.082C36.8821 41.3897 37.2994 41.5625 37.7345 41.5625C38.1696 41.5625 38.587 41.3897 38.8947 41.082C39.2024 40.7743 39.3752 40.357 39.3752 39.9218C39.3752 39.4867 39.2024 39.0693 38.8947 38.7616C38.587 38.4539 38.1696 38.2811 37.7345 38.2811V38.2815Z" fill="#F3F3F3"/>
<path d="M60.1565 2.1875H9.84395C7.98407 2.1875 6.5625 3.60948 6.5625 5.46895V62.344C6.5625 64.203 7.98448 65.625 9.84395 65.625H60.156C62.0159 65.625 63.4375 64.203 63.4375 62.3435V5.46895C63.4375 3.60988 62.0155 2.18791 60.156 2.18791L60.1565 2.1875ZM61.25 13.125H56.875V8.75H61.25V13.125ZM56.875 6.5625C55.672 6.5625 54.6875 7.54698 54.6875 8.75V13.125C54.6875 14.328 55.672 15.3125 56.875 15.3125H61.25V62.344C61.25 63 60.8125 63.4375 60.156 63.4375H9.84395C9.18791 63.4375 8.75041 63 8.75041 62.3435V5.46895C8.75041 4.81291 9.18791 4.37541 9.84436 4.37541H60.1565C60.8129 4.37541 61.2504 4.81291 61.2504 5.46936V6.56291L56.875 6.5625Z" fill="#010427"/>
<path d="M13.125 6.5625C12.5448 6.5625 11.9884 6.79297 11.5782 7.2032C11.168 7.61344 10.9375 8.16984 10.9375 8.75C10.9375 9.33016 11.168 9.88656 11.5782 10.2968C11.9884 10.707 12.5448 10.9375 13.125 10.9375C13.7052 10.9375 14.2616 10.707 14.6718 10.2968C15.082 9.88656 15.3125 9.33016 15.3125 8.75C15.3125 8.16984 15.082 7.61344 14.6718 7.2032C14.2616 6.79297 13.7052 6.5625 13.125 6.5625ZM19.6875 6.5625C19.1073 6.5625 18.5509 6.79297 18.1407 7.2032C17.7305 7.61344 17.5 8.16984 17.5 8.75C17.5 9.33016 17.7305 9.88656 18.1407 10.2968C18.5509 10.707 19.1073 10.9375 19.6875 10.9375C20.2677 10.9375 20.8241 10.707 21.2343 10.2968C21.6445 9.88656 21.875 9.33016 21.875 8.75C21.875 8.16984 21.6445 7.61344 21.2343 7.2032C20.8241 6.79297 20.2677 6.5625 19.6875 6.5625ZM51.4065 8.75H49.2185C48.5625 8.75 48.125 9.1875 48.125 9.84395C48.125 10.5 48.5625 10.9375 49.219 10.9375H51.406C52.0625 10.9375 52.5 10.5 52.5 9.84355C52.5 9.1875 52.0625 8.75 51.406 8.75H51.4065ZM16.4065 15.3125C17.0625 15.3125 17.5 14.875 17.5 14.2185C17.5 13.5625 17.0625 13.125 16.406 13.125H12.031C11.375 13.125 10.9375 13.5625 10.9375 14.219C10.9375 14.875 11.375 15.3125 12.0315 15.3125H16.4065ZM51.4065 13.125H20.7815C20.125 13.125 19.6875 13.5625 19.6875 14.219C19.6875 14.875 20.125 15.3125 20.7815 15.3125H51.4065C52.0625 15.3125 52.5 14.875 52.5 14.2185C52.5 13.5625 52.0625 13.125 51.406 13.125H51.4065ZM50.5315 44.5155C50.8595 43.9685 51.078 43.3125 51.2966 42.656C51.5155 42.1095 51.1875 41.453 50.6405 41.2345C50.0935 41.0155 49.4375 41.3435 49.2185 41.8905C49 42.4375 48.781 42.9845 48.4534 43.531C48.2345 44.078 48.3435 44.7345 48.8905 44.953C49 45.0625 49.2185 45.0625 49.4375 45.0625C49.9845 45.0625 50.3125 44.844 50.5315 44.5155Z" fill="#010427"/>
<path d="M33.9065 17.5C23.625 17.5 15.3121 25.8125 15.3121 36.094C15.3121 46.375 23.6246 54.6875 33.9061 54.6875C39.0462 54.6875 43.9682 52.5 47.4686 48.7815C47.9057 48.3435 47.9057 47.6875 47.3587 47.25C46.8121 46.8125 46.2651 46.8125 45.8276 47.25C42.7651 50.5315 38.3901 52.5 33.7966 52.5C24.7186 52.5 17.3901 45.172 17.3901 36.0935C17.3901 27.0155 24.7186 19.6875 33.7966 19.6875C42.8746 19.6875 50.2026 27.0155 50.2026 36.094V37.297C50.2026 37.953 50.6401 38.3905 51.1871 38.5C51.8436 38.5 52.2811 38.0625 52.3901 37.5155V36.0935C52.5 25.8125 44.1875 17.5 33.9065 17.5Z" fill="#010427"/>
<path d="M21.4375 42.9845C23.953 47.469 28.7655 50.3125 33.906 50.3125C41.781 50.3125 48.125 43.9685 48.125 36.0935C48.125 28.2185 41.781 21.875 33.906 21.875C28.7659 21.875 23.953 24.7185 21.4375 29.203C21.2189 29.6405 21.328 30.1875 21.656 30.5155C23.1875 31.9375 24.0625 33.906 24.0625 36.0935C24.0625 38.281 23.1875 40.1405 21.6564 41.672C21.328 42 21.2185 42.547 21.4375 42.9845ZM26.25 36.094C26.25 33.6875 25.375 31.3905 23.7345 29.6405C25.922 26.25 29.75 24.0625 33.906 24.0625C35.4873 24.0579 37.0539 24.3659 38.5157 24.9689C39.9775 25.5719 41.3057 26.458 42.4239 27.5761C43.542 28.6943 44.4281 30.0224 45.0311 31.4843C45.6341 32.9461 45.9421 34.5127 45.9375 36.094C45.9421 37.6752 45.634 39.2418 45.0309 40.7035C44.4279 42.1653 43.5419 43.4934 42.4237 44.6115C41.3056 45.7296 39.9774 46.6156 38.5156 47.2186C37.0539 47.8216 35.4873 48.1296 33.906 48.125C29.75 48.125 26.031 46.047 23.7345 42.547C25.375 40.797 26.25 38.5 26.25 36.094ZM13.125 56.875C12.4685 56.875 12.031 57.3125 12.031 57.969V60.1565C12.031 60.8125 12.4685 61.25 13.125 61.25C13.7814 61.25 14.2189 60.8125 14.2189 60.156V57.9685C14.2189 57.3125 13.781 56.875 13.125 56.875ZM18.5939 56.875C17.9375 56.875 17.5 57.3125 17.5 57.969V60.1565C17.5 60.8125 17.9375 61.25 18.5939 61.25C19.25 61.25 19.6875 60.8125 19.6875 60.156V57.9685C19.6875 57.3125 19.25 56.875 18.5935 56.875H18.5939ZM24.0625 56.875C23.406 56.875 22.9685 57.3125 22.9685 57.969V60.1565C22.9685 60.8125 23.4064 61.25 24.0625 61.25C24.7189 61.25 25.1564 60.8125 25.1564 60.156V57.9685C25.1564 57.3125 24.7185 56.875 24.0625 56.875ZM29.5314 56.875C28.875 56.875 28.4375 57.3125 28.4375 57.969V60.1565C28.4375 60.8125 28.875 61.25 29.5314 61.25C30.1875 61.25 30.625 60.8125 30.625 60.156V57.9685C30.625 57.3125 30.1875 56.875 29.531 56.875H29.5314ZM35 56.875C34.3435 56.875 33.906 57.3125 33.906 57.969V60.1565C33.906 60.8125 34.3439 61.25 35 61.25C35.6564 61.25 36.0939 60.8125 36.0939 60.156V57.9685C36.0939 57.3125 35.656 56.875 35 56.875ZM40.4689 56.875C39.8125 56.875 39.375 57.3125 39.375 57.969V60.1565C39.375 60.8125 39.8125 61.25 40.4689 61.25C41.125 61.25 41.5625 60.8125 41.5625 60.156V57.9685C41.5625 57.3125 41.125 56.875 40.4685 56.875H40.4689ZM45.9375 56.875C45.281 56.875 44.8435 57.3125 44.8435 57.969V60.1565C44.8435 60.8125 45.2814 61.25 45.9375 61.25C46.5939 61.25 47.0314 60.8125 47.0314 60.156V57.9685C47.0314 57.3125 46.5935 56.875 45.9375 56.875ZM51.4064 56.875C50.75 56.875 50.3125 57.3125 50.3125 57.969V60.1565C50.3125 60.8125 50.75 61.25 51.4064 61.25C52.0625 61.25 52.5 60.8125 52.5 60.156V57.9685C52.5 57.3125 52.0625 56.875 51.406 56.875H51.4064ZM56.875 61.25C57.5314 61.25 57.9689 60.8125 57.9689 60.156V57.9685C57.9689 57.3125 57.5314 56.875 56.875 56.875C56.2185 56.875 55.781 57.3125 55.781 57.969V60.1565C55.781 60.8125 56.2185 61.25 56.875 61.25Z" fill="#010427"/>
</svg>
