<svg version="1.1" id="Слой_1" xmlns="http://www.w3.org/2000/svg" x="0" y="0" viewBox="0 0 172 172" xml:space="preserve"><style>.st2{fill:#472b29}</style><path d="M0 172V0h172v172H0z" fill="none"/><path d="M25.9 120.9c-12.6 0-22.7-10.8-22.7-24.1C3.1 84.4 12 75 23.3 73.6c.2 0 .4-.2.4-.4-.1-1-.2-2.3-.3-3.2-1-15 10.2-24.1 22.7-24.1 7 0 13.3 3.5 17.4 8.8.1.2.4.1.4-.1 1-13.8 11.8-24.7 25.1-24.7 13.9 0 25.3 12 25.3 26.8 0 2.2-.3 4.2-.8 6.2 0 .2.2.3.3.2 4-3.8 8.4-6.2 13.7-6.2 8.8 0 16.4 5.9 16.8 15.7 0 .3.3.5.5.5 12.6-1.3 25 10.8 25 23.9 0 13.3-10.2 24.1-22.7 24.1h-48s-66.9-.2-73.2-.2z" fill="#77cbd2"/><path class="st2" d="M146.8 72.8c-.6 0-1.2 0-1.9.1h-.1c-.3 0-.5-.2-.5-.5-.4-10-8-16-16.8-16-5.3 0-9.7 2.5-13.7 6.4l-.1.1c-.1 0-.2-.1-.2-.2.5-2.1.8-4.2.8-6.4C114.3 41 103 28.7 89 28.7c-13.3 0-24.1 11.2-25.1 25.3 0 .1-.1.2-.2.2s-.1 0-.2-.1c-4.2-5.5-10.4-9-17.4-9-12.6 0-23.8 9.4-22.7 24.7.1.9.2 2.3.3 3.3 0 .2-.1.4-.4.5C12 75.1 3.1 84.7 3.1 97.3 3.1 111 13.3 122 25.9 122h34.6c2.7 0 2.8-3.7 0-3.7H25.9c-10.5 0-19.1-9.4-19.1-21 0-10.3 7.1-18.7 16.9-20 2.2-.3 3.8-2.3 3.5-4.6-.1-.9-.2-2.3-.3-3.1-.4-5.8 1.2-10.8 4.7-14.6 3.5-3.9 8.8-6.1 14.4-6.1s10.9 2.8 14.5 7.6c.7 1 1.9 1.5 3.1 1.5 2 0 3.7-1.6 3.9-3.7.9-12.2 10.4-21.8 21.5-21.8 11.9 0 21.6 10.6 21.6 23.7 0 1.7-.2 3.5-.7 5.5-.3 1.2 0 2.4.7 3.3.7.9 1.8 1.5 3 1.5 1 0 1.9-.4 2.7-1.1 3.7-3.6 7.4-5.3 11.2-5.3 6.1 0 12.8 3.9 13.2 12.5.1 2.3 1.9 4 4.1 4h.4c.5 0 1-.1 1.5-.1 10 0 19.5 10.1 19.5 20.8 0 11.6-8.6 21-19.1 21H70.9c-2.8 0-2.8 3.7 0 3.7h76.3c12.6 0 22.7-11.1 22.7-24.7 0-12.8-11.2-24.5-23.1-24.5z"/><path class="st2" d="M73.3 58.4c-.4 0-.7-.4-.7-.7 1.2-12.3 7.8-16.4 11.7-17.7 5.6-2 11.4-.6 13.8 1.9.3.3.2.7 0 .9-.3.3-.7.2-.9 0-2.1-2.1-7.4-3.3-12.5-1.6-3.5 1.2-9.7 5-10.7 16.6-.1.3-.4.6-.7.6zm-45.1 52.9c-5-.1-9.1-2.4-11.7-6.5-2.7-4.3-3.1-9.7-1-14.1.2-.3.5-.5.9-.3.3.2.5.5.3.9-1.9 4.1-1.5 9 .9 12.9 2.3 3.7 6.1 5.8 10.6 5.9.4 0 .6.3.6.7.1.2-.2.5-.6.5zm-8-24.6c-.2 0-.4-.1-.5-.3-.2-.3-.2-.7.1-.9 3.6-2.7 8.7-3.7 14.8-3.1-1.6-3.8-2.4-7.4-2.5-10.6 0-.4.3-.7.6-.7.4 0 .7.3.7.6.1 3.4 1.1 7.1 2.9 11.2.1.2.1.5-.1.7-.1.2-.4.3-.6.3-6.2-.9-11.4 0-15 2.7-.2 0-.3.1-.4.1zm13-19.5H33c-.3-.1-.6-.5-.5-.8.9-3.5 3-6.3 5.9-8 .3-.2.7-.1.9.2.2.3.1.7-.2.9-2.7 1.6-4.5 4.1-5.3 7.2-.1.3-.3.5-.6.5zm20.9-6.5c-.1 0-.3 0-.4-.1-2.7-2.1-6.2-3.1-9.7-2.7-.4.1-.7-.2-.7-.6 0-.4.2-.7.6-.7 3.9-.5 7.7.6 10.7 2.9.3.2.3.6.1.9-.2.2-.4.3-.6.3zm91 50.4h-23.4c-.4 0-.7-.3-.7-.7s.3-.7.7-.7h23.4c5.1 0 10-2.9 12.3-7.4 2.2-4.4 1.6-9.5-1.6-14-.2-.3-.1-.7.1-.9.3-.2.7-.1.9.1 3.6 5 4.2 10.6 1.7 15.4-2.5 5-7.8 8.2-13.4 8.2zm-84.6 0H33.1c-.4 0-.7-.3-.7-.7s.3-.7.7-.7h27.4c.4 0 .7.3.7.7s-.4.7-.7.7zm36.7-2.8c-.9 0-1.7-.4-2.2-1.2-.8-1.2-.4-2.8.8-3.6 5.6-3.6 9-9.8 9-16.4 0-10.8-8.8-19.5-19.5-19.5-1.4 0-2.6-1.2-2.6-2.6 0-1.4 1.2-2.6 2.6-2.6 13.6 0 24.7 11.1 24.7 24.7 0 8.5-4.3 16.2-11.4 20.8-.5.2-1 .4-1.4.4zm-12 3.5c-13.6 0-24.7-11.1-24.7-24.7 0-8.2 4.1-15.9 10.8-20.5 1.2-.8 2.8-.5 3.6.7s.5 2.8-.7 3.6c-5.4 3.6-8.6 9.7-8.6 16.2 0 10.8 8.8 19.5 19.5 19.5 1.4 0 2.6 1.2 2.6 2.6s-1.1 2.6-2.5 2.6z"/><path class="st2" d="M73.5 83.1c-1.4 0-2.6-1.2-2.6-2.6V70.1H60.5c-1.4 0-2.6-1.2-2.6-2.6 0-1.4 1.2-2.6 2.6-2.6h13c1.4 0 2.6 1.2 2.6 2.6v13c0 1.5-1.2 2.6-2.6 2.6zm36.4 26.1h-13c-1.4 0-2.6-1.2-2.6-2.6v-13c0-1.4 1.2-2.6 2.6-2.6 1.4 0 2.6 1.2 2.6 2.6V104h10.4c1.4 0 2.6 1.2 2.6 2.6s-1.1 2.6-2.6 2.6z"/></svg>