<?xml version="1.0" encoding="utf-8"?>
<!-- Generator: Adobe Illustrator 24.0.1, SVG Export Plug-In . SVG Version: 6.00 Build 0)  -->
<svg version="1.1" id="Слой_1" xmlns="http://www.w3.org/2000/svg" xmlns:xlink="http://www.w3.org/1999/xlink" x="0px" y="0px"
	 viewBox="0 0 172 172" style="enable-background:new 0 0 172 172;" xml:space="preserve">
<style type="text/css">
	.st0{fill:none;}
	.st1{fill:#77CBD2;}
	.st2{fill:#472B29;}
</style>
<g>
	<path class="st0" d="M0,172V0h172v172H0z"/>
	<g>
		<path class="st1" d="M25.9,120.9c-12.6,0-22.7-10.8-22.7-24.1C3.1,84.4,12,75,23.3,73.6c0.2,0,0.4-0.2,0.4-0.4
			c-0.1-1-0.2-2.3-0.3-3.2c-1-15,10.2-24.1,22.7-24.1c7,0,13.3,3.5,17.4,8.8c0.1,0.2,0.4,0.1,0.4-0.1c1-13.8,11.8-24.7,25.1-24.7
			c13.9,0,25.3,12,25.3,26.8c0,2.2-0.3,4.2-0.8,6.2c0,0.2,0.2,0.3,0.3,0.2c4-3.8,8.4-6.2,13.7-6.2c8.8,0,16.4,5.9,16.8,15.7
			c0,0.3,0.3,0.5,0.5,0.5c12.6-1.3,25,10.8,25,23.9c0,13.3-10.2,24.1-22.7,24.1c-12.6,0-48,0-48,0S32.2,120.9,25.9,120.9z"/>
		<path class="st2" d="M146.8,72.8c-0.6,0-1.2,0-1.9,0.1c0,0,0,0-0.1,0c-0.3,0-0.5-0.2-0.5-0.5c-0.4-10-8-16-16.8-16
			c-5.3,0-9.7,2.5-13.7,6.4c0,0-0.1,0.1-0.1,0.1c-0.1,0-0.2-0.1-0.2-0.2c0.5-2.1,0.8-4.2,0.8-6.4C114.3,41,103,28.7,89,28.7
			c-13.3,0-24.1,11.2-25.1,25.3c0,0.1-0.1,0.2-0.2,0.2c-0.1,0-0.1,0-0.2-0.1c-4.2-5.5-10.4-9-17.4-9c-12.6,0-23.8,9.4-22.7,24.7
			c0.1,0.9,0.2,2.3,0.3,3.3c0,0.2-0.1,0.4-0.4,0.5C12,75.1,3.1,84.7,3.1,97.3C3.1,111,13.3,122,25.9,122c2.9,0,18.5,0,34.6,0
			c2.7,0,2.8-3.7,0-3.7H25.9c-10.5,0-19.1-9.4-19.1-21c0-10.3,7.1-18.7,16.9-20c2.2-0.3,3.8-2.3,3.5-4.6c-0.1-0.9-0.2-2.3-0.3-3.1
			c-0.4-5.8,1.2-10.8,4.7-14.6c3.5-3.9,8.8-6.1,14.4-6.1c5.6,0,10.9,2.8,14.5,7.6c0.7,1,1.9,1.5,3.1,1.5c2,0,3.7-1.6,3.9-3.7
			C68.4,42.1,77.9,32.5,89,32.5c11.9,0,21.6,10.6,21.6,23.7c0,1.7-0.2,3.5-0.7,5.5c-0.3,1.2,0,2.4,0.7,3.3c0.7,0.9,1.8,1.5,3,1.5
			c1,0,1.9-0.4,2.7-1.1c3.7-3.6,7.4-5.3,11.2-5.3c6.1,0,12.8,3.9,13.2,12.5c0.1,2.3,1.9,4,4.1,4l0.2,0l0.2,0c0.5,0,1-0.1,1.5-0.1
			c10,0,19.5,10.1,19.5,20.8c0,11.6-8.6,21-19.1,21H70.9c-2.8,0-2.8,3.7,0,3.7c11.5,0,68.2,0,76.3,0c12.6,0,22.7-11.1,22.7-24.7
			C169.9,84.5,158.7,72.8,146.8,72.8L146.8,72.8z"/>
		<path class="st2" d="M73.3,58.4C73.3,58.4,73.3,58.4,73.3,58.4c-0.4,0-0.7-0.4-0.7-0.7c1.2-12.3,7.8-16.4,11.7-17.7
			c5.6-2,11.4-0.6,13.8,1.9c0.3,0.3,0.2,0.7,0,0.9c-0.3,0.3-0.7,0.2-0.9,0c-2.1-2.1-7.4-3.3-12.5-1.6C81.2,42.4,75,46.2,74,57.8
			C73.9,58.1,73.6,58.4,73.3,58.4z"/>
		<g>
			<path class="st2" d="M28.2,111.3C28.2,111.3,28.2,111.3,28.2,111.3c-5-0.1-9.1-2.4-11.7-6.5c-2.7-4.3-3.1-9.7-1-14.1
				c0.2-0.3,0.5-0.5,0.9-0.3c0.3,0.2,0.5,0.5,0.3,0.9c-1.9,4.1-1.5,9,0.9,12.9c2.3,3.7,6.1,5.8,10.6,5.9c0.4,0,0.6,0.3,0.6,0.7
				C28.9,111,28.6,111.3,28.2,111.3z"/>
		</g>
		<g>
			<path class="st2" d="M20.2,86.7c-0.2,0-0.4-0.1-0.5-0.3c-0.2-0.3-0.2-0.7,0.1-0.9c3.6-2.7,8.7-3.7,14.8-3.1
				c-1.6-3.8-2.4-7.4-2.5-10.6c0-0.4,0.3-0.7,0.6-0.7c0.4,0,0.7,0.3,0.7,0.6c0.1,3.4,1.1,7.1,2.9,11.2c0.1,0.2,0.1,0.5-0.1,0.7
				c-0.1,0.2-0.4,0.3-0.6,0.3c-6.2-0.9-11.4,0-15,2.7C20.4,86.6,20.3,86.7,20.2,86.7z"/>
		</g>
		<g>
			<path class="st2" d="M33.2,67.2c-0.1,0-0.1,0-0.2,0c-0.3-0.1-0.6-0.5-0.5-0.8c0.9-3.5,3-6.3,5.9-8c0.3-0.2,0.7-0.1,0.9,0.2
				c0.2,0.3,0.1,0.7-0.2,0.9c-2.7,1.6-4.5,4.1-5.3,7.2C33.7,67,33.5,67.2,33.2,67.2z"/>
		</g>
		<g>
			<path class="st2" d="M54.1,60.7c-0.1,0-0.3,0-0.4-0.1c-2.7-2.1-6.2-3.1-9.7-2.7c-0.4,0.1-0.7-0.2-0.7-0.6c0-0.4,0.2-0.7,0.6-0.7
				c3.9-0.5,7.7,0.6,10.7,2.9c0.3,0.2,0.3,0.6,0.1,0.9C54.5,60.6,54.3,60.7,54.1,60.7z"/>
		</g>
		<g>
			<path class="st2" d="M145.1,111.1h-23.4c-0.4,0-0.7-0.3-0.7-0.7s0.3-0.7,0.7-0.7h23.4c5.1,0,10-2.9,12.3-7.4
				c2.2-4.4,1.6-9.5-1.6-14c-0.2-0.3-0.1-0.7,0.1-0.9c0.3-0.2,0.7-0.1,0.9,0.1c3.6,5,4.2,10.6,1.7,15.4
				C156,107.9,150.7,111.1,145.1,111.1z"/>
		</g>
		<g>
			<path class="st2" d="M60.5,111.1H33.1c-0.4,0-0.7-0.3-0.7-0.7s0.3-0.7,0.7-0.7h27.4c0.4,0,0.7,0.3,0.7,0.7S60.8,111.1,60.5,111.1
				z"/>
		</g>
		<g>
			<path class="st2" d="M97.2,108.3c-0.9,0-1.7-0.4-2.2-1.2c-0.8-1.2-0.4-2.8,0.8-3.6c5.6-3.6,9-9.8,9-16.4
				c0-10.8-8.8-19.5-19.5-19.5c-1.4,0-2.6-1.2-2.6-2.6c0-1.4,1.2-2.6,2.6-2.6c13.6,0,24.7,11.1,24.7,24.7c0,8.5-4.3,16.2-11.4,20.8
				C98.1,108.1,97.6,108.3,97.2,108.3z"/>
		</g>
		<g>
			<path class="st2" d="M85.2,111.8c-13.6,0-24.7-11.1-24.7-24.7c0-8.2,4.1-15.9,10.8-20.5c1.2-0.8,2.8-0.5,3.6,0.7s0.5,2.8-0.7,3.6
				c-5.4,3.6-8.6,9.7-8.6,16.2c0,10.8,8.8,19.5,19.5,19.5c1.4,0,2.6,1.2,2.6,2.6S86.6,111.8,85.2,111.8z"/>
		</g>
		<g>
			<path class="st2" d="M73.5,83.1c-1.4,0-2.6-1.2-2.6-2.6V70.1H60.5c-1.4,0-2.6-1.2-2.6-2.6c0-1.4,1.2-2.6,2.6-2.6h13
				c1.4,0,2.6,1.2,2.6,2.6v13C76.1,82,74.9,83.1,73.5,83.1z"/>
		</g>
		<g>
			<path class="st2" d="M109.9,109.2h-13c-1.4,0-2.6-1.2-2.6-2.6v-13c0-1.4,1.2-2.6,2.6-2.6c1.4,0,2.6,1.2,2.6,2.6V104h10.4
				c1.4,0,2.6,1.2,2.6,2.6S111.4,109.2,109.9,109.2z"/>
		</g>
	</g>
</g>
</svg>
