<svg xmlns="http://www.w3.org/2000/svg" viewBox="0 0 172 172"><g fill="none" stroke-miterlimit="10" font-family="none" font-weight="none" font-size="none" text-anchor="none" style="mix-blend-mode:normal"><path d="M0 172V0h172v172z"/><path d="M22.36 46.44a3.44 3.44 0 100 6.88 3.44 3.44 0 000-6.88z" fill="#ee3e54"/><path d="M132.44 20.64a1.72 1.72 0 100 3.44 1.72 1.72 0 000-3.44z" fill="#f1bc19"/><path d="M86 22.36c-35.147 0-63.64 28.493-63.64 63.64 0 35.147 28.493 63.64 63.64 63.64 35.147 0 63.64-28.493 63.64-63.64 0-35.147-28.493-63.64-63.64-63.64z" fill="#fce0a2"/><path d="M142.76 18.92a6.88 6.88 0 100 13.76 6.88 6.88 0 000-13.76z" fill="#f1bc19"/><path d="M149.64 37.84a3.44 3.44 0 100 6.88 3.44 3.44 0 000-6.88z" fill="#ee3e54"/><path d="M139.32 127.28a3.44 3.44 0 100 6.88 3.44 3.44 0 000-6.88zM25.8 101.48a6.88 6.88 0 100 13.76 6.88 6.88 0 000-13.76z" fill="#fbcd59"/><path d="M43 146.2a3.44 3.44 0 100 6.88 3.44 3.44 0 000-6.88z" fill="#ee3e54"/><path d="M31.82 87.72a4.3 4.3 0 100 8.6 4.3 4.3 0 000-8.6z" fill="#fff"/><path d="M36.12 113.52a1.72 1.72 0 100 3.44 1.72 1.72 0 000-3.44z" fill="#f1bc19"/><path d="M137.6 56.76a1.72 1.72 0 100 3.44 1.72 1.72 0 000-3.44z" fill="#fff"/><path d="M129 82.56h-5.323c-1.643-18.124-16.113-32.594-34.237-34.237V42.14A3.441 3.441 0 0086 38.7a3.441 3.441 0 00-3.44 3.44v6.177c-16.834 1.517-30.773 14.07-33.803 30.96a38.013 38.013 0 00-.439 3.283H43A3.441 3.441 0 0039.56 86 3.441 3.441 0 0043 89.44h5.329c.08.905.182 1.808.328 2.699 2.812 17.227 16.8 30.022 33.903 31.548v6.173A3.441 3.441 0 0086 133.3a3.441 3.441 0 003.44-3.44v-6.183c18.124-1.643 32.594-16.113 34.237-34.237H129a3.441 3.441 0 003.44-3.44 3.441 3.441 0 00-3.44-3.44zm-39.56 34.197V102.34A3.441 3.441 0 0086 98.9a3.441 3.441 0 00-3.44 3.44v14.412c-13.707-1.502-24.849-11.842-27.116-25.72-.086-.526-.134-1.059-.192-1.592H70.52A3.441 3.441 0 0073.96 86a3.441 3.441 0 00-3.44-3.44H55.253c.078-.691.153-1.386.277-2.067 2.44-13.606 13.543-23.748 27.032-25.241V69.66a3.441 3.441 0 003.44 3.44 3.441 3.441 0 003.44-3.44V55.243c14.324 1.593 25.722 12.991 27.315 27.317H101.48A3.441 3.441 0 0098.04 86a3.441 3.441 0 003.44 3.44h15.277c-1.593 14.326-12.991 25.724-27.317 27.317z" fill="#60be92"/><path d="M86 134.504a4.649 4.649 0 01-4.644-4.644v-5.088c-17.222-2.022-31.075-15.217-33.887-32.437a32.4 32.4 0 01-.23-1.69H43a4.649 4.649 0 01-4.644-4.643A4.649 4.649 0 0143 81.358h4.233a37.47 37.47 0 01.339-2.293c3.027-16.877 16.835-29.821 33.784-31.832V42.14A4.649 4.649 0 0186 37.496a4.649 4.649 0 014.644 4.644v5.098c17.886 2.126 31.992 16.232 34.118 34.118H129A4.649 4.649 0 01133.644 86 4.649 4.649 0 01129 90.644h-4.238c-2.126 17.886-16.232 31.992-34.118 34.118v5.098A4.649 4.649 0 0186 134.504zm-43-50.74A2.238 2.238 0 0040.764 86 2.238 2.238 0 0043 88.236h6.43l.097 1.097c.078.876.176 1.75.317 2.613 2.695 16.502 16.192 29.061 32.824 30.542l1.096.096v7.276A2.238 2.238 0 0086 132.096a2.238 2.238 0 002.236-2.236v-7.282l1.096-.1c17.61-1.596 31.551-15.535 33.146-33.146l.1-1.096H129A2.238 2.238 0 00131.236 86 2.238 2.238 0 00129 83.764h-6.422l-.1-1.096c-1.596-17.61-15.535-31.55-33.146-33.146l-1.096-.1V42.14A2.238 2.238 0 0086 39.904a2.238 2.238 0 00-2.236 2.236v7.276l-1.097.1C66.299 50.988 52.842 63.314 49.942 79.49a36.429 36.429 0 00-.425 3.178l-.1 1.096zm45.236 34.338V102.34A2.238 2.238 0 0086 100.104a2.238 2.238 0 00-2.236 2.236v15.755l-1.335-.146c-14.274-1.563-25.858-12.554-28.172-26.722-.072-.437-.118-.879-.166-1.32l-.183-1.671H70.52A2.238 2.238 0 0072.756 86a2.238 2.238 0 00-2.236-2.236H53.907l.15-1.338c.08-.724.16-1.442.288-2.147 2.49-13.885 14.039-24.67 28.083-26.223l1.336-.15V69.66A2.238 2.238 0 0086 71.896a2.238 2.238 0 002.236-2.236V53.898l1.336.15c14.8 1.644 26.736 13.58 28.38 28.38l.15 1.336H101.48A2.238 2.238 0 0099.244 86a2.238 2.238 0 002.236 2.236h16.622l-.15 1.336c-1.644 14.8-13.58 26.736-28.38 28.38zM86 97.696a4.649 4.649 0 014.644 4.644v13.04c12.623-1.998 22.738-12.113 24.735-24.736H101.48A4.649 4.649 0 0196.836 86a4.649 4.649 0 014.644-4.644h13.9c-1.998-12.623-12.113-22.738-24.736-24.735V69.66A4.649 4.649 0 0186 74.304a4.649 4.649 0 01-4.644-4.644V56.628c-12.382 1.95-22.417 11.677-24.64 24.078-.04.215-.075.432-.106.65h13.91A4.649 4.649 0 0175.164 86a4.649 4.649 0 01-4.644 4.644H56.603l.03.194c2.067 12.661 12.14 22.577 24.723 24.54V102.34A4.649 4.649 0 0186 97.696z" fill="#472b29"/><path d="M64.11 78.666a.427.427 0 01-.404-.574 23.623 23.623 0 0113.868-14.197c.222-.09.47.025.554.249a.428.428 0 01-.25.554A22.765 22.765 0 0064.512 78.38a.42.42 0 01-.402.286zm14.098 29.644a.427.427 0 01-.144-.026 23.54 23.54 0 01-14.369-14.412.428.428 0 11.808-.285c2.262 6.414 7.44 11.605 13.85 13.887a.43.43 0 01.26.549.43.43 0 01-.405.287zm15.154.15a.43.43 0 01-.136-.838c6.8-2.272 12.196-7.697 14.432-14.508a.429.429 0 11.815.268c-2.32 7.068-7.918 12.696-14.976 15.055a.41.41 0 01-.135.023zm14.585-29.63a.428.428 0 01-.406-.29 22.681 22.681 0 00-4.12-7.234.432.432 0 01.052-.607.43.43 0 01.608.051 23.547 23.547 0 014.272 7.507.43.43 0 01-.406.572zm-6.933-10.114a.43.43 0 01-.279-.103 22.723 22.723 0 00-6.799-3.984.429.429 0 11.3-.805 23.58 23.58 0 017.058 4.135.432.432 0 01.048.607.439.439 0 01-.328.15z" fill="#472b29"/></g></svg>