<?xml version="1.0" encoding="utf-8"?>
<!-- Generator: Adobe Illustrator 24.0.1, SVG Export Plug-In . SVG Version: 6.00 Build 0)  -->
<svg version="1.1" id="Слой_1" xmlns="http://www.w3.org/2000/svg" xmlns:xlink="http://www.w3.org/1999/xlink" x="0px" y="0px"
	 viewBox="0 0 172 172" style="enable-background:new 0 0 172 172;" xml:space="preserve">
<style type="text/css">
	.st0{fill:none;}
	.st1{fill:#EF4861;}
	.st2{fill:#472B29;}
</style>
<g>
	<path class="st0" d="M0,172V0h172v172H0z"/>
	<g>
		<g>
			<path class="st1" d="M161.5,80.1h-9.3c-2.9-31.2-28.3-56.2-60.1-59V10.4c0-3.3-2.7-5.9-6-5.9s-6,2.7-6,5.9V21
				c-29.5,2.6-54,24.3-59.3,53.4c-0.3,1.9-0.6,3.8-0.8,5.7h-9.3c-3.3,0-6,2.7-6,5.9s2.7,5.9,6,5.9h9.4c0.1,1.6,0.3,3.1,0.6,4.7
				c4.9,29.7,29.5,51.8,59.5,54.4v10.6c0,3.3,2.7,5.9,6,5.9s6-2.7,6-5.9V151c31.8-2.8,57.2-27.8,60.1-59h9.3c3.3,0,6-2.7,6-5.9
				S164.8,80.1,161.5,80.1z M92,139v-24.9c0-3.3-2.7-5.9-6-5.9s-6,2.7-6,5.9V139c-24.1-2.6-43.6-20.4-47.6-44.3
				c-0.2-0.9-0.2-1.8-0.3-2.7h26.8c3.3,0,6-2.7,6-5.9s-2.7-5.9-6-5.9H32c0.1-1.2,0.3-2.4,0.5-3.6C36.8,53,56.3,35.6,80,33v24.8
				c0,3.3,2.7,5.9,6,5.9c3.3,0,6-2.7,6-5.9V33c25.1,2.7,45.1,22.4,47.9,47.1h-26.8c-3.3,0-6,2.7-6,5.9s2.7,5.9,6,5.9H140
				C137.2,116.6,117.2,136.3,92,139z"/>
			<path class="st2" d="M86,169.6c-4.5,0-8.2-3.6-8.2-8v-8.8c-30.2-3.5-54.5-26.2-59.5-55.9C18.2,96,18.1,95,18,94h-7.4
				c-4.5,0-8.2-3.6-8.2-8c0-4.4,3.7-8,8.2-8H18c0.2-1.3,0.4-2.7,0.6-4c5.3-29.1,29.5-51.4,59.3-54.9v-8.8c0-4.4,3.7-8,8.2-8
				s8.2,3.6,8.2,8v8.8c31.4,3.7,56.2,28,59.9,58.8h7.4c4.5,0,8.2,3.6,8.2,8s-3.7,8-8.2,8H154c-3.7,30.8-28.5,55.2-59.9,58.8v8.8
				C94.2,166,90.5,169.6,86,169.6z M10.5,82.1c-2.2,0-3.9,1.7-3.9,3.9s1.8,3.9,3.9,3.9h11.3l0.2,1.9c0.1,1.5,0.3,3,0.6,4.5
				c4.7,28.4,28.4,50.1,57.6,52.7l1.9,0.2v12.5c0,2.1,1.8,3.9,3.9,3.9s3.9-1.7,3.9-3.9v-12.6l1.9-0.2c30.9-2.8,55.4-26.8,58.2-57.1
				l0.2-1.9h11.3c2.2,0,3.9-1.7,3.9-3.9c0-2.1-1.8-3.9-3.9-3.9h-11.3l-0.2-1.9c-2.8-30.4-27.3-54.4-58.2-57.1l-1.9-0.2V10.4
				c0-2.1-1.8-3.9-3.9-3.9s-3.9,1.7-3.9,3.9v12.5l-1.9,0.2c-28.7,2.5-52.3,23.8-57.4,51.7c-0.3,1.8-0.6,3.6-0.7,5.5l-0.2,1.9
				L10.5,82.1z M89.9,141.3v-27.2c0-2.1-1.8-3.9-3.9-3.9s-3.9,1.7-3.9,3.9v27.2l-2.3-0.3c-25.1-2.7-45.4-21.6-49.4-46.1
				c-0.1-0.8-0.2-1.5-0.3-2.3l-0.3-2.9h29.2c2.2,0,3.9-1.7,3.9-3.9c0-2.1-1.8-3.9-3.9-3.9H29.7l0.3-2.3c0.1-1.2,0.3-2.5,0.5-3.7
				c4.4-23.9,24.6-42.5,49.3-45.2l2.3-0.3v27.2c0,2.1,1.8,3.9,3.9,3.9c2.2,0,3.9-1.7,3.9-3.9V30.7l2.3,0.3
				c26,2.8,46.9,23.4,49.8,48.9l0.3,2.3h-29.2c-2.2,0-3.9,1.7-3.9,3.9c0,2.1,1.8,3.9,3.9,3.9h29.2l-0.3,2.3
				c-2.9,25.5-23.8,46.1-49.8,48.9L89.9,141.3z M86,106.2c4.5,0,8.2,3.6,8.2,8v22.5c22.2-3.4,39.9-20.9,43.4-42.6h-24.4
				c-4.5,0-8.2-3.6-8.2-8s3.7-8,8.2-8h24.4c-3.5-21.8-21.3-39.2-43.4-42.6v22.5c0,4.4-3.7,8-8.2,8s-8.2-3.6-8.2-8V35.4
				c-21.7,3.4-39.3,20.1-43.2,41.5c-0.1,0.4-0.1,0.7-0.2,1.1h24.4c4.5,0,8.2,3.6,8.2,8s-3.7,8-8.2,8H34.4c0,0.1,0,0.2,0.1,0.3
				c3.6,21.8,21.3,38.9,43.4,42.3v-22.5C77.8,109.8,81.5,106.2,86,106.2z"/>
		</g>
		<g>
			<path class="st2" d="M47.6,73.4c-0.1,0-0.2,0-0.3,0c-0.4-0.1-0.6-0.6-0.5-0.9c4.1-11.3,12.9-20.2,24.3-24.5c0.4-0.2,0.8,0,1,0.4
				c0.2,0.4,0,0.8-0.4,1c-11,4.1-19.5,12.7-23.5,23.6C48.2,73.2,47.9,73.4,47.6,73.4z"/>
		</g>
		<g>
			<path class="st2" d="M72.3,124.5c-0.1,0-0.2,0-0.3,0c-11.8-4.1-21-13.2-25.2-24.8c-0.1-0.4,0.1-0.8,0.5-0.9
				c0.4-0.1,0.8,0.1,1,0.5c4,11.1,13.1,20,24.3,23.9c0.4,0.1,0.6,0.6,0.5,0.9C72.9,124.3,72.6,124.5,72.3,124.5z"/>
		</g>
		<g>
			<path class="st2" d="M98.9,124.7c-0.3,0-0.6-0.2-0.7-0.5c-0.1-0.4,0.1-0.8,0.5-0.9c11.9-3.9,21.4-13.3,25.3-25
				c0.1-0.4,0.5-0.6,1-0.5c0.4,0.1,0.6,0.5,0.5,0.9c-4.1,12.2-13.9,21.9-26.3,26C99.1,124.7,99,124.7,98.9,124.7z"/>
		</g>
		<g>
			<path class="st2" d="M124.5,73.6c-0.3,0-0.6-0.2-0.7-0.5c-1.6-4.6-4-8.8-7.2-12.5c-0.3-0.3-0.2-0.8,0.1-1
				c0.3-0.3,0.8-0.2,1.1,0.1c3.3,3.9,5.8,8.2,7.5,12.9c0.1,0.4-0.1,0.8-0.5,0.9C124.7,73.6,124.6,73.6,124.5,73.6z"/>
		</g>
		<g>
			<path class="st2" d="M112.4,56.2c-0.2,0-0.3-0.1-0.5-0.2c-3.6-3-7.6-5.3-11.9-6.9c-0.4-0.1-0.6-0.6-0.4-1c0.1-0.4,0.6-0.6,1-0.4
				c4.5,1.6,8.7,4,12.4,7.1c0.3,0.3,0.4,0.7,0.1,1C112.8,56.1,112.6,56.2,112.4,56.2z"/>
		</g>
	</g>
</g>
</svg>
