<svg version="1.1" id="Слой_1" xmlns="http://www.w3.org/2000/svg" x="0" y="0" viewBox="0 0 172 172" xml:space="preserve"><style>.st2{fill:#472b29}</style><path d="M0 172V0h172v172H0z" fill="none"/><path d="M161.5 80.1h-9.3c-2.9-31.2-28.3-56.2-60.1-59V10.4c0-3.3-2.7-5.9-6-5.9s-6 2.7-6 5.9V21c-29.5 2.6-54 24.3-59.3 53.4-.3 1.9-.6 3.8-.8 5.7h-9.3c-3.3 0-6 2.7-6 5.9s2.7 5.9 6 5.9h9.4c.1 1.6.3 3.1.6 4.7 4.9 29.7 29.5 51.8 59.5 54.4v10.6c0 3.3 2.7 5.9 6 5.9s6-2.7 6-5.9V151c31.8-2.8 57.2-27.8 60.1-59h9.3c3.3 0 6-2.7 6-5.9s-2.8-6-6.1-6zM92 139v-24.9c0-3.3-2.7-5.9-6-5.9s-6 2.7-6 5.9V139c-24.1-2.6-43.6-20.4-47.6-44.3-.2-.9-.2-1.8-.3-2.7h26.8c3.3 0 6-2.7 6-5.9s-2.7-5.9-6-5.9H32c.1-1.2.3-2.4.5-3.6C36.8 53 56.3 35.6 80 33v24.8c0 3.3 2.7 5.9 6 5.9s6-2.7 6-5.9V33c25.1 2.7 45.1 22.4 47.9 47.1h-26.8c-3.3 0-6 2.7-6 5.9s2.7 5.9 6 5.9H140c-2.8 24.7-22.8 44.4-48 47.1z" fill="#ef4861"/><path class="st2" d="M86 169.6c-4.5 0-8.2-3.6-8.2-8v-8.8c-30.2-3.5-54.5-26.2-59.5-55.9-.1-.9-.2-1.9-.3-2.9h-7.4c-4.5 0-8.2-3.6-8.2-8s3.7-8 8.2-8H18c.2-1.3.4-2.7.6-4 5.3-29.1 29.5-51.4 59.3-54.9v-8.8c0-4.4 3.7-8 8.2-8s8.2 3.6 8.2 8v8.8c31.4 3.7 56.2 28 59.9 58.8h7.4c4.5 0 8.2 3.6 8.2 8s-3.7 8-8.2 8H154c-3.7 30.8-28.5 55.2-59.9 58.8v8.8c.1 4.5-3.6 8.1-8.1 8.1zM10.5 82.1c-2.2 0-3.9 1.7-3.9 3.9s1.8 3.9 3.9 3.9h11.3l.2 1.9c.1 1.5.3 3 .6 4.5 4.7 28.4 28.4 50.1 57.6 52.7l1.9.2v12.5c0 2.1 1.8 3.9 3.9 3.9s3.9-1.7 3.9-3.9v-12.6l1.9-.2c30.9-2.8 55.4-26.8 58.2-57.1l.2-1.9h11.3c2.2 0 3.9-1.7 3.9-3.9 0-2.1-1.8-3.9-3.9-3.9h-11.3l-.2-1.9c-2.8-30.4-27.3-54.4-58.2-57.1l-1.9-.2V10.4c0-2.1-1.8-3.9-3.9-3.9s-3.9 1.7-3.9 3.9v12.5l-1.9.2c-28.7 2.5-52.3 23.8-57.4 51.7-.3 1.8-.6 3.6-.7 5.5l-.2 1.9-11.4-.1zm79.4 59.2v-27.2c0-2.1-1.8-3.9-3.9-3.9s-3.9 1.7-3.9 3.9v27.2l-2.3-.3c-25.1-2.7-45.4-21.6-49.4-46.1-.1-.8-.2-1.5-.3-2.3l-.3-2.9H59c2.2 0 3.9-1.7 3.9-3.9 0-2.1-1.8-3.9-3.9-3.9H29.7l.3-2.3c.1-1.2.3-2.5.5-3.7C34.9 52 55.1 33.4 79.8 30.7l2.3-.3v27.2c0 2.1 1.8 3.9 3.9 3.9 2.2 0 3.9-1.7 3.9-3.9V30.7l2.3.3c26 2.8 46.9 23.4 49.8 48.9l.3 2.3h-29.2c-2.2 0-3.9 1.7-3.9 3.9 0 2.1 1.8 3.9 3.9 3.9h29.2l-.3 2.3c-2.9 25.5-23.8 46.1-49.8 48.9l-2.3.1zM86 106.2c4.5 0 8.2 3.6 8.2 8v22.5c22.2-3.4 39.9-20.9 43.4-42.6h-24.4c-4.5 0-8.2-3.6-8.2-8s3.7-8 8.2-8h24.4c-3.5-21.8-21.3-39.2-43.4-42.6V58c0 4.4-3.7 8-8.2 8s-8.2-3.6-8.2-8V35.4c-21.7 3.4-39.3 20.1-43.2 41.5-.1.4-.1.7-.2 1.1h24.4c4.5 0 8.2 3.6 8.2 8s-3.7 8-8.2 8H34.4c0 .1 0 .2.1.3 3.6 21.8 21.3 38.9 43.4 42.3v-22.5c-.1-4.3 3.6-7.9 8.1-7.9z"/><path class="st2" d="M47.6 73.4h-.3c-.4-.1-.6-.6-.5-.9C50.9 61.2 59.7 52.3 71.1 48c.4-.2.8 0 1 .4.2.4 0 .8-.4 1-11 4.1-19.5 12.7-23.5 23.6 0 .2-.3.4-.6.4zm24.7 51.1H72c-11.8-4.1-21-13.2-25.2-24.8-.1-.4.1-.8.5-.9.4-.1.8.1 1 .5 4 11.1 13.1 20 24.3 23.9.4.1.6.6.5.9-.2.2-.5.4-.8.4zm26.6.2c-.3 0-.6-.2-.7-.5-.1-.4.1-.8.5-.9 11.9-3.9 21.4-13.3 25.3-25 .1-.4.5-.6 1-.5.4.1.6.5.5.9-4.1 12.2-13.9 21.9-26.3 26h-.3zm25.6-51.1c-.3 0-.6-.2-.7-.5-1.6-4.6-4-8.8-7.2-12.5-.3-.3-.2-.8.1-1 .3-.3.8-.2 1.1.1 3.3 3.9 5.8 8.2 7.5 12.9.1.4-.1.8-.5.9-.1.1-.2.1-.3.1zm-12.1-17.4c-.2 0-.3-.1-.5-.2-3.6-3-7.6-5.3-11.9-6.9-.4-.1-.6-.6-.4-1 .1-.4.6-.6 1-.4 4.5 1.6 8.7 4 12.4 7.1.3.3.4.7.1 1-.3.3-.5.4-.7.4z"/></svg>