<svg version="1.1" id="Слой_1" xmlns="http://www.w3.org/2000/svg" x="0" y="0" viewBox="0 0 172 172" xml:space="preserve"><style>.st2{fill:#472b29}.st3{fill:#ce942b}.st4{fill:#f1bc19}.st5{fill:#cbc9bc}.st6{fill:#f5e690}.st7{fill:#fbcd59}.st9{fill:#f4989e}.st10{fill:#00a5a5}.st11{fill:#a8dbdb}</style><path d="M-9.5 175.5V0H166v175.5H-9.5z" fill="none"/><path d="M149.1 81.7H25.7l10.7-24.2h102l10.7 24.2z" fill="#836f61"/><path class="st2" d="M25.7 41.4h123.4l-10.7 16.1h-102L25.7 41.4z"/><path class="st3" d="M27.6 42.2c.8-13.9 10.8-25.8 16.9-25.8h85.9c8.6 0 16.2 11.8 16.9 25.8H27.6z"/><path class="st2" d="M130.3 18.4c7.1 0 13.7 10.1 14.8 22H29.7c1.6-12.2 10.3-22 14.8-22h85.8m0-3.8H44.5c-8.1 0-18.8 14.8-18.8 29.5h123.4c0-14.7-8-29.5-18.8-29.5z"/><circle class="st4" cx="64.6" cy="66.9" r="8.1"/><path class="st2" d="M64.6 76.3c-5.2 0-9.4-4.2-9.4-9.4s4.2-9.4 9.4-9.4 9.4 4.2 9.4 9.4-4.2 9.4-9.4 9.4zm0-16.1a6.7 6.7 0 100 13.4 6.7 6.7 0 000-13.4z"/><circle class="st5" cx="53.9" cy="72.3" r="8.1"/><path class="st2" d="M53.9 81.7c-5.2 0-9.4-4.2-9.4-9.4s4.2-9.4 9.4-9.4 9.4 4.2 9.4 9.4-4.3 9.4-9.4 9.4zm0-16.1a6.7 6.7 0 100 13.4 6.7 6.7 0 000-13.4z"/><circle class="st6" cx="43.1" cy="77.7" r="8.1"/><path class="st2" d="M43.1 87.1c-5.2 0-9.4-4.2-9.4-9.4s4.2-9.4 9.4-9.4 9.4 4.2 9.4 9.4c0 5.1-4.2 9.4-9.4 9.4zm0-16.1a6.7 6.7 0 100 13.4 6.7 6.7 0 000-13.4z"/><circle class="st7" cx="56.5" cy="80.4" r="8.1"/><path class="st2" d="M56.5 89.7c-5.2 0-9.4-4.2-9.4-9.4s4.2-9.4 9.4-9.4 9.4 4.2 9.4 9.4-4.2 9.4-9.4 9.4zm0-16.1a6.7 6.7 0 100 13.4 6.7 6.7 0 000-13.4z"/><circle class="st5" cx="75.3" cy="64.3" r="8.1"/><path class="st2" d="M75.3 73.6c-5.2 0-9.4-4.2-9.4-9.4s4.2-9.4 9.4-9.4 9.4 4.2 9.4 9.4-4.2 9.4-9.4 9.4zm0-16.1a6.7 6.7 0 106.7 6.7c0-3.6-3-6.7-6.7-6.7z"/><circle class="st6" cx="88.7" cy="61.6" r="8.1"/><path class="st2" d="M88.7 71c-5.2 0-9.4-4.2-9.4-9.4s4.2-9.4 9.4-9.4 9.4 4.2 9.4 9.4c0 5.1-4.2 9.4-9.4 9.4zm0-16.1a6.7 6.7 0 106.7 6.7c.1-3.7-3-6.7-6.7-6.7z"/><circle class="st4" cx="112.9" cy="66.9" r="8.1"/><path class="st2" d="M112.9 76.3c-5.2 0-9.4-4.2-9.4-9.4s4.2-9.4 9.4-9.4 9.4 4.2 9.4 9.4-4.2 9.4-9.4 9.4zm0-16.1a6.7 6.7 0 100 13.4 6.7 6.7 0 000-13.4z"/><circle class="st5" cx="123.6" cy="69.6" r="8.1"/><path class="st2" d="M123.6 79c-5.2 0-9.4-4.2-9.4-9.4s4.2-9.4 9.4-9.4 9.4 4.2 9.4 9.4-4.2 9.4-9.4 9.4zm0-16.1a6.7 6.7 0 100 13.4 6.7 6.7 0 000-13.4z"/><circle class="st6" cx="131.7" cy="77.7" r="8.1"/><path class="st2" d="M131.7 87.1c-5.2 0-9.4-4.2-9.4-9.4s4.2-9.4 9.4-9.4 9.4 4.2 9.4 9.4c0 5.1-4.2 9.4-9.4 9.4zm0-16.1a6.7 6.7 0 100 13.4 6.7 6.7 0 000-13.4z"/><circle class="st7" cx="102.2" cy="66.9" r="8.1"/><path class="st2" d="M102.2 76.3c-5.2 0-9.4-4.2-9.4-9.4s4.2-9.4 9.4-9.4 9.4 4.2 9.4 9.4-4.3 9.4-9.4 9.4zm0-16.1a6.7 6.7 0 100 13.4 6.7 6.7 0 000-13.4z"/><circle class="st4" cx="80.7" cy="75" r="8.1"/><path class="st2" d="M80.7 84.4c-5.2 0-9.4-4.2-9.4-9.4s4.2-9.4 9.4-9.4 9.4 4.2 9.4 9.4-4.2 9.4-9.4 9.4zm0-16.1a6.7 6.7 0 100 13.4 6.7 6.7 0 000-13.4z"/><circle class="st6" cx="91.4" cy="75" r="8.1"/><path class="st2" d="M91.4 84.4c-5.2 0-9.4-4.2-9.4-9.4s4.2-9.4 9.4-9.4 9.4 4.2 9.4 9.4-4.2 9.4-9.4 9.4zm0-16.1a6.7 6.7 0 100 13.4 6.7 6.7 0 000-13.4z"/><circle class="st7" cx="104.8" cy="80.4" r="8.1"/><path class="st2" d="M104.8 89.7c-5.2 0-9.4-4.2-9.4-9.4s4.2-9.4 9.4-9.4 9.4 4.2 9.4 9.4-4.2 9.4-9.4 9.4zm0-16.1a6.7 6.7 0 100 13.4 6.7 6.7 0 000-13.4z"/><circle class="st7" cx="120.9" cy="77.7" r="8.1"/><path class="st2" d="M120.9 87.1c-5.2 0-9.4-4.2-9.4-9.4s4.2-9.4 9.4-9.4 9.4 4.2 9.4 9.4c0 5.1-4.2 9.4-9.4 9.4zm0-16.1a6.7 6.7 0 100 13.4 6.7 6.7 0 000-13.4z"/><circle class="st7" cx="67.3" cy="75" r="8.1"/><path class="st2" d="M67.3 84.4c-5.2 0-9.4-4.2-9.4-9.4s4.2-9.4 9.4-9.4 9.4 4.2 9.4 9.4-4.2 9.4-9.4 9.4zm0-16.1a6.7 6.7 0 100 13.4 6.7 6.7 0 000-13.4z"/><ellipse class="st7" cx="107.5" cy="150.1" rx="8.1" ry="5.4"/><path class="st2" d="M107.5 156.8c-5.3 0-9.4-2.9-9.4-6.7s4.1-6.7 9.4-6.7c5.3 0 9.4 2.9 9.4 6.7s-4.1 6.7-9.4 6.7zm0-10.7c-3.6 0-6.7 1.8-6.7 4s3.1 4 6.7 4 6.7-1.8 6.7-4-3-4-6.7-4z"/><ellipse class="st7" cx="91.4" cy="160.9" rx="8.1" ry="5.4"/><path class="st2" d="M91.4 167.6c-5.3 0-9.4-2.9-9.4-6.7 0-3.8 4.1-6.7 9.4-6.7s9.4 2.9 9.4 6.7c0 3.7-4.1 6.7-9.4 6.7zm0-10.8c-3.6 0-6.7 1.8-6.7 4s3.1 4 6.7 4 6.7-1.8 6.7-4c0-2.1-3-4-6.7-4z"/><ellipse class="st7" cx="120.9" cy="152.8" rx="8.1" ry="5.4"/><path class="st2" d="M120.9 159.5c-5.3 0-9.4-2.9-9.4-6.7 0-3.8 4.1-6.7 9.4-6.7 5.3 0 9.4 2.9 9.4 6.7 0 3.8-4.1 6.7-9.4 6.7zm0-10.7c-3.6 0-6.7 1.8-6.7 4s3.1 4 6.7 4 6.7-1.8 6.7-4c.1-2.2-3-4-6.7-4z"/><path class="st3" d="M25.7 81.7h123.4v59H25.7z"/><path class="st2" d="M137 97.1h-28.3c-.4 0-.7-.3-.7-.7s.3-.7.7-.7H137c.4 0 .7.3.7.7s-.3.7-.7.7zm-67.4 0H47.3c-.4 0-.7-.3-.7-.7s.3-.7.7-.7h22.4c.4 0 .7.3.7.7s-.4.7-.8.7zm-27.9 0H27c-.4 0-.7-.3-.7-.7s.3-.7.7-.7h14.6c.4 0 .7.3.7.7s-.3.7-.6.7zm106.1 13.4h-42.4c-.4 0-.7-.3-.7-.7s.3-.7.7-.7h42.4c.4 0 .7.3.7.7s-.3.7-.7.7zm-98-77.8H30.3c-.4 0-.7-.3-.7-.7 0-.4.3-.7.7-.7h19.6c.4 0 .7.3.7.7-.1.4-.4.7-.8.7zm94 0H57.9c-.4 0-.7-.3-.7-.7 0-.4.3-.7.7-.7h85.9c.4 0 .7.3.7.7-.1.4-.4.7-.7.7zm-4.1-8h-25.5c-.4 0-.7-.3-.7-.7s.3-.7.7-.7h25.5c.4 0 .7.3.7.7s-.3.7-.7.7zm-32.2 0H33.7c-.4 0-.7-.3-.7-.7s.3-.7.7-.7h73.8c.4 0 .7.3.7.7s-.3.7-.7.7zm-35.1 85.8H59.3c-.4 0-.7-.3-.7-.7s.3-.7.7-.7h13.1c.4 0 .7.3.7.7s-.3.7-.7.7zm-18.4 0H27c-.4 0-.7-.3-.7-.7s.3-.7.7-.7h27c.4 0 .7.3.7.7s-.4.7-.7.7zm93.8 13.5H100c-.4 0-.7-.3-.7-.7s.3-.7.7-.7h47.7c.4 0 .7.3.7.7s-.2.7-.6.7zm-72.3 0H27c-.4 0-.7-.3-.7-.7s.3-.7.7-.7h48.5c.4 0 .7.3.7.7s-.3.7-.7.7z"/><path class="st7" d="M39.1 123.8v-3c0-2.3-1.9-4.2-4.2-4.2h-6.5V138h21.4v-6.5c0-2.3-1.9-4.2-4.2-4.2h-3c-1.9 0-3.5-1.6-3.5-3.5z"/><path class="st2" d="M50.5 138.7H27.7v-22.8h7.2c2.7 0 4.9 2.2 4.9 4.9v3c0 1.6 1.3 2.9 2.9 2.9h3c2.7 0 4.9 2.2 4.9 4.9v7.1zM29 137.4h20.1v-5.8c0-2-1.6-3.6-3.6-3.6h-3c-2.3 0-4.2-1.9-4.2-4.2v-3c0-2-1.6-3.6-3.6-3.6H29v20.2z"/><path class="st7" d="M132.2 127.3h-3c-2.3 0-4.2 1.9-4.2 4.2v6.5h21.4v-21.4h-6.5c-2.3 0-4.2 1.9-4.2 4.2v3c0 1.9-1.6 3.5-3.5 3.5z"/><path class="st2" d="M147.1 138.7h-22.8v-7.2c0-2.7 2.2-4.9 4.9-4.9h3c1.6 0 2.9-1.3 2.9-2.9v-3c0-2.7 2.2-4.9 4.9-4.9h7.2v22.9zm-21.5-1.3h20.1v-20.1h-5.8c-2 0-3.6 1.6-3.6 3.6v3c0 2.3-1.9 4.2-4.2 4.2h-3c-2 0-3.6 1.6-3.6 3.6l.1 5.7z"/><path class="st7" d="M103.5 83.4H74v16.5c0 1.7.8 3.2 2.2 4.2l3.6 2.4c1.2.8 1.4 2.6.4 3.7l-2.4 2.4a3.32 3.32 0 000 4.7l8.7 8.9c1.3 1.3 3.3 1.3 4.6 0l8.7-8.9c1.3-1.3 1.3-3.4 0-4.7l-2.4-2.4c-1.1-1.1-.9-2.9.4-3.7l3.6-2.4c1.4-.9 2.2-2.5 2.2-4.2l-.1-16.5z"/><path class="st2" d="M88.7 127.9c-1 0-2-.4-2.8-1.2l-8.7-8.9c-1.5-1.5-1.5-4.1 0-5.6l2.4-2.4c.4-.4.5-.9.5-1.4-.1-.5-.3-1-.8-1.3l-3.6-2.4c-1.6-1-2.5-2.8-2.5-4.7V82.7h30.9v17.2c0 1.9-.9 3.7-2.5 4.7L98 107c-.4.3-.7.8-.8 1.3-.1.5.1 1 .5 1.4l2.4 2.4c1.5 1.5 1.5 4.1 0 5.6l-8.7 8.9c-.6.8-1.6 1.3-2.7 1.3zM74.7 84v15.9c0 1.5.7 2.8 1.9 3.6l3.6 2.4c.8.5 1.2 1.3 1.3 2.2.1.9-.2 1.8-.9 2.5l-2.4 2.4c-1 1-1 2.7 0 3.7l8.7 8.9c1 1 2.6 1 3.6 0l8.7-8.9c1-1 1-2.7 0-3.7l-2.4-2.4c-.6-.7-1-1.6-.9-2.5.1-.9.6-1.7 1.3-2.2l3.6-2.4c1.2-.8 1.9-2.1 1.9-3.6V84h-28z"/><path class="st2" d="M138.4 57.5l10.7-13.4h-4.5l-9.3 11.3-1.1 1.7.8 1.9 10.4 23.4V137h-116V82.5l10.4-23.4.8-1.9-1.1-1.7-9.4-11.3h-4.5l10.8 13.4-10.7 24.1v59h123.4v-59l-10.7-24.2z"/><path class="st3" d="M88.7 115.2c-1.5 0-2.7-1.2-2.7-2.7v-10.7c0-1.5 1.2-2.7 2.7-2.7 1.5 0 2.7 1.2 2.7 2.7v10.7c0 1.5-1.2 2.7-2.7 2.7z"/><path class="st2" d="M88.7 115.9c-1.8 0-3.4-1.5-3.4-3.4v-10.7c0-1.8 1.5-3.4 3.4-3.4 1.8 0 3.4 1.5 3.4 3.4v10.7c0 1.9-1.5 3.4-3.4 3.4zm0-16.1c-1.1 0-2 .9-2 2v10.7c0 1.1.9 2 2 2s2-.9 2-2v-10.7c.1-1.1-.8-2-2-2zM27 81.7h120.8v2.7H27z"/><path transform="rotate(-71.016 61.758 65.16)" fill="#ee3e54" d="M56.5 59.9H67v10.5H56.5z"/><path class="st9" d="M61.8 65.2l-3.2-6.7-3.4 9.9 6.6-3.2z"/><path class="st9" d="M61.7 65.1l3.2 6.7 3.4-9.9-6.6 3.2z"/><path class="st2" d="M65 72.5h-.2L54.9 69c-.4-.1-.5-.5-.4-.9l3.4-9.9c.1-.2.2-.3.3-.4.2-.1.3-.1.5 0l9.9 3.4c.4.1.5.5.4.9L65.6 72c-.1.2-.2.3-.3.4-.1.1-.2.1-.3.1zM56 68l8.6 3 3-8.6-8.6-3-3 8.6z"/><path transform="rotate(-45.001 96.962 57.21)" class="st10" d="M91.7 52h10.5v10.5H91.7z"/><path class="st11" d="M97 57.2v-7.4l-7.4 7.4H97zm-.1 0v7.4l7.4-7.4h-7.4z"/><path class="st2" d="M97 65.3c-.2 0-.3-.1-.5-.2l-7.4-7.4c-.3-.3-.3-.7 0-.9l7.4-7.4c.3-.3.7-.3.9 0l7.4 7.4c.3.3.3.7 0 .9l-7.4 7.4c-.1.1-.3.2-.4.2zm-6.5-8.1l6.5 6.5 6.5-6.5-6.5-6.4-6.5 6.4z"/><path transform="rotate(-45.001 114.628 70.848)" class="st10" d="M109.4 65.6h10.5v10.5h-10.5z"/><path class="st11" d="M114.6 70.8v-7.4l-7.4 7.4h7.4zm0 0v7.4l7.4-7.4h-7.4z"/><path class="st2" d="M114.6 78.9c-.2 0-.3-.1-.5-.2l-7.4-7.4c-.3-.3-.3-.7 0-.9l7.4-7.4c.3-.3.7-.3.9 0l7.4 7.4c.1.1.2.3.2.5s-.1.3-.2.5l-7.4 7.4c0 .1-.2.1-.4.1zm-6.4-8.1l6.5 6.5 6.5-6.5-6.5-6.5-6.5 6.5zm-8.7 19.6H87.6c-.4 0-.7-.3-.7-.7 0-.4.3-.7.7-.7h11.9c.4 0 .7.3.7.7 0 .4-.4.7-.7.7zm-16.3 0H78c-.4 0-.7-.3-.7-.7 0-.4.3-.7.7-.7h5.1c.4 0 .7.3.7.7 0 .4-.3.7-.6.7z"/><path class="st7" d="M87.4 28C80 28 74 33.9 74 41.1h26.8c0-7.2-6-13.1-13.4-13.1z"/><path class="st2" d="M101.5 41.8H73.3v-.7c0-7.6 6.3-13.8 14.1-13.8s14.1 6.2 14.1 13.8v.7zm-26.8-1.4h25.5c-.4-6.5-5.9-11.7-12.7-11.7S75 33.9 74.7 40.4z"/></svg>