<?xml version="1.0" encoding="utf-8"?>
<!-- Generator: Adobe Illustrator 24.0.1, SVG Export Plug-In . SVG Version: 6.00 Build 0)  -->
<svg version="1.1" id="Слой_1" xmlns="http://www.w3.org/2000/svg" xmlns:xlink="http://www.w3.org/1999/xlink" x="0px" y="0px"
	 viewBox="0 0 172 172" style="enable-background:new 0 0 172 172;" xml:space="preserve">
<style type="text/css">
	.st0{fill:none;}
	.st1{fill:#836F61;}
	.st2{fill:#472B29;}
	.st3{fill:#CE942B;}
	.st4{fill:#F1BC19;}
	.st5{fill:#CBC9BC;}
	.st6{fill:#F5E690;}
	.st7{fill:#FBCD59;}
	.st8{fill:#EE3E54;}
	.st9{fill:#F4989E;}
	.st10{fill:#00A5A5;}
	.st11{fill:#A8DBDB;}
</style>
<g>
	<path class="st0" d="M-9.5,175.5V0H166v175.5H-9.5z"/>
	<g>
		<g>
			<path class="st1" d="M149.1,81.7H25.7l10.7-24.2h102L149.1,81.7z"/>
			<path class="st2" d="M25.7,41.4h123.4l-10.7,16.1h-102L25.7,41.4z"/>
			<path class="st3" d="M27.6,42.2c0.8-13.9,10.8-25.8,16.9-25.8h85.9c8.6,0,16.2,11.8,16.9,25.8L27.6,42.2z"/>
			<path class="st2" d="M130.3,18.4c7.1,0,13.7,10.1,14.8,22H29.7c1.6-12.2,10.3-22,14.8-22H130.3 M130.3,14.6H44.5
				c-8.1,0-18.8,14.8-18.8,29.5h123.4C149.1,29.4,141.1,14.6,130.3,14.6z"/>
			<circle class="st4" cx="64.6" cy="66.9" r="8.1"/>
			<path class="st2" d="M64.6,76.3c-5.2,0-9.4-4.2-9.4-9.4c0-5.2,4.2-9.4,9.4-9.4c5.2,0,9.4,4.2,9.4,9.4
				C74,72.1,69.8,76.3,64.6,76.3z M64.6,60.2c-3.7,0-6.7,3-6.7,6.7s3,6.7,6.7,6.7s6.7-3,6.7-6.7S68.3,60.2,64.6,60.2z"/>
			<circle class="st5" cx="53.9" cy="72.3" r="8.1"/>
			<path class="st2" d="M53.9,81.7c-5.2,0-9.4-4.2-9.4-9.4c0-5.2,4.2-9.4,9.4-9.4c5.2,0,9.4,4.2,9.4,9.4
				C63.3,77.5,59,81.7,53.9,81.7z M53.9,65.6c-3.7,0-6.7,3-6.7,6.7s3,6.7,6.7,6.7c3.7,0,6.7-3,6.7-6.7S57.6,65.6,53.9,65.6z"/>
			<circle class="st6" cx="43.1" cy="77.7" r="8.1"/>
			<path class="st2" d="M43.1,87.1c-5.2,0-9.4-4.2-9.4-9.4c0-5.2,4.2-9.4,9.4-9.4s9.4,4.2,9.4,9.4C52.5,82.8,48.3,87.1,43.1,87.1z
				 M43.1,71c-3.7,0-6.7,3-6.7,6.7s3,6.7,6.7,6.7c3.7,0,6.7-3,6.7-6.7S46.8,71,43.1,71z"/>
			<circle class="st7" cx="56.5" cy="80.4" r="8.1"/>
			<path class="st2" d="M56.5,89.7c-5.2,0-9.4-4.2-9.4-9.4c0-5.2,4.2-9.4,9.4-9.4s9.4,4.2,9.4,9.4C65.9,85.5,61.7,89.7,56.5,89.7z
				 M56.5,73.6c-3.7,0-6.7,3-6.7,6.7s3,6.7,6.7,6.7c3.7,0,6.7-3,6.7-6.7S60.2,73.6,56.5,73.6z"/>
			<circle class="st5" cx="75.3" cy="64.3" r="8.1"/>
			<path class="st2" d="M75.3,73.6c-5.2,0-9.4-4.2-9.4-9.4c0-5.2,4.2-9.4,9.4-9.4c5.2,0,9.4,4.2,9.4,9.4
				C84.7,69.4,80.5,73.6,75.3,73.6z M75.3,57.5c-3.7,0-6.7,3-6.7,6.7c0,3.7,3,6.7,6.7,6.7s6.7-3,6.7-6.7C82,60.6,79,57.5,75.3,57.5z
				"/>
			<circle class="st6" cx="88.7" cy="61.6" r="8.1"/>
			<path class="st2" d="M88.7,71c-5.2,0-9.4-4.2-9.4-9.4c0-5.2,4.2-9.4,9.4-9.4c5.2,0,9.4,4.2,9.4,9.4C98.1,66.7,93.9,71,88.7,71z
				 M88.7,54.9c-3.7,0-6.7,3-6.7,6.7c0,3.7,3,6.7,6.7,6.7s6.7-3,6.7-6.7C95.5,57.9,92.4,54.9,88.7,54.9z"/>
			<circle class="st4" cx="112.9" cy="66.9" r="8.1"/>
			<path class="st2" d="M112.9,76.3c-5.2,0-9.4-4.2-9.4-9.4c0-5.2,4.2-9.4,9.4-9.4c5.2,0,9.4,4.2,9.4,9.4
				C122.3,72.1,118.1,76.3,112.9,76.3z M112.9,60.2c-3.7,0-6.7,3-6.7,6.7s3,6.7,6.7,6.7s6.7-3,6.7-6.7S116.6,60.2,112.9,60.2z"/>
			<circle class="st5" cx="123.6" cy="69.6" r="8.1"/>
			<path class="st2" d="M123.6,79c-5.2,0-9.4-4.2-9.4-9.4c0-5.2,4.2-9.4,9.4-9.4c5.2,0,9.4,4.2,9.4,9.4C133,74.8,128.8,79,123.6,79z
				 M123.6,62.9c-3.7,0-6.7,3-6.7,6.7c0,3.7,3,6.7,6.7,6.7s6.7-3,6.7-6.7C130.3,65.9,127.3,62.9,123.6,62.9z"/>
			<circle class="st6" cx="131.7" cy="77.7" r="8.1"/>
			<path class="st2" d="M131.7,87.1c-5.2,0-9.4-4.2-9.4-9.4c0-5.2,4.2-9.4,9.4-9.4c5.2,0,9.4,4.2,9.4,9.4
				C141.1,82.8,136.9,87.1,131.7,87.1z M131.7,71c-3.7,0-6.7,3-6.7,6.7s3,6.7,6.7,6.7s6.7-3,6.7-6.7S135.4,71,131.7,71z"/>
			<circle class="st7" cx="102.2" cy="66.9" r="8.1"/>
			<path class="st2" d="M102.2,76.3c-5.2,0-9.4-4.2-9.4-9.4c0-5.2,4.2-9.4,9.4-9.4c5.2,0,9.4,4.2,9.4,9.4
				C111.6,72.1,107.3,76.3,102.2,76.3z M102.2,60.2c-3.7,0-6.7,3-6.7,6.7s3,6.7,6.7,6.7c3.7,0,6.7-3,6.7-6.7S105.9,60.2,102.2,60.2z
				"/>
			<circle class="st4" cx="80.7" cy="75" r="8.1"/>
			<path class="st2" d="M80.7,84.4c-5.2,0-9.4-4.2-9.4-9.4c0-5.2,4.2-9.4,9.4-9.4c5.2,0,9.4,4.2,9.4,9.4
				C90.1,80.2,85.9,84.4,80.7,84.4z M80.7,68.3c-3.7,0-6.7,3-6.7,6.7c0,3.7,3,6.7,6.7,6.7c3.7,0,6.7-3,6.7-6.7
				C87.4,71.3,84.4,68.3,80.7,68.3z"/>
			<circle class="st6" cx="91.4" cy="75" r="8.1"/>
			<path class="st2" d="M91.4,84.4c-5.2,0-9.4-4.2-9.4-9.4c0-5.2,4.2-9.4,9.4-9.4c5.2,0,9.4,4.2,9.4,9.4
				C100.8,80.2,96.6,84.4,91.4,84.4z M91.4,68.3c-3.7,0-6.7,3-6.7,6.7c0,3.7,3,6.7,6.7,6.7c3.7,0,6.7-3,6.7-6.7
				C98.1,71.3,95.1,68.3,91.4,68.3z"/>
			<circle class="st7" cx="104.8" cy="80.4" r="8.1"/>
			<path class="st2" d="M104.8,89.7c-5.2,0-9.4-4.2-9.4-9.4c0-5.2,4.2-9.4,9.4-9.4c5.2,0,9.4,4.2,9.4,9.4
				C114.2,85.5,110,89.7,104.8,89.7z M104.8,73.6c-3.7,0-6.7,3-6.7,6.7s3,6.7,6.7,6.7s6.7-3,6.7-6.7S108.5,73.6,104.8,73.6z"/>
			<circle class="st7" cx="120.9" cy="77.7" r="8.1"/>
			<path class="st2" d="M120.9,87.1c-5.2,0-9.4-4.2-9.4-9.4c0-5.2,4.2-9.4,9.4-9.4c5.2,0,9.4,4.2,9.4,9.4
				C130.3,82.8,126.1,87.1,120.9,87.1z M120.9,71c-3.7,0-6.7,3-6.7,6.7s3,6.7,6.7,6.7c3.7,0,6.7-3,6.7-6.7S124.6,71,120.9,71z"/>
			<circle class="st7" cx="67.3" cy="75" r="8.1"/>
			<path class="st2" d="M67.3,84.4c-5.2,0-9.4-4.2-9.4-9.4c0-5.2,4.2-9.4,9.4-9.4c5.2,0,9.4,4.2,9.4,9.4
				C76.7,80.2,72.5,84.4,67.3,84.4z M67.3,68.3c-3.7,0-6.7,3-6.7,6.7c0,3.7,3,6.7,6.7,6.7c3.7,0,6.7-3,6.7-6.7
				C74,71.3,71,68.3,67.3,68.3z"/>
			<ellipse class="st7" cx="107.5" cy="150.1" rx="8.1" ry="5.4"/>
			<path class="st2" d="M107.5,156.8c-5.3,0-9.4-2.9-9.4-6.7s4.1-6.7,9.4-6.7c5.3,0,9.4,2.9,9.4,6.7S112.8,156.8,107.5,156.8z
				 M107.5,146.1c-3.6,0-6.7,1.8-6.7,4s3.1,4,6.7,4c3.6,0,6.7-1.8,6.7-4S111.2,146.1,107.5,146.1z"/>
			<ellipse class="st7" cx="91.4" cy="160.9" rx="8.1" ry="5.4"/>
			<path class="st2" d="M91.4,167.6c-5.3,0-9.4-2.9-9.4-6.7c0-3.8,4.1-6.7,9.4-6.7s9.4,2.9,9.4,6.7
				C100.8,164.6,96.7,167.6,91.4,167.6z M91.4,156.8c-3.6,0-6.7,1.8-6.7,4c0,2.2,3.1,4,6.7,4c3.6,0,6.7-1.8,6.7-4
				C98.1,158.7,95.1,156.8,91.4,156.8z"/>
			<ellipse class="st7" cx="120.9" cy="152.8" rx="8.1" ry="5.4"/>
			<path class="st2" d="M120.9,159.5c-5.3,0-9.4-2.9-9.4-6.7c0-3.8,4.1-6.7,9.4-6.7c5.3,0,9.4,2.9,9.4,6.7
				C130.3,156.6,126.2,159.5,120.9,159.5z M120.9,148.8c-3.6,0-6.7,1.8-6.7,4c0,2.2,3.1,4,6.7,4c3.6,0,6.7-1.8,6.7-4
				C127.7,150.6,124.6,148.8,120.9,148.8z"/>
			<rect x="25.7" y="81.7" class="st3" width="123.4" height="59"/>
			<path class="st2" d="M137,97.1h-28.3c-0.4,0-0.7-0.3-0.7-0.7s0.3-0.7,0.7-0.7H137c0.4,0,0.7,0.3,0.7,0.7S137.4,97.1,137,97.1z"/>
			<path class="st2" d="M69.6,97.1H47.3c-0.4,0-0.7-0.3-0.7-0.7s0.3-0.7,0.7-0.7h22.4c0.4,0,0.7,0.3,0.7,0.7S70,97.1,69.6,97.1z"/>
			<path class="st2" d="M41.7,97.1H27c-0.4,0-0.7-0.3-0.7-0.7s0.3-0.7,0.7-0.7h14.6c0.4,0,0.7,0.3,0.7,0.7S42,97.1,41.7,97.1z"/>
			<path class="st2" d="M147.8,110.5h-42.4c-0.4,0-0.7-0.3-0.7-0.7s0.3-0.7,0.7-0.7h42.4c0.4,0,0.7,0.3,0.7,0.7
				S148.2,110.5,147.8,110.5z"/>
			<path class="st2" d="M49.8,32.7H30.3c-0.4,0-0.7-0.3-0.7-0.7c0-0.4,0.3-0.7,0.7-0.7h19.6c0.4,0,0.7,0.3,0.7,0.7
				C50.5,32.4,50.2,32.7,49.8,32.7z"/>
			<g>
				<path class="st2" d="M143.8,32.7H57.9c-0.4,0-0.7-0.3-0.7-0.7c0-0.4,0.3-0.7,0.7-0.7h85.9c0.4,0,0.7,0.3,0.7,0.7
					C144.4,32.4,144.1,32.7,143.8,32.7z"/>
			</g>
			<g>
				<path class="st2" d="M139.7,24.7h-25.5c-0.4,0-0.7-0.3-0.7-0.7s0.3-0.7,0.7-0.7h25.5c0.4,0,0.7,0.3,0.7,0.7
					S140.1,24.7,139.7,24.7z"/>
			</g>
			<g>
				<path class="st2" d="M107.5,24.7H33.7c-0.4,0-0.7-0.3-0.7-0.7s0.3-0.7,0.7-0.7h73.8c0.4,0,0.7,0.3,0.7,0.7
					S107.9,24.7,107.5,24.7z"/>
			</g>
			<g>
				<path class="st2" d="M72.4,110.5H59.3c-0.4,0-0.7-0.3-0.7-0.7s0.3-0.7,0.7-0.7h13.1c0.4,0,0.7,0.3,0.7,0.7
					S72.8,110.5,72.4,110.5z"/>
			</g>
			<g>
				<path class="st2" d="M54,110.5H27c-0.4,0-0.7-0.3-0.7-0.7s0.3-0.7,0.7-0.7H54c0.4,0,0.7,0.3,0.7,0.7S54.3,110.5,54,110.5z"/>
			</g>
			<g>
				<path class="st2" d="M147.8,124H100c-0.4,0-0.7-0.3-0.7-0.7s0.3-0.7,0.7-0.7h47.7c0.4,0,0.7,0.3,0.7,0.7S148.2,124,147.8,124z"
					/>
			</g>
			<g>
				<path class="st2" d="M75.5,124H27c-0.4,0-0.7-0.3-0.7-0.7s0.3-0.7,0.7-0.7h48.5c0.4,0,0.7,0.3,0.7,0.7S75.9,124,75.5,124z"/>
			</g>
			<g>
				<path class="st7" d="M39.1,123.8v-3c0-2.3-1.9-4.2-4.2-4.2h-6.5v10.7v10.7h10.7h10.7v-6.5c0-2.3-1.9-4.2-4.2-4.2h-3
					C40.7,127.3,39.1,125.7,39.1,123.8z"/>
				<path class="st2" d="M50.5,138.7H27.7v-22.8h7.2c2.7,0,4.9,2.2,4.9,4.9v3c0,1.6,1.3,2.9,2.9,2.9h3c2.7,0,4.9,2.2,4.9,4.9V138.7z
					 M29,137.4h20.1v-5.8c0-2-1.6-3.6-3.6-3.6h-3c-2.3,0-4.2-1.9-4.2-4.2v-3c0-2-1.6-3.6-3.6-3.6H29V137.4z"/>
			</g>
			<g>
				<path class="st7" d="M132.2,127.3h-3c-2.3,0-4.2,1.9-4.2,4.2v6.5h10.7h10.7v-10.7v-10.7h-6.5c-2.3,0-4.2,1.9-4.2,4.2v3
					C135.7,125.7,134.1,127.3,132.2,127.3z"/>
				<path class="st2" d="M147.1,138.7h-22.8v-7.2c0-2.7,2.2-4.9,4.9-4.9h3c1.6,0,2.9-1.3,2.9-2.9v-3c0-2.7,2.2-4.9,4.9-4.9h7.2
					V138.7z M125.6,137.4h20.1v-20.1h-5.8c-2,0-3.6,1.6-3.6,3.6v3c0,2.3-1.9,4.2-4.2,4.2h-3c-2,0-3.6,1.6-3.6,3.6L125.6,137.4z"/>
			</g>
			<g>
				<path class="st7" d="M103.5,83.4H74v16.5c0,1.7,0.8,3.2,2.2,4.2l3.6,2.4c1.2,0.8,1.4,2.6,0.4,3.7l-2.4,2.4
					c-1.3,1.3-1.3,3.4,0,4.7l8.7,8.9c1.3,1.3,3.3,1.3,4.6,0l8.7-8.9c1.3-1.3,1.3-3.4,0-4.7l-2.4-2.4c-1.1-1.1-0.9-2.9,0.4-3.7
					l3.6-2.4c1.4-0.9,2.2-2.5,2.2-4.2L103.5,83.4z"/>
				<path class="st2" d="M88.7,127.9c-1,0-2-0.4-2.8-1.2l-8.7-8.9c-1.5-1.5-1.5-4.1,0-5.6l2.4-2.4c0.4-0.4,0.5-0.9,0.5-1.4
					c-0.1-0.5-0.3-1-0.8-1.3l-3.6-2.4c-1.6-1-2.5-2.8-2.5-4.7V82.7h30.9v17.2c0,1.9-0.9,3.7-2.5,4.7l-3.6,2.4
					c-0.4,0.3-0.7,0.8-0.8,1.3c-0.1,0.5,0.1,1,0.5,1.4l2.4,2.4c1.5,1.5,1.5,4.1,0,5.6l-8.7,8.9C90.8,127.4,89.8,127.9,88.7,127.9z
					 M74.7,84v15.9c0,1.5,0.7,2.8,1.9,3.6l3.6,2.4c0.8,0.5,1.2,1.3,1.3,2.2c0.1,0.9-0.2,1.8-0.9,2.5l-2.4,2.4c-1,1-1,2.7,0,3.7
					l8.7,8.9c1,1,2.6,1,3.6,0l8.7-8.9c1-1,1-2.7,0-3.7l-2.4-2.4c-0.6-0.7-1-1.6-0.9-2.5c0.1-0.9,0.6-1.7,1.3-2.2l3.6-2.4
					c1.2-0.8,1.9-2.1,1.9-3.6V84L74.7,84L74.7,84z"/>
			</g>
			<g>
				<path class="st2" d="M138.4,57.5l10.7-13.4h-4.5l-9.3,11.3l-1.1,1.7l0.8,1.9l10.4,23.4V137H29.4V82.5l10.4-23.4l0.8-1.9
					l-1.1-1.7l-9.4-11.3h-4.5l10.8,13.4h0L25.7,81.7v59h123.4v-59L138.4,57.5L138.4,57.5z"/>
			</g>
			<g>
				<path class="st3" d="M88.7,115.2L88.7,115.2c-1.5,0-2.7-1.2-2.7-2.7v-10.7c0-1.5,1.2-2.7,2.7-2.7l0,0c1.5,0,2.7,1.2,2.7,2.7
					v10.7C91.4,114,90.2,115.2,88.7,115.2z"/>
				<path class="st2" d="M88.7,115.9c-1.8,0-3.4-1.5-3.4-3.4v-10.7c0-1.8,1.5-3.4,3.4-3.4c1.8,0,3.4,1.5,3.4,3.4v10.7
					C92.1,114.4,90.6,115.9,88.7,115.9z M88.7,99.8c-1.1,0-2,0.9-2,2v10.7c0,1.1,0.9,2,2,2s2-0.9,2-2v-10.7
					C90.8,100.7,89.9,99.8,88.7,99.8z"/>
			</g>
			<g>
				<rect x="27" y="81.7" class="st2" width="120.8" height="2.7"/>
			</g>
			<g>
				
					<rect x="56.5" y="59.9" transform="matrix(0.3253 -0.9456 0.9456 0.3253 -19.9477 102.3619)" class="st8" width="10.5" height="10.5"/>
				<path class="st9" d="M61.8,65.2l-3.2-6.7l-3.4,9.9l0,0L61.8,65.2z"/>
				<path class="st9" d="M61.7,65.1l3.2,6.7l3.4-9.9l0,0L61.7,65.1z"/>
				<path class="st2" d="M65,72.5c-0.1,0-0.1,0-0.2,0L54.9,69c-0.4-0.1-0.5-0.5-0.4-0.9l3.4-9.9c0.1-0.2,0.2-0.3,0.3-0.4
					c0.2-0.1,0.3-0.1,0.5,0l9.9,3.4c0.4,0.1,0.5,0.5,0.4,0.9L65.6,72c-0.1,0.2-0.2,0.3-0.3,0.4C65.2,72.5,65.1,72.5,65,72.5z M56,68
					l8.6,3l3-8.6l-8.6-3L56,68z"/>
			</g>
			<g>
				
					<rect x="91.7" y="52" transform="matrix(0.7071 -0.7071 0.7071 0.7071 -12.0524 85.3184)" class="st10" width="10.5" height="10.5"/>
				<path class="st11" d="M97,57.2v-7.4l-7.4,7.4h0H97z"/>
				<path class="st11" d="M96.9,57.2v7.4l7.4-7.4l0,0H96.9z"/>
				<path class="st2" d="M97,65.3c-0.2,0-0.3-0.1-0.5-0.2l-7.4-7.4c-0.3-0.3-0.3-0.7,0-0.9l7.4-7.4c0.3-0.3,0.7-0.3,0.9,0l7.4,7.4
					c0.3,0.3,0.3,0.7,0,0.9l-7.4,7.4C97.3,65.2,97.1,65.3,97,65.3z M90.5,57.2l6.5,6.5l6.5-6.5L97,50.8L90.5,57.2z"/>
			</g>
			<g>
				
					<rect x="109.4" y="65.6" transform="matrix(0.7071 -0.7071 0.7071 0.7071 -16.522 101.8049)" class="st10" width="10.5" height="10.5"/>
				<path class="st11" d="M114.6,70.8v-7.4l-7.4,7.4l0,0H114.6z"/>
				<path class="st11" d="M114.6,70.8v7.4l7.4-7.4l0,0H114.6z"/>
				<path class="st2" d="M114.6,78.9c-0.2,0-0.3-0.1-0.5-0.2l-7.4-7.4c-0.3-0.3-0.3-0.7,0-0.9l7.4-7.4c0.3-0.3,0.7-0.3,0.9,0
					l7.4,7.4c0.1,0.1,0.2,0.3,0.2,0.5s-0.1,0.3-0.2,0.5l-7.4,7.4C115,78.9,114.8,78.9,114.6,78.9z M108.2,70.8l6.5,6.5l6.5-6.5
					l-6.5-6.5L108.2,70.8z"/>
			</g>
			<g>
				<path class="st2" d="M99.5,90.4H87.6c-0.4,0-0.7-0.3-0.7-0.7c0-0.4,0.3-0.7,0.7-0.7h11.9c0.4,0,0.7,0.3,0.7,0.7
					C100.2,90.1,99.8,90.4,99.5,90.4z"/>
			</g>
			<g>
				<path class="st2" d="M83.2,90.4H78c-0.4,0-0.7-0.3-0.7-0.7c0-0.4,0.3-0.7,0.7-0.7h5.1c0.4,0,0.7,0.3,0.7,0.7
					C83.8,90.1,83.5,90.4,83.2,90.4z"/>
			</g>
			<g>
				<path class="st7" d="M87.4,28C80,28,74,33.9,74,41.1h26.8C100.8,33.9,94.8,28,87.4,28z"/>
				<path class="st2" d="M101.5,41.8H73.3v-0.7c0-7.6,6.3-13.8,14.1-13.8s14.1,6.2,14.1,13.8V41.8z M74.7,40.4h25.5
					c-0.4-6.5-5.9-11.7-12.7-11.7S75,33.9,74.7,40.4z"/>
			</g>
		</g>
	</g>
</g>
</svg>
