<?xml version="1.0" encoding="utf-8"?>
<!-- Generator: Adobe Illustrator 24.0.1, SVG Export Plug-In . SVG Version: 6.00 Build 0)  -->
<svg version="1.1" id="Слой_1" xmlns="http://www.w3.org/2000/svg" xmlns:xlink="http://www.w3.org/1999/xlink" x="0px" y="0px"
	 viewBox="0 0 172 172" style="enable-background:new 0 0 172 172;" xml:space="preserve">
<style type="text/css">
	.st0{fill:none;}
	.st1{fill:url(#SVGID_1_);}
	.st2{fill:#554494;}
	.st3{fill:#FFFFFF;}
</style>
<g>
	<path class="st0" d="M0,172V0h172v172H0z"/>
	<g>
		
			<linearGradient id="SVGID_1_" gradientUnits="userSpaceOnUse" x1="86" y1="153.6145" x2="86" y2="21.3869" gradientTransform="matrix(1 0 0 -1 0 171.8898)">
			<stop  offset="0" style="stop-color:#FFD782"/>
			<stop  offset="0.161" style="stop-color:#FED57C"/>
			<stop  offset="0.372" style="stop-color:#FCCE6C"/>
			<stop  offset="0.61" style="stop-color:#F9C351"/>
			<stop  offset="0.867" style="stop-color:#F4B42B"/>
			<stop  offset="1" style="stop-color:#F1AB15"/>
		</linearGradient>
		<path class="st1" d="M153.9,150.5H18.1c-2.6,0.1-5.1-1.3-6.4-3.6s-1.3-5.1,0.1-7.3l68-117.8c1.3-2.2,3.6-3.6,6.2-3.6
			s4.9,1.4,6.2,3.6l68,117.8c1.4,2.2,1.4,5,0.1,7.3C158.9,149.2,156.5,150.6,153.9,150.5z"/>
		<g>
			<path class="st2" d="M153.9,150.5H18.1c-2.6,0.1-5.1-1.3-6.4-3.6s-1.3-5.1,0.1-7.3l68-117.8c1.3-2.2,3.6-3.6,6.2-3.6
				s4.9,1.4,6.2,3.6l68,117.8c1.4,2.2,1.4,5,0.1,7.3C158.9,149.2,156.5,150.6,153.9,150.5z"/>
			<path class="st2" d="M153.9,150.5H18.1c-2.6,0.1-5.1-1.3-6.4-3.6s-1.3-5.1,0.1-7.3l68-117.8c1.3-2.2,3.6-3.6,6.2-3.6
				s4.9,1.4,6.2,3.6l68,117.8c1.4,2.2,1.4,5,0.1,7.3C158.9,149.2,156.5,150.6,153.9,150.5z"/>
			<path class="st2" d="M153.9,150.5H18.1c-2.6,0.1-5.1-1.3-6.4-3.6s-1.3-5.1,0.1-7.3l68-117.8c1.3-2.2,3.6-3.6,6.2-3.6
				s4.9,1.4,6.2,3.6l68,117.8c1.4,2.2,1.4,5,0.1,7.3C158.9,149.2,156.5,150.6,153.9,150.5z"/>
		</g>
		<path class="st3" d="M93.2,125.4c0,4-3.2,7.2-7.2,7.2s-7.2-3.2-7.2-7.2c0-4,3.2-7.2,7.2-7.2S93.2,121.5,93.2,125.4z M89.3,60.9
			h-6.6c-1,0-1.9,0.4-2.6,1.1c-0.7,0.7-1,1.7-1,2.7l3.1,43c0.1,1.9,1.7,3.3,3.6,3.3h0.5c1.9,0,3.4-1.4,3.6-3.3l3.1-43
			c0.1-1-0.3-2-1-2.7C91.3,61.3,90.3,60.9,89.3,60.9z"/>
	</g>
</g>
</svg>
