<svg version="1.1" id="Слой_1" xmlns="http://www.w3.org/2000/svg" x="0" y="0" viewBox="0 0 172 172" xml:space="preserve"><style>.st2{fill:#554494}</style><path d="M0 172V0h172v172H0z" fill="none"/><linearGradient id="SVGID_1_" gradientUnits="userSpaceOnUse" x1="86" y1="153.614" x2="86" y2="21.387" gradientTransform="matrix(1 0 0 -1 0 171.89)"><stop offset="0" stop-color="#ffd782"/><stop offset=".161" stop-color="#fed57c"/><stop offset=".372" stop-color="#fcce6c"/><stop offset=".61" stop-color="#f9c351"/><stop offset=".867" stop-color="#f4b42b"/><stop offset="1" stop-color="#f1ab15"/></linearGradient><path d="M153.9 150.5H18.1c-2.6.1-5.1-1.3-6.4-3.6s-1.3-5.1.1-7.3l68-117.8c1.3-2.2 3.6-3.6 6.2-3.6s4.9 1.4 6.2 3.6l68 117.8c1.4 2.2 1.4 5 .1 7.3-1.4 2.3-3.8 3.7-6.4 3.6z" fill="url(#SVGID_1_)"/><path class="st2" d="M153.9 150.5H18.1c-2.6.1-5.1-1.3-6.4-3.6s-1.3-5.1.1-7.3l68-117.8c1.3-2.2 3.6-3.6 6.2-3.6s4.9 1.4 6.2 3.6l68 117.8c1.4 2.2 1.4 5 .1 7.3-1.4 2.3-3.8 3.7-6.4 3.6z"/><path class="st2" d="M153.9 150.5H18.1c-2.6.1-5.1-1.3-6.4-3.6s-1.3-5.1.1-7.3l68-117.8c1.3-2.2 3.6-3.6 6.2-3.6s4.9 1.4 6.2 3.6l68 117.8c1.4 2.2 1.4 5 .1 7.3-1.4 2.3-3.8 3.7-6.4 3.6z"/><path class="st2" d="M153.9 150.5H18.1c-2.6.1-5.1-1.3-6.4-3.6s-1.3-5.1.1-7.3l68-117.8c1.3-2.2 3.6-3.6 6.2-3.6s4.9 1.4 6.2 3.6l68 117.8c1.4 2.2 1.4 5 .1 7.3-1.4 2.3-3.8 3.7-6.4 3.6z"/><path d="M93.2 125.4c0 4-3.2 7.2-7.2 7.2s-7.2-3.2-7.2-7.2 3.2-7.2 7.2-7.2 7.2 3.3 7.2 7.2zm-3.9-64.5h-6.6c-1 0-1.9.4-2.6 1.1-.7.7-1 1.7-1 2.7l3.1 43c.1 1.9 1.7 3.3 3.6 3.3h.5c1.9 0 3.4-1.4 3.6-3.3l3.1-43c.1-1-.3-2-1-2.7-.7-.7-1.7-1.1-2.7-1.1z" fill="#fff"/></svg>